<svg xmlns="http://www.w3.org/2000/svg"  viewBox="0 0 64 64" width="64px" height="64px"><path d="M 17.890625 1.003906 C 17.761719 1.019531 17.632813 1.058594 17.515625 1.125 C 17.03125 1.394531 16.859375 2.003906 17.125 2.484375 L 19.359375 6.507813 C 15.78125 9.4375 13.210938 13.597656 12.34375 18.4375 C 12.183594 19.328125 12.421875 20.234375 13 20.925781 C 13.566406 21.609375 14.40625 22 15.296875 22 L 48.703125 22 C 49.59375 22 50.433594 21.609375 51 20.925781 C 51.578125 20.238281 51.816406 19.332031 51.65625 18.441406 C 50.789063 13.597656 48.21875 9.4375 44.640625 6.511719 L 46.875 2.484375 C 47.140625 2.003906 46.96875 1.394531 46.484375 1.125 C 46.003906 0.855469 45.394531 1.03125 45.125 1.515625 L 43.011719 5.320313 C 39.835938 3.21875 36.046875 2 32 2 C 27.953125 2 24.164063 3.21875 20.988281 5.320313 L 18.875 1.515625 C 18.671875 1.152344 18.28125 0.960938 17.890625 1.003906 Z M 32 4 C 40.710938 4 48.152344 10.222656 49.6875 18.796875 C 49.746094 19.101563 49.664063 19.410156 49.46875 19.644531 C 49.355469 19.777344 49.109375 20 48.703125 20 L 15.296875 20 C 14.890625 20 14.644531 19.777344 14.53125 19.644531 C 14.335938 19.410156 14.253906 19.101563 14.308594 18.796875 C 15.847656 10.222656 23.289063 4 32 4 Z M 24 10 C 22.347656 10 21 11.347656 21 13 C 21 14.652344 22.347656 16 24 16 C 25.652344 16 27 14.652344 27 13 C 27 11.347656 25.652344 10 24 10 Z M 40 10 C 38.347656 10 37 11.347656 37 13 C 37 14.652344 38.347656 16 40 16 C 41.652344 16 43 14.652344 43 13 C 43 11.347656 41.652344 10 40 10 Z M 24 11.6875 C 24.722656 11.6875 25.3125 12.273438 25.3125 13 C 25.3125 13.726563 24.722656 14.3125 24 14.3125 C 23.277344 14.3125 22.6875 13.726563 22.6875 13 C 22.6875 12.273438 23.277344 11.6875 24 11.6875 Z M 40 11.75 C 40.6875 11.75 41.25 12.308594 41.25 13 C 41.25 13.691406 40.6875 14.25 40 14.25 C 39.3125 14.25 38.75 13.691406 38.75 13 C 38.75 12.308594 39.3125 11.75 40 11.75 Z M 6 22 C 3.792969 22 2 23.792969 2 26 L 2 42 C 2 44.207031 3.792969 46 6 46 C 8.207031 46 10 44.207031 10 42 L 10 26 C 10 23.792969 8.207031 22 6 22 Z M 58 22 C 55.792969 22 54 23.792969 54 26 L 54 42 C 54 44.207031 55.792969 46 58 46 C 60.207031 46 62 44.207031 62 42 L 62 26 C 62 23.792969 60.207031 22 58 22 Z M 6 24 C 7.101563 24 8 24.898438 8 26 L 8 42 C 8 43.101563 7.101563 44 6 44 C 4.898438 44 4 43.101563 4 42 L 4 26 C 4 24.898438 4.898438 24 6 24 Z M 15 24 C 13.347656 24 12 25.347656 12 27 L 12 49 C 12 50.652344 13.347656 52 15 52 L 18 52 L 18 59 C 18 61.757813 20.242188 64 23 64 C 25.757813 64 28 61.757813 28 59 L 28 52 L 36 52 L 36 59 C 36 61.757813 38.242188 64 41 64 C 43.757813 64 46 61.757813 46 59 L 46 52 L 49 52 C 50.652344 52 52 50.652344 52 49 L 52 27 C 52 25.347656 50.652344 24 49 24 Z M 58 24 C 59.101563 24 60 24.898438 60 26 L 60 42 C 60 43.101563 59.101563 44 58 44 C 56.898438 44 56 43.101563 56 42 L 56 26 C 56 24.898438 56.898438 24 58 24 Z M 15 26 L 49 26 C 49.550781 26 50 26.449219 50 27 L 50 49 C 50 49.550781 49.550781 50 49 50 L 45 50 C 44.449219 50 44 50.445313 44 51 L 44 59 C 44 60.652344 42.652344 62 41 62 C 39.347656 62 38 60.652344 38 59 L 38 51 C 38 50.445313 37.550781 50 37 50 L 27 50 C 26.449219 50 26 50.445313 26 51 L 26 59 C 26 60.652344 24.652344 62 23 62 C 21.347656 62 20 60.652344 20 59 L 20 51 C 20 50.445313 19.550781 50 19 50 L 15 50 C 14.449219 50 14 49.550781 14 49 L 14 27 C 14 26.449219 14.449219 26 15 26 Z M 17 28 C 16.449219 28 16 28.445313 16 29 L 16 31 C 16 31.554688 16.449219 32 17 32 C 17.550781 32 18 31.554688 18 31 L 18 29 C 18 28.445313 17.550781 28 17 28 Z M 22 28 C 21.449219 28 21 28.445313 21 29 L 21 31 C 21 31.554688 21.449219 32 22 32 C 22.550781 32 23 31.554688 23 31 L 23 29 C 23 28.445313 22.550781 28 22 28 Z M 27 28 C 26.449219 28 26 28.445313 26 29 L 26 31 C 26 31.554688 26.449219 32 27 32 C 27.550781 32 28 31.554688 28 31 L 28 29 C 28 28.445313 27.550781 28 27 28 Z M 32 28 C 31.449219 28 31 28.445313 31 29 L 31 31 C 31 31.554688 31.449219 32 32 32 C 32.550781 32 33 31.554688 33 31 L 33 29 C 33 28.445313 32.550781 28 32 28 Z M 37 28 C 36.449219 28 36 28.445313 36 29 L 36 31 C 36 31.554688 36.449219 32 37 32 C 37.550781 32 38 31.554688 38 31 L 38 29 C 38 28.445313 37.550781 28 37 28 Z M 42 28 C 41.449219 28 41 28.445313 41 29 L 41 31 C 41 31.554688 41.449219 32 42 32 C 42.550781 32 43 31.554688 43 31 L 43 29 C 43 28.445313 42.550781 28 42 28 Z M 47 28 C 46.449219 28 46 28.445313 46 29 L 46 31 C 46 31.554688 46.449219 32 47 32 C 47.550781 32 48 31.554688 48 31 L 48 29 C 48 28.445313 47.550781 28 47 28 Z M 17 46 C 16.449219 46 16 46.445313 16 47 C 16 47.554688 16.449219 48 17 48 L 39 48 C 39.550781 48 40 47.554688 40 47 C 40 46.445313 39.550781 46 39 46 Z M 43 46 C 42.449219 46 42 46.445313 42 47 C 42 47.554688 42.449219 48 43 48 L 47 48 C 47.550781 48 48 47.554688 48 47 C 48 46.445313 47.550781 46 47 46 Z"/></svg>