<?xml version="1.0" encoding="UTF-8"?>
<svg version="1.1" xmlns="http://www.w3.org/2000/svg" width="1200" height="628">
<path d="M0 0 C396 0 792 0 1200 0 C1200 207.24 1200 414.48 1200 628 C804 628 408 628 0 628 C0 420.76 0 213.52 0 0 Z " fill="#F2F7FE" transform="translate(0,0)"/>
<path d="M0 0 C1.07266113 0.13100098 2.14532227 0.26200195 3.25048828 0.39697266 C4.48726318 0.53167969 5.72403809 0.66638672 6.99829102 0.80517578 C7.99866898 0.92977173 7.99866898 0.92977173 9.01925659 1.05688477 C11.21913313 1.32135392 13.41933885 1.53608346 15.62573242 1.73876953 C19.62481425 2.10692796 23.61907032 2.51083574 27.61303711 2.93066406 C29.26358391 3.10216222 30.91464658 3.26876028 32.56616211 3.43066406 C34.99474269 3.66896152 37.4214003 3.92197254 39.84814453 4.17822266 C40.57742661 4.24709686 41.30670868 4.31597107 42.05809021 4.38693237 C46.91442487 4.92233841 50.76722088 6.08230733 55.13330078 8.31103516 C59.31962969 16.68369298 55.5241509 31.1153886 54.32080078 40.12353516 C53.93262681 43.03333569 53.54644862 45.94337239 53.16455078 48.85400391 C53.06949753 49.5730188 52.97444427 50.29203369 52.87651062 51.03283691 C52.30316856 55.51757225 51.94119376 59.96750738 51.72705078 64.48681641 C51.00784406 77.21037398 49.15258381 84.52082109 39.49145508 93.25292969 C34.6213695 97.31103516 34.6213695 97.31103516 32.13330078 97.31103516 C32.13330078 97.97103516 32.13330078 98.63103516 32.13330078 99.31103516 C30.21923828 101.08837891 30.21923828 101.08837891 27.50830078 103.24853516 C25.99623047 104.45509766 25.99623047 104.45509766 24.45361328 105.68603516 C23.64005371 106.32798828 23.64005371 106.32798828 22.81005859 106.98291016 C21.1347327 108.30990096 19.47308632 109.65256229 17.81298828 110.99853516 C-10.97376898 134.18775239 -45.13050306 153.08530961 -81.86669922 159.31103516 C-83.57607914 159.68123517 -85.28453392 160.05575314 -86.99169922 160.43603516 C-135.51149863 169.94972131 -190.9558192 153.86350918 -231.50341797 127.10913086 C-239.40309587 121.70332229 -246.72513061 115.67273811 -253.86669922 109.31103516 C-254.37152832 108.86791992 -254.87635742 108.42480469 -255.39648438 107.96826172 C-277.32339673 88.69510409 -294.9734132 65.04224714 -306.86669922 38.31103516 C-306.86669922 37.65103516 -306.86669922 36.99103516 -306.86669922 36.31103516 C-302.28903378 37.05936145 -298.02535378 38.56180413 -293.67138672 40.11181641 C-292.48925095 40.52828682 -292.48925095 40.52828682 -291.28323364 40.95317078 C-288.76826156 41.84013659 -286.25499175 42.73182283 -283.74169922 43.62353516 C-282.07513771 44.21172381 -280.40847199 44.7996173 -278.74169922 45.38720703 C-271.13699081 48.07197389 -263.53862317 50.76159634 -256 53.62841797 C-252.70880072 54.68154147 -250.29109534 54.81042626 -246.86669922 54.31103516 C-244.12348057 52.14987935 -243.13789749 49.92545982 -241.99731445 46.671875 C-241.49680824 45.26559341 -241.49680824 45.26559341 -240.9861908 43.8309021 C-240.46104637 42.31673203 -240.46104637 42.31673203 -239.92529297 40.77197266 C-239.37277611 39.21707626 -239.37277611 39.21707626 -238.80909729 37.63076782 C-237.63267555 34.31866441 -236.46733283 31.00282648 -235.30419922 27.68603516 C-234.13704607 24.3622746 -232.96739209 21.03952715 -231.78858948 17.71987915 C-231.05486302 15.65346587 -230.32791612 13.58463098 -229.60826111 11.51327515 C-229.11248314 10.11645004 -229.11248314 10.11645004 -228.60668945 8.69140625 C-228.31817612 7.86772552 -228.02966278 7.0440448 -227.73240662 6.19540405 C-226.86669922 4.31103516 -226.86669922 4.31103516 -224.86669922 3.31103516 C-224.54958984 3.94267578 -224.23248047 4.57431641 -223.90576172 5.22509766 C-209.32609894 33.17616387 -185.68387967 54.2972335 -155.70654297 64.43994141 C-122.33146057 74.6774151 -92.75048227 71.30772876 -61.92919922 55.37353516 C-44.8974564 45.56819426 -28.89632284 32.16472678 -16.42919922 16.99853516 C-15.67123047 16.07943359 -14.91326172 15.16033203 -14.13232422 14.21337891 C-11.81223186 11.32542735 -11.81223186 11.32542735 -9.78857422 8.12744141 C-4.53629623 0.49218544 -4.53629623 0.49218544 0 0 Z " fill="#2263AF" transform="translate(514.86669921875,360.68896484375)"/>
<path d="M0 0 C18.7459176 6.98377322 37.60274548 24.60471661 50 40 C50.82886719 41.00289062 51.65773438 42.00578125 52.51171875 43.0390625 C59.46501538 51.56789811 65.44514721 60.50789031 71 70 C71.5273877 70.88993652 71.5273877 70.88993652 72.06542969 71.79785156 C90.2540892 102.83170794 98.24634133 139.23589997 98.1875 174.9375 C98.18656342 175.67054352 98.18562683 176.40358704 98.18466187 177.15884399 C98.02106757 236.28085526 73.98368418 288.60055946 32.34448242 330.01733398 C27.21738443 335.00981466 21.99476544 339.8156908 16.375 344.25 C15.76116455 344.75732666 15.1473291 345.26465332 14.51489258 345.78735352 C11.20767701 348.26832468 8.89577895 349.3373643 4.72265625 348.9921875 C-0.60576005 348.04310572 -5.77197146 346.46760423 -10.9375 344.875 C-17.66733828 342.84045939 -24.39601182 340.86814456 -31.20703125 339.12109375 C-32.9715564 338.66597412 -32.9715564 338.66597412 -34.77172852 338.20166016 C-37.05199264 337.61874993 -39.33499303 337.04641856 -41.62084961 336.48583984 C-42.65862549 336.21852051 -43.69640137 335.95120117 -44.765625 335.67578125 C-45.68118164 335.44802002 -46.59673828 335.22025879 -47.54003906 334.9855957 C-50.46661807 333.81304713 -51.97999111 332.39900971 -54 330 C-56.13132427 324.16968318 -53.74412903 318.98425436 -51.875 313.375 C-49.13787515 304.83276421 -46.7039014 296.30108005 -44.68701172 287.56005859 C-42.68629481 279.10126352 -40.33099887 273.63359075 -33.4375 268.25 C-8.47734039 247.71670023 5.42725996 219.43708083 8.77294922 187.48486328 C10.37671833 169.93307614 8.10741169 151.54383168 2 135 C1.71511719 134.18144531 1.43023438 133.36289062 1.13671875 132.51953125 C-3.29946499 120.53988087 -9.58290456 109.59582083 -18 100 C-18.60199219 99.25492187 -19.20398438 98.50984375 -19.82421875 97.7421875 C-24.57916044 92.02030798 -30.00376951 87.6613331 -35.94921875 83.26171875 C-38.68570555 81.23300447 -41.35429037 79.1450373 -44 77 C-41.08378794 76.43506282 -38.16712673 75.8726853 -35.25 75.3125 C-34.3329126 75.13605957 -33.4158252 74.95961914 -32.47094727 74.77783203 C-26.82567668 73.70098581 -21.1743206 72.67327224 -15.51171875 71.69140625 C-13.62694824 71.36305786 -13.62694824 71.36305786 -11.70410156 71.02807617 C-9.21868952 70.59714039 -6.73236877 70.171409 -4.24511719 69.7512207 C-3.10075195 69.55230225 -1.95638672 69.35338379 -0.77734375 69.1484375 C0.24109619 68.97489746 1.25953613 68.80135742 2.30883789 68.62255859 C5.92005047 67.86612901 5.92005047 67.86612901 9 66 C10.4661906 60.55592947 9.73827688 55.88976719 8.671875 50.48828125 C8.52297318 49.68545715 8.37407135 48.88263306 8.22065735 48.05548096 C7.7400095 45.47258928 7.24487976 42.8926984 6.75 40.3125 C6.09266181 36.79779676 5.44296036 33.28169321 4.79296875 29.765625 C4.6340062 28.911465 4.47504364 28.05730499 4.31126404 27.17726135 C2.63888219 18.15183104 1.24171666 9.09409633 0 0 Z " fill="#FAB029" transform="translate(929,135)"/>
<path d="M0 0 C2.21914806 0.74448483 4.45883603 1.36679575 6.71923828 1.97314453 C13.10649237 3.87949421 18.98812406 6.74878629 24.96923828 9.66064453 C25.61763672 9.97195312 26.26603516 10.28326172 26.93408203 10.60400391 C34.75224012 14.36302233 42.30661932 18.25854225 49.55126953 23.05908203 C51.88215079 24.60296138 54.25645698 26.0405159 56.65673828 27.47314453 C58.29642578 28.55595703 58.29642578 28.55595703 59.96923828 29.66064453 C59.96923828 30.32064453 59.96923828 30.98064453 59.96923828 31.66064453 C60.68466797 31.90556641 61.40009766 32.15048828 62.13720703 32.40283203 C73.17530708 37.30527095 82.30626248 48.79042783 90.78173828 57.22314453 C91.33318512 57.76932434 91.88463196 58.31550415 92.45278931 58.87823486 C94.03324118 60.44701627 95.6060256 62.02305893 97.17626953 63.60205078 C98.09899658 64.52703369 99.02172363 65.4520166 99.97241211 66.4050293 C101.96923828 68.66064453 101.96923828 68.66064453 101.96923828 70.66064453 C101.22199493 70.6539827 100.47475159 70.64732086 99.7048645 70.64045715 C92.67120054 70.58040692 85.637625 70.53470133 78.60377693 70.50520802 C74.98736788 70.48953552 71.3711702 70.468269 67.75488281 70.43432617 C64.2665384 70.40178822 60.7783976 70.38380345 57.28991318 70.3760128 C55.30780059 70.36775184 53.32577019 70.34432366 51.34378052 70.320755 C50.14268646 70.32052841 48.94159241 70.32030182 47.70410156 70.32006836 C46.64264923 70.31340652 45.5811969 70.30674469 44.48757935 70.29988098 C43.65652679 70.41893295 42.82547424 70.53798492 41.96923828 70.66064453 C37.84511697 76.84682649 38.77536973 85.48799325 38.65283203 92.72314453 C38.62166039 94.27098633 38.62166039 94.27098633 38.58985901 95.85009766 C38.52489723 99.12021749 38.46572863 102.39041208 38.40673828 105.66064453 C38.36350221 107.88851659 38.31988636 110.11638132 38.27587891 112.34423828 C38.16927118 117.7829632 38.06740944 123.22176114 37.96923828 128.66064453 C35.0248634 127.25332739 33.10444517 125.99039147 30.93798828 123.53564453 C30.38103271 122.91633057 29.82407715 122.2970166 29.25024414 121.65893555 C28.66251221 120.99949951 28.07478027 120.34006348 27.46923828 119.66064453 C17.84919712 109.14519086 7.54266708 100.53324841 -5.03076172 93.66064453 C-5.64483887 93.32291016 -6.25891602 92.98517578 -6.89160156 92.63720703 C-35.0932362 77.4708996 -68.80154945 74.57738938 -99.50854492 83.42773438 C-121.08541698 90.18859926 -139.94655456 104.10361917 -154.03076172 121.66064453 C-154.36076172 122.32064453 -154.69076172 122.98064453 -155.03076172 123.66064453 C-157.96728516 124.22314453 -157.96728516 124.22314453 -161.89013672 124.66064453 C-162.5903595 124.74185547 -163.29058228 124.82306641 -164.01202393 124.90673828 C-166.26737607 125.16675726 -168.52388813 125.41421261 -170.78076172 125.66064453 C-173.71349458 125.99015062 -176.64562176 126.32481686 -179.57763672 126.66064453 C-180.29617325 126.74196625 -181.01470978 126.82328796 -181.75502014 126.90707397 C-187.27867146 127.54308821 -192.76415347 128.34898494 -198.25024414 129.25683594 C-209.36979464 130.87170437 -209.36979464 130.87170437 -213.07495117 128.17016602 C-215.77357459 124.70753337 -216.01217178 121.28338846 -216.44482422 117.04736328 C-216.54540131 116.20075638 -216.64597839 115.35414948 -216.74960327 114.48188782 C-217.06794731 111.77223177 -217.36239214 109.06060684 -217.65576172 106.34814453 C-217.85987314 104.56605746 -218.06558708 102.78415316 -218.27294922 101.00244141 C-218.57814128 98.37482331 -218.88095911 95.74709432 -219.17437744 93.11813354 C-219.76023836 87.87422363 -220.43655295 82.65415063 -221.17919922 77.43017578 C-221.47137322 75.17472753 -221.75630632 72.91831738 -222.03076172 70.66064453 C-222.14548828 69.78359863 -222.26021484 68.90655273 -222.37841797 68.00292969 C-222.71170279 63.61375374 -222.14860393 61.27809644 -219.31982422 57.85205078 C-218.12150169 56.61959512 -216.89872149 55.41056814 -215.65576172 54.22314453 C-215.0116333 53.57555176 -214.36750488 52.92795898 -213.70385742 52.26074219 C-212.41276283 50.96626735 -211.11285087 49.68051903 -209.80371094 48.40429688 C-208.32373096 46.94877263 -206.89152361 45.44487745 -205.47216797 43.93017578 C-175.69114707 12.29106692 -131.28979171 -4.32065827 -89.03076172 -9.33935547 C-87.99564453 -9.47083984 -86.96052734 -9.60232422 -85.89404297 -9.73779297 C-57.24441808 -12.76214709 -27.224797 -9.292367 0 0 Z " fill="#80AEDD" transform="translate(455.03076171875,118.33935546875)"/>
<path d="M0 0 C1.24797363 0.02835938 2.49594727 0.05671875 3.78173828 0.0859375 C5.15930404 0.13877904 6.53674802 0.19487677 7.9140625 0.25390625 C8.6243158 0.28315186 9.33456909 0.31239746 10.06634521 0.3425293 C14.64723997 0.54003746 19.22448134 0.78558669 23.80175781 1.0534668 C26.17488811 1.19203838 28.54832013 1.32400049 30.921875 1.45507812 C33.93519134 1.62358129 36.94726434 1.80456613 39.95898438 1.99951172 C42.3289889 2.15195275 44.69999962 2.29096729 47.07226562 2.40283203 C50.97424111 2.65049628 53.49902908 3.04037077 57.01171875 4.84765625 C59.59881208 8.12003713 59.54037094 10.76126632 59.3515625 14.75390625 C59.32980957 15.54128174 59.30805664 16.32865723 59.28564453 17.13989258 C59.22461512 19.0216329 59.14899602 20.90292723 59.06298828 22.78369141 C58.9519869 25.37020566 58.86213618 27.95287801 58.79248047 30.54052734 C58.68456721 34.53097469 58.54320193 38.5191692 58.3821106 42.5078125 C58.32045746 44.12029783 58.26735026 45.73313431 58.22311401 47.34619141 C57.95604966 56.49081489 57.73424407 63.51812806 50.9140625 70.25390625 C49.77962164 71.62685445 48.65753944 73.01009114 47.546875 74.40234375 C46.37919432 75.81251614 45.20988644 77.22134252 44.0390625 78.62890625 C39.56284728 84.03593554 35.11938593 89.46303544 30.75 94.95703125 C28.01583904 98.37764113 25.23493251 101.75941232 22.45703125 105.14453125 C20.57614197 107.43980278 18.70600846 109.74352306 16.83984375 112.05078125 C11.71756369 118.38105228 6.5795287 124.6881176 1.2890625 130.87890625 C-2.85508184 135.73324113 -6.82710877 140.69891036 -10.74609375 145.73608398 C-16.19969766 152.72351399 -21.86826396 159.53309534 -27.52001953 166.36035156 C-31.06121933 170.64247592 -34.57398521 174.94779389 -38.0859375 179.25390625 C-38.56885254 179.84494141 -39.05176758 180.43597656 -39.54931641 181.04492188 C-45.26858979 188.04667766 -50.96407934 195.06172994 -56.5234375 202.19140625 C-61.19836345 208.18593708 -66.01621474 214.05410903 -70.87011719 219.90429688 C-75.23120732 225.17424879 -79.48042031 230.52127658 -83.62304688 235.96484375 C-85.65564412 238.60121405 -87.28376757 240.38579296 -90.0859375 242.25390625 C-88.97216961 226.12464562 -87.35020597 210.09685124 -85.40722656 194.04956055 C-85.32024506 193.31929153 -85.23326355 192.58902252 -85.14364624 191.83662415 C-84.90621748 189.84559888 -84.66397111 187.85514978 -84.42138672 185.86474609 C-83.53148887 179.28327963 -83.53148887 179.28327963 -85.26693726 173.10949707 C-87.6422408 170.68641248 -89.07607041 170.60037409 -92.42773438 170.28076172 C-93.51896606 170.16739471 -94.61019775 170.05402771 -95.73449707 169.93722534 C-96.91265991 169.83290192 -98.09082275 169.72857849 -99.3046875 169.62109375 C-100.51411011 169.49832062 -101.72353271 169.37554749 -102.96960449 169.24905396 C-106.84023732 168.858476 -110.71266364 168.49228068 -114.5859375 168.12890625 C-118.45875336 167.75501561 -122.33090157 167.37592694 -126.20227051 166.98733521 C-128.61305531 166.74642134 -131.02477062 166.51461486 -133.43737793 166.29269409 C-134.52860962 166.18563141 -135.61984131 166.07856873 -136.74414062 165.96826172 C-137.70549927 165.87817841 -138.66685791 165.78809509 -139.65734863 165.69528198 C-142.0859375 165.25390625 -142.0859375 165.25390625 -145.0859375 163.25390625 C-144.54066406 162.65964844 -143.99539063 162.06539062 -143.43359375 161.453125 C-138.62801485 156.17109554 -134.02096041 150.77910845 -129.52734375 145.23046875 C-126.80063185 141.90606161 -124.01510791 138.63795248 -121.2109375 135.37890625 C-120.70925049 134.7955249 -120.20756348 134.21214355 -119.69067383 133.61108398 C-118.67075159 132.42511652 -117.65081338 131.2391628 -116.63085938 130.05322266 C-114.06528419 127.06518709 -111.51043488 124.06816525 -108.9609375 121.06640625 C-108.49961426 120.52580566 -108.03829102 119.98520508 -107.56298828 119.42822266 C-105.58730003 117.09859101 -103.78327369 114.79991054 -102.0859375 112.25390625 C-101.4259375 112.25390625 -100.7659375 112.25390625 -100.0859375 112.25390625 C-99.75722656 111.46113281 -99.75722656 111.46113281 -99.421875 110.65234375 C-97.59520331 107.37288055 -95.17484044 104.68626469 -92.7109375 101.87890625 C-91.62889522 100.63021789 -90.54686431 99.38151968 -89.46484375 98.1328125 C-88.33866112 96.83973971 -87.21235871 95.54677122 -86.0859375 94.25390625 C-83.93535861 91.77880735 -81.79068596 89.29871557 -79.6484375 86.81640625 C-79.1652002 86.26227051 -78.68196289 85.70813477 -78.18408203 85.13720703 C-75.81856294 82.39727742 -73.61376919 79.63219247 -71.55078125 76.65625 C-69.34921049 73.51003209 -66.84108869 70.93722068 -64.0859375 68.25390625 C-62.12642334 66.06095068 -60.23274714 63.81364291 -58.3359375 61.56640625 C-54.74807876 57.34354777 -51.13263633 53.16155576 -47.3984375 49.06640625 C-42.7618633 43.95364335 -38.41965706 38.62378564 -34.0859375 33.25390625 C-28.62041749 26.50413837 -23.10768998 19.79831086 -17.38305664 13.26586914 C-15.19521437 10.7655278 -13.13870836 8.33092013 -11.2578125 5.5859375 C-7.96098149 0.88212557 -5.7820002 -0.14708672 0 0 Z " fill="#FAB029" transform="translate(666.0859375,186.74609375)"/>
<path d="M0 0 C0.99051361 -0.00012085 1.98102722 -0.0002417 3.0015564 -0.00036621 C18.37865013 0.02632017 33.03149076 0.88672794 48.0625 4.375 C49.26422852 4.63917725 49.26422852 4.63917725 50.49023438 4.90869141 C57.14646097 6.38090193 63.60700702 8.12395417 69.97192383 10.57836914 C72.1212259 11.39737798 74.28617418 12.15815682 76.45703125 12.91796875 C77.93022241 13.46470666 79.40287779 14.01289038 80.875 14.5625 C81.62458984 14.81580078 82.37417969 15.06910156 83.14648438 15.33007812 C86.14886015 16.48112299 88.39993897 17.35722946 90.19140625 20.10913086 C92.04032411 24.73199196 92.77176462 29.6482715 93.4375 34.5625 C94.32310524 40.65329523 95.28392004 46.72135253 96.36328125 52.78125 C96.59160645 54.06620361 96.81993164 55.35115723 97.05517578 56.67504883 C97.51098261 59.22522876 97.97143752 61.77458321 98.43701172 64.32299805 C100.6868099 77.01582494 100.6868099 77.01582494 100.0625 82.375 C97.02854444 86.35864758 94.27492152 87.09484344 89.4375 87.92578125 C88.45885986 88.10080925 88.45885986 88.10080925 87.46044922 88.27937317 C86.05750859 88.52853455 84.65330433 88.77066458 83.24804688 89.00640869 C81.05252235 89.37668273 78.86221726 89.76971796 76.671875 90.16943359 C72.90509245 90.8539521 69.13468686 91.51473136 65.36181641 92.16479492 C63.03576453 92.56712435 60.71129184 92.97789515 58.38671875 93.38867188 C56.88290194 93.64895478 55.37899871 93.90873897 53.875 94.16796875 C53.19260254 94.28980026 52.51020508 94.41163177 51.80712891 94.53715515 C44.9411899 95.70055626 39.78051589 95.82936765 33.29931641 93.18115234 C6.00235059 83.34328058 -26.84305928 87.30420887 -52.63574219 99.26757812 C-63.4611754 104.47591129 -72.91836795 110.36285842 -81.9375 118.375 C-82.73414063 119.05175781 -83.53078125 119.72851562 -84.3515625 120.42578125 C-88.16524352 123.47591877 -88.16524352 123.47591877 -90.9375 127.375 C-91.5975 127.375 -92.2575 127.375 -92.9375 127.375 C-93.03862131 119.6560731 -92.97373643 112.01329743 -92.4375 104.3125 C-91.72937924 94.00703127 -91.84386604 83.69922394 -91.9375 73.375 C-94.5050902 72.5191366 -96.29262786 72.18292599 -98.93969727 72.00195312 C-99.74226456 71.94519409 -100.54483185 71.88843506 -101.37171936 71.82995605 C-102.24034103 71.77263306 -103.10896271 71.71531006 -104.00390625 71.65625 C-105.3651487 71.56204773 -105.3651487 71.56204773 -106.75389099 71.46594238 C-108.68467885 71.33304449 -110.61559745 71.20203482 -112.54663086 71.07275391 C-115.43696706 70.87922061 -118.32689849 70.68042223 -121.21679688 70.48046875 C-132.78573593 69.68654756 -144.35747476 68.98556193 -155.9375 68.375 C-151.523851 59.07857755 -141.83871349 52.61558361 -133.9375 46.375 C-132.50857422 45.20324219 -132.50857422 45.20324219 -131.05078125 44.0078125 C-106.78100399 24.55470038 -78.17868515 11.94590258 -48.125 4.5625 C-47.33867188 4.36744873 -46.55234375 4.17239746 -45.7421875 3.97143555 C-30.58765445 0.45718366 -15.48229449 -0.02907928 0 0 Z " fill="#FAB029" transform="translate(826.9375,108.625)"/>
<path d="M0 0 C6.62491561 -0.17541869 11.48335813 0.32678988 17.35009766 3.41796875 C18.70562764 4.06783107 20.06374878 4.71231425 21.42431641 5.3515625 C22.08351074 5.66464355 22.74270508 5.97772461 23.421875 6.30029297 C35.06478101 11.53945326 47.80112133 13.55553995 60.47509766 13.48046875 C61.47355713 13.4755542 62.4720166 13.47063965 63.50073242 13.46557617 C82.50072962 13.16886764 100.06272117 7.86216094 117.35009766 0.16796875 C116.00494569 7.3330017 114.34127919 14.37190298 112.47509766 21.41796875 C112.21188721 22.41779785 111.94867676 23.41762695 111.67749023 24.44775391 C105.78269395 46.73537246 105.78269395 46.73537246 104.35009766 48.16796875 C104.48192694 52.96240061 104.48192694 52.96240061 107.0168457 56.78222656 C109.80301077 58.43695848 112.35134959 59.17176019 115.49462891 59.96484375 C116.71875488 60.28050293 117.94288086 60.59616211 119.20410156 60.92138672 C119.85034485 61.08394958 120.49658813 61.24651245 121.16241455 61.41400146 C124.5468378 62.26674269 127.92291168 63.1512883 131.29931641 64.03515625 C131.97857178 64.2124527 132.65782715 64.38974915 133.35766602 64.57241821 C139.77223354 66.25711509 146.1315336 68.10797735 152.47509766 70.04296875 C153.42102783 70.32881836 154.36695801 70.61466797 155.34155273 70.90917969 C159.1929062 72.09530685 162.77557797 73.28520647 166.35009766 75.16796875 C121.30286797 102.39909152 66.6893013 112.2925608 15.19775391 100.41796875 C-12.30687257 93.60719335 -46.29094785 79.52692325 -66.64990234 59.16796875 C-66.88226631 56.68089148 -67.05422001 54.21570931 -67.18505859 51.72265625 C-67.22803574 50.96058868 -67.27101288 50.19852112 -67.31529236 49.4133606 C-67.40576977 47.78758144 -67.49387464 46.16166883 -67.57983398 44.53564453 C-67.70929078 42.10147534 -67.84790012 39.66796386 -67.98779297 37.234375 C-68.25030478 32.54704945 -68.45877692 27.85867863 -68.64990234 23.16796875 C-68.68428406 22.43324341 -68.71866577 21.69851807 -68.75408936 20.94152832 C-68.84462403 18.87378426 -68.90631307 16.80730538 -68.95849609 14.73828125 C-68.99644287 13.56281738 -69.03438965 12.38735352 -69.07348633 11.17626953 C-68.64990234 8.16796875 -68.64990234 8.16796875 -66.93359375 5.8046875 C-64.33896752 3.94512216 -62.96235983 3.59744455 -59.80224609 3.41015625 C-58.82151123 3.34296387 -57.84077637 3.27577148 -56.83032227 3.20654297 C-55.76015869 3.15256348 -54.68999512 3.09858398 -53.58740234 3.04296875 C-51.90384644 2.93686279 -51.90384644 2.93686279 -50.1862793 2.82861328 C-47.03534916 2.63408777 -43.88391892 2.45701931 -40.73168945 2.28515625 C-37.79373419 2.11977352 -34.85708448 1.93514171 -31.92027283 1.7507019 C-28.0596805 1.50873962 -24.19858713 1.27525838 -20.33740234 1.04296875 C-19.60149872 0.99831482 -18.86559509 0.95366089 -18.10739136 0.90765381 C-12.07359644 0.54666545 -6.03813665 0.27787545 0 0 Z " fill="#FAB02A" transform="translate(757.64990234375,417.83203125)"/>
<path d="M0 0 C0.33 0 0.66 0 1 0 C1.13575439 1.10698242 1.27150879 2.21396484 1.41137695 3.35449219 C2.91250894 15.57328412 4.44092393 27.7884639 6 40 C6.15936035 41.25167969 6.3187207 42.50335938 6.48291016 43.79296875 C6.84859455 46.61433446 7.23078365 49.43250443 7.625 52.25 C7.77255737 53.3961377 7.77255737 53.3961377 7.9230957 54.56542969 C8.65577024 59.9905128 8.65577024 59.9905128 12 64 C18.11945206 64.62287353 24.32223971 63.72807902 30.3828125 62.90625 C31.24131805 62.79526978 32.09982361 62.68428955 32.98434448 62.56994629 C35.69863261 62.21868801 38.41187271 61.86010686 41.125 61.5 C43.84531845 61.14034831 46.5658143 60.78247932 49.28707886 60.43005371 C50.97166513 60.21179841 52.65572982 59.98946392 54.33914185 59.7623291 C58.93840706 59.16537291 63.3620172 58.89179843 68 59 C67.40224964 62.68503247 66.34705805 65.60297005 64.6875 68.9375 C54.2247948 91.52605719 53.09268014 119.26521612 58.24609375 143.4140625 C60.63645791 154.78377389 60.63645791 154.78377389 57.9375 160.875 C55.34943477 167.04598562 53.19526444 173.27525469 51.14428711 179.64404297 C49.65417729 184.21466338 47.92074033 188.58748843 46 193 C44.98914292 195.83931916 44.02034495 198.68930424 43.0625 201.546875 C41.95112794 204.11283696 41.27730294 205.3936881 39 207 C34.36385845 208.16545033 31.47613393 207.84608831 27.0078125 206.234375 C25.89019531 205.83863281 24.77257812 205.44289063 23.62109375 205.03515625 C22.46738281 204.61105469 21.31367188 204.18695313 20.125 203.75 C18.40603516 203.13705078 18.40603516 203.13705078 16.65234375 202.51171875 C12.02509029 200.85570514 7.41388333 199.1636244 2.82421875 197.40625 C-0.1033891 196.29646806 -3.05870504 195.34363111 -6.05078125 194.421875 C-7.34532227 194.01001953 -7.34532227 194.01001953 -8.66601562 193.58984375 C-10.44368857 193.02571138 -12.22785255 192.48167283 -14.01757812 191.95703125 C-20.45540077 189.85468736 -20.45540077 189.85468736 -22.9140625 185.99609375 C-23.32006217 184.67681348 -23.67660697 183.34192143 -24 182 C-24.36629517 180.70328369 -24.36629517 180.70328369 -24.73999023 179.38037109 C-25.56790745 176.36916222 -26.32159619 173.34622632 -27.0625 170.3125 C-27.31837891 169.29994141 -27.57425781 168.28738281 -27.83789062 167.24414062 C-40.78727447 114.94727167 -33.72636618 55.02093258 -5.90625 8.3984375 C-1.65384615 1.65384615 -1.65384615 1.65384615 0 0 Z " fill="#81AEDD" transform="translate(223,195)"/>
<path d="M0 0 C3.73892951 1.50224846 5.54093605 3.60165298 8 6.75 C11.52684199 11.17731228 15.1170982 15.52487484 18.8125 19.8125 C19.56817261 20.69143921 19.56817261 20.69143921 20.33911133 21.58813477 C21.89162324 23.3930557 23.44558243 25.19672008 25 27 C31.32617776 34.33899921 37.60345133 41.70138961 43.72265625 49.21484375 C50.30284536 57.26231345 56.84447974 65.14391345 64.41796875 72.29296875 C66 74 66 74 66 76 C66.56203125 76.2578125 67.1240625 76.515625 67.703125 76.78125 C70.26704579 78.14169777 72.45226365 79.72788962 74.75 81.5 C75.54921875 82.1084375 76.3484375 82.716875 77.171875 83.34375 C77.77515625 83.8903125 78.3784375 84.436875 79 85 C79 85.66 79 86.32 79 87 C80.65 87.66 82.3 88.32 84 89 C84 89.66 84 90.32 84 91 C83.33982376 91.03536362 82.67964752 91.07072723 81.99946594 91.10716248 C75.07140485 91.47857496 68.14345997 91.85210191 61.21557617 92.22680664 C58.63682882 92.36601093 56.05805318 92.50469252 53.47924805 92.64282227 C49.75301513 92.84250625 46.02689105 93.04412698 42.30078125 93.24609375 C41.1648201 93.3065538 40.02885895 93.36701385 38.85847473 93.42930603 C33.18798797 93.73849206 27.52094615 94.08310417 21.85620117 94.48461914 C20.80446213 94.55902725 19.75272308 94.63343536 18.66911316 94.71009827 C15.90054107 94.9154077 15.90054107 94.9154077 13 96 C12.83436793 114.02586537 13.3033563 131.99101913 14 150 C8.54206556 146.06342233 3.50338922 141.8818886 -1.375 137.25 C-2.02275391 136.63946777 -2.67050781 136.02893555 -3.33789062 135.39990234 C-11.24695944 127.91691792 -18.99126425 120.34727414 -26 112 C-26.804375 111.05125 -27.60875 110.1025 -28.4375 109.125 C-30 107 -30 107 -30 105 C-30.66 105 -31.32 105 -32 105 C-33.55859375 103.3046875 -33.55859375 103.3046875 -35.4375 100.875 C-36.13746094 99.97523438 -36.83742188 99.07546875 -37.55859375 98.1484375 C-38.36425781 97.10945313 -39.16992188 96.07046875 -40 95 C-40.98899446 93.76150845 -41.97996625 92.52459394 -42.97265625 91.2890625 C-43.98187285 90.02612318 -44.99098824 88.76310298 -46 87.5 C-46.49298584 86.88882324 -46.98597168 86.27764648 -47.49389648 85.64794922 C-51 81.22642854 -51 81.22642854 -51 79 C-51.66 79 -52.32 79 -53 79 C-55.1875 76.8125 -55.1875 76.8125 -57 74 C-56.85020155 69.12322825 -54.04846956 66.27062525 -50.9375 62.8125 C-49.92730511 61.65589058 -48.9181982 60.49833004 -47.91015625 59.33984375 C-47.41273926 58.77249512 -46.91532227 58.20514648 -46.40283203 57.62060547 C-44.49814296 55.42023547 -42.68170848 53.15619758 -40.875 50.875 C-37.46915811 46.58157507 -34.00997297 42.33538299 -30.53515625 38.09765625 C-27.04458468 33.83729024 -23.57443746 29.560313 -20.10351562 25.28393555 C-17.18925926 21.69352057 -14.27172413 18.10586865 -11.34765625 14.5234375 C-10.7556543 13.79729248 -10.16365234 13.07114746 -9.55371094 12.32299805 C-8.41609125 10.92777098 -7.27746247 9.53336592 -6.13769531 8.13989258 C-5.62432617 7.50978271 -5.11095703 6.87967285 -4.58203125 6.23046875 C-4.13061768 5.67770264 -3.6792041 5.12493652 -3.21411133 4.55541992 C-2.07062785 3.09048261 -1.03084667 1.54627001 0 0 Z " fill="#81AEDC" transform="translate(666,318)"/>
<path d="M0 0 C1.15202408 -0.03220139 2.30404816 -0.06440277 3.49098206 -0.09757996 C8.08564526 -0.19376447 12.68029435 -0.27449647 17.27564335 -0.32803631 C20.75954756 -0.36891758 24.24062131 -0.42903601 27.72314453 -0.53710938 C31.74409297 -0.66145312 35.76219634 -0.70283362 39.78491211 -0.73950195 C41.02273941 -0.78797775 42.26056671 -0.83645355 43.53590393 -0.88639832 C48.70500414 -0.87551329 52.12344046 -0.81904745 56.26452637 2.46437073 C58.53782161 4.9703638 60.5453857 7.51349402 62.49975586 10.2722168 C63.31186523 11.23772461 64.12397461 12.20323242 64.96069336 13.19799805 C65.59233398 13.98561523 66.22397461 14.77323242 66.87475586 15.5847168 C70.19994787 19.69196616 73.57678895 23.74669849 76.99975586 27.7722168 C80.52001054 31.9222757 84.0291721 36.08047278 87.49975586 40.2722168 C88.20100586 41.1178418 88.90225586 41.9634668 89.62475586 42.8347168 C91.46188453 45.22298407 93.00604769 47.65822749 94.49975586 50.2722168 C93.04874846 52.11135375 91.58873927 53.94339209 90.12475586 55.7722168 C89.31264648 56.7931543 88.50053711 57.8140918 87.66381836 58.8659668 C86.94967773 59.6600293 86.23553711 60.4540918 85.49975586 61.2722168 C84.83975586 61.2722168 84.17975586 61.2722168 83.49975586 61.2722168 C83.25354492 61.82651367 83.00733398 62.38081055 82.75366211 62.9519043 C78.56606528 70.70091525 71.65877453 77.2562207 65.75756836 83.7331543 C62.59385483 87.29096362 59.61205998 90.98642935 56.61694336 94.6862793 C54.25455992 97.57169966 51.80641649 100.36566595 49.32788086 103.15112305 C46.2769607 106.69097272 43.40471092 110.37728265 40.51538086 114.04956055 C38.49975586 116.2722168 38.49975586 116.2722168 35.49975586 117.2722168 C34.91387695 116.22420898 34.91387695 116.22420898 34.31616211 115.1550293 C32.27388829 111.91374311 29.92919433 109.04328874 27.43725586 106.1472168 C26.95482422 105.58172119 26.47239258 105.01622559 25.9753418 104.43359375 C21.99379755 99.7908427 17.90088893 95.25882877 13.76538086 90.75268555 C11.81369303 88.61592387 9.89679821 86.45736138 7.99975586 84.2722168 C4.38379761 80.10786678 0.65870701 76.0460262 -3.07055664 71.9831543 C-4.27325195 70.64124023 -4.27325195 70.64124023 -5.50024414 69.2722168 C-6.36834717 68.49716797 -7.2364502 67.72211914 -8.13085938 66.92358398 C-12.07837988 62.12589441 -11.03861987 56.01375859 -10.84008789 50.1394043 C-10.81556046 48.87001007 -10.79103302 47.60061584 -10.76576233 46.29275513 C-10.7091572 43.6137479 -10.64314361 40.93713364 -10.56005859 38.2590332 C-10.45405438 34.83183549 -10.37884421 31.40486344 -10.3147192 27.97665215 C-10.25153819 24.69727964 -10.17086589 21.41838396 -10.09008789 18.1394043 C-10.06285141 16.91019257 -10.03561493 15.68098083 -10.0075531 14.41452026 C-9.97154495 13.27298492 -9.9355368 12.13144958 -9.8984375 10.95532227 C-9.87003281 9.95193817 -9.84162811 8.94855408 -9.81236267 7.9147644 C-9.49416301 5.22073097 -8.96327017 3.54274099 -7.50024414 1.2722168 C-4.9012374 -0.02728657 -2.91029188 0.0799945 0 0 Z " fill="#81AEDC" transform="translate(513.500244140625,198.727783203125)"/>
<path d="M0 0 C44.0126183 0 44.0126183 0 56 8 C56.886875 8.5775 57.77375 9.155 58.6875 9.75 C65.83325791 16.70262932 71.02127616 26.40080762 71.49609375 36.4375 C71.49739957 38.29176907 71.47774427 40.14616724 71.4375 42 C71.44458984 42.92039062 71.45167969 43.84078125 71.45898438 44.7890625 C71.35222147 56.4508564 67.72636165 65.96439227 59.9375 74.625 C43.74841421 89.80661049 20.42384846 86 0 86 C0 57.62 0 29.24 0 0 Z " fill="#2465B0" transform="translate(827,271)"/>
<path d="M0 0 C-1.54269924 4.72065967 -3.07794619 9.41664092 -5 14 C-8.77276152 13.50358401 -12.21342336 12.62783424 -15.8125 11.4375 C-21.41288198 9.74982867 -26.64855526 8.55346169 -32.19921875 10.94921875 C-39.14434272 15.01872762 -42.88752913 20.20554289 -45 28 C-45.40805378 31.51132864 -45.42060105 34.96845168 -45.375 38.5 C-45.38660156 39.39847656 -45.39820313 40.29695313 -45.41015625 41.22265625 C-45.37803239 48.57901997 -44.1743709 55.17057558 -39.125 60.875 C-38.65320313 61.42929687 -38.18140625 61.98359375 -37.6953125 62.5546875 C-32.11480563 67.31226248 -24.8855654 66.52965888 -18 66 C-14.76235668 65.35840516 -11.63033922 64.573932 -8.4609375 63.65625 C-6 63 -6 63 -3 63 C-3 67.95 -3 72.9 -3 78 C-14.45896017 82.70635864 -31.23584241 84.93466163 -43.0859375 80.0390625 C-54.6683078 73.75149005 -60.05761338 65.40830848 -64 53 C-67.41634028 39.80734006 -65.31396708 24.16063971 -59.3125 12.125 C-53.669485 2.60932765 -45.49737408 -2.25496352 -35.1015625 -5.61328125 C-23.26359631 -7.79164306 -10.56778895 -5.70814877 0 0 Z " fill="#2465B0" transform="translate(812,276)"/>
<path d="M0 0 C-1.54269924 4.72065967 -3.07794619 9.41664092 -5 14 C-8.77276152 13.50358401 -12.21342336 12.62783424 -15.8125 11.4375 C-21.41288198 9.74982867 -26.64855526 8.55346169 -32.19921875 10.94921875 C-39.14434272 15.01872762 -42.88752913 20.20554289 -45 28 C-45.40805378 31.51132864 -45.42060105 34.96845168 -45.375 38.5 C-45.38660156 39.39847656 -45.39820313 40.29695313 -45.41015625 41.22265625 C-45.37803239 48.57901997 -44.1743709 55.17057558 -39.125 60.875 C-38.65320313 61.42929687 -38.18140625 61.98359375 -37.6953125 62.5546875 C-32.11480563 67.31226248 -24.8855654 66.52965888 -18 66 C-14.76235668 65.35840516 -11.63033922 64.573932 -8.4609375 63.65625 C-6 63 -6 63 -3 63 C-3 67.95 -3 72.9 -3 78 C-14.45896017 82.70635864 -31.23584241 84.93466163 -43.0859375 80.0390625 C-54.6683078 73.75149005 -60.05761338 65.40830848 -64 53 C-67.41634028 39.80734006 -65.31396708 24.16063971 -59.3125 12.125 C-53.669485 2.60932765 -45.49737408 -2.25496352 -35.1015625 -5.61328125 C-23.26359631 -7.79164306 -10.56778895 -5.70814877 0 0 Z " fill="#2465B0" transform="translate(408,276)"/>
<path d="M0 0 C18.72 0 18.72 0 26.75 4.5625 C34.55782602 13.02097819 34.92661747 21.96529473 34.484375 33.03125 C33.93741959 40.43448488 31.58298742 45.87565683 26.125 50.9375 C16.64767997 57.19253122 12.44669191 56 0 56 C0 37.52 0 19.04 0 0 Z " fill="#EDF4FD" transform="translate(845,286)"/>
<path d="M0 0 C6.27 0 12.54 0 19 0 C19 28.38 19 56.76 19 86 C12.73 86 6.46 86 0 86 C0 57.62 0 29.24 0 0 Z " fill="#2B6AB3" transform="translate(423,271)"/>
<path d="M0 0 C6.04801071 0.54981916 11.30601106 1.90429574 17 4 C16.54663921 8.87362847 15.2910841 11.39042389 12 15 C9.625 14.6875 9.625 14.6875 7 14 C6.34 13.01 5.68 12.02 5 11 C3.02 11.33 1.04 11.66 -1 12 C-1.21703085 14.10297273 -1.21703085 14.10297273 0.390625 15.62109375 C4.94890885 20.09884524 4.94890885 20.09884524 10 24 C9.67 25.32 9.34 26.64 9 28 C2.73 28 -3.54 28 -10 28 C-9.505 26.515 -9.505 26.515 -9 25 C-7.02 25 -5.04 25 -3 25 C-1.81503452 20.10104783 -1.81503452 20.10104783 -3.4375 15.5625 C-3.953125 15.046875 -4.46875 14.53125 -5 14 C-3.9375 11.125 -3.9375 11.125 -2 8 C1.625 6.75 1.625 6.75 5 6 C5.33 5.34 5.66 4.68 6 4 C3.69 3.34 1.38 2.68 -1 2 C-0.67 1.34 -0.34 0.68 0 0 Z " fill="#FCF5E8" transform="translate(983,350)"/>
<path d="M0 0 C3.52744682 0.85916031 4.973663 2.54444741 6.97265625 5.48046875 C7.54432988 9.48218418 7.34204253 11.70811561 5.59765625 15.35546875 C3.97265625 17.48046875 3.97265625 17.48046875 1.97265625 18.48046875 C-5.04333391 19.04627441 -5.04333391 19.04627441 -8.52734375 17.04296875 C-10.77272769 13.20710452 -10.76743593 9.81309172 -10.02734375 5.48046875 C-7.71865016 0.76688599 -5.29714025 -0.36634428 0 0 Z " fill="#FCF5E9" transform="translate(845.02734375,144.51953125)"/>
<path d="M0 0 C2.4375 1.625 2.4375 1.625 4 4 C4.65217346 8.40217088 4.29634999 10.46657001 2.125 14.375 C-0.33527069 17.41415791 -1.00412248 17.86721633 -4.8125 18.375 C-8 18 -8 18 -10.875 15.9375 C-13.56064937 12.2249847 -13.71014811 10.49760469 -13 6 C-9.32454922 -0.61581141 -7.40337869 -1.65937798 0 0 Z " fill="#FCF6EB" transform="translate(754,458)"/>
<path d="M0 0 C2.36497439 1.86708505 3.66030715 3.32061431 5 6 C5.03831515 10.03841705 4.91798542 13.78825924 2.4375 17.0625 C-1.12205912 18.4315612 -4.2485286 18.79180646 -8 18 C-10.78596988 15.84087334 -11.76284548 14.26934136 -12.41015625 10.8046875 C-12.67321782 6.71711538 -12.55584956 4.69060096 -9.9375 1.4375 C-6.27235293 -0.35608261 -4.0338955 -0.58674844 0 0 Z " fill="#F3F7FB" transform="translate(369,141)"/>
<path d="M0 0 C1.90625 0.40234375 1.90625 0.40234375 4.40625 1.77734375 C6.69355387 5.78012552 6.70720999 9.89964974 5.90625 14.40234375 C4.65625 16.68359375 4.65625 16.68359375 2.90625 18.40234375 C-1.20763318 19.4327086 -4.97797792 19.02826467 -8.65625 16.96484375 C-10.81536954 13.11597848 -10.82942421 9.70910319 -10.09375 5.40234375 C-7.70808428 0.53160956 -5.15926114 -0.39464497 0 0 Z " fill="#FCF5E9" transform="translate(812.09375,468.59765625)"/>
<path d="M0 0 C2.6875 1.5625 2.6875 1.5625 4 4 C4.70930433 8.33463758 4.492403 10.25345351 2.0625 13.9375 C-2.03924848 16.69990204 -5.18941423 16.93339724 -10 16 C-12.5625 14.5625 -12.5625 14.5625 -14 12 C-14.59133511 8.19070175 -15.04961192 4.54679651 -12.8125 1.25 C-9.08849007 -1.31828271 -4.31079539 -0.56788921 0 0 Z " fill="#FCFAF3" transform="translate(1002,301)"/>
<path d="M0 0 C4.62 0 9.24 0 14 0 C14.33 1.65 14.66 3.3 15 5 C12.03 5 9.06 5 6 5 C6 6.65 6 8.3 6 10 C8.31 10 10.62 10 13 10 C13 11.32 13 12.64 13 14 C10.36 14 7.72 14 5 14 C5 15.98 5 17.96 5 20 C7.64 20.33 10.28 20.66 13 21 C13 22.32 13 23.64 13 25 C11.41676312 25.027193 9.83338938 25.04648306 8.25 25.0625 C6.92742187 25.07990234 6.92742187 25.07990234 5.578125 25.09765625 C3 25 3 25 -1 24 C-0.67 16.08 -0.34 8.16 0 0 Z " fill="#EDF3F8" transform="translate(375,458)"/>
<path d="M0 0 C3 1.9375 3 1.9375 5 5 C5.56450552 8.80713023 5.74465448 12.51069104 4 16 C-1.91492272 15.54775239 -7.35199888 14.8417395 -13 13 C-12.66176471 5.08529412 -12.66176471 5.08529412 -10.4375 1.4375 C-6.96687833 -0.60927688 -3.86012132 -0.85610611 0 0 Z " fill="#F5F8FB" transform="translate(232,276)"/>
<path d="M0 0 C10.24137931 -0.48768473 10.24137931 -0.48768473 13.625 1.6875 C15.21782512 4.36634225 15.92712498 5.86637395 16 9 C14.07368421 15.31403509 14.07368421 15.31403509 10.75 17.4375 C8 18 8 18 1 18 C0.67 12.06 0.34 6.12 0 0 Z " fill="#F7F9FC" transform="translate(377,139)"/>
<path d="M0 0 C3.81583348 0.0546681 5.05772207 0.25194213 8.375 2.375 C10.97753703 6.53905924 10.94442504 8.51402472 10.25 13.375 C8.37984906 15.80619623 6.96861655 17.01569173 4.25 18.375 C1.9170134 18.41522391 -0.41706666 18.41820247 -2.75 18.375 C-3.27769157 15.56362626 -3.797444 12.75119018 -4.3125 9.9375 C-4.53969727 8.73383789 -4.53969727 8.73383789 -4.77148438 7.50585938 C-5.14092908 5.4696176 -5.45029016 3.42266793 -5.75 1.375 C-4.10843264 -0.26656736 -2.25784199 0.08684008 0 0 Z " fill="#FCF7ED" transform="translate(776.75,146.625)"/>
<path d="M0 0 C-0.33 1.32 -0.66 2.64 -1 4 C-3.64 4 -6.28 4 -9 4 C-9.03525132 5.88658874 -9.03525132 5.88658874 -8 8 C-6.28985387 9.15585254 -4.54686037 10.07010759 -2.69140625 10.97265625 C-1 12 -1 12 1 15 C0.85971501 18.36683985 0.73809854 20.28689351 -1.73046875 22.671875 C-4.44296838 24.25922418 -6.06922681 24.34212033 -9.1875 24.25 C-10.50814453 24.22679687 -10.50814453 24.22679687 -11.85546875 24.203125 C-14 24 -14 24 -15 23 C-15.04063832 21.33382885 -15.042721 19.66611905 -15 18 C-14.37351562 18.0721875 -13.74703125 18.144375 -13.1015625 18.21875 C-11.87566406 18.35796875 -11.87566406 18.35796875 -10.625 18.5 C-9.40683594 18.63921875 -9.40683594 18.63921875 -8.1640625 18.78125 C-6.03087175 19.03352351 -6.03087175 19.03352351 -4 19 C-5.23115642 15.30653074 -6.12880649 15.13909926 -9.5 13.4375 C-13.89819724 11.20360551 -13.89819724 11.20360551 -15 9 C-15.56949153 2.73559322 -15.56949153 2.73559322 -13.5 0.0625 C-9.02826081 -1.83798916 -4.60676519 -1.5355884 0 0 Z " fill="#F4F7FB" transform="translate(408,459)"/>
<path d="M0 0 C2.4375 0 2.4375 0 5 1 C7.98626597 5.42791162 8 7.42676082 8 13 C-0.91 13.99 -0.91 13.99 -10 15 C-11.125 6 -11.125 6 -9 2 C-7.329375 2.061875 -7.329375 2.061875 -5.625 2.125 C-1.95633975 2.41121859 -1.95633975 2.41121859 0 0 Z " fill="#F0F5FA" transform="translate(227,335)"/>
<path d="M0 0 C6.43974581 0.62320121 12.67572401 1.64008262 19 3 C18.67 4.65 18.34 6.3 18 8 C15.69 7.67 13.38 7.34 11 7 C10.87625 8.27875 10.7525 9.5575 10.625 10.875 C10.06428535 15.98644221 9.08030341 20.97606474 8 26 C6.35 26 4.7 26 3 26 C3.46247533 18.80729161 4.25077067 11.9969173 6 5 C4.02 5 2.04 5 0 5 C0 3.35 0 1.7 0 0 Z " fill="#EFF4F9" transform="translate(354,454)"/>
<path d="M0 0 C0 1.32 0 2.64 0 4 C-1.98 4.33 -3.96 4.66 -6 5 C-5.855625 5.7734375 -5.71125 6.546875 -5.5625 7.34375 C-4.49595738 13.32823915 -3.76628363 18.92337435 -4 25 C-5.65 25 -7.3 25 -9 25 C-9.33774332 22.77149723 -9.6700187 20.54216533 -10 18.3125 C-10.185625 17.07113281 -10.37125 15.82976562 -10.5625 14.55078125 C-10.92100411 11.64113629 -11.08942256 8.92299978 -11 6 C-13.31 6 -15.62 6 -18 6 C-18 4.68 -18 3.36 -18 2 C-11.85221129 0.3722167 -6.35987804 -0.20190089 0 0 Z " fill="#F2F6FA" transform="translate(428,456)"/>
<path d="M0 0 C1.32 0.33 2.64 0.66 4 1 C4 5.29 4 9.58 4 14 C6.97 11.36 9.94 8.72 13 6 C14.32 6.66 15.64 7.32 17 8 C14.36 13.28 11.72 18.56 9 24 C8.34 23.67 7.68 23.34 7 23 C7.60698743 18.87248551 9.03810791 15.6678852 11 12 C8.03 14.64 5.06 17.28 2 20 C1.34 19.67 0.68 19.34 0 19 C0 15.04 0 11.08 0 7 C-1.65 9.97 -3.3 12.94 -5 16 C-5.66 16 -6.32 16 -7 16 C-6.40165275 11.85701333 -4.99335715 8.81805623 -2.9375 5.1875 C-2.11572266 3.72376953 -2.11572266 3.72376953 -1.27734375 2.23046875 C-0.85582031 1.49441406 -0.43429687 0.75835937 0 0 Z " fill="#FCF6EA" transform="translate(725,446)"/>
<path d="M0 0 C1.60875 -0.04125 3.2175 -0.0825 4.875 -0.125 C5.77992188 -0.14820313 6.68484375 -0.17140625 7.6171875 -0.1953125 C10 0 10 0 12 2 C12.21676408 5.39597063 12.08073852 7.75778445 11 11 C12.37492804 14.1668838 12.37492804 14.1668838 14 17 C11.18127263 16.61121002 10.22804402 16.29189635 8.4375 14 C7.963125 13.34 7.48875 12.68 7 12 C6.01 11.67 5.02 11.34 4 11 C4 13.31 4 15.62 4 18 C3.01 18 2.02 18 1 18 C0.67 12.06 0.34 6.12 0 0 Z " fill="#FCF6EA" transform="translate(822,469)"/>
<path d="M0 0 C2.375 1.125 2.375 1.125 3.75 4.125 C4.28625 5.115 4.8225 6.105 5.375 7.125 C8.96885054 8.10373538 8.96885054 8.10373538 12.375 8.125 C12.045 9.115 11.715 10.105 11.375 11.125 C8.075 11.125 4.775 11.125 1.375 11.125 C2.035 11.90875 2.695 12.6925 3.375 13.5 C5.375 16.125 5.375 16.125 5.375 18.125 C1.23686295 17.59323005 -0.89582318 15.34567834 -3.875 12.5625 C-4.76703125 11.73621094 -5.6590625 10.90992188 -6.578125 10.05859375 C-7.25359375 9.42050781 -7.9290625 8.78242188 -8.625 8.125 C-8.02913126 5.0485038 -7.66358125 4.16465295 -5.375 1.8125 C-2.625 0.125 -2.625 0.125 0 0 Z " fill="#FCF6EC" transform="translate(593.625,326.875)"/>
<path d="M0 0 C1.32 0.66 2.64 1.32 4 2 C2.68 6.29 1.36 10.58 0 15 C0.33 15.33 0.66 15.66 1 16 C1.47050781 15.566875 1.94101562 15.13375 2.42578125 14.6875 C3.04839844 14.130625 3.67101562 13.57375 4.3125 13 C4.92738281 12.443125 5.54226563 11.88625 6.17578125 11.3125 C8 10 8 10 11 10 C9.70500785 13.88497644 7.78215411 15.1145437 4.625 17.6875 C3.64789062 18.49574219 2.67078125 19.30398438 1.6640625 20.13671875 C-1 22 -1 22 -4 22 C-5.49828872 18.11764181 -4.43110582 15.56550712 -3.0625 11.75 C-2.68222656 10.67234375 -2.30195312 9.5946875 -1.91015625 8.484375 C-1.60980469 7.66453125 -1.30945313 6.8446875 -1 6 C-5.455 9.465 -5.455 9.465 -10 13 C-10.66 12.34 -11.32 11.68 -12 11 C-10.38050958 9.49405319 -8.75424026 7.99539332 -7.125 6.5 C-5.76761719 5.24703125 -5.76761719 5.24703125 -4.3828125 3.96875 C-2 2 -2 2 0 2 C0 1.34 0 0.68 0 0 Z " fill="#F4F8FB" transform="translate(559,251)"/>
<path d="M0 0 C1.86328125 0.1640625 1.86328125 0.1640625 4 1 C5.23046875 3.3984375 5.23046875 3.3984375 6.1875 6.375 C6.67283203 7.84066406 6.67283203 7.84066406 7.16796875 9.3359375 C7.44253906 10.21507812 7.71710937 11.09421875 8 12 C8.33 12.99 8.66 13.98 9 15 C9.99 11.04 10.98 7.08 12 3 C12.99 3 13.98 3 15 3 C13.68 8.94 12.36 14.88 11 21 C9.68 20.67 8.36 20.34 7 20 C5.76953125 17.6015625 5.76953125 17.6015625 4.8125 14.625 C4.48894531 13.64789063 4.16539062 12.67078125 3.83203125 11.6640625 C3.55746094 10.78492188 3.28289063 9.90578125 3 9 C2.67 8.01 2.34 7.02 2 6 C1.01 9.96 0.02 13.92 -1 18 C-1.66 17.67 -2.32 17.34 -3 17 C-2.48517081 11.147205 -1.54642808 5.6702363 0 0 Z " fill="#FCF5E9" transform="translate(763,462)"/>
<path d="M0 0 C5.94 0.33 11.88 0.66 18 1 C18 8.875 18 8.875 15 13 C12.6568787 12.74438677 10.32156597 12.40729228 8 12 C6.5216774 9.04335481 6.93967217 6.25770263 7 3 C4.69 3 2.38 3 0 3 C0 2.01 0 1.02 0 0 Z " fill="#FCF6EA" transform="translate(987,321)"/>
<path d="M0 0 C2.4375 1.5625 2.4375 1.5625 5 4 C5.8125 7.75 5.8125 7.75 6 11 C4.3125 12.5625 4.3125 12.5625 2 14 C-0.7948658 13.79038506 -2.59220113 13.24213058 -5 11.8125 C-7.10275403 10.70988249 -7.10275403 10.70988249 -9.75 11.875 C-10.86375 12.431875 -10.86375 12.431875 -12 13 C-12 12.01 -12 11.02 -12 10 C-9.62890625 7.7734375 -9.62890625 7.7734375 -6.5625 5.375 C-5.55316406 4.57835937 -4.54382813 3.78171875 -3.50390625 2.9609375 C-2.67761719 2.31382812 -1.85132813 1.66671875 -1 1 C-0.67 0.67 -0.34 0.34 0 0 Z " fill="#F6F9FC" transform="translate(530,216)"/>
<path d="M0 0 C4.60416626 0.60875755 8.56483324 1.84722956 12.875 3.5625 C14.02742187 4.01753906 15.17984375 4.47257812 16.3671875 4.94140625 C17.67042969 5.46541016 17.67042969 5.46541016 19 6 C18.67 6.66 18.34 7.32 18 8 C17.071875 7.938125 16.14375 7.87625 15.1875 7.8125 C12.08745247 7.75470649 12.08745247 7.75470649 10.0625 9.125 C8.47486985 11.92670027 9.25929824 13.96985644 10 17 C9.01 17.33 8.02 17.66 7 18 C5.63336613 15.56876731 4.2816133 13.13113837 2.9375 10.6875 C2.35258789 9.65206055 2.35258789 9.65206055 1.75585938 8.59570312 C0.75962517 6.77074312 -0.12752842 4.88726123 -1 3 C-0.67 2.01 -0.34 1.02 0 0 Z " fill="#FCF6E9" transform="translate(626,285)"/>
<path d="M0 0 C-0.69849772 3.9745504 -2.62892769 7.26574098 -4.5625 10.75 C-4.89185547 11.35199219 -5.22121094 11.95398438 -5.56054688 12.57421875 C-6.3696465 14.05170503 -7.18427662 15.52616036 -8 17 C-8.99 16.67 -9.98 16.34 -11 16 C-10.690625 14.329375 -10.690625 14.329375 -10.375 12.625 C-10.25125 11.42875 -10.1275 10.2325 -10 9 C-11.89755144 6.65026182 -11.89755144 6.65026182 -15.125 6.875 C-16.07375 6.91625 -17.0225 6.9575 -18 7 C-18 6.01 -18 5.02 -18 4 C-16.22934889 3.35366725 -14.45847247 2.7079517 -12.6875 2.0625 C-11.70136719 1.70285156 -10.71523438 1.34320313 -9.69921875 0.97265625 C-3.7609375 -1.1671875 -3.7609375 -1.1671875 0 0 Z " fill="#F3F7FB" transform="translate(554,243)"/>
<path d="M0 0 C2.97 0 5.94 0 9 0 C11 2 11 2 11.375 4.9375 C11 8 11 8 9.25 9.875 C7 11 7 11 3 11 C3 13.31 3 15.62 3 18 C2.01 18 1.02 18 0 18 C0 12.06 0 6.12 0 0 Z " fill="#FBF3E5" transform="translate(806,144)"/>
<path d="M0 0 C2.9375 0.9375 2.9375 0.9375 4.3125 2.625 C5.1159083 5.59761072 5.32876365 7.87260138 4.9375 10.9375 C3.25 12.875 3.25 12.875 0.9375 13.9375 C-1.6875 13.9375 -1.6875 13.9375 -4.0625 12.9375 C-5.97277646 9.66274035 -6.55664572 6.69300748 -6.0625 2.9375 C-4.29819987 -0.00300021 -3.45684579 -0.07054787 0 0 Z " fill="#86B1DE" transform="translate(366.0625,143.0625)"/>
<path d="M0 0 C6.875 0.875 6.875 0.875 8 2 C8.30935212 5.40287336 8.12565916 7.67887103 6.875 10.875 C5 13 5 13 1.9375 13.4375 C-1 13 -1 13 -3 11 C-3.51735644 6.34379204 -2.68362626 3.80180386 0 0 Z " fill="#FAB22E" transform="translate(747,460)"/>
<path d="M0 0 C2.3125 0.8125 2.3125 0.8125 3.3125 1.8125 C3.515625 3.7734375 3.515625 3.7734375 3.5625 6.1875 C3.60117187 7.37472656 3.60117187 7.37472656 3.640625 8.5859375 C3.3125 10.8125 3.3125 10.8125 1.9921875 12.6171875 C0.3125 13.8125 0.3125 13.8125 -2.8125 13.5625 C-5.6875 12.8125 -5.6875 12.8125 -6.6875 11.8125 C-7.27065335 4.69802916 -7.27065335 4.69802916 -5 1.25 C-2.6875 -0.1875 -2.6875 -0.1875 0 0 Z " fill="#FAB22F" transform="translate(844.6875,147.1875)"/>
<path d="M0 0 C3 0.25 3 0.25 5 2.25 C5.265625 4.34375 5.265625 4.34375 5.25 6.75 C5.25515625 7.5440625 5.2603125 8.338125 5.265625 9.15625 C5 11.25 5 11.25 3 13.25 C0 13.5625 0 13.5625 -3 13.25 C-5.71232939 9.18150591 -5.30699887 7.08523216 -5 2.25 C-3 0.25 -3 0.25 0 0 Z " fill="#FAB22E" transform="translate(810,471.75)"/>
<path d="M0 0 C2.43816585 -0.0809723 4.87364384 -0.14046972 7.3125 -0.1875 C8.34793945 -0.22520508 8.34793945 -0.22520508 9.40429688 -0.26367188 C14.47801241 -0.33720398 14.47801241 -0.33720398 16.953125 1.26171875 C18.19496337 3.3237265 18.43295384 4.59962615 18.4375 7 C18.46650391 8.0209375 18.46650391 8.0209375 18.49609375 9.0625 C18 11 18 11 16.42578125 12.73828125 C13.09311102 14.4716991 10.48285014 14.29119028 6.75 14.1875 C5.48671875 14.16042969 4.2234375 14.13335937 2.921875 14.10546875 C1.95765625 14.07066406 0.9934375 14.03585937 0 14 C0 13.01 0 12.02 0 11 C0.99902344 10.93941406 1.99804688 10.87882812 3.02734375 10.81640625 C4.96287109 10.69072266 4.96287109 10.69072266 6.9375 10.5625 C8.22527344 10.48128906 9.51304687 10.40007812 10.83984375 10.31640625 C13.86023957 10.35080812 13.86023957 10.35080812 15 9 C15 7.35 15 5.7 15 4 C10.05 3.67 5.1 3.34 0 3 C0 2.01 0 1.02 0 0 Z " fill="#F5F8FC" transform="translate(215,318)"/>
<path d="M0 0 C1.20462891 -0.02126953 1.20462891 -0.02126953 2.43359375 -0.04296875 C4.5625 0.1875 4.5625 0.1875 6.5625 2.1875 C6.8125 5.1875 6.8125 5.1875 6.5625 8.1875 C4.5625 10.1875 4.5625 10.1875 0.625 10.5 C-1.93731382 10.42080121 -3.22522116 10.30328846 -5.5 9.0625 C-6.91909947 6.22430106 -6.21756606 4.17775324 -5.4375 1.1875 C-3.84855928 -0.40144072 -2.18948576 0.01751589 0 0 Z " fill="#FAB12C" transform="translate(996.4375,303.8125)"/>
<path d="M0 0 C0.66 0.66 1.32 1.32 2 2 C1.484375 2.598125 0.96875 3.19625 0.4375 3.8125 C-0.2740625 4.8953125 -0.2740625 4.8953125 -1 6 C-0.67 6.99 -0.34 7.98 0 9 C0.66 9.33 1.32 9.66 2 10 C2.66 8.68 3.32 7.36 4 6 C4.99 6 5.98 6 7 6 C6.690625 6.598125 6.38125 7.19625 6.0625 7.8125 C4.89790296 10.08956772 4.89790296 10.08956772 4 13 C5.83700789 13.77242269 5.83700789 13.77242269 8 14 C9.64594139 12.60411246 9.64594139 12.60411246 11 11 C11.66 11 12.32 11 13 11 C11.62845496 13.95409701 10.01136276 16.44008376 8 19 C3.30234629 17.71882171 0.78197339 15.00472107 -2.44921875 11.55859375 C-3.93510225 9.89969455 -3.93510225 9.89969455 -6 9 C-5.52797514 4.75177626 -3.03344482 2.80010291 0 0 Z " fill="#FCF7EE" transform="translate(649,260)"/>
<path d="M0 0 C0.66 0.66 1.32 1.32 2 2 C1.484375 2.598125 0.96875 3.19625 0.4375 3.8125 C-0.2740625 4.8953125 -0.2740625 4.8953125 -1 6 C-0.67 6.99 -0.34 7.98 0 9 C0.598125 8.690625 1.19625 8.38125 1.8125 8.0625 C4 7 4 7 7 6 C6.649375 6.5775 6.29875 7.155 5.9375 7.75 C4.85082593 10.35801776 5.06934867 11.39417629 6 14 C6.598125 13.690625 7.19625 13.38125 7.8125 13.0625 C10 12 10 12 13 11 C11.8141763 14.37503669 10.72426311 16.64722731 8 19 C4.28954753 17.42219077 1.70093616 15.09296752 -1.25 12.375 C-2.14203125 11.55773437 -3.0340625 10.74046875 -3.953125 9.8984375 C-4.62859375 9.27195312 -5.3040625 8.64546875 -6 8 C-4.02 5.36 -2.04 2.72 0 0 Z " fill="#FCF7EC" transform="translate(601,314)"/>
<path d="M0 0 C-0.33 0.763125 -0.66 1.52625 -1 2.3125 C-2.17436686 4.99069135 -2.17436686 4.99069135 -2 8 C-1.01 8 -0.02 8 1 8 C1.66 7.01 2.32 6.02 3 5 C3.99 5.33 4.98 5.66 6 6 C5.01 7.32 4.02 8.64 3 10 C3.66 11.32 4.32 12.64 5 14 C6.98 12.68 8.96 11.36 11 10 C11 14.38968456 8.87194899 15.76905739 6 19 C-3.79802956 11.92499603 -3.79802956 11.92499603 -7 8 C-7.09132052 4.98642286 -6.02815944 4.03270128 -4.0625 1.75 C-2 0 -2 0 0 0 Z " fill="#FCF6EB" transform="translate(621,294)"/>
<path d="M0 0 C3.3 0 6.6 0 10 0 C10 0.99 10 1.98 10 3 C7.69 3 5.38 3 3 3 C3 4.65 3 6.3 3 8 C5.31 8 7.62 8 10 8 C10 8.66 10 9.32 10 10 C7.69 10 5.38 10 3 10 C3 11.98 3 13.96 3 16 C5.31 16 7.62 16 10 16 C10 16.66 10 17.32 10 18 C6.7 18 3.4 18 0 18 C0 12.06 0 6.12 0 0 Z " fill="#F4F8FC" transform="translate(397,138)"/>
<path d="M0 0 C3.69876091 1.37287342 6.9514476 3.06355453 10.3125 5.125 C11.19550781 5.66382813 12.07851563 6.20265625 12.98828125 6.7578125 C13.98408203 7.37269531 13.98408203 7.37269531 15 8 C14.22093924 11.47238509 13.04464928 14.05570504 11 17 C10.34 17 9.68 17 9 17 C9.57584432 14.61435923 10.22227595 12.33317216 11 10 C9.68 9.34 8.36 8.68 7 8 C6.34 9.65 5.68 11.3 5 13 C4.01 12.67 3.02 12.34 2 12 C2.99 10.02 3.98 8.04 5 6 C3.35 5.67 1.7 5.34 0 5 C-0.66 6.32 -1.32 7.64 -2 9 C-2.99 8.67 -3.98 8.34 -5 8 C-3.35 5.36 -1.7 2.72 0 0 Z " fill="#FCF8EF" transform="translate(965,392)"/>
<path d="M0 0 C2.87579892 0.42092041 5.70862537 0.89881684 8.5625 1.4375 C9.77196289 1.65889648 9.77196289 1.65889648 11.00585938 1.88476562 C13.00484242 2.25144299 15.00254644 2.6250803 17 3 C16.67 6.3 16.34 9.6 16 13 C15.01 13 14.02 13 13 13 C13.33 10.36 13.66 7.72 14 5 C12.35 5 10.7 5 9 5 C8.67 6.98 8.34 8.96 8 11 C7.34 11 6.68 11 6 11 C6.33 8.69 6.66 6.38 7 4 C5.35 4 3.7 4 2 4 C1.34 5.98 0.68 7.96 0 10 C-0.66 10 -1.32 10 -2 10 C-1.85950482 8.52031676 -1.71245174 7.04125484 -1.5625 5.5625 C-1.48128906 4.73878906 -1.40007813 3.91507812 -1.31640625 3.06640625 C-1 1 -1 1 0 0 Z " fill="#FCF7ED" transform="translate(986,336)"/>
<path d="M0 0 C3.125 0.375 3.125 0.375 5.5 2.0625 C7.39758004 4.76290237 7.48382213 6.14560081 7.125 9.375 C3.69556481 10.56271723 1.74715325 10.17726223 -1.625 8.9375 C-2.42421875 8.65003906 -3.2234375 8.36257813 -4.046875 8.06640625 C-4.65015625 7.83824219 -5.2534375 7.61007812 -5.875 7.375 C-4.80957944 0.62733645 -4.80957944 0.62733645 0 0 Z " fill="#86B1DE" transform="translate(227.875,278.625)"/>
<path d="M0 0 C0.66 0.66 1.32 1.32 2 2 C0.02 2.99 0.02 2.99 -2 4 C-2 5.65 -2 7.3 -2 9 C-1.13375 8.67 -0.2675 8.34 0.625 8 C3.9976526 7.00069553 6.50931707 6.68266519 10 7 C10.66 7.66 11.32 8.32 12 9 C11.83754442 12.73647845 11.41216356 14.52538742 8.9375 17.375 C8.298125 17.91125 7.65875 18.4475 7 19 C6.01 18.67 5.02 18.34 4 18 C4.66 17.236875 5.32 16.47375 6 15.6875 C8.29850538 13.15722061 8.29850538 13.15722061 8 10 C7.2265625 10.2165625 7.2265625 10.2165625 6.4375 10.4375 C3.28600245 11.16476867 0.22261187 11.70161001 -3 12 C-5 10 -5 10 -5.4375 7.125 C-5 4 -5 4 -2.5 1.625 C-1.2625 0.820625 -1.2625 0.820625 0 0 Z " fill="#FBF2E2" transform="translate(640,271)"/>
<path d="M0 0 C6.54185022 0.4845815 6.54185022 0.4845815 8.5 2.6875 C9.16158261 5.74731957 8.78650761 7.98505416 8 11 C7.34 11.66 6.68 12.32 6 13 C4.02 13 2.04 13 0 13 C0 8.71 0 4.42 0 0 Z " fill="#85B1DE" transform="translate(381,141)"/>
<path d="M0 0 C-0.33 0.99 -0.66 1.98 -1 3 C-2.98 3 -4.96 3 -7 3 C-7 4.65 -7 6.3 -7 8 C-3.535 7.505 -3.535 7.505 0 7 C0 7.99 0 8.98 0 10 C-2.31 10 -4.62 10 -7 10 C-7 11.98 -7 13.96 -7 16 C-4.36 16 -1.72 16 1 16 C1 16.66 1 17.32 1 18 C-2.3 18 -5.6 18 -9 18 C-9.8320582 12.27959989 -10.12036664 6.77759884 -10 1 C-6.52674819 -0.1577506 -3.63932552 -0.06866652 0 0 Z " fill="#FCF6EB" transform="translate(801,144)"/>
<path d="M0 0 C2.4375 0.125 2.4375 0.125 5 1 C7.34309993 4.90516656 7 7.20370048 7 12 C-1.91 12.99 -1.91 12.99 -11 14 C-11 11.69 -11 9.38 -11 7 C-10.01 7.495 -10.01 7.495 -9 8 C-9 8.66 -9 9.32 -9 10 C-7.35 10 -5.7 10 -4 10 C-3.67 9.34 -3.34 8.68 -3 8 C-0.69 8.33 1.62 8.66 4 9 C2.73053486 4.17557816 2.73053486 4.17557816 -1 1 C-0.67 0.67 -0.34 0.34 0 0 Z " fill="#F5F8FB" transform="translate(228,336)"/>
<path d="M0 0 C0 0.99 0 1.98 0 3 C-2.31 3.66 -4.62 4.32 -7 5 C-6.85950482 6.47968324 -6.71245174 7.95874516 -6.5625 9.4375 C-6.48128906 10.26121094 -6.40007812 11.08492187 -6.31640625 11.93359375 C-6.21069185 13.98662025 -6.21069185 13.98662025 -5 15 C-3.48071962 15.07179964 -1.95832518 15.08392007 -0.4375 15.0625 C0.38878906 15.05347656 1.21507812 15.04445312 2.06640625 15.03515625 C2.70449219 15.02355469 3.34257812 15.01195312 4 15 C4 15.66 4 16.32 4 17 C1.14006036 18.42996982 -0.84269276 19 -4.0625 19 C-7 18 -7 18 -9.375 15.375 C-11.26477069 11.45009165 -11.70343294 9.29875684 -11 5 C-7.74180693 0.49602723 -5.51527888 -0.6413115 0 0 Z " fill="#F4F8FB" transform="translate(352,144)"/>
<path d="M0 0 C2.31 0 4.62 0 7 0 C8.95143115 2.86975169 8.98930952 4.12614763 8.6875 7.6875 C8 11 8 11 7 12 C5.02 12 3.04 12 1 12 C0.67 8.04 0.34 4.08 0 0 Z " fill="#FAB12D" transform="translate(775,150)"/>
<path d="M0 0 C1.32 0.33 2.64 0.66 4 1 C4.66 3.31 5.32 5.62 6 8 C7.65 6.35 9.3 4.7 11 3 C11.99 3.33 12.98 3.66 14 4 C13.27683594 4.74443359 13.27683594 4.74443359 12.5390625 5.50390625 C8.46037634 9.89057483 6.10854041 13.08778448 5 19 C4.01 19 3.02 19 2 19 C2.02320313 18.38253906 2.04640625 17.76507813 2.0703125 17.12890625 C2.19833108 11.12117697 1.56840747 5.79750618 0 0 Z " fill="#FCF8F0" transform="translate(855,147)"/>
<path d="M0 0 C1.77119803 0.14133499 3.54195287 0.28823208 5.3125 0.4375 C6.29863281 0.51871094 7.28476562 0.59992188 8.30078125 0.68359375 C11 1 11 1 14 2 C14 2.66 14 3.32 14 4 C12.02 4 10.04 4 8 4 C7.67 8.95 7.34 13.9 7 19 C6.01 19 5.02 19 4 19 C4.33 13.72 4.66 8.44 5 3 C3.35 3 1.7 3 0 3 C0 2.01 0 1.02 0 0 Z " fill="#FCF7EE" transform="translate(787,467)"/>
<path d="M0 0 C3.54243452 1.36591169 6.92627929 2.90931484 10.3125 4.625 C11.63701172 5.29402344 11.63701172 5.29402344 12.98828125 5.9765625 C13.65214844 6.31429688 14.31601562 6.65203125 15 7 C15.33 5.68 15.66 4.36 16 3 C16.99 3 17.98 3 19 3 C17.43358249 7.30764815 15.31663844 11.06171464 13 15 C12.34 15 11.68 15 11 15 C11.66 13.02 12.32 11.04 13 9 C12.154375 8.7525 11.30875 8.505 10.4375 8.25 C6.61572526 6.86026373 3.48131937 5.08879162 0 3 C0 2.01 0 1.02 0 0 Z " fill="#FCF8EF" transform="translate(970,382)"/>
<path d="M0 0 C0.99 0.33 1.98 0.66 3 1 C0.02911382 4.99926986 -3.12948725 7.92118304 -7 11 C-6.38722388 13.96175123 -5.74627478 15.38058783 -4 18 C-4.99 18.33 -5.98 18.66 -7 19 C-12.00388079 13.62998159 -12.00388079 13.62998159 -11.98828125 11.09765625 C-10.51732616 7.97551046 -8.2871808 6.35008519 -5.625 4.1875 C-4.64789062 3.37667969 -3.67078125 2.56585938 -2.6640625 1.73046875 C-1.78492188 1.15941406 -0.90578125 0.58835938 0 0 Z " fill="#F4F7FB" transform="translate(540,228)"/>
<path d="M0 0 C0.66 0 1.32 0 2 0 C2 0.66 2 1.32 2 2 C2.53625 2.226875 3.0725 2.45375 3.625 2.6875 C6.78500863 4.43382056 9.2676983 6.6402849 12 9 C13.98 7.68 15.96 6.36 18 5 C18 9.31618166 15.86729652 10.92789659 13 14 C12.34 14 11.68 14 11 14 C11 13.34 11 12.68 11 12 C10.42765625 11.74476563 9.8553125 11.48953125 9.265625 11.2265625 C6.75826267 9.86912841 4.8669544 8.28025896 2.75 6.375 C2.04359375 5.74335938 1.3371875 5.11171875 0.609375 4.4609375 C0.07828125 3.97882813 -0.4528125 3.49671875 -1 3 C-0.67 2.01 -0.34 1.02 0 0 Z " fill="#FCF6EA" transform="translate(605,309)"/>
<path d="M0 0 C0.99 0 1.98 0 3 0 C2.67 4.95 2.34 9.9 2 15 C4.64 15 7.28 15 10 15 C10 15.99 10 16.98 10 18 C6.37 18 2.74 18 -1 18 C-0.505 9.09 -0.505 9.09 0 0 Z " fill="#FDFCFA" transform="translate(822,144)"/>
<path d="M0 0 C3.52156671 0.07846217 5.23688944 0.14935433 8.3125 1.9375 C10.06812908 5.197954 9.90527248 7.73145778 9.625 11.375 C8.635 11.045 7.645 10.715 6.625 10.375 C5.4375 7.3125 5.4375 7.3125 4.625 4.375 C3.16707116 4.32100264 1.70857288 4.28220823 0.25 4.25 C-0.96816406 4.21519531 -0.96816406 4.21519531 -2.2109375 4.1796875 C-4.58842243 4.16129949 -4.58842243 4.16129949 -6.375 6.375 C-7.035 6.375 -7.695 6.375 -8.375 6.375 C-7.29009727 0.95048636 -5.39175792 0.07227558 0 0 Z " fill="#FBF3E4" transform="translate(996.375,300.625)"/>
<path d="M0 0 C2.375 0.25 2.375 0.25 5 1 C6.3125 3.0625 6.3125 3.0625 7 5 C3.5233662 7.14336161 0.78770805 7.21277626 -3.25 7.125 C-4.32765625 7.10695313 -5.4053125 7.08890625 -6.515625 7.0703125 C-7.33546875 7.04710937 -8.1553125 7.02390625 -9 7 C-8.67 6.01 -8.34 5.02 -8 4 C-6.02 4 -4.04 4 -2 4 C-1.34 2.68 -0.68 1.36 0 0 Z " fill="#FCF3E4" transform="translate(982,371)"/>
<path d="M0 0 C0.66 0 1.32 0 2 0 C1.67 3.63 1.34 7.26 1 11 C-4.94 10.34 -10.88 9.68 -17 9 C-16.67 8.01 -16.34 7.02 -16 6 C-14.06215735 6.14120714 -12.12473045 6.28812873 -10.1875 6.4375 C-9.10855469 6.51871094 -8.02960938 6.59992188 -6.91796875 6.68359375 C-4 7 -4 7 -1 8 C-0.67 5.36 -0.34 2.72 0 0 Z " fill="#F6F9FB" transform="translate(233,295)"/>
<path d="M0 0 C1.65 0 3.3 0 5 0 C4.34 2.64 3.68 5.28 3 8 C4.32 8.33 5.64 8.66 7 9 C6.01 9.33 5.02 9.66 4 10 C4 12.64 4 15.28 4 18 C3.01 18 2.02 18 1 18 C0.67 12.06 0.34 6.12 0 0 Z " fill="#FCF8F1" transform="translate(822,469)"/>
<path d="M0 0 C6.04801071 0.54981916 11.30601106 1.90429574 17 4 C16.67 5.98 16.34 7.96 16 10 C15.34 9.67 14.68 9.34 14 9 C14 8.01 14 7.02 14 6 C11.36 6 8.72 6 6 6 C6 5.34 6 4.68 6 4 C3.69 3.34 1.38 2.68 -1 2 C-0.67 1.34 -0.34 0.68 0 0 Z " fill="#FDFAF4" transform="translate(983,350)"/>
<path d="M0 0 C5.61 0.33 11.22 0.66 17 1 C17 1.99 17 2.98 17 4 C14.72923158 4.02699725 12.45837179 4.04639453 10.1875 4.0625 C8.29064453 4.07990234 8.29064453 4.07990234 6.35546875 4.09765625 C3 4 3 4 0 3 C0 2.01 0 1.02 0 0 Z " fill="#F1F6FA" transform="translate(216,309)"/>
<path d="M0 0 C0.33 0 0.66 0 1 0 C1.06058594 0.62648438 1.12117187 1.25296875 1.18359375 1.8984375 C1.26738281 2.71570313 1.35117187 3.53296875 1.4375 4.375 C1.51871094 5.18710937 1.59992187 5.99921875 1.68359375 6.8359375 C1.89090114 9.04272805 1.89090114 9.04272805 3 11 C6.02934491 11.65772428 6.02934491 11.65772428 9 12 C9 12.66 9 13.32 9 14 C2.77777778 14.47863248 2.77777778 14.47863248 -0.4375 12.5 C-2.75514813 8.79176299 -2.41959259 6.33579006 -2 2 C-1.34 1.34 -0.68 0.68 0 0 Z " fill="#FDFAF4" transform="translate(804,473)"/>
<path d="M0 0 C0.94875 0.66 1.8975 1.32 2.875 2 C5.66238955 4.17968457 5.66238955 4.17968457 8 4 C8.103125 4.598125 8.20625 5.19625 8.3125 5.8125 C9.09385053 8.29861534 10.14895416 9.22943442 12 11 C12 11.66 12 12.32 12 13 C8.09170915 12.4352699 6.10079777 10.57868029 3.25 7.9375 C2.45078125 7.20402344 1.6515625 6.47054688 0.828125 5.71484375 C0.22484375 5.14894531 -0.3784375 4.58304687 -1 4 C-0.67 2.68 -0.34 1.36 0 0 Z " fill="#FCF8F0" transform="translate(587,332)"/>
<path d="M0 0 C3 -0.3125 3 -0.3125 6 0 C6.66 0.66 7.32 1.32 8 2 C7.83754442 5.73647845 7.41216356 7.52538742 4.9375 10.375 C4.298125 10.91125 3.65875 11.4475 3 12 C2.01 11.67 1.02 11.34 0 11 C0.66 10.236875 1.32 9.47375 2 8.6875 C4.29850538 6.15722061 4.29850538 6.15722061 4 3 C2.02 3 0.04 3 -2 3 C-1.34 2.01 -0.68 1.02 0 0 Z " fill="#FDFCF9" transform="translate(644,278)"/>
<path d="M0 0 C0.99 0.33 1.98 0.66 3 1 C2.68985608 3.08368538 2.3767948 5.16693668 2.0625 7.25 C1.88847656 8.41015625 1.71445312 9.5703125 1.53515625 10.765625 C1.1272264 13.23106961 0.66098697 15.59424562 0 18 C-0.99 18 -1.98 18 -3 18 C-2.01 12.06 -1.02 6.12 0 0 Z " fill="#FCF8EF" transform="translate(782,466)"/>
<path d="M0 0 C1.98 0 3.96 0 6 0 C5.01 0.66 4.02 1.32 3 2 C2.58333333 5 2.58333333 5 3 8 C3.66 8.66 4.32 9.32 5 10 C4.01 10 3.02 10 2 10 C2.33 12.64 2.66 15.28 3 18 C2.01 18 1.02 18 0 18 C0 12.06 0 6.12 0 0 Z " fill="#FDFBF6" transform="translate(806,144)"/>
<path d="M0 0 C7.22891566 -0.48192771 7.22891566 -0.48192771 10.5 1.5625 C12.50478781 4.82028019 12.28862859 7.24782833 12 11 C11.34 11 10.68 11 10 11 C9.34 8.69 8.68 6.38 8 4 C3.545 3.01 3.545 3.01 -1 2 C-0.67 1.34 -0.34 0.68 0 0 Z " fill="#FAFBFC" transform="translate(225,277)"/>
<path d="M0 0 C1.65 0 3.3 0 5 0 C4.01 5.94 3.02 11.88 2 18 C1.67 18 1.34 18 1 18 C0.67 12.06 0.34 6.12 0 0 Z " fill="#EAF1F9" transform="translate(377,139)"/>
<path d="M0 0 C0.66 1.65 1.32 3.3 2 5 C1.34 5.66 0.68 6.32 0 7 C-2.625 6.625 -2.625 6.625 -5 6 C-5 4.68 -5 3.36 -5 2 C-2 0 -2 0 0 0 Z " fill="#8DB6E0" transform="translate(532,220)"/>
<path d="M0 0 C1.67542976 0.28604898 3.34385343 0.61781233 5 1 C5 2.65 5 4.3 5 6 C3.34385343 6.38218767 1.67542976 6.71395102 0 7 C-1 6 -1 6 -1.125 3.5 C-1 1 -1 1 0 0 Z " fill="#89B3DF" transform="translate(227,339)"/>
<path d="M0 0 C0 0.33 0 0.66 0 1 C-1.670625 1.12375 -1.670625 1.12375 -3.375 1.25 C-6.9984249 1.58529405 -6.9984249 1.58529405 -8.375 3.8125 C-9.25719906 6.88867056 -9.25719906 6.88867056 -10 10 C-9.34 10.33 -8.68 10.66 -8 11 C-9.65 11 -11.3 11 -13 11 C-12.71860476 7.34186183 -12.43656214 4.68103694 -10.4375 1.5625 C-6.85236684 -0.73566228 -4.20922245 -0.28061483 0 0 Z " fill="#E6EFF8" transform="translate(232,276)"/>
<path d="M0 0 C3.125 0.25 3.125 0.25 5 1.75 C5.37125 2.245 5.7425 2.74 6.125 3.25 C4.145 3.25 2.165 3.25 0.125 3.25 C0.125 4.57 0.125 5.89 0.125 7.25 C-0.535 7.25 -1.195 7.25 -1.875 7.25 C-2.205 7.91 -2.535 8.57 -2.875 9.25 C-3.75390625 3.09765625 -3.75390625 3.09765625 -3.875 1.25 C-2.875 0.25 -2.875 0.25 0 0 Z " fill="#FAECD2" transform="translate(774.875,146.75)"/>
<path d="M0 0 C1.65 0 3.3 0 5 0 C5.38218767 1.65614657 5.71395102 3.32457024 6 5 C5 6 5 6 2.4375 6.0625 C1.2309375 6.0315625 1.2309375 6.0315625 0 6 C0 4.02 0 2.04 0 0 Z " fill="#FAB537" transform="translate(808,146)"/>
<path d="M0 0 C2.97 0.495 2.97 0.495 6 1 C5.67 2.65 5.34 4.3 5 6 C3.35 6 1.7 6 0 6 C0 4.02 0 2.04 0 0 Z " fill="#FAB840" transform="translate(825,471)"/>
<path d="M0 0 C2.1875 0.3125 2.1875 0.3125 4 1 C3.67 2.65 3.34 4.3 3 6 C0 6 0 6 -1.6875 4.5 C-2.120625 4.005 -2.55375 3.51 -3 3 C-1.75 1.4375 -1.75 1.4375 0 0 Z " fill="#FAB63A" transform="translate(591,330)"/>
<path d="M0 0 C1.98 0 3.96 0 6 0 C6 1.65 6 3.3 6 5 C4.125 5.625 4.125 5.625 2 6 C1.34 5.34 0.68 4.68 0 4 C0 2.68 0 1.36 0 0 Z " fill="#FBB332" transform="translate(996,325)"/>
<path d="M0 0 C2.97 0.495 2.97 0.495 6 1 C5.67 2.65 5.34 4.3 5 6 C3.35 6 1.7 6 0 6 C0 4.02 0 2.04 0 0 Z " fill="#FAB538" transform="translate(991,355)"/>
<path d="M0 0 C2.0625 0.4375 2.0625 0.4375 4 1 C4 2.65 4 4.3 4 6 C2.35 6 0.7 6 -1 6 C-1.042721 4.33388095 -1.04063832 2.66617115 -1 1 C-0.67 0.67 -0.34 0.34 0 0 Z " fill="#85B1DE" transform="translate(220,340)"/>
<path d="M0 0 C0.33 0 0.66 0 1 0 C1 1.98 1 3.96 1 6 C1.53625 5.67 2.0725 5.34 2.625 5 C5.5391061 3.77300796 7.86867708 3.85766714 11 4 C11 4.99 11 5.98 11 7 C7.37 7 3.74 7 0 7 C0 4.69 0 2.38 0 0 Z " fill="#FAEACE" transform="translate(821,155)"/>
<path d="M0 0 C1.09898702 3.29696105 0.87124444 4.40494903 0.0625 7.6875 C-0.22947266 8.89986328 -0.22947266 8.89986328 -0.52734375 10.13671875 C-0.68332031 10.75160156 -0.83929687 11.36648438 -1 12 C-1.66 11.67 -2.32 11.34 -3 11 C-2.88590407 9.54077307 -2.75834456 8.08259402 -2.625 6.625 C-2.55539062 5.81289063 -2.48578125 5.00078125 -2.4140625 4.1640625 C-2 2 -2 2 0 0 Z " fill="#FDFCF9" transform="translate(763,468)"/>
<path d="M0 0 C0.99 0 1.98 0 3 0 C2.34 3.3 1.68 6.6 1 10 C0.01 9.67 -0.98 9.34 -2 9 C-1.34 6.03 -0.68 3.06 0 0 Z " fill="#FBF3E2" transform="translate(775,465)"/>
<path d="M0 0 C0.8125 1.625 0.8125 1.625 1 4 C-0.46818136 6.24609835 -2.15852858 8.02378677 -4 10 C-4.99 9.67 -5.98 9.34 -7 9 C-3.25 4.125 -3.25 4.125 -1 3 C-0.67 2.01 -0.34 1.02 0 0 Z " fill="#FBF2DF" transform="translate(651,280)"/>
<path d="M0 0 C-0.3125 1.9375 -0.3125 1.9375 -1 4 C-1.99 4.33 -2.98 4.66 -4 5 C-4 4.34 -4 3.68 -4 3 C-4.99 2.67 -5.98 2.34 -7 2 C-7 1.34 -7 0.68 -7 0 C-3.86650268 -1.04449911 -3.01031744 -0.93423645 0 0 Z " fill="#F8FAFD" transform="translate(554,243)"/>
<path d="M0 0 C0.66 0.66 1.32 1.32 2 2 C0.02 4.97 0.02 4.97 -2 8 C-2.66 7.67 -3.32 7.34 -4 7 C-4.66 7.66 -5.32 8.32 -6 9 C-5.52797514 4.75177626 -3.03344482 2.80010291 0 0 Z " fill="#FCF2E1" transform="translate(649,260)"/>
<path d="M0 0 C2.64 0 5.28 0 8 0 C7.67 0.99 7.34 1.98 7 3 C5.02 3 3.04 3 1 3 C0.67 2.01 0.34 1.02 0 0 Z " fill="#FBF0DC" transform="translate(598,335)"/>
<path d="M0 0 C2.64 0.33 5.28 0.66 8 1 C7.01 1.495 7.01 1.495 6 2 C6 2.66 6 3.32 6 4 C3.69 3.34 1.38 2.68 -1 2 C-0.67 1.34 -0.34 0.68 0 0 Z " fill="#FBF3E2" transform="translate(983,350)"/>
<path d="M0 0 C0.66 0.33 1.32 0.66 2 1 C0.515 3.475 0.515 3.475 -1 6 C-1.99 5.67 -2.98 5.34 -4 5 C-4.33 4.01 -4.66 3.02 -5 2 C-2.625 0.9375 -2.625 0.9375 0 0 Z " fill="#8FB6E0" transform="translate(549,245)"/>
<path d="M0 0 C1.32 0.33 2.64 0.66 4 1 C4.33 2.98 4.66 4.96 5 7 C4.34 7 3.68 7 3 7 C2.67 7.66 2.34 8.32 2 9 C1.34 6.03 0.68 3.06 0 0 Z " fill="#FBF3E2" transform="translate(855,147)"/>
<path d="M0 0 C1.98 0.66 3.96 1.32 6 2 C5.34 3.32 4.68 4.64 4 6 C2.62437146 4.71034824 1.29233607 3.37310707 0 2 C0 1.34 0 0.68 0 0 Z " fill="#FAB63B" transform="translate(629,288)"/>
<path d="M0 0 C3.875 1.75 3.875 1.75 5 4 C2.69 4 0.38 4 -2 4 C-1.34 2.68 -0.68 1.36 0 0 Z " fill="#FAB63C" transform="translate(984,371)"/>
<path d="M0 0 C0.99 0.33 1.98 0.66 3 1 C2.34 1 1.68 1 1 1 C0.34 2.65 -0.32 4.3 -1 6 C-1.99 5.67 -2.98 5.34 -4 5 C-2.25 1.125 -2.25 1.125 0 0 Z " fill="#FBF3E3" transform="translate(971,399)"/>
<path d="M0 0 C0.33 0 0.66 0 1 0 C1 2.31 1 4.62 1 7 C0.01 7 -0.98 7 -2 7 C-1.125 1.125 -1.125 1.125 0 0 Z " fill="#FBF0DB" transform="translate(1001,342)"/>
</svg>
