<?xml version="1.0" encoding="UTF-8"?>
<svg version="1.1" xmlns="http://www.w3.org/2000/svg" width="474" height="472">
<path d="M0 0 C156.42 0 312.84 0 474 0 C474 155.76 474 311.52 474 472 C317.58 472 161.16 472 0 472 C0 316.24 0 160.48 0 0 Z " fill="#FDFDFD" transform="translate(0,0)"/>
<path d="M0 0 C6.09376438 4.81603959 11.72668542 9.81593589 15 17 C15 17.66 15 18.32 15 19 C9.8461999 21.73466944 4.59069587 24.06170892 -0.8125 26.25 C-1.47064697 26.52021973 -2.12879395 26.79043945 -2.80688477 27.06884766 C-5.69774833 28.2240045 -7.85657667 29 -11 29 C-11.24234375 28.46890625 -11.4846875 27.9378125 -11.734375 27.390625 C-14.17811472 22.23997359 -16.13545894 18.15586745 -21.671875 15.921875 C-28.89256345 13.9217782 -37.87734894 13.47837003 -44.75 16.8125 C-47.8611561 18.74155748 -47.8611561 18.74155748 -49.578125 20.63671875 C-51 22 -51 22 -53 22 C-53.268125 22.845625 -53.53625 23.69125 -53.8125 24.5625 C-55 28 -55 28 -56.5546875 31.22265625 C-58.21471486 35.0719877 -58.42348 38.72274842 -58.3125 42.875 C-58.29340576 43.93098389 -58.29340576 43.93098389 -58.27392578 45.00830078 C-57.97060529 55.87519592 -55.39191314 64.60808686 -47.5 72.5 C-41.99300526 75.80419684 -36.82429543 76.36392698 -30.5625 76.375 C-29.83740234 76.39949219 -29.11230469 76.42398438 -28.36523438 76.44921875 C-22.79669173 76.47923785 -19.58858493 75.16193099 -15 72 C-11.93814041 68.09348949 -11.44398754 65.05395639 -10 60 C-18.58 60 -27.16 60 -36 60 C-34.09761943 52.39047771 -30.9740213 44.33687875 -25 39 C-18.53577402 36.3061806 -11.18235777 37.39900752 -4.375 37.9375 C-2.49383221 38.02288979 -0.61229113 38.10043669 1.26953125 38.16992188 C5.85565388 38.35625003 10.42368771 38.64858756 15 39 C14.98179199 37.91122559 14.96358398 36.82245117 14.94482422 35.70068359 C15.10238913 25.13267956 21.50237856 15.10540812 28.3125 7.375 C42.81102881 -5.43765337 56.24571082 -10.52403504 75.63671875 -10.29296875 C77.01104769 -10.28735827 78.38538271 -10.28309506 79.75971985 -10.28010559 C83.33870655 -10.26877077 86.91731521 -10.23940512 90.49615479 -10.20599365 C94.16340016 -10.17504428 97.83070793 -10.1615477 101.49804688 -10.14648438 C108.66553503 -10.11452148 115.83271411 -10.06346721 123 -10 C121.55590643 -7.11181287 119.46922542 -6.52940366 116.625 -5.0625 C113.22098998 -3.30660565 110.65838939 -1.73178051 108 1 C107.34 1 106.68 1 106 1 C105.34 2.32 104.68 3.64 104 5 C103.34 5 102.68 5 102 5 C101.62875 5.7734375 101.62875 5.7734375 101.25 6.5625 C100.8375 7.366875 100.425 8.17125 100 9 C99.46391113 10.19028809 98.92782227 11.38057617 98.37548828 12.60693359 C97.29400635 14.47845459 97.29400635 14.47845459 96 16 C92.67529297 16.80712891 92.67529297 16.80712891 88.7421875 16.7265625 C88.03909454 16.72699554 87.33600159 16.72742859 86.61160278 16.72787476 C84.36437807 16.72653758 82.12150611 16.68000466 79.875 16.625 C64.19663073 16.2626429 64.19663073 16.2626429 50.87280273 23.94482422 C45.10380733 29.8966536 42.89854286 35.6629526 42.5625 43.875 C42.81095697 52.44136418 45.63906056 59.33589607 51.48828125 65.59765625 C57.01769066 70.72700503 62.16760592 71.12208438 69.3984375 71 C70.86197929 70.99884169 72.32552489 71.00022314 73.7890625 71.00390625 C76.08356531 71.00832442 78.37398559 71.00002268 80.66796875 70.94873047 C93.45132945 70.68745266 93.45132945 70.68745266 97.23535156 73.89453125 C98.75760375 76.20230766 99.89819699 78.46883092 101 81 C103.89841393 85.01928494 106.99326562 87.71010074 111 90.625 C112.03125 91.38039063 113.0625 92.13578125 114.125 92.9140625 C115.07375 93.60242188 116.0225 94.29078125 117 95 C118.33462379 95.99827707 119.66821153 96.99794349 121 98 C113.28847433 98.09343195 105.57708578 98.16413063 97.86513329 98.20724869 C94.28260419 98.22796242 90.70046744 98.25597494 87.11816406 98.30175781 C83.64919916 98.34580547 80.18060718 98.36925832 76.71138382 98.37950897 C74.7696526 98.39029873 72.82806761 98.42142596 70.88656616 98.45318604 C55.10746257 98.45709295 41.65001126 93.71154284 29.95703125 83.06640625 C25.57311645 78.43748224 21.03172469 73.09517408 19 67 C18.39865234 68.01707031 18.39865234 68.01707031 17.78515625 69.0546875 C8.36288251 84.48072297 -3.01527629 95.20717886 -20.96142578 99.60449219 C-35.68475931 102.46099522 -50.47751032 98.98677164 -63.109375 91.1171875 C-76.13323625 81.57808913 -83.88234383 69.8076315 -87 54 C-88.90367232 38.81300378 -85.23039046 23.51797162 -75.92578125 11.26953125 C-56.5882458 -11.03781767 -24.95123682 -18.20875049 0 0 Z " fill="#1D489D" transform="translate(140,194)"/>
<path d="M0 0 C0.96955124 0.00141495 1.93910248 0.0028299 2.93803406 0.00428772 C6.02512742 0.00987112 9.11214742 0.02242061 12.19921875 0.03515625 C14.29622291 0.04017339 16.39322821 0.04473593 18.49023438 0.04882812 C23.62244662 0.05898288 28.75450087 0.0785616 33.88671875 0.09765625 C33.88671875 8.67765625 33.88671875 17.25765625 33.88671875 26.09765625 C29.51292969 26.11892578 29.51292969 26.11892578 25.05078125 26.140625 C22.19763979 26.17132026 19.34472574 26.2103895 16.49169922 26.25024414 C14.52303222 26.27330816 12.55424386 26.28779238 10.58544922 26.29321289 C-6.09710902 26.06102897 -6.09710902 26.06102897 -20.22192383 34.04101562 C-25.82959957 39.77220845 -28.2083494 45.51139439 -28.48828125 53.47265625 C-28.18033996 62.74938751 -25.56776043 70.31719327 -19.11328125 77.09765625 C-13.64307381 81.13519031 -8.57866695 81.25348804 -1.94824219 81.30297852 C-1.12835815 81.31287811 -0.30847412 81.32277771 0.53625488 81.33297729 C3.24158864 81.36452108 5.94693994 81.38932154 8.65234375 81.4140625 C10.52993217 81.43463818 12.40751602 81.45563481 14.28509521 81.47703552 C19.22355445 81.5321928 24.16205505 81.58163005 29.10058594 81.62988281 C34.14131343 81.68014417 39.18198096 81.73580604 44.22265625 81.79101562 C54.11062584 81.8985196 63.99864752 81.9999818 73.88671875 82.09765625 C73.88671875 85.06765625 73.88671875 88.03765625 73.88671875 91.09765625 C71.24671875 91.09765625 68.60671875 91.09765625 65.88671875 91.09765625 C65.88671875 94.06765625 65.88671875 97.03765625 65.88671875 100.09765625 C68.85671875 100.09765625 71.82671875 100.09765625 74.88671875 100.09765625 C74.88671875 97.45765625 74.88671875 94.81765625 74.88671875 92.09765625 C77.85671875 92.09765625 80.82671875 92.09765625 83.88671875 92.09765625 C83.88671875 89.12765625 83.88671875 86.15765625 83.88671875 83.09765625 C89.49671875 83.09765625 95.10671875 83.09765625 100.88671875 83.09765625 C100.88671875 85.40765625 100.88671875 87.71765625 100.88671875 90.09765625 C98.24671875 90.42765625 95.60671875 90.75765625 92.88671875 91.09765625 C92.88671875 95.71765625 92.88671875 100.33765625 92.88671875 105.09765625 C95.19671875 105.09765625 97.50671875 105.09765625 99.88671875 105.09765625 C100.21671875 103.77765625 100.54671875 102.45765625 100.88671875 101.09765625 C100.88671875 103.73765625 100.88671875 106.37765625 100.88671875 109.09765625 C86.36671875 109.09765625 71.84671875 109.09765625 56.88671875 109.09765625 C56.88671875 106.12765625 56.88671875 103.15765625 56.88671875 100.09765625 C53.91671875 100.09765625 50.94671875 100.09765625 47.88671875 100.09765625 C47.88671875 102.73765625 47.88671875 105.37765625 47.88671875 108.09765625 C40.38412485 108.16758623 32.88156533 108.22068357 25.37871838 108.25309277 C21.89371809 108.26865832 18.408943 108.28972653 14.92407227 108.32397461 C10.9050904 108.36321843 6.88634002 108.37744058 2.8671875 108.390625 C1.63340866 108.40610886 0.39962982 108.42159271 -0.87153625 108.43754578 C-15.20885113 108.44029802 -28.74460028 104.08684585 -40.11328125 95.09765625 C-42.6013737 92.54792187 -44.87707778 89.86928872 -47.11328125 87.09765625 C-47.57992187 86.54078125 -48.0465625 85.98390625 -48.52734375 85.41015625 C-57.40992156 74.07533303 -57.93532304 59.85315558 -57.11328125 46.09765625 C-55.37734663 33.06343531 -48.83203271 21.85760712 -39.11328125 13.09765625 C-26.90055615 4.13546634 -14.98295761 -0.08256249 0 0 Z " fill="#1D489E" transform="translate(294.11328125,183.90234375)"/>
<path d="M0 0 C0.495 0.99 0.495 0.99 1 2 C1.66 2 2.32 2 3 2 C3 1.34 3 0.68 3 0 C3.66 0 4.32 0 5 0 C5 0.66 5 1.32 5 2 C8.465 1.505 8.465 1.505 12 1 C12.495 1.99 12.495 1.99 13 3 C11.89205078 3.4021875 11.89205078 3.4021875 10.76171875 3.8125 C-4.83348889 9.83657004 -14.5521917 18.59650976 -21.51953125 33.6015625 C-26.95957857 46.08927008 -26.78285284 61.41588983 -22.1953125 74.16796875 C-19.22820904 81.19787073 -16.0568711 86.44764078 -10.35546875 91.58984375 C-9 93 -9 93 -9 95 C-8.360625 95.226875 -7.72125 95.45375 -7.0625 95.6875 C-2.86679739 97.48565826 1.03900556 99.73904021 5 102 C4.67 102.66 4.34 103.32 4 104 C1.69 104 -0.62 104 -3 104 C-2.67 104.99 -2.34 105.98 -2 107 C-7.09872936 105.40664707 -10.87396224 102.26644656 -15 99 C-15.81855469 98.3915625 -16.63710937 97.783125 -17.48046875 97.15625 C-20.24572088 94.78970864 -22.1967349 92.33149286 -24.3125 89.375 C-25.00988281 88.41335938 -25.70726562 87.45171875 -26.42578125 86.4609375 C-28 84 -28 84 -28 82 C-38.89 82 -49.78 82 -61 82 C-56.83929946 79.91964973 -55.40430096 79.80371074 -50.921875 80.0234375 C-49.18164062 80.10078125 -49.18164062 80.10078125 -47.40625 80.1796875 C-46.1996875 80.24414062 -44.993125 80.30859375 -43.75 80.375 C-41.91695312 80.46007812 -41.91695312 80.46007812 -40.046875 80.546875 C-37.0306498 80.68826056 -34.0152677 80.83966735 -31 81 C-31.0928125 79.39125 -31.0928125 79.39125 -31.1875 77.75 C-31 74 -31 74 -29.50439453 72.29150391 C-27.27062404 68.88900962 -27.64867138 65.51528354 -27.7421875 61.5859375 C-27.74880402 60.77508698 -27.75542053 59.96423645 -27.76223755 59.1288147 C-27.78560765 56.54382052 -27.82932564 53.95968814 -27.875 51.375 C-27.91004926 48.78327548 -27.94082762 46.19159783 -27.96633911 43.59976196 C-27.98333279 41.98817138 -28.00648843 40.37663185 -28.03634644 38.76522827 C-28.11068996 33.22137993 -28.11068996 33.22137993 -27 31 C-27.66 31 -28.32 31 -29 31 C-29 30.34 -29 29.68 -29 29 C-33.16665169 28.97073981 -37.33327659 28.95311406 -41.5 28.9375 C-42.67304688 28.92912109 -43.84609375 28.92074219 -45.0546875 28.91210938 C-51.14928936 28.89498971 -56.97193767 29.12205973 -63 30 C-64.32 30 -65.64 30 -67 30 C-62.21052114 26.2014478 -58.44672516 25.85880557 -52.48828125 25.90234375 C-51.76005661 25.9037587 -51.03183197 25.90517365 -50.28153992 25.90663147 C-47.95848461 25.91222341 -45.63552612 25.92477438 -43.3125 25.9375 C-41.73632952 25.94251604 -40.16015752 25.94707877 -38.58398438 25.95117188 C-34.72261902 25.9621902 -30.86132592 25.97944926 -27 26 C-26.81630859 25.11248047 -26.81630859 25.11248047 -26.62890625 24.20703125 C-23.75447969 14.11975793 -12.43177802 7.1192938 -4 2 C-2.67499231 1.31693569 -1.34405291 0.64478214 0 0 Z " fill="#EEF6F9" transform="translate(263,184)"/>
<path d="M0 0 C3.3 0 6.6 0 10 0 C10 2.97 10 5.94 10 9 C12.64 9 15.28 9 18 9 C18 6.03 18 3.06 18 0 C20.97 0 23.94 0 27 0 C27 2.97 27 5.94 27 9 C29.97 9 32.94 9 36 9 C36 11.97 36 14.94 36 18 C34.25034642 18.05429959 32.50020213 18.09292823 30.75 18.125 C29.77546875 18.14820313 28.8009375 18.17140625 27.796875 18.1953125 C24.9803502 17.99862781 23.39050964 17.44568916 21 16 C21 17.98 21 19.96 21 22 C19.35 22 17.7 22 16 22 C16 21.34 16 20.68 16 20 C13.9837767 20.71563266 13.9837767 20.71563266 12 22 C11.25723969 23.97080157 11.25723969 23.97080157 11 26 C10.67 26.66 10.34 27.32 10 28 C6.7 28 3.4 28 0 28 C0 24.7 0 21.4 0 18 C-2.64 18 -5.28 18 -8 18 C-8 15.03 -8 12.06 -8 9 C-5.36 9 -2.72 9 0 9 C0 6.03 0 3.06 0 0 Z " fill="#526B98" transform="translate(404,266)"/>
<path d="M0 0 C28.05 0 56.1 0 85 0 C85 2.97 85 5.94 85 9 C82.36 9 79.72 9 77 9 C77 11.97 77 14.94 77 18 C79.97 18 82.94 18 86 18 C86 15.36 86 12.72 86 10 C88.97 10 91.94 10 95 10 C95 7.03 95 4.06 95 1 C100.61 1 106.22 1 112 1 C112 3.31 112 5.62 112 8 C109.36 8.33 106.72 8.66 104 9 C103.67 11.64 103.34 14.28 103 17 C102.34 16.67 101.68 16.34 101 16 C101 14.68 101 13.36 101 12 C99.68 12 98.36 12 97 12 C96.67 12.66 96.34 13.32 96 14 C94.68 13.67 93.36 13.34 92 13 C91.67 13.66 91.34 14.32 91 15 C90.505 14.505 90.505 14.505 90 14 C89.67 15.65 89.34 17.3 89 19 C86.85423363 19.02685938 84.70837355 19.04633088 82.5625 19.0625 C81.36753906 19.07410156 80.17257812 19.08570313 78.94140625 19.09765625 C76 19 76 19 75 18 C74.9020943 16.50261876 74.87025136 15.00057108 74.875 13.5 C74.87113281 12.27796875 74.87113281 12.27796875 74.8671875 11.03125 C75 9 75 9 76 8 C78.67058851 7.85884839 81.32432238 7.95752893 84 8 C84 6.02 84 4.04 84 2 C56.28 2 28.56 2 0 2 C0 1.34 0 0.68 0 0 Z " fill="#27478B" transform="translate(283,266)"/>
<path d="M0 0 C2.97 0 5.94 0 9 0 C9 2.97 9 5.94 9 9 C11.97 9 14.94 9 18 9 C18 11.97 18 14.94 18 18 C16.25034642 18.05429959 14.50020213 18.09292823 12.75 18.125 C11.77546875 18.14820313 10.8009375 18.17140625 9.796875 18.1953125 C6.9803502 17.99862781 5.39050964 17.44568916 3 16 C3 17.98 3 19.96 3 22 C1.35 22 -0.3 22 -2 22 C-2 21.34 -2 20.68 -2 20 C-4.0162233 20.71563266 -4.0162233 20.71563266 -6 22 C-6.80528889 24.05000871 -6.80528889 24.05000871 -7 26 C-7.33 26 -7.66 26 -8 26 C-8 23.36 -8 20.72 -8 18 C-5.36 18 -2.72 18 0 18 C0 12.06 0 6.12 0 0 Z " fill="#E0EAF3" transform="translate(422,266)"/>
<path d="M0 0 C6.27 0 12.54 0 19 0 C19 6.27 19 12.54 19 19 C18.34 19 17.68 19 17 19 C17 20.32 17 21.64 17 23 C14.6739143 23.38063221 12.33944736 23.71269945 10 24 C9 23 9 23 8.8671875 19.875 C8.86976563 18.59625 8.87234375 17.3175 8.875 16 C8.87113281 14.081875 8.87113281 14.081875 8.8671875 12.125 C9 9 9 9 10 8 C12.67058851 7.85884839 15.32432238 7.95752893 18 8 C18 5.69 18 3.38 18 1 C12.39 1 6.78 1 1 1 C1 3.97 1 6.94 1 10 C-1.97 10 -4.94 10 -8 10 C-8 12.64 -8 15.28 -8 18 C-10.97 18 -13.94 18 -17 18 C-17 15.03 -17 12.06 -17 9 C-11.39 9 -5.78 9 0 9 C0 6.03 0 3.06 0 0 Z " fill="#5C78B0" transform="translate(377,266)"/>
<path d="M0 0 C13.2 0 26.4 0 40 0 C40 0.33 40 0.66 40 1 C28.45 1 16.9 1 5 1 C4.67 1.66 4.34 2.32 4 3 C2.0625 5.625 2.0625 5.625 0 8 C-0.66 8 -1.32 8 -2 8 C-2.33 9.65 -2.66 11.3 -3 13 C-3.99 13 -4.98 13 -6 13 C-5.67 14.32 -5.34 15.64 -5 17 C1.6 17.33 8.2 17.66 15 18 C15.33 17.34 15.66 16.68 16 16 C16.66 16 17.32 16 18 16 C19.56438569 19.0505521 20.29359551 21.06927196 19.2421875 24.40234375 C18.22899805 26.6448225 17.16534995 28.83302695 16 31 C15.34 31 14.68 31 14 31 C14 32.32 14 33.64 14 35 C6.6660942 39.88927054 -1.50456802 39.23310637 -10 39 C-10 38.67 -10 38.34 -10 38 C-9.2265625 37.97421875 -8.453125 37.9484375 -7.65625 37.921875 C0.93786134 37.45387884 6.83653086 36.16346914 13 30 C13.99 26.7 14.98 23.4 16 20 C7.42 20 -1.16 20 -10 20 C-8.19224618 12.76898474 -3.65419153 6.4963405 0 0 Z " fill="#224487" transform="translate(114,234)"/>
<path d="M0 0 C20.46 0 40.92 0 62 0 C60.56245758 2.87508484 58.51525125 3.46557121 55.6875 4.9375 C52.88291408 6.40157623 50.2904047 7.77566621 47.78515625 9.7109375 C46 11 46 11 43.75 10.6875 C43.1725 10.460625 42.595 10.23375 42 10 C42.66 8.68 43.32 7.36 44 6 C44.99 6 45.98 6 47 6 C47 4.68 47 3.36 47 2 C31.49 2 15.98 2 0 2 C0 1.34 0 0.68 0 0 Z " fill="#4460A5" transform="translate(201,184)"/>
<path d="M0 0 C0.33 0 0.66 0 1 0 C0.67 4.29 0.34 8.58 0 13 C13.53 12.67 27.06 12.34 41 12 C41.33 10.68 41.66 9.36 42 8 C42 10.64 42 13.28 42 16 C27.48 16 12.96 16 -2 16 C-2 12.7 -2 9.4 -2 6 C-4.97 6 -7.94 6 -11 6 C-11 5.67 -11 5.34 -11 5 C-9.02 5 -7.04 5 -5 5 C-4.67 4.34 -4.34 3.68 -4 3 C-4 3.66 -4 4.32 -4 5 C-3.01 5 -2.02 5 -1 5 C-0.67 3.35 -0.34 1.7 0 0 Z " fill="#38538C" transform="translate(353,277)"/>
<path d="M0 0 C4.87436991 -0.22329729 9.74573961 -0.38613882 14.62402344 -0.49438477 C16.28112654 -0.53951672 17.93787369 -0.60084462 19.59375 -0.67895508 C33.39172627 -1.31329714 33.39172627 -1.31329714 37.38134766 1.94458008 C38.91235159 4.25087918 39.97262711 6.43775678 41 9 C43.46216572 12.25874875 46.06050249 15.16548454 49 18 C48.01 18.33 47.02 18.66 46 19 C44 18 44 18 43.1875 16.1875 C41.64606459 13.34801372 39.57595304 11.89807066 37 10 C36.34 10.33 35.68 10.66 35 11 C35.020625 10.195625 35.04125 9.39125 35.0625 8.5625 C35.29633621 6.06645115 35.29633621 6.06645115 34 5 C27.34473572 3.97957616 20.6978361 3.68273086 13.97851562 3.39453125 C9.25611902 3.17346668 4.66834251 2.75194779 0 2 C0 1.34 0 0.68 0 0 Z " fill="#395799" transform="translate(200,266)"/>
<path d="M0 0 C13.2 0 26.4 0 40 0 C40 8.25 40 16.5 40 25 C37.0609375 25.03738281 34.121875 25.07476562 31.09375 25.11328125 C28.22746607 25.15957558 25.36130865 25.21078045 22.49511719 25.26245117 C20.5127744 25.2955764 18.53034011 25.32364644 16.54785156 25.34643555 C13.68775671 25.38021054 10.82849108 25.43253688 7.96875 25.48828125 C6.65263733 25.49786613 6.65263733 25.49786613 5.30993652 25.50764465 C-0.42049996 25.64263642 -4.7365338 26.71188387 -10 29 C-10 28.01 -10 27.02 -10 26 C-8.35 25.67 -6.7 25.34 -5 25 C-5 24.34 -5 23.68 -5 23 C9.19 23 23.38 23 38 23 C38 15.74 38 8.48 38 1 C25.46 1 12.92 1 0 1 C0 0.67 0 0.34 0 0 Z " fill="#27438A" transform="translate(288,185)"/>
<path d="M0 0 C0.103125 0.639375 0.20625 1.27875 0.3125 1.9375 C0.6528125 2.9584375 0.6528125 2.9584375 1 4 C1.99 4.33 2.98 4.66 4 5 C1.03 7.31 -1.94 9.62 -5 12 C-5.33 11.34 -5.66 10.68 -6 10 C-8.04836882 10.56362302 -8.04836882 10.56362302 -10 12 C-10.81584568 15.05908413 -10.81584568 15.05908413 -11 18 C-11.99 18 -12.98 18 -14 18 C-14.18175781 19.03640625 -14.36351562 20.0728125 -14.55078125 21.140625 C-14.80411837 22.51052204 -15.0580563 23.88030806 -15.3125 25.25 C-15.43044922 25.93191406 -15.54839844 26.61382812 -15.66992188 27.31640625 C-16.41567926 31.25553499 -17.26417554 34.02661095 -20 37 C-21.08287017 25.95472431 -15.71524548 15.50953065 -9 7 C-6.22377889 3.89327637 -3.87687967 1.57946949 0 0 Z " fill="#18499C" transform="translate(175,197)"/>
<path d="M0 0 C0.33 0.66 0.66 1.32 1 2 C0.67 2.99 0.34 3.98 0 5 C-0.66 5.309375 -1.32 5.61875 -2 5.9375 C-4.19582643 6.80357334 -4.19582643 6.80357334 -4.625 9 C-4.74875 9.66 -4.8725 10.32 -5 11 C-5.66 11.66 -6.32 12.32 -7 13 C-7.165 13.825 -7.33 14.65 -7.5 15.5 C-8 18 -8 18 -10 20 C-10.33 21.175625 -10.66 22.35125 -11 23.5625 C-11.495 25.2640625 -11.495 25.2640625 -12 27 C-12.66 27.33 -13.32 27.66 -14 28 C-17.39304759 36.67112162 -16.18530027 45.96208545 -15 55 C-15.99 55.495 -15.99 55.495 -17 56 C-20.56756754 41.5283349 -18.20573023 25.49043351 -10.828125 12.69140625 C-7.67555144 8.05011739 -3.91192033 4.00754505 0 0 Z " fill="#2C4B85" transform="translate(255,197)"/>
<path d="M0 0 C4.72373854 1.62378512 8.94181834 4.10993018 13 7 C13 7.33 13 7.66 13 8 C-5.15 8 -23.3 8 -42 8 C-39.59766142 5.59766142 -39.01647698 5.73742532 -35.73388672 5.68115234 C-34.41274368 5.65134781 -34.41274368 5.65134781 -33.06491089 5.62094116 C-31.63672531 5.60361435 -31.63672531 5.60361435 -30.1796875 5.5859375 C-28.71899338 5.55688828 -28.71899338 5.55688828 -27.22879028 5.5272522 C-24.11094997 5.46735442 -20.99307294 5.42103029 -17.875 5.375 C-15.76430659 5.33682961 -13.65362892 5.29777844 -11.54296875 5.2578125 C-6.36211856 5.16164473 -1.18117403 5.07662736 4 5 C3.34 4.54625 2.68 4.0925 2 3.625 C1.34 3.08875 0.68 2.5525 0 2 C0 1.34 0 0.68 0 0 Z " fill="#1F458A" transform="translate(248,284)"/>
<path d="M0 0 C0.66 0 1.32 0 2 0 C2 1.65 2 3.3 2 5 C-17.47 5 -36.94 5 -57 5 C-57.33 4.34 -57.66 3.68 -58 3 C-29.29 2.505 -29.29 2.505 0 2 C0 1.34 0 0.68 0 0 Z " fill="#254581" transform="translate(340,287)"/>
<path d="M0 0 C1.1725131 0.95117134 2.33787015 1.91117009 3.5 2.875 C4.47453125 3.67550781 4.47453125 3.67550781 5.46875 4.4921875 C5.9740625 4.98976563 6.479375 5.48734375 7 6 C7 6.66 7 7.32 7 8 C7.639375 8.226875 8.27875 8.45375 8.9375 8.6875 C13.13320261 10.48565826 17.03900556 12.73904021 21 15 C20.67 15.66 20.34 16.32 20 17 C17.69 17 15.38 17 13 17 C13.33 17.99 13.66 18.98 14 20 C9.50985376 18.50328459 5.52151236 16.16631659 2 13 C2 12.34 2 11.68 2 11 C2.99 10.67 3.98 10.34 5 10 C3.95460281 7.74837528 2.88843583 5.85410839 1.375 3.875 C0 2 0 2 0 0 Z " fill="#E6F1F4" transform="translate(247,271)"/>
<path d="M0 0 C2.05078125 0.03255208 4.1015625 0.06510417 6.15234375 0.09765625 C6.15234375 3.06765625 6.15234375 6.03765625 6.15234375 9.09765625 C4.17234375 10.08765625 4.17234375 10.08765625 2.15234375 11.09765625 C1.49234375 10.76765625 0.83234375 10.43765625 0.15234375 10.09765625 C-0.17765625 10.75765625 -0.50765625 11.41765625 -0.84765625 12.09765625 C-5.13765625 11.76765625 -9.42765625 11.43765625 -13.84765625 11.09765625 C-13.84765625 10.43765625 -13.84765625 9.77765625 -13.84765625 9.09765625 C-10.21765625 9.09765625 -6.58765625 9.09765625 -2.84765625 9.09765625 C-2.86828125 7.79828125 -2.88890625 6.49890625 -2.91015625 5.16015625 C-2.93165079 3.80599992 -2.91913824 2.45009542 -2.84765625 1.09765625 C-1.84765625 0.09765625 -1.84765625 0.09765625 0 0 Z " fill="#F8FBFA" transform="translate(397.84765625,283.90234375)"/>
<path d="M0 0 C-1.31195783 2.88756268 -2.75482025 4.9617963 -4.9375 7.25 C-10.20451327 13.3283136 -11.51831029 19.21582939 -11.296875 27.1875 C-10.64021248 33.40851331 -8.4773433 39.28305393 -6 45 C-7.875 44.3125 -7.875 44.3125 -10 43 C-11.125 40.5 -11.125 40.5 -12 38 C-12.66 37.34 -13.32 36.68 -14 36 C-14.20061133 33.2297935 -14.27808437 30.58115046 -14.25 27.8125 C-14.25773437 27.06935547 -14.26546875 26.32621094 -14.2734375 25.56054688 C-14.25631242 20.67561657 -13.54681002 16.63429193 -12 12 C-11.34 12 -10.68 12 -10 12 C-9.67 9.69 -9.34 7.38 -9 5 C-7.35 4.67 -5.7 4.34 -4 4 C-4 3.01 -4 2.02 -4 1 C-2 0 -2 0 0 0 Z " fill="#33518C" transform="translate(277,213)"/>
<path d="M0 0 C0.33 0.99 0.66 1.98 1 3 C-0.28757407 4.70226572 -1.63012497 6.36323552 -3 8 C-4.13583963 10.07629401 -5.21978292 12.18182376 -6.25 14.3125 C-6.77078125 15.38113281 -7.2915625 16.44976562 -7.828125 17.55078125 C-8.40820312 18.76314453 -8.40820312 18.76314453 -9 20 C-9.33 20 -9.66 20 -10 20 C-10 18.35 -10 16.7 -10 15 C-10.99 15 -11.98 15 -13 15 C-13 15.66 -13 16.32 -13 17 C-16.21451269 18.60725635 -19.43612536 18.05748185 -23 18 C-15.5 13 -15.5 13 -12 13 C-11.01 10.03 -10.02 7.06 -9 4 C-8.67 4.66 -8.34 5.32 -8 6 C-7.34 6 -6.68 6 -6 6 C-5.67 5.01 -5.34 4.02 -5 3 C-4.34 3 -3.68 3 -3 3 C-2.67 2.34 -2.34 1.68 -2 1 C-1.34 0.67 -0.68 0.34 0 0 Z " fill="#EBF1F8" transform="translate(167,200)"/>
<path d="M0 0 C1 3 1 3 1 5 C-0.74001935 6.55961601 -2.54303197 8.04949575 -4.375 9.5 C-8.31482541 12.60759138 -8.31482541 12.60759138 -12 16 C-13.31747324 16.69748583 -14.64914193 17.36959957 -16 18 C-16 18.99 -16 19.98 -16 21 C-21.03733166 22.5111995 -25.88171027 21.64599773 -31 21 C-28.38183479 19.25455653 -26.34839384 18.31530304 -23.4375 17.25 C-13.52468506 13.31084646 -6.65820647 8.36925394 0 0 Z " fill="#DCEDF3" transform="translate(151,272)"/>
<path d="M0 0 C2.31 0.66 4.62 1.32 7 2 C7 1.34 7 0.68 7 0 C7.99 0 8.98 0 10 0 C9.67 1.32 9.34 2.64 9 4 C8.34 4 7.68 4 7 4 C7 4.66 7 5.32 7 6 C7.58007812 6.06058594 8.16015625 6.12117188 8.7578125 6.18359375 C13.20092863 6.66016561 17.59905423 7.21008666 22 8 C22 8.66 22 9.32 22 10 C21.01 10 20.02 10 19 10 C19.495 10.45375 19.99 10.9075 20.5 11.375 C22 13 22 13 22 15 C14.17626448 12.94787265 8.0593383 9.39643633 2 4 C0.68359375 1.74609375 0.68359375 1.74609375 0 0 Z " fill="#2A4F9E" transform="translate(169,274)"/>
<path d="M0 0 C1.10106079 0.00193359 1.10106079 0.00193359 2.22436523 0.00390625 C8.35644721 0.11138058 13.90848015 1.21557703 19.6875 3.3125 C19.6875 3.6425 19.6875 3.9725 19.6875 4.3125 C18.06259046 4.33948189 16.43755367 4.35888757 14.8125 4.375 C13.45511719 4.39240234 13.45511719 4.39240234 12.0703125 4.41015625 C9.6875 4.3125 9.6875 4.3125 7.6875 3.3125 C4.80379667 3.24055131 1.94510336 3.21958292 -0.9375 3.25 C-1.73929688 3.25451172 -2.54109375 3.25902344 -3.3671875 3.26367188 C-5.34899006 3.27546832 -7.33075433 3.29340395 -9.3125 3.3125 C-9.3125 3.9725 -9.3125 4.6325 -9.3125 5.3125 C-10.3025 5.3125 -11.2925 5.3125 -12.3125 5.3125 C-12.6425 5.9725 -12.9725 6.6325 -13.3125 7.3125 C-13.3125 6.6525 -13.3125 5.9925 -13.3125 5.3125 C-13.9725 5.3125 -14.6325 5.3125 -15.3125 5.3125 C-15.3125 5.9725 -15.3125 6.6325 -15.3125 7.3125 C-15.9725 7.3125 -16.6325 7.3125 -17.3125 7.3125 C-16.9825 5.6625 -16.6525 4.0125 -16.3125 2.3125 C-10.75160503 0.74596281 -5.76957585 -0.04250637 0 0 Z " fill="#345594" transform="translate(108.3125,183.6875)"/>
<path d="M0 0 C0.84064499 0.00007553 1.68128998 0.00015106 2.54740906 0.00022888 C3.45062393 0.00539017 4.35383881 0.01055145 5.28442383 0.01586914 C6.21241287 0.01728409 7.14040192 0.01869904 8.09651184 0.02015686 C11.06152566 0.02575602 14.02646407 0.03830835 16.99145508 0.05102539 C19.00121961 0.0560405 21.01098533 0.06060339 23.02075195 0.06469727 C27.9485154 0.07572518 32.87622245 0.09298922 37.80395508 0.11352539 C37.47395508 0.77352539 37.14395508 1.43352539 36.80395508 2.11352539 C30.85945375 2.30557734 24.91475997 2.4843333 18.96948242 2.65063477 C16.94593516 2.70912818 14.92249056 2.77129023 12.89916992 2.8371582 C9.9952259 2.9310633 7.09117141 3.01188139 4.18676758 3.09008789 C3.27839142 3.12228424 2.37001526 3.15448059 1.43411255 3.18765259 C0.59339203 3.2078244 -0.24732849 3.22799622 -1.11352539 3.2487793 C-2.22605179 3.28208847 -2.22605179 3.28208847 -3.36105347 3.31607056 C-5.19604492 3.11352539 -5.19604492 3.11352539 -7.19604492 1.11352539 C-4.4401914 0.19490755 -2.83643802 -0.00851783 0 0 Z " fill="#CCDEF1" transform="translate(290.196044921875,209.886474609375)"/>
<path d="M0 0 C0.33 0 0.66 0 1 0 C1.144375 1.093125 1.28875 2.18625 1.4375 3.3125 C1.88288104 6.93122987 1.88288104 6.93122987 3 10 C2.72230092 12.3406065 2.39460023 14.67624308 2 17 C1.01 16.67 0.02 16.34 -1 16 C-0.50269348 20.97306516 0.55302334 24.63799813 3 29 C2.34 29.66 1.68 30.32 1 31 C-2.99367501 22.14445976 -5.05723601 12.74253131 -1.5 3.3125 C-1.005 2.219375 -0.51 1.12625 0 0 Z " fill="#F9F9F1" transform="translate(268,224)"/>
<path d="M0 0 C0.66 0 1.32 0 2 0 C2.804375 1.299375 2.804375 1.299375 3.625 2.625 C6.97882884 7.94573598 12.40011476 11.35005431 18 14 C17.34 14 16.68 14 16 14 C16 14.99 16 15.98 16 17 C14.02 17.33 12.04 17.66 10 18 C9.67 17.01 9.34 16.02 9 15 C8.01 14.34 7.02 13.68 6 13 C4.8125 10.875 4.8125 10.875 4 9 C3.34 9 2.68 9 2 9 C0.50178941 5.62902617 0 3.79557881 0 0 Z " fill="#244997" transform="translate(184,252)"/>
<path d="M0 0 C2.97 0 5.94 0 9 0 C9 2.97 9 5.94 9 9 C6.03 9 3.06 9 0 9 C0 6.03 0 3.06 0 0 Z " fill="#29457A" transform="translate(431,275)"/>
<path d="M0 0 C2.97 0 5.94 0 9 0 C9 2.97 9 5.94 9 9 C6.03 9 3.06 9 0 9 C0 6.03 0 3.06 0 0 Z " fill="#234693" transform="translate(422,266)"/>
<path d="M0 0 C4.29 0 8.58 0 13 0 C13 1.65 13 3.3 13 5 C12.30132812 5.13277344 11.60265625 5.26554687 10.8828125 5.40234375 C9.97273438 5.57894531 9.06265625 5.75554687 8.125 5.9375 C6.76761719 6.19853516 6.76761719 6.19853516 5.3828125 6.46484375 C3.00043683 6.89963701 3.00043683 6.89963701 1 8 C1 7.01 1 6.02 1 5 C0.34 5 -0.32 5 -1 5 C-0.67 3.35 -0.34 1.7 0 0 Z " fill="#204794" transform="translate(381,268)"/>
<path d="M0 0 C2.64 0 5.28 0 8 0 C8 2.97 8 5.94 8 9 C5.36 9 2.72 9 0 9 C0 6.03 0 3.06 0 0 Z " fill="#D5E7F9" transform="translate(405,275)"/>
<path d="M0 0 C2.64 0 5.28 0 8 0 C8 2.97 8 5.94 8 9 C5.36 9 2.72 9 0 9 C0 6.03 0 3.06 0 0 Z " fill="#21407E" transform="translate(396,275)"/>
<path d="M0 0 C2.64 0 5.28 0 8 0 C8 2.97 8 5.94 8 9 C5.36 9 2.72 9 0 9 C0 6.03 0 3.06 0 0 Z " fill="#ECF9FA" transform="translate(387,275)"/>
<path d="M0 0 C0.70189453 0.00451172 1.40378906 0.00902344 2.12695312 0.01367188 C3.85550538 0.02543073 5.58401365 0.04336546 7.3125 0.0625 C7.3125 0.3925 7.3125 0.7225 7.3125 1.0625 C3.6825 1.3925 0.0525 1.7225 -3.6875 2.0625 C-3.6875 3.0525 -3.6875 4.0425 -3.6875 5.0625 C-4.76 5.18625 -5.8325 5.31 -6.9375 5.4375 C-10.52842264 5.84011368 -10.52842264 5.84011368 -12.875 7.1875 C-15.21336807 8.31636735 -16.26140589 7.77576162 -18.6875 7.0625 C-17.42049277 6.0783875 -16.1487381 5.10038503 -14.875 4.125 C-14.16730469 3.57972656 -13.45960937 3.03445312 -12.73046875 2.47265625 C-8.66840123 -0.33118003 -4.7325911 -0.05744508 0 0 Z " fill="#ECF8FA" transform="translate(107.6875,207.9375)"/>
<path d="M0 0 C0.66 0.33 1.32 0.66 2 1 C1.67515625 2.0209375 1.67515625 2.0209375 1.34375 3.0625 C-2.06524619 14.93085712 -2.2222315 27.03171156 1 39 C-2 37 -2 37 -2.73046875 34.92578125 C-4.87150364 22.68345356 -5.33197458 11.44946326 0 0 Z " fill="#E2F2FA" transform="translate(55,219)"/>
<path d="M0 0 C2 2 2 2 2.1953125 4.1640625 C2.17210937 4.97617187 2.14890625 5.78828125 2.125 6.625 C2.10695313 7.44226563 2.08890625 8.25953125 2.0703125 9.1015625 C2.03550781 10.04128906 2.03550781 10.04128906 2 11 C-0.64 11 -3.28 11 -6 11 C-6 8.36 -6 5.72 -6 3 C-5.34 3 -4.68 3 -4 3 C-3.01 4.485 -3.01 4.485 -2 6 C-3.44754255 4.55245745 -3.55733561 2.96037087 -4 1 C-2.125 0.375 -2.125 0.375 0 0 Z " fill="#EEF7FA" transform="translate(402,264)"/>
<path d="M0 0 C2.64 0 5.28 0 8 0 C8 2.64 8 5.28 8 8 C5.36 8 2.72 8 0 8 C0 5.36 0 2.72 0 0 Z " fill="#1C4A9C" transform="translate(405,285)"/>
<path d="M0 0 C2.64 0 5.28 0 8 0 C8 2.64 8 5.28 8 8 C5.36 8 2.72 8 0 8 C0 5.36 0 2.72 0 0 Z " fill="#21428D" transform="translate(414,276)"/>
<path d="M0 0 C2.64 0 5.28 0 8 0 C8 2.64 8 5.28 8 8 C5.36 8 2.72 8 0 8 C0 5.36 0 2.72 0 0 Z " fill="#ECF8F9" transform="translate(360,276)"/>
<path d="M0 0 C1.31223496 3.93670488 0.24296256 6.12488144 -1 10 C-1.99 10 -2.98 10 -4 10 C-4.18175781 11.03640625 -4.36351562 12.0728125 -4.55078125 13.140625 C-4.80411837 14.51052204 -5.0580563 15.88030806 -5.3125 17.25 C-5.43044922 17.93191406 -5.54839844 18.61382812 -5.66992188 19.31640625 C-6.41567926 23.25553499 -7.26417554 26.02661095 -10 29 C-11.0497103 18.29295491 -5.9228463 8.63043318 0 0 Z " fill="#355391" transform="translate(165,205)"/>
<path d="M0 0 C-5 4 -10 8 -15 12 C-15.6875 8.6875 -15.6875 8.6875 -16 5 C-14.6875 3.0625 -14.6875 3.0625 -13 2 C-12.34 2 -11.68 2 -11 2 C-11 2.66 -11 3.32 -11 4 C-10.34 4 -9.68 4 -9 4 C-9 3.34 -9 2.68 -9 2 C-5.96271914 -1.03728086 -4.06215635 -1.35405212 0 0 Z " fill="#E5F0F5" transform="translate(80,192)"/>
<path d="M0 0 C2.625 0.9375 2.625 0.9375 5 2 C5 2.33 5 2.66 5 3 C-13.15 3 -31.3 3 -50 3 C-50 2.67 -50 2.34 -50 2 C-49.10464035 1.9845388 -49.10464035 1.9845388 -48.19119263 1.96876526 C-41.99469771 1.86082612 -35.79835193 1.74621812 -29.60205078 1.62768555 C-27.28762931 1.58429624 -24.973175 1.54262416 -22.65869141 1.50268555 C-19.33746427 1.44507968 -16.01640308 1.38135749 -12.6953125 1.31640625 C-11.65569366 1.29969376 -10.61607483 1.28298126 -9.54495239 1.26576233 C-8.58410736 1.24581711 -7.62326233 1.22587189 -6.63330078 1.20532227 C-5.36089035 1.18200584 -5.36089035 1.18200584 -4.06277466 1.15821838 C-1.93681695 1.12570042 -1.93681695 1.12570042 0 0 Z " fill="#264175" transform="translate(256,289)"/>
<path d="M0 0 C2.7824349 1.39121745 3.55210065 3.30164212 5 6 C5 6.66 5 7.32 5 8 C4.01 8 3.02 8 2 8 C1.67 8.99 1.34 9.98 1 11 C0.67 10.67 0.34 10.34 0 10 C-0.33 10.66 -0.66 11.32 -1 12 C-2.32 12 -3.64 12 -5 12 C-4.42365861 7.24518354 -2.44931479 4.02951788 0 0 Z " fill="#E8F1F5" transform="translate(158,260)"/>
<path d="M0 0 C0.90013321 0.00141495 1.80026642 0.0028299 2.72767639 0.00428772 C5.58020462 0.00984965 8.43265206 0.02239498 11.28515625 0.03515625 C13.22851449 0.04017617 15.17187396 0.04473822 17.11523438 0.04882812 C21.85940575 0.05980659 26.60351734 0.07704472 31.34765625 0.09765625 C31.34765625 0.42765625 31.34765625 0.75765625 31.34765625 1.09765625 C30.21336182 1.11747559 29.07906738 1.13729492 27.91040039 1.15771484 C23.66653779 1.23429454 19.42299489 1.32292746 15.17944336 1.41503906 C13.34942985 1.45311393 11.51934698 1.48800263 9.68920898 1.51953125 C7.0451594 1.56565258 4.40157867 1.62356456 1.7578125 1.68359375 C0.95118668 1.69514496 0.14456085 1.70669617 -0.68650818 1.71859741 C-6.20998735 1.85927894 -11.30494147 2.71685549 -16.65234375 4.09765625 C-16.65234375 3.10765625 -16.65234375 2.11765625 -16.65234375 1.09765625 C-11.05733212 0.14369852 -5.66898711 -0.03399489 0 0 Z " fill="#F0FDFF" transform="translate(208.65234375,182.90234375)"/>
<path d="M0 0 C0.99 0.33 1.98 0.66 3 1 C2.505 2.0725 2.01 3.145 1.5 4.25 C-1.19813587 11.40260546 -0.63878553 19.62546512 1 27 C0.34 27 -0.32 27 -1 27 C-4.50176749 21.4752991 -3.45384681 14.2815029 -3 8 C-2.27398794 5.03300273 -1.34952566 2.75528155 0 0 Z " fill="#214580" transform="translate(183,223)"/>
<path d="M0 0 C2.05078125 0.03255208 4.1015625 0.06510417 6.15234375 0.09765625 C6.15234375 0.42765625 6.15234375 0.75765625 6.15234375 1.09765625 C4.17234375 1.09765625 2.19234375 1.09765625 0.15234375 1.09765625 C0.15234375 2.74765625 0.15234375 4.39765625 0.15234375 6.09765625 C-0.50765625 6.09765625 -1.16765625 6.09765625 -1.84765625 6.09765625 C-1.51765625 8.07765625 -1.18765625 10.05765625 -0.84765625 12.09765625 C-5.13765625 11.76765625 -9.42765625 11.43765625 -13.84765625 11.09765625 C-13.84765625 10.43765625 -13.84765625 9.77765625 -13.84765625 9.09765625 C-10.21765625 9.09765625 -6.58765625 9.09765625 -2.84765625 9.09765625 C-2.86828125 7.79828125 -2.88890625 6.49890625 -2.91015625 5.16015625 C-2.93165079 3.80599992 -2.91913824 2.45009542 -2.84765625 1.09765625 C-1.84765625 0.09765625 -1.84765625 0.09765625 0 0 Z " fill="#EFFBFB" transform="translate(397.84765625,283.90234375)"/>
<path d="M0 0 C0.66 0 1.32 0 2 0 C1.67 3.63 1.34 7.26 1 11 C-11.21 11 -23.42 11 -36 11 C-36 10.67 -36 10.34 -36 10 C-24.12 10 -12.24 10 0 10 C-0.495 5.545 -0.495 5.545 -1 1 C-0.67 0.67 -0.34 0.34 0 0 Z " fill="#E2F6FE" transform="translate(154,222)"/>
<path d="M0 0 C0.7003688 0.00424484 1.40073761 0.00848969 2.12232971 0.01286316 C4.33326625 0.02949719 6.54325082 0.06711695 8.75390625 0.10546875 C10.2636586 0.12053549 11.77342541 0.13422039 13.28320312 0.14648438 C16.96124059 0.17934954 20.63873032 0.23102293 24.31640625 0.29296875 C24.31640625 0.62296875 24.31640625 0.95296875 24.31640625 1.29296875 C23.17594849 1.31484253 23.17594849 1.31484253 22.01245117 1.3371582 C18.50913666 1.41243252 15.00669393 1.50882755 11.50390625 1.60546875 C10.30830078 1.62802734 9.11269531 1.65058594 7.88085938 1.67382812 C0.2818028 1.90159276 -6.46024032 2.8993604 -13.68359375 5.29296875 C-14.01359375 4.63296875 -14.34359375 3.97296875 -14.68359375 3.29296875 C-9.531987 0.76527036 -5.84160995 -0.07038084 0 0 Z " fill="#BED8F9" transform="translate(210.68359375,209.70703125)"/>
<path d="M0 0 C3.31865451 3.06337339 5.87740359 6.47281301 8.5390625 10.09375 C10.19467615 12.25401594 12.00081998 14.15460306 14 16 C13.01 16.33 12.02 16.66 11 17 C9 16 9 16 8.1875 14.1875 C6.64606459 11.34801372 4.57595304 9.89807066 2 8 C1.01 8.495 1.01 8.495 0 9 C0 6 0 3 0 0 Z " fill="#32538B" transform="translate(235,268)"/>
<path d="M0 0 C0 0.33 0 0.66 0 1 C-10 3 -10 3 -12.5 3.46875 C-15.15717053 4.03339874 -17.71580565 4.7661804 -20.3125 5.5625 C-21.19550781 5.83191406 -22.07851562 6.10132813 -22.98828125 6.37890625 C-23.98408203 6.68634766 -23.98408203 6.68634766 -25 7 C-25 6.34 -25 5.68 -25 5 C-16.34361157 0.36827009 -9.80933783 -1.46054527 0 0 Z " fill="#2B4D8A" transform="translate(207,186)"/>
<path d="M0 0 C2.31 0.66 4.62 1.32 7 2 C7 1.34 7 0.68 7 0 C7.99 0 8.98 0 10 0 C9.67 1.32 9.34 2.64 9 4 C8.34 4 7.68 4 7 4 C7 4.66 7 5.32 7 6 C7.99 6 8.98 6 10 6 C12.1875 8.5 12.1875 8.5 14 11 C8.11497889 9.67587025 4.03910791 6.3466542 0 2 C0 1.34 0 0.68 0 0 Z " fill="#294A8B" transform="translate(169,274)"/>
<path d="M0 0 C0.33 0.66 0.66 1.32 1 2 C1.99 1.34 2.98 0.68 4 0 C4.99 0 5.98 0 7 0 C7.66 2.64 8.32 5.28 9 8 C7.68 8.33 6.36 8.66 5 9 C3.02 6.69 1.04 4.38 -1 2 C-0.67 1.34 -0.34 0.68 0 0 Z " fill="#F6F7F6" transform="translate(87,258)"/>
<path d="M0 0 C-2.76825188 1.17314026 -5.53928486 2.33870215 -8.3125 3.5 C-9.09818359 3.83386719 -9.88386719 4.16773438 -10.69335938 4.51171875 C-11.8293457 4.98544922 -11.8293457 4.98544922 -12.98828125 5.46875 C-13.68477783 5.76201172 -14.38127441 6.05527344 -15.09887695 6.35742188 C-17 7 -17 7 -20 7 C-19.67 5.68 -19.34 4.36 -19 3 C-18.02160156 2.81824219 -18.02160156 2.81824219 -17.0234375 2.6328125 C-13.0933677 1.87925929 -9.35187593 1.12155714 -5.5625 -0.1875 C-3 -1 -3 -1 0 0 Z " fill="#2C4E86" transform="translate(149,216)"/>
<path d="M0 0 C0.99 0.33 1.98 0.66 3 1 C1.90081184 1.98475214 0.7954398 2.96260473 -0.3125 3.9375 C-0.92738281 4.48277344 -1.54226562 5.02804687 -2.17578125 5.58984375 C-5.40849017 8.08879005 -8.25300157 8.11359738 -12.1875 8.0625 C-13.53908203 8.04896484 -13.53908203 8.04896484 -14.91796875 8.03515625 C-15.60503906 8.02355469 -16.29210937 8.01195312 -17 8 C-17 7.34 -17 6.68 -17 6 C-15.18885568 5.63896464 -13.37603177 5.28634496 -11.5625 4.9375 C-10.55316406 4.74027344 -9.54382813 4.54304688 -8.50390625 4.33984375 C-7.26447266 4.17162109 -7.26447266 4.17162109 -6 4 C-5.67 4.33 -5.34 4.66 -5 5 C-4.34 4.01 -3.68 3.02 -3 2 C-2.01 2 -1.02 2 0 2 C0 1.34 0 0.68 0 0 Z " fill="#EDF5FD" transform="translate(125,263)"/>
<path d="M0 0 C5.87477571 1.25888051 8.76818983 4.15228475 12 9 C13.375 12.4375 13.375 12.4375 14 15 C13.01 14.67 12.02 14.34 11 14 C11 13.34 11 12.68 11 12 C10.01 11.67 9.02 11.34 8 11 C6.9375 8.625 6.9375 8.625 6 6 C5.34 5.01 4.68 4.02 4 3 C1.41619823 2.74969023 1.41619823 2.74969023 -1 3 C-0.67 2.01 -0.34 1.02 0 0 Z " fill="#E6F3FC" transform="translate(116,209)"/>
<path d="M0 0 C0.66 0.66 1.32 1.32 2 2 C1.67 2.33 1.34 2.66 1 3 C1.66 3.66 2.32 4.32 3 5 C1.68 5.33 0.36 5.66 -1 6 C-0.0022242 8.99332739 0.7522025 9.94766315 3 12 C2.01 14.31 1.02 16.62 0 19 C-0.33 19 -0.66 19 -1 19 C-0.93489583 16.98177083 -0.86979167 14.96354167 -0.8046875 12.9453125 C-0.81668311 10.76136355 -0.81668311 10.76136355 -3 9 C-2.67 8.34 -2.34 7.68 -2 7 C-2.66 7 -3.32 7 -4 7 C-2.92598892 4.08482708 -2.22189824 2.22189824 0 0 Z " fill="#E3EEF6" transform="translate(240,202)"/>
<path d="M0 0 C2 3.75 2 3.75 2 6 C2.61875 5.79375 3.2375 5.5875 3.875 5.375 C4.57625 5.25125 5.2775 5.1275 6 5 C8 7 8 7 8 9 C8.33 9.99 8.66 10.98 9 12 C3.59510481 10.47987323 0.01507372 6.72614782 -4 3 C-2.68 2.67 -1.36 2.34 0 2 C0 1.34 0 0.68 0 0 Z " fill="#E6EEF3" transform="translate(191,253)"/>
<path d="M0 0 C0.33 0 0.66 0 1 0 C1.20086443 3.71599191 1.1519437 4.77208445 -1 8 C-1.39387788 10.32387947 -1.73486085 12.65793749 -2 15 C-2.66 14.67 -3.32 14.34 -4 14 C-4.33 18.95 -4.66 23.9 -5 29 C-5.33 29 -5.66 29 -6 29 C-6.78724946 17.64319759 -5.79453254 10.07144942 0 0 Z " fill="#D7E6F5" transform="translate(87,216)"/>
<path d="M0 0 C0.9075 0.185625 1.815 0.37125 2.75 0.5625 C5.84152389 1.2034701 5.84152389 1.2034701 8.125 0.375 C10 0 10 0 12.25 1.4375 C12.8275 1.953125 13.405 2.46875 14 3 C13 4 13 4 9.4375 4.0625 C8.303125 4.041875 7.16875 4.02125 6 4 C6.33 4.99 6.66 5.98 7 7 C4.625 6.3125 4.625 6.3125 2 5 C0.6875 2.375 0.6875 2.375 0 0 Z " fill="#E8F0F5" transform="translate(254,284)"/>
<path d="M0 0 C2.31 1.98 4.62 3.96 7 6 C6.34 6.66 5.68 7.32 5 8 C4.01 8 3.02 8 2 8 C2 8.66 2 9.32 2 10 C0.68 10 -0.64 10 -2 10 C-1.33333333 6.66666667 -0.66666667 3.33333333 0 0 Z " fill="#E5EFF8" transform="translate(66,275)"/>
<path d="M0 0 C-0.66386719 0.45890625 -1.32773438 0.9178125 -2.01171875 1.390625 C-6.44798964 4.47334754 -10.84624016 7.53853346 -15 11 C-15.33 10.01 -15.66 9.02 -16 8 C-15.34 8 -14.68 8 -14 8 C-13.9071875 7.1028125 -13.9071875 7.1028125 -13.8125 6.1875 C-12.39147837 2.36167253 -8.88425233 1.42107254 -5.375 -0.25 C-3 -1 -3 -1 0 0 Z " fill="#294686" transform="translate(201,211)"/>
<path d="M0 0 C1.65 0 3.3 0 5 0 C5 0.66 5 1.32 5 2 C6.29233607 3.37310707 7.62437146 4.71034824 9 6 C6.50907189 7.24546405 5.58919267 6.7767578 3 6 C2.67 6.66 2.34 7.32 2 8 C0.68 6.68 -0.64 5.36 -2 4 C-1.34 2.68 -0.68 1.36 0 0 Z " fill="#194AA8" transform="translate(263,278)"/>
<path d="M0 0 C-1.98 0.99 -1.98 0.99 -4 2 C-4 2.66 -4 3.32 -4 4 C-6.75078884 4.91692961 -8.35948913 5.10886083 -11.1875 5.0625 C-13.0746875 5.0315625 -13.0746875 5.0315625 -15 5 C-15 4.34 -15 3.68 -15 3 C-9.63560356 0.31780178 -5.98993047 -0.3152595 0 0 Z " fill="#23438A" transform="translate(287,185)"/>
<path d="M0 0 C0.33 0 0.66 0 1 0 C0.99476318 0.58491211 0.98952637 1.16982422 0.98413086 1.77246094 C0.96329842 4.43162963 0.95031993 7.09078111 0.9375 9.75 C0.92912109 10.67039063 0.92074219 11.59078125 0.91210938 12.5390625 C0.90888672 13.42851562 0.90566406 14.31796875 0.90234375 15.234375 C0.89710693 16.05131836 0.89187012 16.86826172 0.88647461 17.70996094 C0.99725314 19.94459031 1.41824662 21.84782881 2 24 C2 24.66 2 25.32 2 26 C2.66 26 3.32 26 4 26 C3.67 26.99 3.34 27.98 3 29 C-0.14000899 25.04085823 -1.12619593 22.1798656 -1.1328125 17.1484375 C-1.13474609 15.74851563 -1.13474609 15.74851563 -1.13671875 14.3203125 C-1.13091797 12.86238281 -1.13091797 12.86238281 -1.125 11.375 C-1.12886719 10.3953125 -1.13273437 9.415625 -1.13671875 8.40625 C-1.13542969 7.47554687 -1.13414063 6.54484375 -1.1328125 5.5859375 C-1.13168457 4.7304834 -1.13055664 3.8750293 -1.12939453 2.99365234 C-1 1 -1 1 0 0 Z " fill="#EAF8FC" transform="translate(83,229)"/>
<path d="M0 0 C0.99 0.33 1.98 0.66 3 1 C2.74609375 2.859375 2.74609375 2.859375 2 5 C0.22265625 6.265625 0.22265625 6.265625 -1.9375 7.25 C-3.00291016 7.75273437 -3.00291016 7.75273437 -4.08984375 8.265625 C-6 9 -6 9 -8 9 C-6.40758592 4.70048197 -3.64459275 2.60328053 0 0 Z " fill="#E4F3FB" transform="translate(195,214)"/>
<path d="M0 0 C0.66 0.33 1.32 0.66 2 1 C0.375 6.75 0.375 6.75 -3 9 C-5.1875 8.625 -5.1875 8.625 -7 8 C-7 6.35 -7 4.7 -7 3 C-5.02 3 -3.04 3 -1 3 C-0.67 2.01 -0.34 1.02 0 0 Z " fill="#2648A8" transform="translate(90,208)"/>
<path d="M0 0 C10.21260287 -0.35396698 19.10630347 0.15386812 29 3 C26 5 26 5 23.3203125 4.57421875 C21.73863281 4.13529297 21.73863281 4.13529297 20.125 3.6875 C13.41473399 1.9816281 6.90193784 1.32758788 0 1 C0 0.67 0 0.34 0 0 Z " fill="#E0F4FA" transform="translate(104,183)"/>
<path d="M0 0 C4.42091465 0.49121274 5.96588491 1.87106881 9 5 C11.42383077 6.16953416 11.42383077 6.16953416 14 7 C16.5 8 16.5 8 19 9 C17.37890625 10.1953125 17.37890625 10.1953125 15 11 C12.08984375 9.8046875 12.08984375 9.8046875 8.9375 7.875 C7.89464844 7.25367188 6.85179688 6.63234375 5.77734375 5.9921875 C3.22002939 4.15782699 1.68509142 2.62384476 0 0 Z " fill="#2C4F87" transform="translate(71,279)"/>
<path d="M0 0 C2.97 0 5.94 0 9 0 C8.67 0.66 8.34 1.32 8 2 C7.34 1.67 6.68 1.34 6 1 C6 2.98 6 4.96 6 7 C5.38125 6.79375 4.7625 6.5875 4.125 6.375 C3.42375 6.25125 2.7225 6.1275 2 6 C1.34 6.66 0.68 7.32 0 8 C0 5.36 0 2.72 0 0 Z " fill="#EBF7F5" transform="translate(342,284)"/>
<path d="M0 0 C1.99954746 -0.04254356 4.00041636 -0.04080783 6 0 C7 1 7 1 7.0625 3.5625 C7.041875 4.366875 7.02125 5.17125 7 6 C4.36 5.67 1.72 5.34 -1 5 C-0.67 3.35 -0.34 1.7 0 0 Z " fill="#1E45A1" transform="translate(432,277)"/>
<path d="M0 0 C2.52349243 3.12432397 4.27256146 6.38060496 6 10 C3.69 10 1.38 10 -1 10 C-1.33 9.01 -1.66 8.02 -2 7 C-1.34 7 -0.68 7 0 7 C-0.185625 6.030625 -0.37125 5.06125 -0.5625 4.0625 C-0.706875 3.051875 -0.85125 2.04125 -1 1 C-0.67 0.67 -0.34 0.34 0 0 Z " fill="#315395" transform="translate(83,254)"/>
<path d="M0 0 C0.93423645 3.01031744 1.04449911 3.86650268 0 7 C7.59 7 15.18 7 23 7 C23 7.33 23 7.66 23 8 C14.42 8 5.84 8 -3 8 C-2.22404875 4.89619499 -1.4731994 2.74997221 0 0 Z " fill="#2F4C7C" transform="translate(107,246)"/>
<path d="M0 0 C0.33 0.66 0.66 1.32 1 2 C0.67 2.99 0.34 3.98 0 5 C-0.66 5.309375 -1.32 5.61875 -2 5.9375 C-2.99 6.4634375 -2.99 6.4634375 -4 7 C-4.2165625 7.8971875 -4.2165625 7.8971875 -4.4375 8.8125 C-5.28708366 12.11643647 -7.54812874 13.73673422 -10 16 C-10.33 15.01 -10.66 14.02 -11 13 C-9.70703125 10.87890625 -9.70703125 10.87890625 -7.8125 8.5625 C-7.20019531 7.80066406 -6.58789062 7.03882813 -5.95703125 6.25390625 C-4.05753388 4.06626158 -2.07544859 2.02022601 0 0 Z " fill="#2D5192" transform="translate(255,197)"/>
<path d="M0 0 C6.93 0.33 13.86 0.66 21 1 C21 1.33 21 1.66 21 2 C19.7934375 2.03738281 18.586875 2.07476562 17.34375 2.11328125 C15.72913822 2.17899219 14.11455622 2.24543771 12.5 2.3125 C11.31277344 2.34633789 11.31277344 2.34633789 10.1015625 2.38085938 C4.49673929 2.63353583 0.16173473 3.79205613 -5 6 C-5 5.01 -5 4.02 -5 3 C-3.35 2.67 -1.7 2.34 0 2 C0 1.34 0 0.68 0 0 Z " fill="#254585" transform="translate(283,208)"/>
<path d="M0 0 C3.625 -0.1875 3.625 -0.1875 7 0 C6.67 0.99 6.34 1.98 6 3 C3.36 3 0.72 3 -2 3 C-1.34 2.01 -0.68 1.02 0 0 Z M-6 2 C-3.5625 2.8125 -3.5625 2.8125 -1 4 C-0.67 4.99 -0.34 5.98 0 7 C-2.4375 6.1875 -2.4375 6.1875 -5 5 C-5.33 4.01 -5.66 3.02 -6 2 Z " fill="#2445AB" transform="translate(261,272)"/>
<path d="M0 0 C0.91007812 0.10183594 1.82015625 0.20367187 2.7578125 0.30859375 C3.45648438 0.39238281 4.15515625 0.47617187 4.875 0.5625 C4.875 0.8925 4.875 1.2225 4.875 1.5625 C1.905 1.5625 -1.065 1.5625 -4.125 1.5625 C-4.125 4.5325 -4.125 7.5025 -4.125 10.5625 C-6.765 10.5625 -9.405 10.5625 -12.125 10.5625 C-12.125 10.2325 -12.125 9.9025 -12.125 9.5625 C-10.145 9.5625 -8.165 9.5625 -6.125 9.5625 C-5.795 8.2425 -5.465 6.9225 -5.125 5.5625 C-5.785 5.5625 -6.445 5.5625 -7.125 5.5625 C-7.125 3.9125 -7.125 2.2625 -7.125 0.5625 C-4.50184968 -0.74907516 -2.89466564 -0.33399988 0 0 Z " fill="#DAEEF9" transform="translate(426.125,264.4375)"/>
<path d="M0 0 C3.3 0 6.6 0 10 0 C6.67692308 4.8 6.67692308 4.8 3.25 5.8125 C2.5075 5.874375 1.765 5.93625 1 6 C0.67 4.02 0.34 2.04 0 0 Z " fill="#1748A3" transform="translate(381,270)"/>
<path d="M0 0 C3.62885578 1.45154231 5.15432673 3.2400638 7.25 6.5 C7.77078125 7.2940625 8.2915625 8.088125 8.828125 8.90625 C10 11 10 11 10 13 C8.68 13.33 7.36 13.66 6 14 C6 13.01 6 12.02 6 11 C4.86512621 7.50808066 3.62418697 5.51009188 1 3 C0.67 2.01 0.34 1.02 0 0 Z " fill="#274482" transform="translate(145,200)"/>
<path d="M0 0 C3.90447725 0.78089545 7.40909763 2.30617813 11 4 C11.33 4.66 11.66 5.32 12 6 C11.01 6.99 10.02 7.98 9 9 C7.49704815 7.69088122 5.99770689 6.37761608 4.5 5.0625 C3.6646875 4.33160156 2.829375 3.60070312 1.96875 2.84765625 C1.3190625 2.23792969 0.669375 1.62820312 0 1 C0 0.67 0 0.34 0 0 Z " fill="#E4EEFB" transform="translate(139,193)"/>
<path d="M0 0 C0 0.99 0 1.98 0 3 C-1.60226955 3.22245393 -3.20696767 3.42746669 -4.8125 3.625 C-5.70582031 3.74101562 -6.59914062 3.85703125 -7.51953125 3.9765625 C-10 4 -10 4 -13 2 C-8.50343896 -0.24828052 -4.92127034 -0.16682272 0 0 Z " fill="#1D45AA" transform="translate(208,187)"/>
<path d="M0 0 C1 3 1 3 1 5 C-0.64453125 6.7265625 -0.64453125 6.7265625 -2.8125 8.625 C-3.52019531 9.25664062 -4.22789062 9.88828125 -4.95703125 10.5390625 C-7 12 -7 12 -10 12 C-10 11.34 -10 10.68 -10 10 C-8.57421875 8.6328125 -8.57421875 8.6328125 -6.6875 7.125 C-4.04871976 4.94560255 -1.88866642 2.88854864 0 0 Z " fill="#E8F5FB" transform="translate(151,272)"/>
<path d="M0 0 C0.66 0 1.32 0 2 0 C2 0.66 2 1.32 2 2 C5.465 1.505 5.465 1.505 9 1 C9.33 1.66 9.66 2.32 10 3 C7.16730334 4.41634833 4.52533562 4.3463005 1.375 4.5625 C0.18648438 4.64628906 -1.00203125 4.73007813 -2.2265625 4.81640625 C-3.14179688 4.87699219 -4.05703125 4.93757812 -5 5 C-4.34 4.67 -3.68 4.34 -3 4 C-3 3.34 -3 2.68 -3 2 C-2.01 2 -1.02 2 0 2 C0 1.34 0 0.68 0 0 Z " fill="#F3F5F9" transform="translate(266,184)"/>
<path d="M0 0 C2.97 0.495 2.97 0.495 6 1 C5.67 2.65 5.34 4.3 5 6 C4.01 6.33 3.02 6.66 2 7 C1.34 6.67 0.68 6.34 0 6 C0 4.02 0 2.04 0 0 Z " fill="#1E47A0" transform="translate(397,277)"/>
<path d="M0 0 C0.33 0 0.66 0 1 0 C0.67 4.62 0.34 9.24 0 14 C-0.33 14 -0.66 14 -1 14 C-1.33 11.69 -1.66 9.38 -2 7 C-4.97 6.67 -7.94 6.34 -11 6 C-11 5.67 -11 5.34 -11 5 C-9.02 5 -7.04 5 -5 5 C-4.67 4.34 -4.34 3.68 -4 3 C-4 3.66 -4 4.32 -4 5 C-3.01 5 -2.02 5 -1 5 C-0.67 3.35 -0.34 1.7 0 0 Z " fill="#1A418D" transform="translate(353,277)"/>
<path d="M0 0 C2 2 2 2 2.1953125 3.9453125 C2.13020833 5.96354167 2.06510417 7.98177083 2 10 C1.34 9.67 0.68 9.34 0 9 C0 7.68 0 6.36 0 5 C-1.32 5 -2.64 5 -4 5 C-4.33 5.66 -4.66 6.32 -5 7 C-5.99 6.67 -6.98 6.34 -8 6 C-8 5.34 -8 4.68 -8 4 C-7.38125 3.87625 -6.7625 3.7525 -6.125 3.625 C-3.80879168 3.12802644 -3.80879168 3.12802644 -2 1 C-1.67 1.33 -1.34 1.66 -1 2 C-0.67 1.34 -0.34 0.68 0 0 Z " fill="#174291" transform="translate(384,273)"/>
<path d="M0 0 C0.66 0 1.32 0 2 0 C3.39300182 1.95890881 4.72245446 3.9639118 6 6 C6.99 7.485 6.99 7.485 8 9 C6.02 9 4.04 9 2 9 C0.50178941 5.62902617 0 3.79557881 0 0 Z " fill="#374B96" transform="translate(184,252)"/>
<path d="M0 0 C0.33 0 0.66 0 1 0 C1.25028811 1.58013217 1.47440946 3.16442306 1.6875 4.75 C1.87892578 6.07257813 1.87892578 6.07257813 2.07421875 7.421875 C1.98397191 10.55676517 1.07384637 11.71823587 -1 14 C-1.22331199 12.41870971 -1.42804644 10.83478911 -1.625 9.25 C-1.74101563 8.36828125 -1.85703125 7.4865625 -1.9765625 6.578125 C-2.00207817 3.77140122 -1.44843844 2.36615134 0 0 Z " fill="#2F4997" transform="translate(56,222)"/>
<path d="M0 0 C0.66 0.33 1.32 0.66 2 1 C2.625 3.5625 2.625 3.5625 3 6 C1.02 6 -0.96 6 -3 6 C-3.66 4.68 -4.32 3.36 -5 2 C-2.625 0.9375 -2.625 0.9375 0 0 Z " fill="#174A8E" transform="translate(74,198)"/>
<path d="M0 0 C0.99 0.33 1.98 0.66 3 1 C1.125 4.875 1.125 4.875 0 6 C-2.33297433 6.04092937 -4.66705225 6.04241723 -7 6 C-4.74259377 3.66475218 -2.7194239 1.81294927 0 0 Z " fill="#28498C" transform="translate(264,191)"/>
<path d="M0 0 C0.33 0.66 0.66 1.32 1 2 C1.99 2.33 2.98 2.66 4 3 C1.36 4.65 -1.28 6.3 -4 8 C-4.66 7.34 -5.32 6.68 -6 6 C-5.34 6 -4.68 6 -4 6 C-4 5.34 -4 4.68 -4 4 C-4.66 3.67 -5.32 3.34 -6 3 C-5.195625 2.87625 -4.39125 2.7525 -3.5625 2.625 C-2.716875 2.41875 -1.87125 2.2125 -1 2 C-0.67 1.34 -0.34 0.68 0 0 Z " fill="#E5ECF5" transform="translate(176,190)"/>
<path d="M0 0 C0.99 0.33 1.98 0.66 3 1 C2.34 1 1.68 1 1 1 C1 1.99 1 2.98 1 4 C0.34 4 -0.32 4 -1 4 C-1 4.66 -1 5.32 -1 6 C-4.21451269 7.60725635 -7.43612536 7.05748185 -11 7 C-3.5 2 -3.5 2 0 2 C0 1.34 0 0.68 0 0 Z " fill="#D8E4EB" transform="translate(155,211)"/>
<path d="M0 0 C2.64 0 5.28 0 8 0 C8 2.64 8 5.28 8 8 C5.36 8 2.72 8 0 8 C0 6.02 0 4.04 0 2 C0.61875 2.9590625 0.61875 2.9590625 1.25 3.9375 C3.17810487 6.20990931 4.11424181 6.60196439 7 7 C7 5.02 7 3.04 7 1 C4.69 1 2.38 1 0 1 C0 0.67 0 0.34 0 0 Z " fill="#1D3C76" transform="translate(405,285)"/>
<path d="M0 0 C2.97 1.65 5.94 3.3 9 5 C8.34 5.66 7.68 6.32 7 7 C4.69 6.34 2.38 5.68 0 5 C-0.5625 3.0625 -0.5625 3.0625 -1 1 C-0.67 0.67 -0.34 0.34 0 0 Z " fill="#E1EFFA" transform="translate(172,279)"/>
<path d="M0 0 C2.00720923 0.28674418 4.0085944 0.61866701 6 1 C5.67 2.32 5.34 3.64 5 5 C3.35 5 1.7 5 0 5 C-0.5625 3.0625 -0.5625 3.0625 -1 1 C-0.67 0.67 -0.34 0.34 0 0 Z " fill="#184C91" transform="translate(134,274)"/>
<path d="M0 0 C2.97 0 5.94 0 9 0 C9 2.64 9 5.28 9 8 C8.34 7.67 7.68 7.34 7 7 C7.33 5.35 7.66 3.7 8 2 C5.06556598 2.26656572 5.06556598 2.26656572 2 3 C1.34 3.99 0.68 4.98 0 6 C0 4.02 0 2.04 0 0 Z " fill="#2D487C" transform="translate(422,266)"/>
<path d="M0 0 C-0.33 0.99 -0.66 1.98 -1 3 C-1.78375 3.103125 -2.5675 3.20625 -3.375 3.3125 C-6.33045181 3.77595022 -6.33045181 3.77595022 -8 7 C-8.99 6.67 -9.98 6.34 -11 6 C-5.28169014 -1.76056338 -5.28169014 -1.76056338 0 0 Z " fill="#EBEEFB" transform="translate(284,213)"/>
<path d="M0 0 C0.99 0 1.98 0 3 0 C2.21302675 3.41021743 1.12880057 6.68885166 0 10 C-0.99 9.67 -1.98 9.34 -3 9 C-2.5020163 5.26512223 -2.12508244 3.18762365 0 0 Z " fill="#224786" transform="translate(244,211)"/>
<path d="M0 0 C1.98 0 3.96 0 6 0 C-2.44827586 7 -2.44827586 7 -6 7 C-6 5.68 -6 4.36 -6 3 C-4.02 2.67 -2.04 2.34 0 2 C0 1.34 0 0.68 0 0 Z " fill="#25467A" transform="translate(255,185)"/>
<path d="M0 0 C1.56697685 0.05378811 3.1315676 0.18105778 4.69140625 0.33984375 C5.63564453 0.43330078 6.57988281 0.52675781 7.55273438 0.62304688 C8.54595703 0.72681641 9.53917969 0.83058594 10.5625 0.9375 C11.55958984 1.03740234 12.55667969 1.13730469 13.58398438 1.24023438 C16.05651841 1.48867081 18.52843344 1.74214406 21 2 C21 2.33 21 2.66 21 3 C17.70840684 3.05790353 14.41694397 3.09356261 11.125 3.125 C9.71927734 3.15013672 9.71927734 3.15013672 8.28515625 3.17578125 C6.94130859 3.18544922 6.94130859 3.18544922 5.5703125 3.1953125 C4.74289551 3.20578613 3.91547852 3.21625977 3.06298828 3.22705078 C1 3 1 3 -1 1 C-0.67 0.67 -0.34 0.34 0 0 Z " fill="#EAF5FD" transform="translate(93,292)"/>
<path d="M0 0 C0.66 0.33 1.32 0.66 2 1 C1.01906046 3.45234885 0.31296172 4.7809268 -1.875 6.3125 C-4 7 -4 7 -8 6 C-5.36 4.02 -2.72 2.04 0 0 Z " fill="#DFF0F5" transform="translate(97,209)"/>
<path d="M0 0 C0.99 0 1.98 0 3 0 C3.433125 0.9590625 3.433125 0.9590625 3.875 1.9375 C4.82823451 4.15206079 4.82823451 4.15206079 7 5 C7.625 8.0625 7.625 8.0625 8 11 C2.19794344 5.35475578 2.19794344 5.35475578 0 2 C0 1.34 0 0.68 0 0 Z " fill="#334A8D" transform="translate(242,262)"/>
<path d="M0 0 C0.33 0.99 0.66 1.98 1 3 C-3.50353262 4.75747614 -7.17639811 5.19294408 -12 5 C-8.45976076 2.63984051 -4.36489861 0 0 0 Z " fill="#DAE8F6" transform="translate(144,218)"/>
<path d="M0 0 C1.65 0 3.3 0 5 0 C5.66 1.65 6.32 3.3 7 5 C4.69 4.67 2.38 4.34 0 4 C0 2.68 0 1.36 0 0 Z " fill="#F6FAF7" transform="translate(406,278)"/>
<path d="M0 0 C2.31 0.66 4.62 1.32 7 2 C6.67 4.31 6.34 6.62 6 9 C3.59927045 6.11912454 1.52708963 3.43595166 0 0 Z " fill="#DCEAF6" transform="translate(149,202)"/>
<path d="M0 0 C3.375 -0.125 3.375 -0.125 7 0 C7.66 0.66 8.32 1.32 9 2 C8.34 2.66 7.68 3.32 7 4 C3.875 3.625 3.875 3.625 1 3 C0.67 2.01 0.34 1.02 0 0 Z " fill="#F9FAF3" transform="translate(142,192)"/>
<path d="M0 0 C1.9375 0.3125 1.9375 0.3125 4 1 C4.33 1.99 4.66 2.98 5 4 C0.545 5.485 0.545 5.485 -4 7 C-4 6.34 -4 5.68 -4 5 C-3.01 4.34 -2.02 3.68 -1 3 C-0.67 2.01 -0.34 1.02 0 0 Z " fill="#E3EDF5" transform="translate(85,184)"/>
<path d="M0 0 C4.03520597 1.58962659 8.01811282 3.28232318 12 5 C11.34 5.66 10.68 6.32 10 7 C9.01 7 8.02 7 7 7 C7 6.34 7 5.68 7 5 C6.05125 4.71125 5.1025 4.4225 4.125 4.125 C1 3 1 3 -1 1 C-0.67 0.67 -0.34 0.34 0 0 Z " fill="#2B498F" transform="translate(89,265)"/>
<path d="M0 0 C2.625 0.375 2.625 0.375 5 1 C3.68 2.65 2.36 4.3 1 6 C-0.32 5.67 -1.64 5.34 -3 5 C-2 2 -2 2 0 0 Z " fill="#204690" transform="translate(244,256)"/>
<path d="M0 0 C0.99 0.495 0.99 0.495 2 1 C2.144375 2.051875 2.28875 3.10375 2.4375 4.1875 C3.0067878 8.04600623 4.10632634 10.62432087 6 14 C5.34 14.66 4.68 15.32 4 16 C1.37124595 10.62819824 0.3916035 5.95507399 0 0 Z " fill="#E4EDFB" transform="translate(265,239)"/>
<path d="M0 0 C0 0.66 0 1.32 0 2 C-5.445 3.485 -5.445 3.485 -11 5 C-11.33 4.34 -11.66 3.68 -12 3 C-4.71428571 -0.42857143 -4.71428571 -0.42857143 0 0 Z " fill="#CFE1F3" transform="translate(208,210)"/>
<path d="M0 0 C0.763125 0.309375 1.52625 0.61875 2.3125 0.9375 C4.18789677 1.67893593 6.08684652 2.36228217 8 3 C8 3.66 8 4.32 8 5 C2.72 4.34 -2.56 3.68 -8 3 C-8 2.67 -8 2.34 -8 2 C-5.36 2 -2.72 2 0 2 C0 1.34 0 0.68 0 0 Z " fill="#476AA8" transform="translate(112,205)"/>
<path d="M0 0 C1.65 0 3.3 0 5 0 C5.1875 2.375 5.1875 2.375 5 5 C4.01 5.66 3.02 6.32 2 7 C1.34 4.69 0.68 2.38 0 0 Z " fill="#F1F9FC" transform="translate(251,192)"/>
<path d="M0 0 C0 0.33 0 0.66 0 1 C-1.65 1 -3.3 1 -5 1 C-5 1.66 -5 2.32 -5 3 C-8.13498292 4.85776765 -10.37471432 5.20140476 -14 5 C-10.05572558 0.43294541 -5.8595807 -0.27253864 0 0 Z " fill="#25447D" transform="translate(96,187)"/>
<path d="M0 0 C2.05078125 0.03255208 4.1015625 0.06510417 6.15234375 0.09765625 C6.15234375 0.42765625 6.15234375 0.75765625 6.15234375 1.09765625 C4.17234375 1.09765625 2.19234375 1.09765625 0.15234375 1.09765625 C0.15234375 2.74765625 0.15234375 4.39765625 0.15234375 6.09765625 C-0.50765625 6.09765625 -1.16765625 6.09765625 -1.84765625 6.09765625 C-2.17765625 7.08765625 -2.50765625 8.07765625 -2.84765625 9.09765625 C-2.9453125 2.9453125 -2.9453125 2.9453125 -2.84765625 1.09765625 C-1.84765625 0.09765625 -1.84765625 0.09765625 0 0 Z " fill="#BBCAE3" transform="translate(397.84765625,283.90234375)"/>
<path d="M0 0 C1.98 0.99 3.96 1.98 6 3 C6 3.66 6 4.32 6 5 C4.02 5.33 2.04 5.66 0 6 C-1.24546405 3.50907189 -0.7767578 2.58919267 0 0 Z " fill="#E8F1F8" transform="translate(73,282)"/>
<path d="M0 0 C2.64 0 5.28 0 8 0 C7.34 1.65 6.68 3.3 6 5 C4 4 2 3 0 2 C0 1.34 0 0.68 0 0 Z " fill="#23448D" transform="translate(147,265)"/>
<path d="M0 0 C0 0.66 0 1.32 0 2 C-1.28913487 2.67154933 -2.58140204 3.33708859 -3.875 4 C-4.59429687 4.37125 -5.31359375 4.7425 -6.0546875 5.125 C-8 6 -8 6 -10 6 C-9.875 4.125 -9.875 4.125 -9 2 C-5.82254537 0.61849799 -3.46877176 0 0 0 Z " fill="#2A4B8C" transform="translate(100,207)"/>
<path d="M0 0 C0.66 1.32 1.32 2.64 2 4 C1.38125 4.103125 0.7625 4.20625 0.125 4.3125 C-2.36526484 4.87525373 -2.36526484 4.87525373 -4 8 C-5.32 7.67 -6.64 7.34 -8 7 C-5.36 4.69 -2.72 2.38 0 0 Z " fill="#E0EDF7" transform="translate(250,192)"/>
<path d="M0 0 C0 0.33 0 0.66 0 1 C-7.92 2.485 -7.92 2.485 -16 4 C-16 3.01 -16 2.02 -16 1 C-10.61509359 0.08342019 -5.45769811 -0.11138159 0 0 Z " fill="#E2F6FA" transform="translate(208,183)"/>
<path d="M0 0 C0.99 0 1.98 0 3 0 C2.67 3.3 2.34 6.6 2 10 C-0.77867692 7.22132308 -0.65193902 4.8286708 -1 1 C-0.67 0.67 -0.34 0.34 0 0 Z " fill="#304B98" transform="translate(55,248)"/>
<path d="M0 0 C0.33 0 0.66 0 1 0 C0.85831863 1.43791516 0.71148957 2.8753237 0.5625 4.3125 C0.48128906 5.11300781 0.40007812 5.91351563 0.31640625 6.73828125 C0 9 0 9 -1 12 C-1.66 12 -2.32 12 -3 12 C-2.14285714 3.42857143 -2.14285714 3.42857143 0 0 Z " fill="#D4EAF6" transform="translate(268,224)"/>
<path d="M0 0 C0.33 0.99 0.66 1.98 1 3 C-0.32 4.32 -1.64 5.64 -3 7 C-3.66 6.67 -4.32 6.34 -5 6 C-4.75 4.125 -4.75 4.125 -4 2 C-1.9375 0.75 -1.9375 0.75 0 0 Z " fill="#1D4FAA" transform="translate(255,201)"/>
<path d="M0 0 C1.65 0 3.3 0 5 0 C5 1.32 5 2.64 5 4 C3.35 4.33 1.7 4.66 0 5 C0 3.35 0 1.7 0 0 Z " fill="#1C4AA7" transform="translate(406,268)"/>
<path d="M0 0 C0.66 0.99 1.32 1.98 2 3 C-0.97 2.505 -0.97 2.505 -4 2 C-4.33 2.66 -4.66 3.32 -5 4 C-5.99 3.01 -6.98 2.02 -8 1 C-2.25 -1.125 -2.25 -1.125 0 0 Z " fill="#2D4CA5" transform="translate(270,282)"/>
<path d="M0 0 C1.32 0.33 2.64 0.66 4 1 C3.01 2.32 2.02 3.64 1 5 C1.33 5.66 1.66 6.32 2 7 C0.0625 6.6875 0.0625 6.6875 -2 6 C-2.33 5.01 -2.66 4.02 -3 3 C-2.01 3 -1.02 3 0 3 C0 2.01 0 1.02 0 0 Z " fill="#1F468B" transform="translate(261,276)"/>
<path d="M0 0 C0.33 0.66 0.66 1.32 1 2 C2.32 2 3.64 2 5 2 C5 3.98 5 5.96 5 8 C2.5 5.6875 2.5 5.6875 0 3 C0 2.01 0 1.02 0 0 Z " fill="#E0F1F8" transform="translate(87,258)"/>
<path d="M0 0 C2.64 0 5.28 0 8 0 C7.38125 0.28875 6.7625 0.5775 6.125 0.875 C3.86674235 1.93720042 3.86674235 1.93720042 2 4 C1.3574765 6.06874034 1.3574765 6.06874034 1 8 C0.67 8 0.34 8 0 8 C0 5.36 0 2.72 0 0 Z " fill="#D5E3F2" transform="translate(414,284)"/>
<path d="M0 0 C3.0004856 1.00016187 5.32521756 2.3372974 8 4 C4.18510326 5.46726798 1.70988378 4.43336419 -2 3 C-1.34 2.67 -0.68 2.34 0 2 C0 1.34 0 0.68 0 0 Z " fill="#DAE8F7" transform="translate(97,266)"/>
<path d="M0 0 C3 1 3 1 4.6875 4.0625 C5.120625 5.031875 5.55375 6.00125 6 7 C4.0625 6.6875 4.0625 6.6875 2 6 C1.67 5.01 1.34 4.02 1 3 C0.34 2.67 -0.32 2.34 -1 2 C-0.67 1.34 -0.34 0.68 0 0 Z " fill="#E4EAF7" transform="translate(57,264)"/>
<path d="M0 0 C0.66 0.33 1.32 0.66 2 1 C1.01 2.485 1.01 2.485 0 4 C0 5.32 0 6.64 0 8 C-0.99 8 -1.98 8 -3 8 C-3.1875 5.125 -3.1875 5.125 -3 2 C-2.01 1.34 -1.02 0.68 0 0 Z " fill="#DDE9F3" transform="translate(105,247)"/>
<path d="M0 0 C0.99 1.32 1.98 2.64 3 4 C1.35 4.33 -0.3 4.66 -2 5 C-2 6.65 -2 8.3 -2 10 C-2.33 10 -2.66 10 -3 10 C-3.36923077 4.58461538 -3.36923077 4.58461538 -1.5 1.625 C-1.005 1.08875 -0.51 0.5525 0 0 Z " fill="#EFF6F9" transform="translate(272,219)"/>
<path d="M0 0 C0.33 0.66 0.66 1.32 1 2 C1.66 2 2.32 2 3 2 C3 3.32 3 4.64 3 6 C1.35 6.66 -0.3 7.32 -2 8 C-1.34 5.36 -0.68 2.72 0 0 Z " fill="#375393" transform="translate(240,218)"/>
<path d="M0 0 C0 1.65 0 3.3 0 5 C-2.31 5.66 -4.62 6.32 -7 7 C-3.13157895 0 -3.13157895 0 0 0 Z " fill="#365490" transform="translate(173,198)"/>
<path d="M0 0 C0.33 0.66 0.66 1.32 1 2 C1.99 2.33 2.98 2.66 4 3 C3.01 3.33 2.02 3.66 1 4 C1 4.66 1 5.32 1 6 C0.01 6 -0.98 6 -2 6 C-2.33 5.01 -2.66 4.02 -3 3 C-2.01 2.67 -1.02 2.34 0 2 C0 1.34 0 0.68 0 0 Z " fill="#1D4B90" transform="translate(86,262)"/>
<path d="M0 0 C0.33 0 0.66 0 1 0 C1.33 3.3 1.66 6.6 2 10 C1.01 9.34 0.02 8.68 -1 8 C-1.25 4.4375 -1.25 4.4375 -1 1 C-0.67 0.67 -0.34 0.34 0 0 Z " fill="#E2F0F9" transform="translate(236,242)"/>
<path d="M0 0 C0.66 0.33 1.32 0.66 2 1 C-2.5 5 -2.5 5 -7 5 C-7 4.34 -7 3.68 -7 3 C-4.69631264 1.93347808 -2.35981813 0.93578995 0 0 Z " fill="#F5F8F6" transform="translate(193,220)"/>
<path d="M0 0 C1.32 0 2.64 0 4 0 C4 0.66 4 1.32 4 2 C4.66 2.33 5.32 2.66 6 3 C3.625 4.0625 3.625 4.0625 1 5 C0.34 4.67 -0.32 4.34 -1 4 C-0.67 2.68 -0.34 1.36 0 0 Z " fill="#2A49A5" transform="translate(232,203)"/>
<path d="M0 0 C0.33 0 0.66 0 1 0 C1.33 1.98 1.66 3.96 2 6 C-0.64 6 -3.28 6 -6 6 C-2.25 3 -2.25 3 0 3 C0 2.01 0 1.02 0 0 Z " fill="#224589" transform="translate(411,269)"/>
<path d="M0 0 C0.99 0.33 1.98 0.66 3 1 C-0.465 3.97 -0.465 3.97 -4 7 C-4.33 6.34 -4.66 5.68 -5 5 C-4.34 4.01 -3.68 3.02 -3 2 C-2.01 2 -1.02 2 0 2 C0 1.34 0 0.68 0 0 Z " fill="#D2E0F3" transform="translate(125,263)"/>
<path d="M0 0 C0.93423645 3.01031744 1.04449911 3.86650268 0 7 C0.66 7.33 1.32 7.66 2 8 C0.35 8 -1.3 8 -3 8 C-2.37240135 5.07120629 -1.41377341 2.63904371 0 0 Z " fill="#345286" transform="translate(107,246)"/>
<path d="M0 0 C1.98 0.495 1.98 0.495 4 1 C2.68 3.64 1.36 6.28 0 9 C-1.15941038 5.52176885 -0.70820884 3.54104422 0 0 Z " fill="#36528C" transform="translate(83,217)"/>
<path d="M0 0 C5.75 1.625 5.75 1.625 8 5 C7.01 5 6.02 5 5 5 C4.67 4.34 4.34 3.68 4 3 C2.35 3 0.7 3 -1 3 C-0.67 2.01 -0.34 1.02 0 0 Z " fill="#DAE8F8" transform="translate(116,209)"/>
<path d="M0 0 C0.99 0 1.98 0 3 0 C3 1.98 3 3.96 3 6 C2.34 6 1.68 6 1 6 C1 5.34 1 4.68 1 4 C0.34 4 -0.32 4 -1 4 C-0.67 2.68 -0.34 1.36 0 0 Z " fill="#1F48AD" transform="translate(166,207)"/>
<path d="M0 0 C1.98 0.495 1.98 0.495 4 1 C2.79618552 3.49361571 1.54571278 5.68143083 0 8 C-1.09658936 4.71023192 -0.79953138 3.28696233 0 0 Z " fill="#E5EBF5" transform="translate(60,204)"/>
<path d="M0 0 C1.8871875 0.0309375 1.8871875 0.0309375 3.8125 0.0625 C1.20558158 2.66941842 -0.56357794 2.76666963 -4.1875 3.0625 C-5.1775 2.4025 -6.1675 1.7425 -7.1875 1.0625 C-4.43671116 0.14557039 -2.82801087 -0.04636083 0 0 Z " fill="#39558F" transform="translate(283.1875,184.9375)"/>
<path d="M0 0 C5.75 1.625 5.75 1.625 8 5 C5.03 4.505 5.03 4.505 2 4 C2 3.34 2 2.68 2 2 C1.34 2 0.68 2 0 2 C0 1.34 0 0.68 0 0 Z " fill="#144796" transform="translate(244,284)"/>
<path d="M0 0 C2.31 0 4.62 0 7 0 C6.34 1.32 5.68 2.64 5 4 C5 3.34 5 2.68 5 2 C3.02 2.99 3.02 2.99 1 4 C0.67 2.68 0.34 1.36 0 0 Z " fill="#FCF8F2" transform="translate(163,278)"/>
<path d="M0 0 C2.31 1.98 4.62 3.96 7 6 C6.34 6.66 5.68 7.32 5 8 C0 2.25 0 2.25 0 0 Z " fill="#C8D9EC" transform="translate(247,271)"/>
<path d="M0 0 C0.66 0 1.32 0 2 0 C2.33 1.98 2.66 3.96 3 6 C2.01 6.33 1.02 6.66 0 7 C0 4.69 0 2.38 0 0 Z " fill="#F8FCF0" transform="translate(50,249)"/>
<path d="M0 0 C0.99 0.33 1.98 0.66 3 1 C3 2.32 3 3.64 3 5 C1.125 5.625 1.125 5.625 -1 6 C-1.66 5.34 -2.32 4.68 -3 4 C-1.68 3.67 -0.36 3.34 1 3 C0.67 2.01 0.34 1.02 0 0 Z " fill="#184490" transform="translate(147,205)"/>
<path d="M0 0 C1.65 0 3.3 0 5 0 C5.33 0.99 5.66 1.98 6 3 C3.36 3 0.72 3 -2 3 C-1.34 2.67 -0.68 2.34 0 2 C0 1.34 0 0.68 0 0 Z " fill="#124188" transform="translate(106,204)"/>
<path d="M0 0 C2.31 0.66 4.62 1.32 7 2 C6.01 2.99 5.02 3.98 4 5 C3.01 4.67 2.02 4.34 1 4 C0.3125 1.9375 0.3125 1.9375 0 0 Z " fill="#E1EFFA" transform="translate(85,289)"/>
<path d="M0 0 C0.66 0.33 1.32 0.66 2 1 C1.67 2.32 1.34 3.64 1 5 C1.66 5.33 2.32 5.66 3 6 C2.01 7.485 2.01 7.485 1 9 C0.34 9 -0.32 9 -1 9 C-0.67 6.03 -0.34 3.06 0 0 Z " fill="#24488F" transform="translate(379,268)"/>
<path d="M0 0 C0.66 1.32 1.32 2.64 2 4 C0.625 5.5 0.625 5.5 -1 7 C-1.66 7 -2.32 7 -3 7 C-2.38722388 4.03824877 -1.74627478 2.61941217 0 0 Z " fill="#E8F1EA" transform="translate(241,261)"/>
<path d="M0 0 C0.99 0.33 1.98 0.66 3 1 C2.67 2.65 2.34 4.3 2 6 C0.68 5.67 -0.64 5.34 -2 5 C-1.34 3.35 -0.68 1.7 0 0 Z " fill="#334C95" transform="translate(114,234)"/>
<path d="M0 0 C0.99 0 1.98 0 3 0 C2.45276317 3.37462715 1.9451 5.08235 0 8 C0 5.36 0 2.72 0 0 Z " fill="#2D4B83" transform="translate(155,226)"/>
<path d="M0 0 C0.66 0 1.32 0 2 0 C1.67 3.63 1.34 7.26 1 11 C0.67 11 0.34 11 0 11 C-0.19406478 9.35492782 -0.38007935 7.70890406 -0.5625 6.0625 C-0.66691406 5.14597656 -0.77132812 4.22945312 -0.87890625 3.28515625 C-0.91886719 2.53105469 -0.95882812 1.77695313 -1 1 C-0.67 0.67 -0.34 0.34 0 0 Z " fill="#D1E6F5" transform="translate(154,222)"/>
<path d="M0 0 C0.99 0.33 1.98 0.66 3 1 C1.02 3.97 1.02 3.97 -1 7 C-1.66 6.67 -2.32 6.34 -3 6 C-1.125 1.125 -1.125 1.125 0 0 Z " fill="#DBE7F7" transform="translate(245,205)"/>
<path d="M0 0 C1.32 1.32 2.64 2.64 4 4 C1.16032769 4 -1.23735711 3.59732819 -4 3 C-3 1 -3 1 0 0 Z " fill="#3252A3" transform="translate(142,196)"/>
<path d="M0 0 C0.66 0.33 1.32 0.66 2 1 C2.33 1.99 2.66 2.98 3 4 C1.02 4 -0.96 4 -3 4 C-3 3.01 -3 2.02 -3 1 C-2.01 0.67 -1.02 0.34 0 0 Z " fill="#2045AC" transform="translate(179,196)"/>
</svg>
