<?xml version="1.0" encoding="UTF-8"?>
<svg version="1.1" xmlns="http://www.w3.org/2000/svg" width="144" height="144">
<path d="M0 0 C1.21623047 -0.01611328 2.43246094 -0.03222656 3.68554688 -0.04882812 C20.15634208 -0.05757523 38.50577168 3.39387597 50.6875 15.3125 C54.35510256 19.69523398 55.8289002 23.67593167 55.8125 29.375 C55.81507813 30.3546875 55.81765625 31.334375 55.8203125 32.34375 C55.6953717 35.13654433 55.23255119 37.64109244 54.6875 40.375 C54.28244228 43.738045 54.4711856 44.96755204 56.296875 47.87890625 C57.73246739 49.59480591 59.19132705 51.29148588 60.671875 52.96875 C66.32115997 59.53768602 66.31761968 67.09859431 66.05859375 75.4453125 C65.64542182 79.75099891 64.67796751 82.87448624 62.5625 86.61328125 C61.45859512 88.43847938 61.45859512 88.43847938 61.6875 91.3125 C61.3125 94.4375 61.3125 94.4375 60.6875 97.3125 C59.6975 97.8075 59.6975 97.8075 58.6875 98.3125 C58.6875 99.6325 58.6875 100.9525 58.6875 102.3125 C57.74132812 102.41304688 56.79515625 102.51359375 55.8203125 102.6171875 C46.46691878 103.8607923 39.56702431 106.70094551 31.49951172 111.53637695 C12.0102946 122.97277244 -15.1753291 124.97933091 -36.875 119.625 C-52.32139743 115.43149303 -67.81288071 108.07076026 -76.25 93.8125 C-79.62716892 86.45229133 -79.82210053 77.94233784 -77.3203125 70.26953125 C-75.28913792 65.99901824 -73.02361725 62.33637331 -69.3125 59.3125 C-70.24999567 56.43304901 -71.16745496 53.62676426 -72.4375 50.875 C-73.60418817 47.45827035 -73.69073676 44.90574925 -73.3125 41.3125 C-71.28583762 37.60859979 -69.83205484 35.65886989 -66.3125 33.3125 C-63.61328125 33.1171875 -63.61328125 33.1171875 -60.625 33.1875 C-59.63113281 33.20554688 -58.63726562 33.22359375 -57.61328125 33.2421875 C-56.47439453 33.27699219 -56.47439453 33.27699219 -55.3125 33.3125 C-55.374375 32.136875 -55.43625 30.96125 -55.5 29.75 C-55.48853718 23.26204609 -52.86984777 17.86984777 -48.3125 13.3125 C-33.72249709 2.75023921 -17.59566365 -0.04618284 0 0 Z M-61.1875 43.5 C-62.66031139 45.87286279 -62.53473194 47.57163944 -62.3125 50.3125 C-58.0382442 48.7294423 -56.04718206 45.80681596 -53.3125 42.3125 C-57.4585881 41.96471828 -57.4585881 41.96471828 -61.1875 43.5 Z " fill="#EAEAEA" transform="translate(78.3125,10.6875)"/>
<path d="M0 0 C0.66 0.33 1.32 0.66 2 1 C1.84402344 1.67933594 1.68804687 2.35867187 1.52734375 3.05859375 C-0.47147113 14.20753895 0.49465841 23.52606367 7 33 C9.99027487 36.65267754 12.47187361 39.49062454 17 41 C16.7525 39.9275 16.505 38.855 16.25 37.75 C16 34 16 34 17.9375 31.5625 C18.618125 31.046875 19.29875 30.53125 20 30 C20.2475 30.721875 20.495 31.44375 20.75 32.1875 C22.19320724 35.43471629 23.40760319 37.54404513 26 40 C29.57051386 40.64016245 29.57051386 40.64016245 31.98828125 40.7578125 C34.98740341 41.11887187 37.32958513 42.6363839 40 44 C43.44336774 45.32548832 43.44336774 45.32548832 47 45 C49.65968378 43.06515312 51.42527666 40.87852654 53 38 C53.50525948 34.70365533 53.50525948 34.70365533 53 32 C53.99 32.66 54.98 33.32 56 34 C59.01240406 34.28482638 59.01240406 34.28482638 62.48754883 34.21118164 C63.14159195 34.2098674 63.79563507 34.20855316 64.46949768 34.2071991 C66.63215591 34.20070739 68.79446055 34.18026858 70.95703125 34.16015625 C72.46294268 34.15388351 73.96885873 34.14864419 75.47477722 34.14439392 C79.44275454 34.13108466 83.41057825 34.1066584 87.378479 34.07904053 C93.71866458 34.03595544 100.0588889 34.00611955 106.39917564 33.9829998 C108.60934178 33.97281836 110.81937868 33.95575888 113.02949524 33.93800354 C114.39441819 33.93117009 115.75934229 33.92456148 117.12426758 33.91821289 C118.30990799 33.90995987 119.4955484 33.90170685 120.71711731 33.89320374 C123.90111411 33.99678312 126.87527621 34.39835456 130 35 C129.625 36.9375 129.625 36.9375 129 39 C128.01 39.495 128.01 39.495 127 40 C127 41.32 127 42.64 127 44 C125.58074219 44.15082031 125.58074219 44.15082031 124.1328125 44.3046875 C114.77941878 45.5482923 107.87952431 48.38844551 99.81201172 53.22387695 C80.3227946 64.66027244 53.1371709 66.66683091 31.4375 61.3125 C15.99110257 57.11899303 0.49961929 49.75826026 -7.9375 35.5 C-11.31182863 28.14598147 -11.48656985 19.67207666 -9.04296875 11.9921875 C-6.77450744 7.16720631 -4.03882949 3.46185385 0 0 Z " fill="#CECECE" transform="translate(10,69)"/>
<path d="M0 0 C2.66736471 2.20212668 4.9833663 4.38090002 6.75 7.375 C6.5359184 10.61069049 5.32724413 12.213479 2.9375 14.3125 C-12.48571626 26.77697682 -36.54875808 27.97874976 -55.52294922 26.15673828 C-68.94073009 24.40605786 -81.07742557 20.49614555 -91.25 11.375 C-89.6298833 6.9437219 -87.76864532 4.56632948 -84.25 1.375 C-83.528125 0.715 -82.80625 0.055 -82.0625 -0.625 C-59.74693191 -16.49384842 -22.02389318 -16.65221192 0 0 Z " fill="#FAAF5F" transform="translate(121.25,37.625)"/>
<path d="M0 0 C1.21623047 -0.01611328 2.43246094 -0.03222656 3.68554688 -0.04882812 C20.15634208 -0.05757523 38.50577168 3.39387597 50.6875 15.3125 C54.56383032 19.94466075 55.8205715 24.00142246 55.75 30 C55.74097656 30.99386719 55.73195313 31.98773438 55.72265625 33.01171875 C55.71105469 33.77097656 55.69945312 34.53023437 55.6875 35.3125 C55.07777344 35.59351563 54.46804687 35.87453125 53.83984375 36.1640625 C50.91493594 37.72472111 48.99691801 39.94675472 46.6875 42.3125 C42.63104576 46.00756104 38.57728812 47.79166248 33.5 49.625 C32.77619141 49.90150391 32.05238281 50.17800781 31.30664062 50.46289062 C29.45684354 51.14602499 27.57351612 51.7368569 25.6875 52.3125 C25.0275 51.9825 24.3675 51.6525 23.6875 51.3125 C24.19796875 51.09335937 24.7084375 50.87421875 25.234375 50.6484375 C29.86675303 48.62793219 34.44992412 46.51216859 39 44.3125 C39.98613281 43.838125 40.97226563 43.36375 41.98828125 42.875 C44.73406433 41.28554525 46.6441519 39.73174704 48.6875 37.3125 C49.07644914 34.82057389 49.07644914 34.82057389 47.6875 32.3125 C43.08311518 27.03838648 36.98658783 24.10765783 30.6875 21.3125 C30.02878906 21.0134375 29.37007813 20.714375 28.69140625 20.40625 C11.22557481 13.14395003 -11.16327481 14.77194061 -28.625 21.0625 C-36.08310235 24.32464159 -43.71036073 28.76516058 -47.3125 36.3125 C-45.67896442 41.21310673 -41.74190192 42.95252414 -37.3125 45.3125 C-17.80624322 53.25386817 1.99532227 53.42702911 22.6875 51.3125 C18.0041447 55.9958553 6.27425405 55.436861 -0.25 55.5625 C-17.78520024 55.16290428 -36.90214818 52.24846083 -50.09765625 39.6015625 C-53.3125 35.93001393 -53.3125 35.93001393 -53.3125 33.3125 C-53.9725 33.3125 -54.6325 33.3125 -55.3125 33.3125 C-55.68101622 26.31069188 -54.46027769 21.8348554 -50.75 15.75 C-37.50890165 2.50890165 -17.77147935 -0.0466443 0 0 Z " fill="#EBEBEA" transform="translate(78.3125,10.6875)"/>
<path d="M0 0 C1.04005702 3.38018531 1.08004482 6.4780279 1 10 C2.051875 9.29875 3.10375 8.5975 4.1875 7.875 C7.625 5.91071429 7.625 5.91071429 10.625 6.625 C11.40875 7.07875 12.1925 7.5325 13 8 C16.5685157 9.83523665 18.79095235 9.94606641 22.6875 9.5625 C27.68264244 9.40546708 29.80032073 11.040919 33.4375 14.375 C34.960207 15.91481607 36.48130559 17.45622624 38 19 C41.42716331 21.28477554 44.04925971 21.67487662 48.0390625 22.33984375 C48.68617187 22.55769531 49.33328125 22.77554688 50 23 C50.495 24.485 50.495 24.485 51 26 C67.91464348 28.18253464 83.4721761 27.8338925 98 18 C101.50284749 15.16269353 104.7789984 12.15148358 108 9 C108.85851562 8.1646875 108.85851562 8.1646875 109.734375 7.3125 C110.83693365 6.22232965 111.92173635 5.11420577 113 4 C115.35599061 7.68123533 115.35837173 10.69953921 115 15 C114.25610614 17.80724908 113.30053046 20.40379181 112 23 C111.25496216 24.52584717 111.25496216 24.52584717 110.49487305 26.08251953 C107.63796951 29.42335496 107.63796951 29.42335496 103.95336914 29.75708008 C102.31431518 29.79122375 100.67439147 29.79343892 99.03515625 29.76953125 C97.72967079 29.78653328 97.72967079 29.78653328 96.39781189 29.80387878 C93.61876834 29.8345929 90.8416557 29.82476841 88.0625 29.8125 C85.28753994 29.82669848 82.51277694 29.84915042 79.73789978 29.87467957 C78.01281454 29.88765028 76.28764378 29.89248846 74.56251526 29.88813782 C70.5708615 29.89107284 66.89682704 30.00448901 63 31 C63 31.33 63 31.66 63 32 C55.25 32.125 55.25 32.125 53 31 C52.95875 31.86625 52.9175 32.7325 52.875 33.625 C51.89190589 37.41693443 50.7906484 39.355318 47.953125 42 C44.61676448 43.70821659 41.76877882 42.74678163 38.26953125 41.84375 C36 41 36 41 33 39 C31.1128125 38.9071875 31.1128125 38.9071875 29.1875 38.8125 C25.50404094 38.45230935 23.98049076 37.41094587 21.5625 34.625 C19.77327366 32.33362022 18.93556325 30.80668974 18 28 C15.5705484 31.6441774 15.83820425 33.71241272 16 38 C10.81333474 37.06005848 8.21325266 34.00101783 5 30 C-1.08023461 21.12578449 -2.02369415 13.45723008 -1 3 C-0.67 2.01 -0.34 1.02 0 0 Z " fill="#E0E0E0" transform="translate(11,72)"/>
<path d="M0 0 C0.66 0.33 1.32 0.66 2 1 C1.84402344 1.67933594 1.68804687 2.35867187 1.52734375 3.05859375 C-0.46670479 14.18095337 0.45271328 23.57356817 7 33 C9.47065476 35.93299951 12.07690901 38.52184964 15 41 C15.71414062 41.64839844 16.42828125 42.29679687 17.1640625 42.96484375 C34.33858828 55.28981335 59.31530704 58.4551818 79.80664062 55.61035156 C84.92930205 54.73753573 89.99484329 53.6545605 95.05078125 52.45751953 C97.35689406 51.91623003 99.6736261 51.44557565 102 51 C95.05752147 59.06828586 80.11185737 61.50355805 70 63 C44.12604231 64.49008018 20.62132561 62.3844155 0 45.34765625 C-5.77327496 40.059635 -9.44207022 34.20942144 -10.48046875 26.375 C-10.81881107 17.30376794 -9.46741744 10.31260452 -3.5546875 3.28125 C-2.1875 1.875 -2.1875 1.875 0 0 Z " fill="#666666" transform="translate(10,69)"/>
<path d="M0 0 C2.67845551 2.21128304 4.84042092 4.46318842 6.75 7.375 C6.58710263 10.06280658 5.98099103 11.11629004 4.1875 13.125 C3.713125 13.5375 3.23875 13.95 2.75 14.375 C0.8125 13.6875 0.8125 13.6875 -1.25 12.375 C-2.18580311 9.49560581 -2.62245106 8.11990212 -1.25 5.375 C-2.32378906 5.18164062 -3.39757812 4.98828125 -4.50390625 4.7890625 C-5.94013733 4.52622282 -7.3763334 4.26319176 -8.8125 4 C-9.51697266 3.87367187 -10.22144531 3.74734375 -10.94726562 3.6171875 C-15.47354239 2.78285077 -19.82411737 1.65323325 -24.25 0.375 C-27.57020693 -0.22971123 -30.8820102 -0.43427728 -34.25 -0.625 C-35.48878906 -0.70234375 -36.72757813 -0.7796875 -38.00390625 -0.859375 C-50.93849795 -1.4010091 -63.34053676 1.27774973 -75.25 6.375 C-73.87714287 2.99239327 -72.69293941 1.7399426 -69.375 0.25 C-68.69695312 -0.06195313 -68.01890625 -0.37390625 -67.3203125 -0.6953125 C-66.63710937 -1.00210938 -65.95390625 -1.30890625 -65.25 -1.625 C-63.91390431 -2.28611309 -62.57973637 -2.9511874 -61.25 -3.625 C-63.65043872 -2.71917407 -66.04481594 -1.80091309 -68.4375 -0.875 C-69.11103516 -0.62234375 -69.78457031 -0.3696875 -70.47851562 -0.109375 C-74.62584243 1.509094 -78.02057716 3.20168682 -81.25 6.375 C-81.50005386 9.41682893 -81.50005386 9.41682893 -81.25 12.375 C-81.91 13.365 -82.57 14.355 -83.25 15.375 C-86.60595828 14.77572174 -88.62801226 13.52877564 -91.25 11.375 C-89.84474558 6.90373593 -87.69928976 4.5034256 -84.25 1.375 C-83.528125 0.715 -82.80625 0.055 -82.0625 -0.625 C-59.74693191 -16.49384842 -22.02389318 -16.65221192 0 0 Z " fill="#F5915A" transform="translate(121.25,37.625)"/>
<path d="M0 0 C0.226875 0.53625 0.45375 1.0725 0.6875 1.625 C2.44013032 4.79642629 4.16445464 7.71442188 7 10 C10.61508424 10.71373342 10.61508424 10.71373342 13.0234375 10.79296875 C16.01547642 11.10636413 18.34295142 12.64320924 21 14 C24.44336774 15.32548832 24.44336774 15.32548832 28 15 C30.65968378 13.06515312 32.42527666 10.87852654 34 8 C34.50525948 4.70365533 34.50525948 4.70365533 34 2 C34.99 2.66 35.98 3.32 37 4 C40.01240406 4.28482638 40.01240406 4.28482638 43.48754883 4.21118164 C44.14159195 4.2098674 44.79563507 4.20855316 45.46949768 4.2071991 C47.63215591 4.20070739 49.79446055 4.18026858 51.95703125 4.16015625 C53.46294268 4.15388351 54.96885873 4.14864419 56.47477722 4.14439392 C60.44275454 4.13108466 64.41057825 4.1066584 68.378479 4.07904053 C74.71866458 4.03595544 81.0588889 4.00611955 87.39917564 3.9829998 C89.60934178 3.97281836 91.81937868 3.95575888 94.02949524 3.93800354 C95.39441819 3.93117009 96.75934229 3.92456148 98.12426758 3.91821289 C99.30990799 3.90995987 100.4955484 3.90170685 101.71711731 3.89320374 C104.90111411 3.99678312 107.87527621 4.39835456 111 5 C110.625 6.9375 110.625 6.9375 110 9 C109.34 9.33 108.68 9.66 108 10 C108 11.32 108 12.64 108 14 C106.41913952 14.36504603 104.83516093 14.71660506 103.25 15.0625 C102.36828125 15.25972656 101.4865625 15.45695312 100.578125 15.66015625 C98.01320972 15.99825872 96.42908361 15.81158635 94 15 C95.98 13.68 97.96 12.36 100 11 C99.3608667 10.97494385 98.7217334 10.9498877 98.06323242 10.92407227 C95.10453255 10.80642853 92.14602406 10.68448222 89.1875 10.5625 C88.18267578 10.52318359 87.17785156 10.48386719 86.14257812 10.44335938 C81.21649031 10.23744574 76.32137169 9.96235492 71.4140625 9.48046875 C65.99958295 8.96195237 60.62497255 8.78177486 55.1875 8.75 C54.28580078 8.729375 53.38410156 8.70875 52.45507812 8.6875 C46.39146568 8.6519102 42.02091521 9.32711649 37.3046875 13.5 C36.83289063 13.995 36.36109375 14.49 35.875 15 C31.36064027 19.09655217 25.84411281 19.90602814 20 21 C20 21.66 20 22.32 20 23 C11.46961077 20.76757899 1.78264455 18.09688194 -4 11 C-3.34 11 -2.68 11 -2 11 C-2.226875 9.9275 -2.45375 8.855 -2.6875 7.75 C-3 4 -3 4 -1.5625 1.5625 C-1.046875 1.046875 -0.53125 0.53125 0 0 Z " fill="#A6A6A6" transform="translate(29,99)"/>
<path d="M0 0 C0.66 0 1.32 0 2 0 C3.69140625 2.265625 3.69140625 2.265625 5.5625 5.25 C6.49255859 6.71179688 6.49255859 6.71179688 7.44140625 8.203125 C11.02953675 14.64197572 10.59690498 21.7887425 10 29 C9.0701342 32.01055561 7.80304328 34.42791675 6 37 C5.4225 37.825 4.845 38.65 4.25 39.5 C3.8375 39.995 3.425 40.49 3 41 C6.40451771 39.86516076 6.6005564 39.44722063 8.1875 36.4375 C8.785625 35.303125 9.38375 34.16875 10 33 C10.33 33.99 10.66 34.98 11 36 C10 37.66666667 9 39.33333333 8 41 C8.33 41.99 8.66 42.98 9 44 C-24.165 43.505 -24.165 43.505 -58 43 C-58 42.67 -58 42.34 -58 42 C-52.8783304 40.94506896 -48.03469039 40.92774365 -42.83984375 41 C-41.05924469 41.00115758 -39.2786425 40.9997791 -37.49804688 40.99609375 C-34.70991933 40.99166385 -31.92515684 41.00022601 -29.13745117 41.05126953 C-18.79182092 41.75532891 -18.79182092 41.75532891 -9.67626953 38.0703125 C-8.30888864 35.67432731 -7.56791378 33.69115937 -7 31 C-6.81171631 30.31421875 -6.62343262 29.6284375 -6.42944336 28.921875 C-5.56149643 25.03757812 -5.27992969 21.28311594 -7.25390625 17.765625 C-8.25895617 14.04009964 -7.15226475 12.50174253 -5.33203125 9.22851562 C-4.93371094 8.55498047 -4.53539062 7.88144531 -4.125 7.1875 C-3.73441406 6.49462891 -3.34382813 5.80175781 -2.94140625 5.08789062 C-1.97708736 3.38269258 -0.99064095 1.69004196 0 0 Z " fill="#E4E4E4" transform="translate(131,60)"/>
<path d="M0 0 C2.35199643 2.44999628 2.98038935 3.83004101 3.375 7.25 C2.94225721 11.57742794 1.9438363 15.11958053 0 19 C-0.49669189 20.01723145 -0.99338379 21.03446289 -1.50512695 22.08251953 C-4.36203049 25.42335496 -4.36203049 25.42335496 -8.04663086 25.75708008 C-9.68568482 25.79122375 -11.32560853 25.79343892 -12.96484375 25.76953125 C-14.27032921 25.78653328 -14.27032921 25.78653328 -15.60218811 25.80387878 C-18.38123166 25.8345929 -21.1583443 25.82476841 -23.9375 25.8125 C-26.71246006 25.82669848 -29.48722306 25.84915042 -32.26210022 25.87467957 C-33.98718546 25.88765028 -35.71235622 25.89248846 -37.43748474 25.88813782 C-42.18849805 25.89163119 -46.49935499 26.06225812 -51 27.75 C-54.07033699 28.13379212 -55.57547067 26.78649529 -58 25 C-58.66 24.01 -59.32 23.02 -60 22 C-58.80375 22.165 -57.6075 22.33 -56.375 22.5 C-39.64524672 24.28590773 -24.699017 22.55619554 -11.23046875 11.78515625 C-7.06083261 8.11612064 -3.39685338 4.40275529 0 0 Z " fill="#D1D1D1" transform="translate(123,76)"/>
<path d="M0 0 C0.93134766 0.00902344 1.86269531 0.01804687 2.82226562 0.02734375 C5.1109436 0.05081737 7.39908672 0.08365271 9.6875 0.125 C-3.49667324 11.08892185 -21.09653639 12.29577429 -37.625 12.375 C-38.68912109 12.395625 -39.75324219 12.41625 -40.84960938 12.4375 C-48.12483025 12.47301054 -54.40589684 11.40626935 -61.3125 9.125 C-61.3125 8.795 -61.3125 8.465 -61.3125 8.125 C-54.60848215 6.33726191 -48.56421805 6.08454709 -41.6875 6.25 C-31.8412583 6.43968725 -22.00028089 5.40064778 -13.015625 1 C-8.73287902 -0.3863224 -4.46765692 -0.08209122 0 0 Z " fill="#E5E5E5" transform="translate(113.3125,111.875)"/>
<path d="M0 0 C1.04005702 3.38018531 1.08004482 6.4780279 1 10 C2.051875 9.29875 3.10375 8.5975 4.1875 7.875 C7.625 5.91071429 7.625 5.91071429 10.625 6.625 C11.40875 7.07875 12.1925 7.5325 13 8 C16.59584276 9.84929056 18.98873808 9.97715469 22.9375 9.6875 C26.08943514 9.58856033 27.47027082 9.5852022 29.98046875 11.55078125 C31.4614119 13.30610342 32.77994369 15.05584524 34 17 C33.32453125 17.08636719 32.6490625 17.17273438 31.953125 17.26171875 C26.05335764 18.12445803 26.05335764 18.12445803 21.375 21.625 C20.92125 22.40875 20.4675 23.1925 20 24 C19.34 23.01 18.68 22.02 18 21 C14.68455701 19.89485234 11.79589889 19.67892369 8.3125 19.4375 C7.13300781 19.35371094 5.95351563 19.26992187 4.73828125 19.18359375 C3.38283203 19.09271484 3.38283203 19.09271484 2 19 C5.80036491 26.1490471 8.84786069 31.82791873 16 36 C16 36.66 16 37.32 16 38 C10.81333474 37.06005848 8.21325266 34.00101783 5 30 C-1.08023461 21.12578449 -2.02369415 13.45723008 -1 3 C-0.67 2.01 -0.34 1.02 0 0 Z " fill="#D0D0D0" transform="translate(11,72)"/>
<path d="M0 0 C0.88252441 -0.00209473 1.76504883 -0.00418945 2.67431641 -0.00634766 C3.60679199 -0.0016748 4.53926758 0.00299805 5.5 0.0078125 C6.44665527 0.01119629 7.39331055 0.01458008 8.36865234 0.01806641 C26.02350672 0.14848364 26.02350672 0.14848364 30.5 3.1328125 C27.50663547 4.62949477 24.56313661 4.00229571 21.3125 3.7578125 C20.60287109 3.71253418 19.89324219 3.66725586 19.16210938 3.62060547 C15.55730444 3.38512773 11.97449653 3.08707182 8.38671875 2.6640625 C-0.85603467 1.65011609 -0.85603467 1.65011609 -8.87890625 5.66015625 C-9.41386719 6.14613281 -9.94882813 6.63210937 -10.5 7.1328125 C-15.07909633 11.26688156 -18.44728417 12.98488364 -24.5 14.1328125 C-17.32958991 16.02094557 -10.71118782 16.44683637 -3.3125 16.3828125 C-1.65855225 16.37483643 -1.65855225 16.37483643 0.02880859 16.36669922 C10.56321581 16.24426018 20.38456285 15.14592144 30.5 12.1328125 C33.4375 12.0078125 33.4375 12.0078125 35.5 12.1328125 C31.62765019 14.417294 27.4616558 15.21546673 23.125 16.1953125 C22.3825 16.36869141 21.64 16.54207031 20.875 16.72070312 C4.32458667 20.53665531 -12.00976747 20.0512836 -28.5 16.1328125 C-28.83 15.1428125 -29.16 14.1528125 -29.5 13.1328125 C-30.16 12.8028125 -30.82 12.4728125 -31.5 12.1328125 C-30.60539062 12.0090625 -29.71078125 11.8853125 -28.7890625 11.7578125 C-20.70579055 10.37900279 -15.55468998 8.44182213 -9.48828125 2.875 C-6.45837844 0.22011463 -3.87379098 0.00550254 0 0 Z " fill="#BFBFBF" transform="translate(78.5,106.8671875)"/>
<path d="M0 0 C1.23878906 -0.020625 2.47757813 -0.04125 3.75390625 -0.0625 C20.32041754 -0.13159911 38.73525216 3.25014952 51 15.25 C54.87633032 19.88216075 56.1330715 23.93892246 56.0625 29.9375 C56.05347656 30.93136719 56.04445313 31.92523438 56.03515625 32.94921875 C56.02355469 33.70847656 56.01195312 34.46773437 56 35.25 C55.39027344 35.53101563 54.78054687 35.81203125 54.15234375 36.1015625 C51.22743594 37.66222111 49.30941801 39.88425472 47 42.25 C42.94354576 45.94506104 38.88978812 47.72916248 33.8125 49.5625 C32.72678711 49.97725586 32.72678711 49.97725586 31.61914062 50.40039062 C29.76934354 51.08352499 27.88601612 51.6743569 26 52.25 C25.01 51.755 25.01 51.755 24 51.25 C24.51046875 51.03085937 25.0209375 50.81171875 25.546875 50.5859375 C28.04226762 49.49752157 30.52063275 48.37444543 33 47.25 C33.99773437 46.81429687 34.99546875 46.37859375 36.0234375 45.9296875 C42.67274692 42.86464059 48.29878252 39.78366045 52 33.25 C53.41586107 28.88381061 53.37680095 25.50600315 52.0625 21.125 C44.87523553 11.10638892 33.86510699 6.67149752 22.125 3.9375 C7.78582972 1.63004731 -6.57626518 2.31333868 -21 3.25 C-20.67 2.59 -20.34 1.93 -20 1.25 C-13.43248273 -0.26168624 -6.70123786 0.02721315 0 0 Z " fill="#FAF9F9" transform="translate(78,10.75)"/>
<path d="M0 0 C0.226875 0.53625 0.45375 1.0725 0.6875 1.625 C2.44013032 4.79642629 4.16445464 7.71442188 7 10 C10.61518122 10.7124966 10.61518122 10.7124966 13.0234375 10.796875 C16.03990523 11.10686773 18.34753665 12.58911524 21 14 C23.31622973 14.7705105 25.63534065 15.38518857 28 16 C25.03821227 17.67110042 22.62928808 18.32682752 19.25 18.625 C18.45078125 18.69976562 17.6515625 18.77453125 16.828125 18.8515625 C15.92320313 18.92503906 15.92320313 18.92503906 15 19 C16.65 19.66 18.3 20.32 20 21 C20 21.66 20 22.32 20 23 C11.46961077 20.76757899 1.78264455 18.09688194 -4 11 C-3.34 11 -2.68 11 -2 11 C-2.226875 9.9275 -2.45375 8.855 -2.6875 7.75 C-3 4 -3 4 -1.5625 1.5625 C-1.046875 1.046875 -0.53125 0.53125 0 0 Z " fill="#B0B0B0" transform="translate(29,99)"/>
<path d="M0 0 C7.12600133 -0.35368021 12.47059106 0.04328652 19 3 C17.10434937 8.07685743 13.3200631 9.18929651 8.65625 11.40234375 C4.59549728 13.17675386 0.51165979 14.84920961 -3.625 16.4375 C-4.67324951 16.84427979 -4.67324951 16.84427979 -5.74267578 17.25927734 C-7.47318237 17.90198826 -9.23512808 18.45874453 -11 19 C-11.66 18.67 -12.32 18.34 -13 18 C-12.49549316 17.65743164 -11.99098633 17.31486328 -11.47119141 16.96191406 C-9.18272795 15.40042391 -6.90388387 13.82543419 -4.625 12.25 C-3.43390625 11.44175781 -3.43390625 11.44175781 -2.21875 10.6171875 C-1.45820312 10.08867188 -0.69765625 9.56015625 0.0859375 9.015625 C1.1385376 8.29294434 1.1385376 8.29294434 2.21240234 7.55566406 C4.16412924 5.85716587 5.01185983 4.36974792 6 2 C3.03 1.505 3.03 1.505 0 1 C0 0.67 0 0.34 0 0 Z " fill="#FDE2C8" transform="translate(101,40)"/>
<path d="M0 0 C2.22988284 0.08750555 4.45896005 0.19569061 6.6875 0.3125 C7.92886719 0.37050781 9.17023437 0.42851563 10.44921875 0.48828125 C14.06321199 1.00910976 16.05766393 1.90154617 19 4 C18.45658377 7.91259689 17.33420118 9.88773176 15 13 C14.28566879 15.64934822 14.28566879 15.64934822 14 18 C6.71831283 14.0124094 2.86753064 7.66929186 0 0 Z " fill="#E4E4E4" transform="translate(12,90)"/>
<path d="M0 0 C3.7338863 1.48039545 5.37005309 3.47188335 7.625 6.75 C8.21539062 7.59046875 8.80578125 8.4309375 9.4140625 9.296875 C12.67833668 14.86061327 13.29890668 19.82559205 13.1875 26.1875 C13.18685547 26.89841797 13.18621094 27.60933594 13.18554688 28.34179688 C13.15892875 31.48569308 13.00063537 33.99809388 12 37 C11.34 37 10.68 37 10 37 C9.731875 37.7425 9.46375 38.485 9.1875 39.25 C8.05770579 41.86636554 6.79106798 43.80187111 5 46 C4.01 45.67 3.02 45.34 2 45 C3.85546875 42.50976562 3.85546875 42.50976562 5.7109375 40.01953125 C10.18944361 33.00320501 10.08140111 24.60692847 8.53515625 16.58984375 C6.99360406 12.00167361 4.28660638 8.45571034 1.20703125 4.76171875 C0 3 0 3 0 0 Z " fill="#FAFAFA" transform="translate(131,56)"/>
<path d="M0 0 C-15.87843439 8.40420388 -30.09568176 11.14166454 -47.9375 11.25 C-49.55519287 11.26401855 -49.55519287 11.26401855 -51.20556641 11.27832031 C-56.86062044 11.25541466 -61.6640704 10.91273721 -67 9 C-67 8.67 -67 8.34 -67 8 C-65.61832642 8.02356567 -65.61832642 8.02356567 -64.20874023 8.04760742 C-60.71405141 8.09945351 -57.21978478 8.13669158 -53.72485352 8.16479492 C-52.22674008 8.17966572 -50.7286684 8.19996866 -49.23071289 8.22631836 C-34.56252416 8.47743539 -18.97231339 7.3325923 -5.94921875 -0.18359375 C-3.5513725 -1.1879021 -2.40384844 -0.8585173 0 0 Z " fill="#F7F7F7" transform="translate(123,113)"/>
<path d="M0 0 C0.87140625 0.39832031 1.7428125 0.79664063 2.640625 1.20703125 C15.70211596 7.01685028 28.24874149 10.20190776 42.625 10.125 C43.49930664 10.12306641 44.37361328 10.12113281 45.27441406 10.11914062 C52.22108581 10.0731531 59.08651924 9.70648709 66 9 C61.3166447 13.6833553 49.58675405 13.124361 43.0625 13.25 C27.75152887 12.90109047 12.04362542 10.58970455 -1 2 C-0.67 1.34 -0.34 0.68 0 0 Z " fill="#FCFBF9" transform="translate(35,53)"/>
<path d="M0 0 C0.66 0.33 1.32 0.66 2 1 C1.505 1.4125 1.01 1.825 0.5 2.25 C-1.43386092 4.12202338 -1.43386092 4.12202338 -1 8 C-2.58086048 8.36504603 -4.16483907 8.71660506 -5.75 9.0625 C-6.63171875 9.25972656 -7.5134375 9.45695312 -8.421875 9.66015625 C-10.98679028 9.99825872 -12.57091639 9.81158635 -15 9 C-13.02 7.68 -11.04 6.36 -9 5 C-10.57201172 4.92652344 -10.57201172 4.92652344 -12.17578125 4.8515625 C-13.55471354 4.77651857 -14.9336185 4.70097143 -16.3125 4.625 C-17.34793945 4.57859375 -17.34793945 4.57859375 -18.40429688 4.53125 C-22.06990789 4.31875081 -23.87900792 4.08066139 -27 2 C-25.87972412 1.96241577 -25.87972412 1.96241577 -24.73681641 1.92407227 C-21.36602733 1.80831787 -17.99553217 1.68549872 -14.625 1.5625 C-13.449375 1.52318359 -12.27375 1.48386719 -11.0625 1.44335938 C-9.94101563 1.40146484 -8.81953125 1.35957031 -7.6640625 1.31640625 C-6.62717285 1.27974854 -5.5902832 1.24309082 -4.52197266 1.20532227 C-2.00574834 1.15835777 -2.00574834 1.15835777 0 0 Z " fill="#A1A1A1" transform="translate(138,105)"/>
<path d="M0 0 C3.37498158 -0.02922646 6.74993021 -0.04687468 10.125 -0.0625 C11.55199219 -0.07506836 11.55199219 -0.07506836 13.0078125 -0.08789062 C17.79018487 -0.10449608 22.29771569 -0.00537055 27 1 C24.37617605 3.76999799 22.22636266 4.23452155 18.55859375 4.36328125 C16.85147909 4.36195688 15.14431502 4.34451078 13.4375 4.3125 C12.14295898 4.31733398 12.14295898 4.31733398 10.82226562 4.32226562 C4.40107549 4.26738366 4.40107549 4.26738366 1 2 C0.67 1.34 0.34 0.68 0 0 Z " fill="#C1C1C1" transform="translate(113,103)"/>
<path d="M0 0 C-1.19238281 0.47050781 -2.38476562 0.94101562 -3.61328125 1.42578125 C-5.17984922 2.05428457 -6.74624664 2.68321308 -8.3125 3.3125 C-9.09818359 3.62123047 -9.88386719 3.92996094 -10.69335938 4.24804688 C-11.45068359 4.55419922 -12.20800781 4.86035156 -12.98828125 5.17578125 C-14.03302612 5.59210815 -14.03302612 5.59210815 -15.09887695 6.0168457 C-17.19421225 7.10043569 -18.4942914 8.18933776 -20 10 C-20.72197162 12.60611077 -20.72197162 12.60611077 -21 15 C-22.65 15 -24.3 15 -26 15 C-26.33 13.68 -26.66 12.36 -27 11 C-22.67716765 7.05918539 -18.77915421 4.76146921 -13.3125 2.75 C-12.64927734 2.49476562 -11.98605469 2.23953125 -11.30273438 1.9765625 C-3.280327 -1.09344233 -3.280327 -1.09344233 0 0 Z " fill="#FBD3BD" transform="translate(66,33)"/>
<path d="M0 0 C-2.49881678 5.63147976 -6.67230839 9.03378839 -12.3125 11.375 C-16.862975 12.14626695 -21.40031031 12.57180786 -26 12 C-26.66 11.34 -27.32 10.68 -28 10 C-26.97519531 9.89042969 -25.95039062 9.78085938 -24.89453125 9.66796875 C-23.53378133 9.50843255 -22.17310806 9.3482416 -20.8125 9.1875 C-20.13896484 9.11724609 -19.46542969 9.04699219 -18.77148438 8.97460938 C-12.87728384 8.25580443 -9.16539017 6.1985923 -4.8125 2.3125 C-2 0 -2 0 0 0 Z " fill="#A1A1A1" transform="translate(70,107)"/>
<path d="M0 0 C0.96826073 3.1782604 0.99070388 5.82100379 0.8125 9.125 C0.7507293 18.40295932 4.68035928 26.29245294 11 33 C13.70507866 34.8262482 13.70507866 34.8262482 16 36 C16 36.66 16 37.32 16 38 C10.81333474 37.06005848 8.21325266 34.00101783 5 30 C-1.08023461 21.12578449 -2.02369415 13.45723008 -1 3 C-0.67 2.01 -0.34 1.02 0 0 Z " fill="#C8C8C8" transform="translate(11,72)"/>
<path d="M0 0 C0.99 0 1.98 0 3 0 C4.4296875 2.01171875 4.4296875 2.01171875 5.875 4.6875 C8.21554919 8.81271795 10.45612931 11.87305528 14 15 C13.67 15.99 13.34 16.98 13 18 C6.57386985 13.65291196 2.66738499 7.16780707 0 0 Z " fill="#FAFAFA" transform="translate(12,90)"/>
<path d="M0 0 C0.99 0.66 1.98 1.32 3 2 C4.65549531 2.38499891 6.3222433 2.72793135 8 3 C6.65515549 7.03453354 4.51870529 7.72319069 1 10 C-0.36886951 11.29682374 -1.7169291 12.61823134 -3 14 C-3.99 13.67 -4.98 13.34 -6 13 C-5.566875 12.56429687 -5.13375 12.12859375 -4.6875 11.6796875 C-0.93412097 7.74032717 -0.93412097 7.74032717 0.375 2.5625 C0.25125 1.716875 0.1275 0.87125 0 0 Z " fill="#B7B7B7" transform="translate(63,101)"/>
<path d="M0 0 C-2.91765 1.9451 -4.62537285 2.45276317 -8 3 C-3.545 3.99 -3.545 3.99 1 5 C1 5.66 1 6.32 1 7 C-3.96916636 6.48594831 -8.29026351 5.76615118 -13 4 C-13 3.34 -13 2.68 -13 2 C-13.66 1.67 -14.32 1.34 -15 1 C-9.91913204 0.15318867 -5.15171623 -0.09038099 0 0 Z " fill="#C8C8C8" transform="translate(62,118)"/>
<path d="M0 0 C-0.33 0.99 -0.66 1.98 -1 3 C-2.58086048 3.36504603 -4.16483907 3.71660506 -5.75 4.0625 C-6.63171875 4.25972656 -7.5134375 4.45695312 -8.421875 4.66015625 C-10.98679028 4.99825872 -12.57091639 4.81158635 -15 4 C-9.40780143 0.14759654 -6.73482458 -1.34696492 0 0 Z " fill="#989898" transform="translate(138,110)"/>
<path d="M0 0 C0.66 0.99 1.32 1.98 2 3 C-0.31 5.64 -2.62 8.28 -5 11 C-5.66 10.34 -6.32 9.68 -7 9 C-5.44499019 5.18315774 -2.96404505 2.80804268 0 0 Z " fill="#FCFCFC" transform="translate(24,54)"/>
<path d="M0 0 C0.66 0.33 1.32 0.66 2 1 C0.04683776 3.64251362 -1.17223574 4.04384183 -4.4375 4.875 C-8.43457049 5.01524809 -9.08763281 4.4707115 -12 2 C-10.95199219 1.90912109 -10.95199219 1.90912109 -9.8828125 1.81640625 C-8.97273437 1.73261719 -8.06265625 1.64882812 -7.125 1.5625 C-6.22007812 1.48128906 -5.31515625 1.40007812 -4.3828125 1.31640625 C-1.98889139 1.13010715 -1.98889139 1.13010715 0 0 Z " fill="#A7A7A7" transform="translate(138,105)"/>
<path d="M0 0 C3.66881155 0.70554068 6.70450534 2.27735506 10 4 C10 4.66 10 5.32 10 6 C6.7 5.01 3.4 4.02 0 3 C0 2.01 0 1.02 0 0 Z " fill="#ACACAC" transform="translate(39,116)"/>
<path d="M0 0 C0.66 0 1.32 0 2 0 C1.8864371 1.64666203 1.75882619 3.29236082 1.625 4.9375 C1.52058594 6.31228516 1.52058594 6.31228516 1.4140625 7.71484375 C1.27742187 8.46894531 1.14078125 9.22304687 1 10 C0.01 10.495 0.01 10.495 -1 11 C-1.14285714 3.57142857 -1.14285714 3.57142857 0 0 Z " fill="#FDFDFD" transform="translate(12,72)"/>
<path d="M0 0 C2.64 0 5.28 0 8 0 C8.33 1.32 8.66 2.64 9 4 C4.545 3.01 4.545 3.01 0 2 C0 1.34 0 0.68 0 0 Z " fill="#F7F7F7" transform="translate(14,45)"/>
<path d="M0 0 C1 2 2 4 3 6 C1.68 6.33 0.36 6.66 -1 7 C-1 6.34 -1 5.68 -1 5 C-1.66 4.67 -2.32 4.34 -3 4 C-2.01 2.68 -1.02 1.36 0 0 Z " fill="#C5C5C5" transform="translate(29,99)"/>
<path d="M0 0 C2.5654594 2.5654594 2.54046087 4.47686668 3 8 C2.01 8 1.02 8 0 8 C-0.38063221 5.6739143 -0.71269945 3.33944736 -1 1 C-0.67 0.67 -0.34 0.34 0 0 Z " fill="#E2E2E2" transform="translate(12,82)"/>
</svg>
