<?xml version="1.0" encoding="UTF-8"?>
<svg version="1.1" xmlns="http://www.w3.org/2000/svg" width="600" height="600">
<path d="M0 0 C3.0254577 2.52360453 4.7475125 5.24253751 6 9 C6.0833804 11.13794525 6.10733747 13.27842009 6.09765625 15.41796875 C6.09282227 17.29838867 6.09282227 17.29838867 6.08789062 19.21679688 C6.07532227 21.18229492 6.07532227 21.18229492 6.0625 23.1875 C6.05748317 24.52278481 6.05292059 25.85807141 6.04882812 27.19335938 C6.03702695 30.46228473 6.02056297 33.73111991 6 37 C8.97 37 11.94 37 15 37 C14.98428955 36.11739502 14.9685791 35.23479004 14.95239258 34.32543945 C14.90112002 31.03599114 14.86358083 27.74697039 14.83520508 24.45727539 C14.8201624 23.03630859 14.79972296 21.61538787 14.77368164 20.19458008 C14.73709653 18.14653114 14.72022903 16.0990985 14.70703125 14.05078125 C14.6913208 12.82012939 14.67561035 11.58947754 14.65942383 10.3215332 C15.09697252 6.05425728 16.41658945 3.31473229 19.7265625 0.56640625 C24.44590288 -1.92921202 27.7738718 -2.46034073 32.94921875 -0.9765625 C36.93708756 0.92242265 39.04389917 4.08779835 41 8 C41.08559118 10.17824961 41.10713412 12.35915255 41.09765625 14.5390625 C41.09443359 15.84101562 41.09121094 17.14296875 41.08789062 18.484375 C41.07953466 19.86458399 41.07106971 21.24479232 41.0625 22.625 C41.05748501 24.01301926 41.0529221 25.40104022 41.04882812 26.7890625 C41.03700976 30.19275132 41.02053434 33.59635439 41 37 C43.97 37 46.94 37 50 37 C49.9685791 36.12786865 49.9371582 35.2557373 49.90478516 34.35717773 C49.80197778 31.09358577 49.72705439 27.83173476 49.67041016 24.56713867 C49.64039803 23.15963444 49.59957242 21.75231473 49.54736328 20.34545898 C49.07027801 7.15077707 49.07027801 7.15077707 52.87109375 2.62890625 C56.52587681 -0.80162259 59.31245773 -2 64.375 -2 C68.94695824 -0.73877014 71.87778833 1.45443759 75 5 C76.13917218 8.41751653 76.11338481 11.03487937 76.09765625 14.63671875 C76.09443359 15.93544922 76.09121094 17.23417969 76.08789062 18.57226562 C76.07953531 19.94401108 76.07107037 21.31575587 76.0625 22.6875 C76.05748335 24.07096195 76.05292073 25.45442563 76.04882812 26.83789062 C76.03702529 30.22530395 76.02056019 33.61263033 76 37 C78.97 37 81.94 37 85 37 C84.97905273 36.1529248 84.95810547 35.30584961 84.93652344 34.43310547 C84.86805945 31.26859607 84.81806013 28.10446609 84.78027344 24.93945312 C84.76024681 23.57376632 84.73301668 22.20816431 84.69824219 20.84277344 C84.64933568 18.87212898 84.62908653 16.90084017 84.609375 14.9296875 C84.58842773 13.74616699 84.56748047 12.56264648 84.54589844 11.34326172 C85.19488566 6.56518054 87.45069043 3.54930957 90.8125 0.1875 C94.01428647 -1.55061266 96.34447006 -1.9390745 100 -2 C104.02692603 -0.74898805 107.05148072 0.7225716 109.59399414 4.14672852 C111.33134698 7.67241745 111.34301188 10.13073618 111.29296875 14.05078125 C111.28872391 14.70958786 111.28447906 15.36839447 111.28010559 16.04716492 C111.26341196 18.13603885 111.22578058 20.22392139 111.1875 22.3125 C111.17244097 23.73501203 111.15875469 25.1575393 111.14648438 26.58007812 C111.11354003 30.05370351 111.06182408 33.52675487 111 37 C113.97 37 116.94 37 120 37 C119.97643433 35.77482666 119.97643433 35.77482666 119.95239258 34.52490234 C119.8898606 30.80833923 119.85095056 27.09188704 119.8125 23.375 C119.78736328 22.08980469 119.76222656 20.80460937 119.73632812 19.48046875 C119.72182617 17.61455078 119.72182617 17.61455078 119.70703125 15.7109375 C119.68346558 13.99849854 119.68346558 13.99849854 119.65942383 12.25146484 C120.16609188 7.41432856 121.87909238 4.15204394 125.25 0.6875 C128.73195276 -1.44915283 130.90176211 -2 135 -2 C139.80176452 -0.41709788 143.3782155 1.58635167 146 6 C146.34057617 9.29980469 146.34057617 9.29980469 146.29296875 13.171875 C146.28872391 13.8542926 146.28447906 14.53671021 146.28010559 15.23980713 C146.26336972 17.41028004 146.22572959 19.57980979 146.1875 21.75 C146.17244646 23.22524697 146.15875922 24.70050855 146.14648438 26.17578125 C146.11348377 29.78415844 146.06173767 33.3919871 146 37 C148.97 37 151.94 37 155 37 C154.97905273 36.18845459 154.95810547 35.37690918 154.93652344 34.54077148 C154.85302916 30.83980858 154.80123245 27.13904434 154.75 23.4375 C154.71648437 22.16068359 154.68296875 20.88386719 154.6484375 19.56835938 C154.52343434 7.5368049 154.52343434 7.5368049 159 2 C162.37091183 -0.78407293 165.7691933 -2 170.125 -2 C174.79695753 -0.3749713 178.04862292 1.4358122 180.6574707 5.72509766 C182.13727467 9.33486133 182.34642114 11.82673076 182.29296875 15.7109375 C182.28330078 16.95488281 182.27363281 18.19882813 182.26367188 19.48046875 C182.23853516 20.76566406 182.21339844 22.05085938 182.1875 23.375 C182.17396484 24.68339844 182.16042969 25.99179688 182.14648438 27.33984375 C182.1112237 30.56031844 182.06193633 33.77994606 182 37 C184.97 37 187.94 37 191 37 C190.97905273 36.12263184 190.95810547 35.24526367 190.93652344 34.34130859 C190.868074 31.06483317 190.81806949 27.78912488 190.78027344 24.51220703 C190.76024157 23.09802205 190.73300752 21.68391903 190.69824219 20.27001953 C190.64934511 18.22928581 190.62694877 16.1896531 190.609375 14.1484375 C190.58842773 12.92302246 190.56748047 11.69760742 190.54589844 10.43505859 C191.09126158 6.30965027 192.39447252 4.208648 195 1 C199.04412101 -1.53748769 201.97610997 -2.31282002 206.625 -1.5625 C211.4280566 -0.25108523 213.3116943 1.8835319 216 6 C217.11911712 9.35735137 217.11365586 11.88205386 217.09765625 15.41796875 C217.09443359 16.67158203 217.09121094 17.92519531 217.08789062 19.21679688 C217.07951172 20.52712891 217.07113281 21.83746094 217.0625 23.1875 C217.05748317 24.52278481 217.05292059 25.85807141 217.04882812 27.19335938 C217.03702695 30.46228473 217.02056297 33.73111991 217 37 C218.03511719 36.96777344 219.07023437 36.93554688 220.13671875 36.90234375 C230.73763368 37.1703143 240.42405259 42.32601395 247.77734375 49.80859375 C255.02888851 58.68389407 257.38331941 67.76974333 257 79 C257.87736816 78.97905273 258.75473633 78.95810547 259.65869141 78.93652344 C262.93516683 78.868074 266.21087512 78.81806949 269.48779297 78.78027344 C270.90197795 78.76024157 272.31608097 78.73300752 273.72998047 78.69824219 C275.77071419 78.64934511 277.8103469 78.62694877 279.8515625 78.609375 C281.68968506 78.5779541 281.68968506 78.5779541 283.56494141 78.54589844 C287.66473983 79.08787605 289.79372019 80.44043718 293 83 C295.23540419 86.44705805 296.26673246 90.12628679 295.68359375 94.22265625 C294.19893754 98.76146238 292.14820345 101.47060765 288 104 C284.56295644 105.1509061 281.30840636 105.11466229 277.703125 105.09765625 C275.89521484 105.09282227 275.89521484 105.09282227 274.05078125 105.08789062 C272.79652344 105.07951172 271.54226563 105.07113281 270.25 105.0625 C268.98027344 105.05798828 267.71054687 105.05347656 266.40234375 105.04882812 C263.26818164 105.03704556 260.13411459 105.02059416 257 105 C257 107.97 257 110.94 257 114 C257.87213135 113.9685791 258.7442627 113.9371582 259.64282227 113.90478516 C262.90641423 113.80197778 266.16826524 113.72705439 269.43286133 113.67041016 C270.84036556 113.64039803 272.24768527 113.59957242 273.65454102 113.54736328 C286.84927521 113.07027612 286.84927521 113.07027612 291.40234375 116.8984375 C295.12731287 120.85866149 295.40151847 124.12845965 295.34765625 129.453125 C294.77336399 133.66029972 293.15372024 135.19669312 290 138 C286.04085436 140.00200243 282.79304021 140.23555288 278.38671875 140.1953125 C276.5159668 140.18564453 276.5159668 140.18564453 274.60742188 140.17578125 C273.31384766 140.15902344 272.02027344 140.14226562 270.6875 140.125 C269.37458984 140.11597656 268.06167969 140.10695312 266.70898438 140.09765625 C263.47247087 140.07411797 260.23632851 140.0412352 257 140 C257 142.97 257 145.94 257 149 C257.8470752 148.97905273 258.69415039 148.95810547 259.56689453 148.93652344 C262.73140393 148.86805945 265.89553391 148.81806013 269.06054688 148.78027344 C270.42623368 148.76024681 271.79183569 148.73301668 273.15722656 148.69824219 C275.12787102 148.64933568 277.09915983 148.62908653 279.0703125 148.609375 C280.25383301 148.58842773 281.43735352 148.56748047 282.65673828 148.54589844 C287.46601795 149.19912322 290.5364017 151.43546389 293.8125 154.9375 C295.98404093 158.70912371 296.12887803 161.19809223 295.4375 165.5 C293.46738904 170.2967919 290.68589724 172.65705138 286 175 C283.82175039 175.08559118 281.64084745 175.10713412 279.4609375 175.09765625 C278.15898437 175.09443359 276.85703125 175.09121094 275.515625 175.08789062 C274.13541601 175.07953466 272.75520768 175.07106971 271.375 175.0625 C269.98698074 175.05748501 268.59895978 175.0529221 267.2109375 175.04882812 C263.80724868 175.03700976 260.40364561 175.02053434 257 175 C257 177.97 257 180.94 257 184 C257.8470752 183.97905273 258.69415039 183.95810547 259.56689453 183.93652344 C262.73140393 183.86805945 265.89553391 183.81806013 269.06054688 183.78027344 C270.42623368 183.76024681 271.79183569 183.73301668 273.15722656 183.69824219 C275.12787102 183.64933568 277.09915983 183.62908653 279.0703125 183.609375 C280.25383301 183.58842773 281.43735352 183.56748047 282.65673828 183.54589844 C287.44966151 184.19690159 290.49418313 186.44225841 293.8125 189.875 C295.39976148 192.71536265 295.87195196 194.73477503 296 198 C294.48589479 202.62200539 292.79569439 205.9159983 289 209 C285.58248347 210.13917218 282.96512063 210.11338481 279.36328125 210.09765625 C278.06455078 210.09443359 276.76582031 210.09121094 275.42773438 210.08789062 C274.05598892 210.07953531 272.68424413 210.07107037 271.3125 210.0625 C269.92903805 210.05748335 268.54557437 210.05292073 267.16210938 210.04882812 C263.77469605 210.03702529 260.38736967 210.02056019 257 210 C257 212.97 257 215.94 257 219 C258.22517334 218.97643433 258.22517334 218.97643433 259.47509766 218.95239258 C263.19166077 218.8898606 266.90811296 218.85095056 270.625 218.8125 C271.91019531 218.78736328 273.19539063 218.76222656 274.51953125 218.73632812 C276.38544922 218.72182617 276.38544922 218.72182617 278.2890625 218.70703125 C280.00150146 218.68346558 280.00150146 218.68346558 281.74853516 218.65942383 C286.07039478 219.11211899 289.1894927 220.77144148 292.75 223.1875 C294.83337865 226.20839905 295.73434575 229.38710221 296 233 C294.58739993 237.7086669 292.76740365 240.8402421 289 244 C286.0780231 245.46098845 283.50106525 245.11134901 280.2421875 245.09765625 C279.24761032 245.09553383 279.24761032 245.09553383 278.23294067 245.09336853 C276.11358137 245.08776754 273.99432741 245.075215 271.875 245.0625 C270.43880361 245.05748512 269.00260556 245.05292219 267.56640625 245.04882812 C264.04423655 245.03779782 260.52212855 245.02053259 257 245 C257.33 247.97 257.66 250.94 258 254 C258.72590332 253.98952637 259.45180664 253.97905273 260.19970703 253.96826172 C263.50810241 253.9265304 266.81644224 253.90061936 270.125 253.875 C271.26710938 253.85824219 272.40921875 253.84148437 273.5859375 253.82421875 C275.24882813 253.81455078 275.24882813 253.81455078 276.9453125 253.8046875 C277.96125488 253.79421387 278.97719727 253.78374023 280.02392578 253.77294922 C284.72209049 254.1313818 288.06196019 255.25383197 291.75 258.1875 C294.44150555 261.55188193 295.42004234 263.72281228 296 268 C295.22314446 272.71410067 293.75109887 275.37674774 290.0625 278.4375 C285.50025556 280.76517574 282.03526711 281.1227219 276.921875 281.09765625 C275.76171875 281.09443359 274.6015625 281.09121094 273.40625 281.08789062 C272.1996875 281.07951172 270.993125 281.07113281 269.75 281.0625 C268.52796875 281.05798828 267.3059375 281.05347656 266.046875 281.04882812 C263.03120054 281.03704815 260.01562502 281.02059853 257 281 C257 283.64 257 286.28 257 289 C257.74572266 288.98428955 258.49144531 288.9685791 259.25976562 288.95239258 C262.67309843 288.88962412 266.08630931 288.85087661 269.5 288.8125 C271.25957031 288.77479492 271.25957031 288.77479492 273.0546875 288.73632812 C279.7659235 288.67977277 284.9631837 288.95664633 291 292 C293.88481099 295.40259758 295.89253943 298.48665595 296 303 C295.0163503 307.34372745 293.71169715 310.30609528 290.5 313.4375 C286.40398631 315.99750856 283.32314929 316.11910927 278.58203125 316.09765625 C276.70161133 316.09282227 276.70161133 316.09282227 274.78320312 316.08789062 C272.81770508 316.07532227 272.81770508 316.07532227 270.8125 316.0625 C269.47721519 316.05748317 268.14192859 316.05292059 266.80664062 316.04882812 C263.53771527 316.03702695 260.26888009 316.02056297 257 316 C257.01740234 316.65806641 257.03480469 317.31613281 257.05273438 317.99414062 C257.21918962 328.79787895 254.29019413 336.51743544 247.1953125 344.77734375 C240.98604416 351.06395174 231.92901207 356.67772037 222.87939453 357.09863281 C220.9193223 357.10122037 218.95931978 357.05436746 217 357 C217.01047363 357.82201904 217.02094727 358.64403809 217.03173828 359.4909668 C217.07336759 363.22311331 217.09934853 366.9552109 217.125 370.6875 C217.14175781 371.98107422 217.15851563 373.27464844 217.17578125 374.60742188 C217.18222656 375.85458984 217.18867188 377.10175781 217.1953125 378.38671875 C217.20578613 379.53358154 217.21625977 380.68044434 217.22705078 381.86206055 C216.87574289 386.71728671 215.7320932 389.23304522 212.375 392.75 C208.64561601 395.62435449 205.68700866 396 201 396 C196.25313524 394.35685451 193.72898346 392.17943026 191 388 C190.54589844 384.58666992 190.54589844 384.58666992 190.609375 380.73046875 C190.61503479 380.04946609 190.62069458 379.36846344 190.62652588 378.66682434 C190.64879519 376.50631355 190.69896682 374.34750354 190.75 372.1875 C190.77007753 370.71682095 190.78832611 369.24611571 190.8046875 367.77539062 C190.84862674 364.1830475 190.91758544 360.59168994 191 357 C188.03 357 185.06 357 182 357 C182.01571045 357.81678223 182.0314209 358.63356445 182.04760742 359.47509766 C182.1101394 363.19166077 182.14904944 366.90811296 182.1875 370.625 C182.22520508 372.55279297 182.22520508 372.55279297 182.26367188 374.51953125 C182.27333984 375.76347656 182.28300781 377.00742187 182.29296875 378.2890625 C182.3086792 379.43068848 182.32438965 380.57231445 182.34057617 381.74853516 C181.83691068 386.55700613 180.11318829 389.82320095 176.8125 393.3125 C173.20016287 395.47990228 170.20514029 396.20653931 166 396 C161.27640862 394.36491068 158.78013257 392.11871492 156 388 C154.90088451 384.70265354 154.8860544 382.27041255 154.90234375 378.80078125 C154.90556641 377.59228516 154.90878906 376.38378906 154.91210938 375.13867188 C154.92048828 373.87603516 154.92886719 372.61339844 154.9375 371.3125 C154.94201172 370.03826172 154.94652344 368.76402344 154.95117188 367.45117188 C154.96297127 364.30073436 154.97943403 361.15039051 155 358 C152.03 357.67 149.06 357.34 146 357 C146.02618408 357.90766113 146.05236816 358.81532227 146.0793457 359.75048828 C146.16488814 363.1388351 146.22739952 366.52602446 146.2746582 369.91503906 C146.29970529 371.37778907 146.33375392 372.84041512 146.37719727 374.30273438 C146.43829356 376.41307219 146.46630435 378.52174752 146.48828125 380.6328125 C146.51446533 381.90012207 146.54064941 383.16743164 146.56762695 384.47314453 C145.81720053 389.13579405 144.29973758 390.68084676 141 394 C137.37833632 396.25130445 134.19739746 396.28053645 129.99609375 395.60546875 C126.41870147 394.52034976 124.5830901 392.70609439 122 390 C119.98523832 386.04947854 119.76448814 382.78854845 119.8046875 378.38671875 C119.81435547 376.5159668 119.81435547 376.5159668 119.82421875 374.60742188 C119.84935547 372.66706055 119.84935547 372.66706055 119.875 370.6875 C119.88402344 369.37458984 119.89304687 368.06167969 119.90234375 366.70898438 C119.92588203 363.47247087 119.9587648 360.23632851 120 357 C117.03 357 114.06 357 111 357 C111.02094727 357.87736816 111.04189453 358.75473633 111.06347656 359.65869141 C111.131926 362.93516683 111.18193051 366.21087512 111.21972656 369.48779297 C111.23975843 370.90197795 111.26699248 372.31608097 111.30175781 373.72998047 C111.35065489 375.77071419 111.37305123 377.8103469 111.390625 379.8515625 C111.41157227 381.07697754 111.43251953 382.30239258 111.45410156 383.56494141 C110.91004387 387.68047459 109.58015572 389.78683199 107 393 C103.55735734 395.42549824 101.06726959 396.24053516 96.9375 395.875 C93.41024978 395.23551761 90.80453509 394.32375765 88 392 C85.30067469 387.52976419 84.638136 384.26042162 84.70703125 379.0703125 C84.71669922 377.78125 84.72636719 376.4921875 84.73632812 375.1640625 C84.76138812 373.81770214 84.78678288 372.47134797 84.8125 371.125 C84.82756496 369.75522295 84.84125018 368.38542998 84.85351562 367.015625 C84.88878621 363.67667642 84.93808104 360.33854325 85 357 C82.03 357 79.06 357 76 357 C76.02094727 357.87736816 76.04189453 358.75473633 76.06347656 359.65869141 C76.131926 362.93516683 76.18193051 366.21087512 76.21972656 369.48779297 C76.23975843 370.90197795 76.26699248 372.31608097 76.30175781 373.72998047 C76.35065489 375.77071419 76.37305123 377.8103469 76.390625 379.8515625 C76.41157227 381.07697754 76.43251953 382.30239258 76.45410156 383.56494141 C75.91022089 387.67913551 74.57622167 389.78588472 72 393 C67.65559324 396.13201418 64.24126524 396.3717532 59.1171875 395.578125 C55.33555704 394.54550266 53.0061149 392.53358834 50.88330078 389.29785156 C49.66960785 386.14050555 49.7760631 383.42455471 49.8046875 380.046875 C49.8075174 379.38665344 49.81034729 378.72643188 49.81326294 378.04620361 C49.82441585 375.94728103 49.84951054 373.84879258 49.875 371.75 C49.88503616 370.32292285 49.8941609 368.89583898 49.90234375 367.46875 C49.92433889 363.97902672 49.95883464 360.48955577 50 357 C47.03 357 44.06 357 41 357 C41.01571045 357.8470752 41.0314209 358.69415039 41.04760742 359.56689453 C41.0989557 362.73142204 41.13645672 365.89573608 41.16479492 369.06054688 C41.17981428 370.42617816 41.20023608 371.79176176 41.22631836 373.15722656 C41.26300137 375.12803905 41.27818551 377.09921408 41.29296875 379.0703125 C41.31653442 380.84559326 41.31653442 380.84559326 41.34057617 382.65673828 C40.89548264 387.02599332 39.64655697 390.60170439 36.23828125 393.49609375 C30.9777809 396.0676568 27.7118256 396.49818376 22 395 C18.48179628 392.78200201 16.47964866 390.86631127 15 387 C14.77294922 383.79199219 14.77294922 383.79199219 14.8046875 380.046875 C14.8075174 379.38665344 14.81034729 378.72643188 14.81326294 378.04620361 C14.82441585 375.94728103 14.84951054 373.84879258 14.875 371.75 C14.88503616 370.32292285 14.8941609 368.89583898 14.90234375 367.46875 C14.92433889 363.97902672 14.95883464 360.48955577 15 357 C12.03 357 9.06 357 6 357 C6.02094727 357.8470752 6.04189453 358.69415039 6.06347656 359.56689453 C6.13194055 362.73140393 6.18193987 365.89553391 6.21972656 369.06054688 C6.23975319 370.42623368 6.26698332 371.79183569 6.30175781 373.15722656 C6.35066432 375.12787102 6.37091347 377.09915983 6.390625 379.0703125 C6.4220459 380.84559326 6.4220459 380.84559326 6.45410156 382.65673828 C5.80692205 387.42151043 3.53909114 390.40594132 0.25 393.8125 C-3.05986028 395.55937071 -6.30078709 396.1142614 -10 396 C-14.74686476 394.35685451 -17.27101654 392.17943026 -20 388 C-20.45410156 384.58666992 -20.45410156 384.58666992 -20.390625 380.73046875 C-20.38496521 380.04946609 -20.37930542 379.36846344 -20.37347412 378.66682434 C-20.35120481 376.50631355 -20.30103318 374.34750354 -20.25 372.1875 C-20.22992247 370.71682095 -20.21167389 369.24611571 -20.1953125 367.77539062 C-20.15137326 364.1830475 -20.08241456 360.59168994 -20 357 C-20.99471313 357.01957764 -20.99471313 357.01957764 -22.00952148 357.03955078 C-34.6015076 357.18440518 -43.5197662 353.27979107 -52.75 344.6875 C-60.62787598 336.3709488 -63.14949921 327.2260315 -63 316 C-63.81678223 316.02094727 -64.63356445 316.04189453 -65.47509766 316.06347656 C-69.19160555 316.1468513 -72.90791633 316.19872988 -76.625 316.25 C-77.91019531 316.28351563 -79.19539063 316.31703125 -80.51953125 316.3515625 C-92.24163065 316.47303503 -92.24163065 316.47303503 -97 312 C-97.598125 311.484375 -98.19625 310.96875 -98.8125 310.4375 C-101.62027988 307.03860856 -101.28826724 303.17987504 -101 299 C-99.18201807 294.88561983 -96.69425713 292.52290731 -93 290 C-89.63636534 288.86018359 -86.45368155 288.88503097 -82.921875 288.90234375 C-81.76171875 288.90556641 -80.6015625 288.90878906 -79.40625 288.91210938 C-78.1996875 288.92048828 -76.993125 288.92886719 -75.75 288.9375 C-73.91695312 288.94426758 -73.91695312 288.94426758 -72.046875 288.95117188 C-69.03120054 288.96295185 -66.01562502 288.97940147 -63 289 C-63 286.36 -63 283.72 -63 281 C-63.75095947 281.01571045 -64.50191895 281.0314209 -65.27563477 281.04760742 C-68.70451211 281.11027758 -72.13326855 281.14909261 -75.5625 281.1875 C-77.33463867 281.22520508 -77.33463867 281.22520508 -79.14257812 281.26367188 C-86.83642897 281.32832608 -92.3120092 281.10567646 -98.375 276 C-101.4257332 272.24525145 -101.32250153 268.67627216 -101 264 C-99.18201807 259.88561983 -96.69425713 257.52290731 -93 255 C-89.63636534 253.86018359 -86.45368155 253.88503097 -82.921875 253.90234375 C-81.76171875 253.90556641 -80.6015625 253.90878906 -79.40625 253.91210938 C-77.59640625 253.92467773 -77.59640625 253.92467773 -75.75 253.9375 C-73.91695312 253.94426758 -73.91695312 253.94426758 -72.046875 253.95117188 C-69.03120054 253.96295185 -66.01562502 253.97940147 -63 254 C-63 251.03 -63 248.06 -63 245 C-63.87736816 245.02618408 -64.75473633 245.05236816 -65.65869141 245.0793457 C-68.93522757 245.16490909 -72.21056558 245.22740867 -75.48779297 245.2746582 C-76.90204682 245.29969925 -78.31617257 245.33374342 -79.72998047 245.37719727 C-93.00539594 245.77480485 -93.00539594 245.77480485 -96.875 242.59765625 C-99.80471978 239.01628924 -100.85076753 237.31822011 -101.375 232.6875 C-100.94186414 228.42833066 -100.05439317 225.09266878 -97 222 C-90.40999961 217.99231718 -83.57606447 218.65884032 -76.0625 218.8125 C-74.80630859 218.82603516 -73.55011719 218.83957031 -72.25585938 218.85351562 C-69.17012721 218.88871409 -66.08528976 218.93795695 -63 219 C-63 216.03 -63 213.06 -63 210 C-63.8470752 210.02094727 -64.69415039 210.04189453 -65.56689453 210.06347656 C-68.73140393 210.13194055 -71.89553391 210.18193987 -75.06054688 210.21972656 C-76.42623368 210.23975319 -77.79183569 210.26698332 -79.15722656 210.30175781 C-81.12787102 210.35066432 -83.09915983 210.37091347 -85.0703125 210.390625 C-86.25383301 210.41157227 -87.43735352 210.43251953 -88.65673828 210.45410156 C-93.58965234 209.78408403 -96.7211161 207.53466068 -99.875 203.75 C-101.36864601 200.09886531 -101.67187475 196.85006882 -101 193 C-98.54555745 187.99671326 -96.08247958 186.0981635 -91 184 C-87.74853516 183.65942383 -87.74853516 183.65942383 -84.2890625 183.70703125 C-83.04511719 183.71669922 -81.80117187 183.72636719 -80.51953125 183.73632812 C-79.23433594 183.76146484 -77.94914062 183.78660156 -76.625 183.8125 C-75.31660156 183.82603516 -74.00820312 183.83957031 -72.66015625 183.85351562 C-69.43968156 183.8887763 -66.22005394 183.93806367 -63 184 C-63 181.03 -63 178.06 -63 175 C-63.8470752 175.02094727 -64.69415039 175.04189453 -65.56689453 175.06347656 C-68.73140393 175.13194055 -71.89553391 175.18193987 -75.06054688 175.21972656 C-76.42623368 175.23975319 -77.79183569 175.26698332 -79.15722656 175.30175781 C-81.12787102 175.35066432 -83.09915983 175.37091347 -85.0703125 175.390625 C-86.25383301 175.41157227 -87.43735352 175.43251953 -88.65673828 175.45410156 C-93.58965234 174.78408403 -96.7211161 172.53466068 -99.875 168.75 C-101.36751074 165.10164042 -101.67896674 161.84747819 -101 158 C-98.71902503 153.52253061 -96.49158511 151.1797804 -92 149 C-88.77026367 148.65942383 -88.77026367 148.65942383 -85.16796875 148.70703125 C-83.87568359 148.71669922 -82.58339844 148.72636719 -81.25195312 148.73632812 C-79.8971293 148.76139015 -78.54231159 148.78678494 -77.1875 148.8125 C-75.81316555 148.82755987 -74.43881532 148.84124599 -73.06445312 148.85351562 C-69.70923368 148.88883372 -66.35481834 148.93816149 -63 149 C-63 146.03 -63 143.06 -63 140 C-63.81154541 140.02094727 -64.62309082 140.04189453 -65.45922852 140.06347656 C-69.16019142 140.14697084 -72.86095566 140.19876755 -76.5625 140.25 C-77.83931641 140.28351563 -79.11613281 140.31703125 -80.43164062 140.3515625 C-87.49573933 140.42495573 -92.33904247 140.42465646 -98 136 C-100.94376599 132.58143305 -101.53900646 129.50788289 -101.3515625 124.9921875 C-100.59087534 120.68162694 -98.20886596 117.89929619 -94.7824707 115.3503418 C-91.36008546 113.68944746 -88.9621443 113.65688796 -85.16796875 113.70703125 C-83.87568359 113.71669922 -82.58339844 113.72636719 -81.25195312 113.73632812 C-79.8971293 113.76139015 -78.54231159 113.78678494 -77.1875 113.8125 C-75.81316555 113.82755987 -74.43881532 113.84124599 -73.06445312 113.85351562 C-69.70923368 113.88883372 -66.35481834 113.93816149 -63 114 C-63 111.03 -63 108.06 -63 105 C-63.77601563 105.02094727 -64.55203125 105.04189453 -65.3515625 105.06347656 C-68.90090748 105.14712759 -72.45004435 105.19881629 -76 105.25 C-77.22074219 105.28351563 -78.44148438 105.31703125 -79.69921875 105.3515625 C-86.96472681 105.43010853 -91.88725261 105.06291984 -98 101 C-101.03661612 96.72975858 -101.64702587 93.17620694 -101 88 C-98.90188924 84.1035086 -96.82343594 81.24417297 -93 79 C-89.79199219 78.65942383 -89.79199219 78.65942383 -86.046875 78.70703125 C-85.05654266 78.71339851 -85.05654266 78.71339851 -84.04620361 78.71989441 C-81.94704609 78.73662565 -79.84886504 78.77426449 -77.75 78.8125 C-76.32293058 78.82755416 -74.89584604 78.84124129 -73.46875 78.85351562 C-69.97885183 78.88650999 -66.4895213 78.93825257 -63 79 C-62.94739014 78.11739502 -62.89478027 77.23479004 -62.84057617 76.32543945 C-62.76299072 75.16230225 -62.68540527 73.99916504 -62.60546875 72.80078125 C-62.53223389 71.65005127 -62.45899902 70.49932129 -62.38354492 69.3137207 C-61.21632448 59.22926299 -54.57881293 50.56539155 -46.84765625 44.3125 C-40.01700163 39.46028023 -32.63068813 36.86056278 -24.24609375 36.953125 C-23.04811157 36.96327637 -23.04811157 36.96327637 -21.82592773 36.97363281 C-20.92209351 36.98668457 -20.92209351 36.98668457 -20 37 C-20.0314209 35.68394775 -20.0314209 35.68394775 -20.06347656 34.34130859 C-20.131926 31.06483317 -20.18193051 27.78912488 -20.21972656 24.51220703 C-20.23975843 23.09802205 -20.26699248 21.68391903 -20.30175781 20.27001953 C-20.35065489 18.22928581 -20.37305123 16.1896531 -20.390625 14.1484375 C-20.4220459 12.31031494 -20.4220459 12.31031494 -20.45410156 10.43505859 C-19.90873842 6.30965027 -18.60552748 4.208648 -16 1 C-10.46716064 -2.47158548 -5.86662386 -2.63668488 0 0 Z " fill="#013648" transform="translate(202,101)"/>
<path d="M0 0 C1.22760544 -0.00394272 2.45521088 -0.00788544 3.72001648 -0.01194763 C7.04884937 -0.01746427 10.37609102 -0.00093077 13.70471478 0.02653241 C17.2069531 0.05058165 20.70918063 0.04741912 24.21148682 0.0478363 C30.08531162 0.05244524 35.95880945 0.07596179 41.83251953 0.11230469 C48.60594394 0.15410506 55.37907503 0.17162516 62.15262103 0.17492443 C69.39614658 0.17853336 76.63956809 0.19741011 83.88304996 0.22204471 C85.95786901 0.22824771 88.03268013 0.23189992 90.1075058 0.23507881 C93.98192505 0.24211649 97.85613108 0.26654878 101.73046875 0.29296875 C102.8703978 0.29363342 104.01032684 0.2942981 105.18479919 0.29498291 C117.88613561 0.41425531 128.8102979 3.7906395 138.28613281 12.57592773 C146.61039015 21.82907216 148.40606394 31.03671216 148.4128418 43.09960938 C148.42116531 44.35732147 148.42948883 45.61503357 148.43806458 46.91085815 C148.45994457 50.35135769 148.46880046 53.79176837 148.47389102 57.23232961 C148.47754437 59.3876539 148.48378968 61.54295528 148.49089241 63.6982708 C148.51537095 71.23456713 148.52843392 78.77079487 148.53198242 86.30712891 C148.53560947 93.30313378 148.56544876 100.29869775 148.60738701 107.29456812 C148.64223724 113.32203366 148.65753344 119.34935423 148.65822846 125.37691969 C148.65901673 128.96733121 148.66754401 132.55729384 148.69622612 136.14760017 C148.72758839 140.16316187 148.7182774 144.17769425 148.70581055 148.19335938 C148.72806198 149.94653221 148.72806198 149.94653221 148.75076294 151.73512268 C148.64453006 163.82824847 144.91933874 173.8627848 136.42675781 182.50952148 C126.69882619 191.27121074 116.17909831 193.05541783 103.37988281 192.98754883 C101.52910126 192.99543427 101.52910126 192.99543427 99.64093018 193.003479 C96.28538808 193.01435415 92.93040736 193.01189881 89.57489777 193.00234175 C86.04553025 192.99468939 82.51618497 193.00180611 78.98681641 193.00650024 C73.06245676 193.0119417 67.1382097 193.00480871 61.21386719 192.99047852 C54.38709425 192.97415504 47.56059021 192.97944469 40.73382378 192.99595773 C34.84814101 193.00961875 28.96253868 193.01146982 23.07684517 193.00364172 C19.57224248 192.99899045 16.06776573 192.99826951 12.56317139 193.00825119 C8.65301245 193.01861223 4.74314913 193.00420837 0.83300781 192.98754883 C-0.88483917 192.99665787 -0.88483917 192.99665787 -2.63739014 193.00595093 C-14.94996062 192.90917754 -23.58874456 189.74656906 -32.89355469 181.59936523 C-40.08136166 174.03951856 -43.99226536 164.65660468 -44.04072571 154.2507019 C-44.04788101 153.19112778 -44.05503632 152.13155365 -44.06240845 151.03987122 C-44.06509735 149.8875853 -44.06778625 148.73529938 -44.07055664 147.5480957 C-44.07712784 146.32633133 -44.08369904 145.10456696 -44.09046936 143.84577942 C-44.11017848 139.80270133 -44.12186664 135.75966286 -44.13183594 131.71655273 C-44.13588657 130.31976426 -44.14000358 128.92297598 -44.14418602 127.5261879 C-44.16322372 120.96037533 -44.17745628 114.39457388 -44.18579799 107.82873905 C-44.19555767 100.27341902 -44.22184968 92.71839296 -44.26229888 85.16317642 C-44.29255933 79.30817266 -44.30727632 73.45325268 -44.310579 67.59817231 C-44.31291866 64.10846576 -44.32173587 60.61907374 -44.34704018 57.12945175 C-44.37487098 53.22854186 -44.37045951 49.32801191 -44.36352539 45.42700195 C-44.37633545 44.28686142 -44.38914551 43.14672089 -44.40234375 41.97203064 C-44.32224511 29.55441833 -40.33709886 20.4656469 -31.92871094 11.50561523 C-22.69368072 2.55448287 -12.60422753 -0.16519655 0 0 Z " fill="#003647" transform="translate(247.8935546875,201.400634765625)"/>
<path d="M0 0 C0.69635834 -0.00311998 1.39271669 -0.00623996 2.1101768 -0.00945449 C4.43142846 -0.01739841 6.75241607 -0.01112494 9.07366943 -0.00482178 C10.74303846 -0.00753334 12.41240628 -0.01109521 14.08177185 -0.01544189 C18.60883301 -0.02455128 23.1358029 -0.02102686 27.66286564 -0.01468372 C32.40809941 -0.00961288 37.15332548 -0.01431851 41.89855957 -0.01745605 C49.87116901 -0.02109395 57.8437414 -0.0163027 65.81634521 -0.0067749 C75.01736882 0.00409437 84.21830368 0.00059447 93.41932511 -0.01042771 C101.33037263 -0.01952344 109.24139354 -0.02077425 117.1524446 -0.01555037 C121.87215486 -0.01244131 126.59182352 -0.01199171 131.31153107 -0.01862335 C135.75372245 -0.02442894 140.1958003 -0.02034145 144.63797951 -0.00883484 C146.26246516 -0.00620472 147.88696046 -0.00692494 149.51144218 -0.01136017 C162.63560708 -0.04386991 172.78189802 0.66793298 183.85394287 8.25396729 C185.21519287 9.15115479 185.21519287 9.15115479 186.60394287 10.06646729 C193.54421064 16.81394984 198.57960832 25.85776601 198.99654388 35.57875729 C199.00471382 36.85384938 199.01288376 38.12894148 199.02130127 39.44267273 C199.02709466 40.15577215 199.03288804 40.86887157 199.03885698 41.60358006 C199.0568609 43.98760568 199.06777192 46.37160782 199.07855225 48.75567627 C199.08973324 50.46766877 199.10124675 52.17965913 199.11306763 53.89164734 C199.14957098 59.51108779 199.17484314 65.13055033 199.19769287 70.75006104 C199.20163874 71.70788018 199.2055846 72.66569933 199.20965004 73.65254331 C199.24607349 82.69564493 199.2774984 91.73875454 199.29875946 100.78190517 C199.3263002 112.32316438 199.37700936 123.8638069 199.45923376 135.40480942 C199.51517019 143.53329323 199.54401649 151.6616105 199.55323267 159.79027992 C199.55946795 164.63786184 199.57739102 169.48471997 199.62461853 174.33209038 C199.66857338 178.90012998 199.67868568 183.46705715 199.66399002 188.0352726 C199.66431627 189.70166592 199.67640333 191.36811017 199.70183945 193.03430939 C199.89401924 206.33732403 197.11038272 217.77836999 187.56878662 227.80084229 C175.98759947 237.6145134 163.62936506 238.70158314 149.08831787 238.64215088 C147.40850484 238.64622236 145.72869449 238.65156746 144.04888916 238.65808105 C139.51169699 238.67169195 134.97471077 238.66648187 130.43751526 238.6569438 C125.67495189 238.64931479 120.91240541 238.65640178 116.14984131 238.66110229 C108.15404109 238.66655044 100.15832417 238.65939298 92.16253662 238.64508057 C82.9363983 238.62875588 73.71045891 238.63404505 64.48432541 238.65055978 C56.54346395 238.66420152 48.60266215 238.66608119 40.66179276 238.65824378 C35.92759188 238.65358201 31.19348432 238.65290104 26.45928955 238.66285324 C22.00714367 238.67155984 17.55525269 238.66543396 13.10313416 238.64817047 C11.47542238 238.64422527 9.84768892 238.64530571 8.21998596 238.65195847 C-6.77989258 238.70758398 -17.71743716 236.3547344 -28.95855713 225.87896729 C-32.28552629 222.38296043 -34.3496734 218.70686764 -36.14605713 214.25396729 C-36.65173721 213.22696213 -37.1574173 212.19995697 -37.67842102 211.14183044 C-40.1983237 204.3343555 -39.57213463 196.92040189 -39.55010986 189.76300049 C-39.55581828 188.08834885 -39.56278436 186.41370111 -39.57090759 184.73905945 C-39.58880732 180.20569064 -39.58767598 175.67251575 -39.58196521 171.13912225 C-39.57886709 167.34483591 -39.58497311 163.55058647 -39.59100395 159.7563054 C-39.60503869 150.79691713 -39.60349817 141.83762422 -39.59210205 132.87823486 C-39.58063669 123.6612445 -39.59467226 114.44454565 -39.62149853 105.22759372 C-39.64371923 97.29351619 -39.65027816 89.35952973 -39.64442211 81.42542332 C-39.64106474 76.69608945 -39.64338531 71.96694213 -39.66067314 67.23763466 C-39.6762408 62.78463107 -39.6720789 58.33205565 -39.653368 53.87906837 C-39.64970834 52.25422746 -39.65271306 50.62935415 -39.66325378 49.0045433 C-39.74666103 35.07251557 -38.17545417 22.70654563 -28.14605713 12.25396729 C-20.43726466 4.47541199 -11.02835778 0.00669295 0 0 Z M-7.99371338 39.51959229 C-14.35368557 48.45793158 -15.5918202 56.97103427 -15.53424072 67.77520752 C-15.53949768 68.99916229 -15.54475464 70.22311707 -15.5501709 71.48416138 C-15.56105698 74.81703706 -15.5585832 78.14934861 -15.54903364 81.4821918 C-15.54138847 84.98620735 -15.5484962 88.49020033 -15.55319214 91.99421692 C-15.55863637 97.87747475 -15.551494 103.76061927 -15.53717041 109.64385986 C-15.52085399 116.42346552 -15.52613032 123.20280032 -15.54264963 129.9823994 C-15.55631176 135.82559968 -15.55816095 141.66871894 -15.55033362 147.51193005 C-15.54568197 150.99195573 -15.5449623 154.47185458 -15.55494308 157.95187187 C-15.56530588 161.83579717 -15.55089849 165.71942495 -15.53424072 169.60333252 C-15.54031342 170.74078415 -15.54638611 171.87823578 -15.55264282 173.05015564 C-15.45908108 184.87702794 -12.39687617 195.34445978 -4.32965088 204.26177979 C3.24038278 211.32714453 11.87226687 215.36109212 22.24729919 215.39440918 C23.31673264 215.40011932 24.38616608 215.40582947 25.48800659 215.41171265 C26.65121429 215.41283051 27.814422 215.41394836 29.01287842 215.4151001 C30.24600266 215.420065 31.47912689 215.42502991 32.74961853 215.43014526 C36.1259351 215.442232 39.50218991 215.44970655 42.87852073 215.45415592 C44.99176341 215.45709382 47.10500076 215.46120001 49.21824074 215.4656601 C55.84118584 215.47932579 62.46411863 215.48899639 69.08707684 215.49286199 C76.71140315 215.49733745 84.33554972 215.51486533 91.9598214 215.54386258 C97.86661505 215.56554148 103.77335836 215.5755696 109.68019134 215.5769031 C113.2016615 215.57794691 116.7229625 215.58376323 120.24439049 215.60172272 C124.17899634 215.62139976 128.11338098 215.61688976 132.04803467 215.6104126 C133.77766449 215.62423477 133.77766449 215.62423477 135.54223633 215.63833618 C147.75461435 215.57556686 156.89067859 212.47565649 166.01800537 204.32037354 C175.21057455 194.93844432 177.61339288 183.67229668 177.48504639 170.91143799 C177.49220169 169.64788483 177.49935699 168.38433167 177.50672913 167.08248901 C177.52503732 163.65886751 177.51244004 160.23603785 177.49263883 156.81245065 C177.47608891 153.20702676 177.48508718 149.60164665 177.49015808 145.99620056 C177.49465927 139.94845115 177.47892854 133.90101303 177.4508667 127.85333252 C177.41877993 120.88497428 177.41885373 113.91717568 177.43608147 106.9487775 C177.4520002 100.20990834 177.44518163 93.47124221 177.42814445 86.73238182 C177.42131463 83.87972722 177.42226395 81.02723739 177.42968941 78.17458534 C177.43884502 74.185517 177.41470277 70.19729835 177.38739014 66.20831299 C177.39391602 65.03974258 177.40044189 63.87117218 177.40716553 62.66719055 C177.27434605 51.21433559 173.70127348 42.59776166 165.85394287 34.25396729 C155.36653893 24.64408082 144.45456281 23.11215657 130.70501709 23.06109619 C129.48471298 23.0529187 128.26440887 23.04474121 127.00712585 23.03631592 C122.97429728 23.0115326 118.941506 22.99480091 114.90863037 22.98052979 C113.51402914 22.97516453 112.11942795 22.96978701 110.72482681 22.96439743 C104.9187834 22.94278751 99.11274262 22.92405513 93.30666924 22.91277504 C85.01864837 22.89656035 76.73109796 22.86342185 68.44325435 22.80637419 C62.59755913 22.76752433 56.75198894 22.74812465 50.9061681 22.74285448 C47.42362866 22.73922129 43.9415925 22.72741999 40.45919418 22.69475174 C36.56573852 22.65874802 32.67286165 22.66308004 28.77923584 22.67047119 C27.64426163 22.65406586 26.50928741 22.63766052 25.33992004 22.62075806 C11.26910908 22.72949582 0.80169693 28.73452256 -7.99371338 39.51959229 Z " fill="#FBFCFC" transform="translate(219.14605712890625,178.74603271484375)"/>
<path d="M0 0 C0.33 0 0.66 0 1 0 C1 2.31 1 4.62 1 7 C2.051875 7.0825 3.10375 7.165 4.1875 7.25 C8.33020342 8.06495805 10.01152441 9.09690943 13 12 C15.47051718 15.70577577 15.55512836 18.7019607 15 23 C13.6875 25.8125 13.6875 25.8125 12 28 C11.608125 28.5775 11.21625 29.155 10.8125 29.75 C7.80999669 31.82069194 4.5933868 31.7054601 1 32 C1 35.63 1 39.26 1 43 C1.86625 42.9175 2.7325 42.835 3.625 42.75 C7.87014668 43.06445531 9.76334601 44.27826824 13 47 C15.48933036 50.78811141 15.2311227 54.49802704 14.59375 58.84375 C13.6068618 62.4277124 12.0353773 63.93336014 9 66 C6.26507468 66.67360198 3.83789264 66.85570037 1 67 C1 70.63 1 74.26 1 78 C1.86625 77.9175 2.7325 77.835 3.625 77.75 C7.84417957 78.06253182 9.75234357 79.34282656 13 82 C15.59543534 85.42125567 15.42462042 88.82456585 15 93 C13.68013269 96.37450612 12.04824263 99.19634732 9.125 101.4375 C6.36683664 102.16760207 3.83861378 102.1290279 1 102 C1 105.63 1 109.26 1 113 C2.216875 113.061875 3.43375 113.12375 4.6875 113.1875 C9.17383464 113.72840559 11.14764741 115.45616799 14 119 C15.53597454 122.07194908 15.2265038 124.60244293 15 128 C13.70068057 131.55603214 12.63039155 133.48887171 9.6875 135.875 C6.60111507 137.16697509 4.31429232 137.2312297 1 137 C1 140.63 1 144.26 1 148 C2.19625 148.020625 3.3925 148.04125 4.625 148.0625 C8.16406654 148.52220081 10.01640697 149.42728282 12.5 152 C15.14887098 155.53424704 15.83745128 158.47032263 15.5234375 162.8515625 C14.59556181 166.66000751 12.89970107 168.35805013 10 171 C6.59348204 172.82788768 4.95533952 173 1 173 C1 176.3 1 179.6 1 183 C1.845625 182.87625 2.69125 182.7525 3.5625 182.625 C8.33734957 183.14589268 10.7765043 185.57226077 14 189 C15.60842789 192.21685579 15.46778535 195.5111009 15 199 C12.77083951 203.37575949 10.5213914 206.0149989 6 208 C4.35 208 2.7 208 1 208 C1 211.3 1 214.6 1 218 C2.03125 218.061875 3.0625 218.12375 4.125 218.1875 C8.92952697 219.19490082 10.53529968 220.61779254 14 224 C15.59781534 227.19563068 15.36841911 230.5234633 15 234 C13.22670436 238.10657938 10.78237297 240.62502162 7 243 C5.02 243 3.04 243 1 243 C1.495 249.435 1.495 249.435 2 256 C1.67 256 1.34 256 1 256 C0.01612321 251.94150823 -0.03924323 248.16468745 0 244 C-0.81678223 244.02094727 -1.63356445 244.04189453 -2.47509766 244.06347656 C-6.19160555 244.1468513 -9.90791633 244.19872988 -13.625 244.25 C-14.91019531 244.28351563 -16.19539063 244.31703125 -17.51953125 244.3515625 C-29.24163065 244.47303503 -29.24163065 244.47303503 -34 240 C-34.598125 239.484375 -35.19625 238.96875 -35.8125 238.4375 C-38.62027988 235.03860856 -38.28826724 231.17987504 -38 227 C-36.18201807 222.88561983 -33.69425713 220.52290731 -30 218 C-26.63636534 216.86018359 -23.45368155 216.88503097 -19.921875 216.90234375 C-18.76171875 216.90556641 -17.6015625 216.90878906 -16.40625 216.91210938 C-14.59640625 216.92467773 -14.59640625 216.92467773 -12.75 216.9375 C-10.91695312 216.94426758 -10.91695312 216.94426758 -9.046875 216.95117188 C-6.03120054 216.96295185 -3.01562502 216.97940147 0 217 C0 214.36 0 211.72 0 209 C-0.75095947 209.01571045 -1.50191895 209.0314209 -2.27563477 209.04760742 C-5.70451211 209.11027758 -9.13326855 209.14909261 -12.5625 209.1875 C-13.74392578 209.21263672 -14.92535156 209.23777344 -16.14257812 209.26367188 C-23.83642897 209.32832608 -29.3120092 209.10567646 -35.375 204 C-38.4257332 200.24525145 -38.32250153 196.67627216 -38 192 C-36.18201807 187.88561983 -33.69425713 185.52290731 -30 183 C-26.63636534 181.86018359 -23.45368155 181.88503097 -19.921875 181.90234375 C-18.76171875 181.90556641 -17.6015625 181.90878906 -16.40625 181.91210938 C-14.59640625 181.92467773 -14.59640625 181.92467773 -12.75 181.9375 C-10.91695312 181.94426758 -10.91695312 181.94426758 -9.046875 181.95117188 C-6.03120054 181.96295185 -3.01562502 181.97940147 0 182 C0 179.03 0 176.06 0 173 C-0.87736816 173.02618408 -1.75473633 173.05236816 -2.65869141 173.0793457 C-5.93522757 173.16490909 -9.21056558 173.22740867 -12.48779297 173.2746582 C-13.90204682 173.29969925 -15.31617257 173.33374342 -16.72998047 173.37719727 C-30.00539594 173.77480485 -30.00539594 173.77480485 -33.875 170.59765625 C-36.80471978 167.01628924 -37.85076753 165.31822011 -38.375 160.6875 C-37.94186414 156.42833066 -37.05439317 153.09266878 -34 150 C-27.40999961 145.99231718 -20.57606447 146.65884032 -13.0625 146.8125 C-11.80630859 146.82603516 -10.55011719 146.83957031 -9.25585938 146.85351562 C-6.17012721 146.88871409 -3.08528976 146.93795695 0 147 C0 144.03 0 141.06 0 138 C-0.8470752 138.02094727 -1.69415039 138.04189453 -2.56689453 138.06347656 C-5.73140393 138.13194055 -8.89553391 138.18193987 -12.06054688 138.21972656 C-13.42623368 138.23975319 -14.79183569 138.26698332 -16.15722656 138.30175781 C-18.12787102 138.35066432 -20.09915983 138.37091347 -22.0703125 138.390625 C-23.25383301 138.41157227 -24.43735352 138.43251953 -25.65673828 138.45410156 C-30.58965234 137.78408403 -33.7211161 135.53466068 -36.875 131.75 C-38.36864601 128.09886531 -38.67187475 124.85006882 -38 121 C-35.54555745 115.99671326 -33.08247958 114.0981635 -28 112 C-24.74853516 111.65942383 -24.74853516 111.65942383 -21.2890625 111.70703125 C-20.04511719 111.71669922 -18.80117187 111.72636719 -17.51953125 111.73632812 C-15.59173828 111.7740332 -15.59173828 111.7740332 -13.625 111.8125 C-11.66240234 111.83280273 -11.66240234 111.83280273 -9.66015625 111.85351562 C-6.43968156 111.8887763 -3.22005394 111.93806367 0 112 C0 109.03 0 106.06 0 103 C-1.27061279 103.0314209 -1.27061279 103.0314209 -2.56689453 103.06347656 C-5.73140393 103.13194055 -8.89553391 103.18193987 -12.06054688 103.21972656 C-13.42623368 103.23975319 -14.79183569 103.26698332 -16.15722656 103.30175781 C-18.12787102 103.35066432 -20.09915983 103.37091347 -22.0703125 103.390625 C-23.25383301 103.41157227 -24.43735352 103.43251953 -25.65673828 103.45410156 C-30.58965234 102.78408403 -33.7211161 100.53466068 -36.875 96.75 C-38.36751074 93.10164042 -38.67896674 89.84747819 -38 86 C-35.71902503 81.52253061 -33.49158511 79.1797804 -29 77 C-25.77026367 76.65942383 -25.77026367 76.65942383 -22.16796875 76.70703125 C-20.87568359 76.71669922 -19.58339844 76.72636719 -18.25195312 76.73632812 C-16.8971293 76.76139015 -15.54231159 76.78678494 -14.1875 76.8125 C-12.81316555 76.82755987 -11.43881532 76.84124599 -10.06445312 76.85351562 C-6.70923368 76.88883372 -3.35481834 76.93816149 0 77 C0 74.03 0 71.06 0 68 C-0.81154541 68.02094727 -1.62309082 68.04189453 -2.45922852 68.06347656 C-6.16019142 68.14697084 -9.86095566 68.19876755 -13.5625 68.25 C-14.83931641 68.28351563 -16.11613281 68.31703125 -17.43164062 68.3515625 C-24.49573933 68.42495573 -29.33904247 68.42465646 -35 64 C-37.94376599 60.58143305 -38.53900646 57.50788289 -38.3515625 52.9921875 C-37.59087534 48.68162694 -35.20886596 45.89929619 -31.7824707 43.3503418 C-28.36008546 41.68944746 -25.9621443 41.65688796 -22.16796875 41.70703125 C-20.87568359 41.71669922 -19.58339844 41.72636719 -18.25195312 41.73632812 C-16.8971293 41.76139015 -15.54231159 41.78678494 -14.1875 41.8125 C-12.81316555 41.82755987 -11.43881532 41.84124599 -10.06445312 41.85351562 C-6.70923368 41.88883372 -3.35481834 41.93816149 0 42 C0 39.03 0 36.06 0 33 C-1.16402344 33.0314209 -1.16402344 33.0314209 -2.3515625 33.06347656 C-5.90090748 33.14712759 -9.45004435 33.19881629 -13 33.25 C-14.22074219 33.28351563 -15.44148438 33.31703125 -16.69921875 33.3515625 C-23.96472681 33.43010853 -28.88725261 33.06291984 -35 29 C-38.03661612 24.72975858 -38.64702587 21.17620694 -38 16 C-35.90188924 12.1035086 -33.82343594 9.24417297 -30 7 C-26.79199219 6.65942383 -26.79199219 6.65942383 -23.046875 6.70703125 C-22.05654266 6.71339851 -22.05654266 6.71339851 -21.04620361 6.71989441 C-18.94704609 6.73662565 -16.84886504 6.77426449 -14.75 6.8125 C-13.32293058 6.82755416 -11.89584604 6.84124129 -10.46875 6.85351562 C-6.97885183 6.88650999 -3.4895213 6.93825257 0 7 C0 4.69 0 2.38 0 0 Z " fill="#08AFEE" transform="translate(139,173)"/>
<path d="M0 0 C3.63796838 1.30417734 5.48139974 2.34310634 7.875 5.375 C9 8 9 8 9 13 C12.63 13 16.26 13 20 13 C19.8453125 11.700625 19.8453125 11.700625 19.6875 10.375 C20.11873973 5.71761095 21.76491727 4.31210851 25 1 C28.47446393 -0.73723196 32.20122657 -0.45968351 36 0 C39.60271385 1.76860498 41.4400966 2.98199381 43.375 6.5 C44 9 44 9 44 13 C47.63 13 51.26 13 55 13 C54.9175 12.113125 54.835 11.22625 54.75 10.3125 C55.05662825 6.24967563 56.19880518 4.88122896 59 2 C63.03872599 -0.69248399 66.25513369 -0.67205444 71 0 C74.8026029 2.0050088 76.61790841 3.42686262 79 7 C79.125 10.1875 79.125 10.1875 79 13 C82.63 13 86.26 13 90 13 C90.061875 11.948125 90.12375 10.89625 90.1875 9.8125 C91.14137448 5.33662744 92.53046987 3.87717133 96 1 C99.21265446 -0.60632723 102.51521812 -0.47931944 106 0 C109.75212276 2.01502889 111.63644095 3.45466142 114 7 C114.125 10.1875 114.125 10.1875 114 13 C117.63 13 121.26 13 125 13 C125.020625 11.96875 125.04125 10.9375 125.0625 9.875 C126.14725907 5.39132919 127.39186756 3.84549082 130.96484375 1.1015625 C134.56540355 -0.84730096 136.95285647 -0.58748858 141 0 C145.56219871 1.86635402 147.64711819 4.72995522 150 9 C150 10.32 150 11.64 150 13 C153.3 13 156.6 13 160 13 C160.020625 11.96875 160.04125 10.9375 160.0625 9.875 C161.14725907 5.39132919 162.39186756 3.84549082 165.96484375 1.1015625 C169.56540355 -0.84730096 171.95285647 -0.58748858 176 0 C180.10914706 1.77440441 182.58542705 4.24399764 185 8 C185 9.65 185 11.3 185 13 C188.3 13 191.6 13 195 13 C195.061875 12.13375 195.12375 11.2675 195.1875 10.375 C196.24226728 5.99365901 197.90782641 4.24301132 201 1 C204.45179569 -0.72589785 208.21866039 -0.36043965 212 0 C216.18917491 1.73031138 218.13730945 3.88247352 220 8 C220.1875 10.8125 220.1875 10.8125 220 13 C222.97 13 225.94 13 229 13 C229 13.33 229 13.66 229 14 C226.36 14 223.72 14 221 14 C221.01047363 14.82201904 221.02094727 15.64403809 221.03173828 16.4909668 C221.07336759 20.22311331 221.09934853 23.9552109 221.125 27.6875 C221.14175781 28.98107422 221.15851563 30.27464844 221.17578125 31.60742188 C221.18222656 32.85458984 221.18867188 34.10175781 221.1953125 35.38671875 C221.20578613 36.53358154 221.21625977 37.68044434 221.22705078 38.86206055 C220.87574289 43.71728671 219.7320932 46.23304522 216.375 49.75 C212.64561601 52.62435449 209.68700866 53 205 53 C200.25313524 51.35685451 197.72898346 49.17943026 195 45 C194.54589844 41.58666992 194.54589844 41.58666992 194.609375 37.73046875 C194.61503479 37.04946609 194.62069458 36.36846344 194.62652588 35.66682434 C194.64879519 33.50631355 194.69896682 31.34750354 194.75 29.1875 C194.77007753 27.71682095 194.78832611 26.24611571 194.8046875 24.77539062 C194.84862674 21.1830475 194.91758544 17.59168994 195 14 C192.03 14 189.06 14 186 14 C186.02356567 15.22517334 186.02356567 15.22517334 186.04760742 16.47509766 C186.1101394 20.19166077 186.14904944 23.90811296 186.1875 27.625 C186.21263672 28.91019531 186.23777344 30.19539063 186.26367188 31.51953125 C186.27817383 33.38544922 186.27817383 33.38544922 186.29296875 35.2890625 C186.31653442 37.00150146 186.31653442 37.00150146 186.34057617 38.74853516 C185.83691068 43.55700613 184.11318829 46.82320095 180.8125 50.3125 C177.20016287 52.47990228 174.20514029 53.20653931 170 53 C165.27640862 51.36491068 162.78013257 49.11871492 160 45 C158.90088451 41.70265354 158.8860544 39.27041255 158.90234375 35.80078125 C158.90556641 34.59228516 158.90878906 33.38378906 158.91210938 32.13867188 C158.92048828 30.87603516 158.92886719 29.61339844 158.9375 28.3125 C158.94201172 27.03826172 158.94652344 25.76402344 158.95117188 24.45117188 C158.96297127 21.30073436 158.97943403 18.15039051 159 15 C156.03 14.67 153.06 14.34 150 14 C150.02618408 14.90766113 150.05236816 15.81532227 150.0793457 16.75048828 C150.16488814 20.1388351 150.22739952 23.52602446 150.2746582 26.91503906 C150.29970529 28.37778907 150.33375392 29.84041512 150.37719727 31.30273438 C150.43829356 33.41307219 150.46630435 35.52174752 150.48828125 37.6328125 C150.51446533 38.90012207 150.54064941 40.16743164 150.56762695 41.47314453 C149.81720053 46.13579405 148.29973758 47.68084676 145 51 C141.37833632 53.25130445 138.19739746 53.28053645 133.99609375 52.60546875 C130.41870147 51.52034976 128.5830901 49.70609439 126 47 C123.98523832 43.04947854 123.76448814 39.78854845 123.8046875 35.38671875 C123.81435547 33.5159668 123.81435547 33.5159668 123.82421875 31.60742188 C123.84935547 29.66706055 123.84935547 29.66706055 123.875 27.6875 C123.88402344 26.37458984 123.89304687 25.06167969 123.90234375 23.70898438 C123.92588203 20.47247087 123.9587648 17.23632851 124 14 C121.03 14 118.06 14 115 14 C115.02094727 14.87736816 115.04189453 15.75473633 115.06347656 16.65869141 C115.131926 19.93516683 115.18193051 23.21087512 115.21972656 26.48779297 C115.23975843 27.90197795 115.26699248 29.31608097 115.30175781 30.72998047 C115.35065489 32.77071419 115.37305123 34.8103469 115.390625 36.8515625 C115.41157227 38.07697754 115.43251953 39.30239258 115.45410156 40.56494141 C114.91004387 44.68047459 113.58015572 46.78683199 111 50 C107.55735734 52.42549824 105.06726959 53.24053516 100.9375 52.875 C97.41024978 52.23551761 94.80453509 51.32375765 92 49 C89.30067469 44.52976419 88.638136 41.26042162 88.70703125 36.0703125 C88.71669922 34.78125 88.72636719 33.4921875 88.73632812 32.1640625 C88.76138812 30.81770214 88.78678288 29.47134797 88.8125 28.125 C88.82756496 26.75522295 88.84125018 25.38542998 88.85351562 24.015625 C88.88878621 20.67667642 88.93808104 17.33854325 89 14 C86.03 14 83.06 14 80 14 C80.0314209 15.31605225 80.0314209 15.31605225 80.06347656 16.65869141 C80.131926 19.93516683 80.18193051 23.21087512 80.21972656 26.48779297 C80.23975843 27.90197795 80.26699248 29.31608097 80.30175781 30.72998047 C80.35065489 32.77071419 80.37305123 34.8103469 80.390625 36.8515625 C80.4220459 38.68968506 80.4220459 38.68968506 80.45410156 40.56494141 C79.91022089 44.67913551 78.57622167 46.78588472 76 50 C71.65559324 53.13201418 68.24126524 53.3717532 63.1171875 52.578125 C59.33555704 51.54550266 57.0061149 49.53358834 54.88330078 46.29785156 C53.66960785 43.14050555 53.7760631 40.42455471 53.8046875 37.046875 C53.8075174 36.38665344 53.81034729 35.72643188 53.81326294 35.04620361 C53.82441585 32.94728103 53.84951054 30.84879258 53.875 28.75 C53.88503616 27.32292285 53.8941609 25.89583898 53.90234375 24.46875 C53.92433889 20.97902672 53.95883464 17.48955577 54 14 C51.03 14 48.06 14 45 14 C45.01571045 14.8470752 45.0314209 15.69415039 45.04760742 16.56689453 C45.0989557 19.73142204 45.13645672 22.89573608 45.16479492 26.06054688 C45.17981428 27.42617816 45.20023608 28.79176176 45.22631836 30.15722656 C45.26300137 32.12803905 45.27818551 34.09921408 45.29296875 36.0703125 C45.3086792 37.25383301 45.32438965 38.43735352 45.34057617 39.65673828 C44.89548264 44.02599332 43.64655697 47.60170439 40.23828125 50.49609375 C34.9777809 53.0676568 31.7118256 53.49818376 26 52 C22.48179628 49.78200201 20.47964866 47.86631127 19 44 C18.77294922 40.79199219 18.77294922 40.79199219 18.8046875 37.046875 C18.8075174 36.38665344 18.81034729 35.72643188 18.81326294 35.04620361 C18.82441585 32.94728103 18.84951054 30.84879258 18.875 28.75 C18.88503616 27.32292285 18.8941609 25.89583898 18.90234375 24.46875 C18.92433889 20.97902672 18.95883464 17.48955577 19 14 C16.03 14 13.06 14 10 14 C10.02094727 14.8470752 10.04189453 15.69415039 10.06347656 16.56689453 C10.13194055 19.73140393 10.18193987 22.89553391 10.21972656 26.06054688 C10.23975319 27.42623368 10.26698332 28.79183569 10.30175781 30.15722656 C10.35066432 32.12787102 10.37091347 34.09915983 10.390625 36.0703125 C10.41157227 37.25383301 10.43251953 38.43735352 10.45410156 39.65673828 C9.80692205 44.42151043 7.53909114 47.40594132 4.25 50.8125 C0.94013972 52.55937071 -2.30078709 53.1142614 -6 53 C-10.74686476 51.35685451 -13.27101654 49.17943026 -16 45 C-16.45410156 41.58666992 -16.45410156 41.58666992 -16.390625 37.73046875 C-16.38496521 37.04946609 -16.37930542 36.36846344 -16.37347412 35.66682434 C-16.35120481 33.50631355 -16.30103318 31.34750354 -16.25 29.1875 C-16.22992247 27.71682095 -16.21167389 26.24611571 -16.1953125 24.77539062 C-16.15137326 21.1830475 -16.08241456 17.59168994 -16 14 C-19.3 14 -22.6 14 -26 14 C-26 13.67 -26 13.34 -26 13 C-22.7 13 -19.4 13 -16 13 C-15.938125 12.13375 -15.87625 11.2675 -15.8125 10.375 C-14.75773272 5.99365901 -13.09217359 4.24301132 -10 1 C-6.79788792 -0.60105604 -3.48253365 -0.35668408 0 0 Z " fill="#08AFEE" transform="translate(198,444)"/>
<path d="M0 0 C1.71896484 -0.0309375 1.71896484 -0.0309375 3.47265625 -0.0625 C10.07780925 -0.09290347 15.17728139 0.27962705 21.125 3.25 C24.00981099 6.65259758 26.01753943 9.73665595 26.125 14.25 C25.1413503 18.59372745 23.83669715 21.55609528 20.625 24.6875 C16.52898631 27.24750856 13.44814929 27.36910927 8.70703125 27.34765625 C7.45341797 27.34443359 6.19980469 27.34121094 4.90820312 27.33789062 C3.59787109 27.32951172 2.28753906 27.32113281 0.9375 27.3125 C-0.39778481 27.30748317 -1.73307141 27.30292059 -3.06835938 27.29882812 C-6.33728473 27.28702695 -9.60611991 27.27056297 -12.875 27.25 C-12.875 30.55 -12.875 33.85 -12.875 37.25 C-13.205 37.25 -13.535 37.25 -13.875 37.25 C-13.875 33.62 -13.875 29.99 -13.875 26.25 C-15.4528125 26.12625 -15.4528125 26.12625 -17.0625 26 C-21.23963 25.17826951 -22.93604667 24.27292342 -25.875 21.25 C-27.91469799 17.55911793 -28.38684637 14.43007873 -27.875 10.25 C-25.56955693 5.89527421 -23.38026353 3.28809541 -18.875 1.25 C-12.58742427 -0.01565939 -6.39011303 0.02855916 0 0 Z " fill="#0CB0ED" transform="translate(471.875,389.75)"/>
<path d="M0 0 C1.11052734 -0.01224609 2.22105469 -0.02449219 3.36523438 -0.03710938 C10.21309189 -0.04940355 15.63323448 -0.04316575 21.1875 4.375 C23.87900555 7.73938193 24.85754234 9.91031228 25.4375 14.1875 C24.66064446 18.90160067 23.18859887 21.56424774 19.5 24.625 C13.07554212 27.90278463 6.77567307 27.37109682 -0.3125 27.375 C-2.045 27.39336914 -2.045 27.39336914 -3.8125 27.41210938 C-18.83840583 27.43783867 -18.83840583 27.43783867 -24.4375 22.8125 C-27.13000042 19.48647007 -28.38277649 17.56538024 -28.9375 13.3125 C-28.45457914 9.28815951 -27.12399404 7.30283058 -24.5625 4.1875 C-17.73526277 -1.16357783 -8.2278534 0.00479199 0 0 Z " fill="#08AFEE" transform="translate(472.5625,354.8125)"/>
<path d="M0 0 C3.90673097 3.21220102 5.57194898 6.38612511 6.20068359 11.42114258 C6.20406738 12.50548584 6.20745117 13.5898291 6.2109375 14.70703125 C6.21673828 16.51204102 6.21673828 16.51204102 6.22265625 18.35351562 C6.21105469 19.59810547 6.19945312 20.84269531 6.1875 22.125 C6.19910156 23.35798828 6.21070313 24.59097656 6.22265625 25.86132812 C6.19713754 33.82741916 6.00033493 41.44845767 0.75 47.8125 C-2.99427977 50.71129724 -6.07534425 50.71800607 -10.7109375 50.64453125 C-13.1875 50.3125 -13.1875 50.3125 -16.125 48.375 C-21.61303875 40.22609398 -21.68033837 31.77613093 -21.625 22.1875 C-21.64498047 20.95128906 -21.66496094 19.71507812 -21.68554688 18.44140625 C-21.68185308 11.56355181 -21.53491405 6.78702139 -17.1875 1.3125 C-11.50213155 -3.38310795 -6.40155437 -3.38905819 0 0 Z " fill="#0CB1EF" transform="translate(378.1875,101.6875)"/>
<path d="M0 0 C0.33 0 0.66 0 1 0 C1 3.63 1 7.26 1 11 C1.87736816 10.97905273 2.75473633 10.95810547 3.65869141 10.93652344 C6.93516683 10.868074 10.21087512 10.81806949 13.48779297 10.78027344 C14.90197795 10.76024157 16.31608097 10.73300752 17.72998047 10.69824219 C19.77071419 10.64934511 21.8103469 10.62694877 23.8515625 10.609375 C25.68968506 10.5779541 25.68968506 10.5779541 27.56494141 10.54589844 C31.66473983 11.08787605 33.79372019 12.44043718 37 15 C39.23540419 18.44705805 40.26673246 22.12628679 39.68359375 26.22265625 C38.19893754 30.76146238 36.14820345 33.47060765 32 36 C28.63967215 37.11136203 25.47231451 37.12908351 21.94921875 37.1328125 C20.77552734 37.13410156 19.60183594 37.13539063 18.39257812 37.13671875 C17.16990234 37.13285156 15.94722656 37.12898438 14.6875 37.125 C13.47642578 37.12886719 12.26535156 37.13273437 11.01757812 37.13671875 C-5.52814799 37.1186063 -5.52814799 37.1186063 -9.3125 33.75 C-12.77776691 30.20414549 -13.75587509 27.91231181 -14.375 23.0625 C-13.88715652 19.07844491 -12.5363567 17.08475814 -10 14 C-6.19154796 11.07042151 -5.05617203 11 0 11 C0 7.37 0 3.74 0 0 Z " fill="#06AEED" transform="translate(458,169)"/>
<path d="M0 0 C3.0254577 2.52360453 4.7475125 5.24253751 6 9 C6.2378651 13.55861472 6.18519138 18.12335303 6.1875 22.6875 C6.19974609 23.94240234 6.21199219 25.19730469 6.22460938 26.49023438 C6.24967477 42.35663214 6.24967477 42.35663214 1.5 47.9375 C-2.48549006 51.2255293 -5.36608505 51.5206997 -10.44921875 51.4765625 C-14.22966582 50.77026152 -15.75039932 48.9982153 -17.94921875 45.95703125 C-19.35571925 43.33748943 -19.85577578 40.95659653 -20 38 C-22.97 38 -25.94 38 -29 38 C-29 37.67 -29 37.34 -29 37 C-26.03 37 -23.06 37 -20 37 C-20.02094727 36.12263184 -20.04189453 35.24526367 -20.06347656 34.34130859 C-20.131926 31.06483317 -20.18193051 27.78912488 -20.21972656 24.51220703 C-20.23975843 23.09802205 -20.26699248 21.68391903 -20.30175781 20.27001953 C-20.35065489 18.22928581 -20.37305123 16.1896531 -20.390625 14.1484375 C-20.41157227 12.92302246 -20.43251953 11.69760742 -20.45410156 10.43505859 C-19.90873842 6.30965027 -18.60552748 4.208648 -16 1 C-10.46716064 -2.47158548 -5.86662386 -2.63668488 0 0 Z " fill="#08AFEE" transform="translate(202,101)"/>
<path d="M0 0 C1.258125 -0.020625 2.51625 -0.04125 3.8125 -0.0625 C5.029375 -0.06765625 6.24625 -0.0728125 7.5 -0.078125 C9.15515625 -0.09214355 9.15515625 -0.09214355 10.84375 -0.10644531 C15.10122746 0.37436511 18.23712006 2.05376004 21.75 4.4375 C23.83337865 7.45839905 24.73434575 10.63710221 25 14.25 C23.58739993 18.9586669 21.76740365 22.0902421 18 25.25 C15.14736273 26.67631863 12.70940369 26.37980647 9.5234375 26.3828125 C8.21246094 26.38410156 6.90148437 26.38539063 5.55078125 26.38671875 C4.52138428 26.38357666 4.52138428 26.38357666 3.47119141 26.38037109 C1.40389477 26.37507404 -0.66317936 26.38029092 -2.73046875 26.38671875 C-20.60850913 26.36924266 -20.60850913 26.36924266 -24.875 22.9375 C-27.53513108 19.57321657 -28.81894107 17.63811845 -29.375 13.375 C-28.89207914 9.35065951 -27.56149404 7.36533058 -25 4.25 C-17.90905145 -1.16151337 -8.48031756 0.0347554 0 0 Z " fill="#07AFEE" transform="translate(473,319.75)"/>
<path d="M0 0 C1.35279716 -0.02167996 2.70545037 -0.05590141 4.05761719 -0.10253906 C16.75480563 -0.53433259 16.75480563 -0.53433259 21.3347168 3.30737305 C25.09267279 7.26264128 25.36533071 10.5147857 25.3112793 15.8581543 C24.73698704 20.06532902 23.11734329 21.60172242 19.96362305 24.4050293 C16.11085995 26.32893795 12.94801133 26.6617904 8.66674805 26.6706543 C6.8569043 26.67452148 6.8569043 26.67452148 5.01049805 26.6784668 C3.13104492 26.66686523 3.13104492 26.66686523 1.21362305 26.6550293 C-0.02387695 26.66276367 -1.26137695 26.67049805 -2.53637695 26.6784668 C-19.41683944 26.64255092 -19.41683944 26.64255092 -25.03637695 21.8425293 C-27.49535853 17.61615471 -28.85420054 14.31197082 -28.03637695 9.4050293 C-26.24565864 6.02824619 -24.24398397 3.49717896 -21.03637695 1.4050293 C-14.16028354 -0.03019303 -7.00417124 0.08418271 0 0 Z " fill="#06AFEE" transform="translate(472.036376953125,214.594970703125)"/>
<path d="M0 0 C2.48020943 3.72031414 2.3232 6.64671426 2.3359375 10.95703125 C2.3425943 11.73761398 2.3492511 12.51819672 2.35610962 13.32243347 C2.36623139 14.97412767 2.37092678 16.62586271 2.37060547 18.27758789 C2.3749665 20.79317524 2.41125419 23.30699012 2.44921875 25.82226562 C2.45508966 27.42968152 2.45905722 29.03710573 2.4609375 30.64453125 C2.47530853 31.39160843 2.48967957 32.13868561 2.50448608 32.90840149 C2.45955597 38.09716838 1.23836129 40.98671408 -2 45 C-4.9226288 47.78149582 -6.92409258 48.43131601 -10.9375 48.4375 C-14.18199215 48.30867458 -15.95610429 48.02054693 -18.9375 46.625 C-24.9384755 38.98739481 -24.46273191 29.01059 -24.375 19.75 C-24.38660156 18.50992188 -24.39820313 17.26984375 -24.41015625 15.9921875 C-24.40628906 14.79335937 -24.40242188 13.59453125 -24.3984375 12.359375 C-24.39336182 10.74240723 -24.39336182 10.74240723 -24.38818359 9.09277344 C-23.7834773 4.27489961 -22.06844275 1.01365081 -18.5625 -2.3125 C-11.8164579 -6.75501553 -6.16032827 -4.76025367 0 0 Z " fill="#05AFEE" transform="translate(346,104)"/>
<path d="M0 0 C1.30130859 -0.02900391 2.60261719 -0.05800781 3.94335938 -0.08789062 C5.82958008 -0.10045898 5.82958008 -0.10045898 7.75390625 -0.11328125 C8.89287354 -0.12786377 10.03184082 -0.14244629 11.20532227 -0.1574707 C15.91571254 0.52743762 18.98344272 2.80830281 22.25 6.1875 C23.83726148 9.02786265 24.30945196 11.04727503 24.4375 14.3125 C22.92339479 18.93450539 21.23319439 22.2284983 17.4375 25.3125 C11.96687197 27.13604268 6.03619943 26.49719976 0.3125 26.5 C-1.62882812 26.51836914 -1.62882812 26.51836914 -3.609375 26.53710938 C-20.94778942 26.56359371 -20.94778942 26.56359371 -25.17236328 22.92651367 C-27.73015114 19.95680248 -29.43315317 17.4507521 -29.875 13.5625 C-29.40989283 8.72538539 -27.12602512 5.87602512 -23.75 2.5 C-17.01592854 -1.15563879 -7.45257422 0.05553334 0 0 Z " fill="#04AEEE" transform="translate(473.5625,284.6875)"/>
<path d="M0 0 C3.0254577 2.52360453 4.7475125 5.24253751 6 9 C6.26442494 13.51645806 6.23156556 18.03915013 6.25 22.5625 C6.270625 23.80064453 6.29125 25.03878906 6.3125 26.31445312 C6.38541714 43.53201171 6.38541714 43.53201171 0.4375 49.625 C-4.16829507 51.46731803 -8.12498234 52.20887796 -13 51 C-16.17653849 48.53930117 -18.21592523 45.56814953 -20 42 C-20.13525457 39.44415496 -20.2126283 36.91683559 -20.23828125 34.359375 C-20.246353 33.59957336 -20.25442474 32.83977173 -20.26274109 32.0569458 C-20.27658138 30.44635295 -20.28730379 28.83573078 -20.29516602 27.22509766 C-20.3123376 24.7731889 -20.35621634 22.3226434 -20.40039062 19.87109375 C-20.41052156 18.3046974 -20.41903641 16.73828959 -20.42578125 15.171875 C-20.45204338 14.07936432 -20.45204338 14.07936432 -20.47883606 12.96478271 C-20.45717351 7.82736577 -19.26800189 4.93232545 -16 1 C-10.46716064 -2.47158548 -5.86662386 -2.63668488 0 0 Z " fill="#07AFEE" transform="translate(413,101)"/>
<path d="M0 0 C2.64774114 2.27668003 4.4339727 4.86794541 6 8 C6.2122031 12.19234859 6.18579405 16.38644324 6.18530273 20.58374023 C6.18747353 22.66215982 6.20558751 24.74003484 6.22460938 26.81835938 C6.22754667 28.15364403 6.22952921 29.48893119 6.23046875 30.82421875 C6.23457764 32.03166748 6.23868652 33.23911621 6.24291992 34.4831543 C5.80743195 40.7878821 4.35624612 45.3714885 0 50 C-3.73909374 51.86954687 -7.9282014 51.53707773 -12 51 C-14.95898928 49.71295995 -15.82488347 48.61013983 -18 46 C-20.49175409 38.96999962 -20.33889512 31.80658505 -20.31567383 24.42651367 C-20.31249117 22.30661612 -20.33611367 20.18808742 -20.36132812 18.06835938 C-20.36359955 16.70833507 -20.36430534 15.34830706 -20.36328125 13.98828125 C-20.36626221 12.76665283 -20.36924316 11.54502441 -20.37231445 10.28637695 C-19.89291137 6.05474096 -18.56116756 3.29626356 -15.2734375 0.56640625 C-9.86897282 -2.29151026 -5.61641399 -2.67448285 0 0 Z " fill="#04AEEE" transform="translate(237,101)"/>
<path d="M0 0 C1.30130859 -0.02900391 2.60261719 -0.05800781 3.94335938 -0.08789062 C5.82958008 -0.10045898 5.82958008 -0.10045898 7.75390625 -0.11328125 C8.89287354 -0.12786377 10.03184082 -0.14244629 11.20532227 -0.1574707 C15.93267691 0.5299043 19.02473557 2.80230354 22.25 6.25 C24.42154093 10.02162371 24.56637803 12.51059223 23.875 16.8125 C21.90488904 21.6092919 19.12339724 23.96955138 14.4375 26.3125 C10.42428476 26.52477336 6.40925795 26.49829284 2.39086914 26.49780273 C0.40702171 26.4999651 -1.57678646 26.51840394 -3.56054688 26.53710938 C-20.989771 26.56363787 -20.989771 26.56363787 -26.5625 21.6875 C-28.86015028 17.81021516 -30.03157496 14.83185678 -29.5625 10.3125 C-27.58394271 6.42866532 -25.42396584 3.40872431 -21.5625 1.3125 C-14.38213325 0.06162781 -7.26844132 0.05416126 0 0 Z " fill="#06AFEE" transform="translate(473.5625,249.6875)"/>
<path d="M0 0 C3.01167041 4.03445054 3.37543632 7.00700224 3.36328125 11.98828125 C3.36377975 12.65031052 3.36427826 13.31233978 3.36479187 13.99443054 C3.36246034 15.39044201 3.35278624 16.78645839 3.33618164 18.18237305 C3.31268564 20.29580226 3.31561544 22.40795841 3.32226562 24.52148438 C3.28937046 41.25275544 3.28937046 41.25275544 -1.5 47 C-5.00178801 49.53815102 -8.43594086 49.64810838 -12.66015625 49.42578125 C-16.0259673 48.81330478 -17.74655069 47.53513048 -20 45 C-24.53715151 38.19427274 -23.25478811 28.29495322 -23.3125 20.5 C-23.34150391 19.19417969 -23.37050781 17.88835937 -23.40039062 16.54296875 C-23.40876953 15.28097656 -23.41714844 14.01898438 -23.42578125 12.71875 C-23.44036377 11.57341797 -23.45494629 10.42808594 -23.4699707 9.24804688 C-22.78176289 4.49172646 -20.52235752 1.3796365 -17 -1.8125 C-11.1497598 -5.28608012 -5.32164144 -4.02718811 0 0 Z " fill="#07AFEF" transform="translate(310,103)"/>
<path d="M0 0 C4.77818974 3.93613171 4.77818974 3.93613171 6.03125 7.6953125 C6.2702079 12.39977098 6.21644576 17.11044832 6.21875 21.8203125 C6.23099609 23.11453125 6.24324219 24.40875 6.25585938 25.7421875 C6.28212588 42.93798955 6.28212588 42.93798955 1.53125 48.7578125 C-1.95100803 51.20734205 -5.39201549 51.41054731 -9.5625 51.171875 C-13.7369127 50.34512443 -15.2203993 48.99333334 -17.96875 45.6953125 C-20.41325783 38.70979185 -20.40795931 31.56469453 -20.44921875 24.23168945 C-20.46875107 22.13269789 -20.53098151 20.03753885 -20.59375 17.93945312 C-20.76924404 6.71334249 -20.76924404 6.71334249 -17.08984375 2.32421875 C-12.04856345 -2.41791717 -6.20754919 -4.113733 0 0 Z " fill="#07AFEF" transform="translate(271.96875,101.3046875)"/>
<path d="M0 0 C0 3 0 3 -1.53125 4.82421875 C-2.1809375 5.43910156 -2.830625 6.05398437 -3.5 6.6875 C-4.1496875 7.31011719 -4.799375 7.93273437 -5.46875 8.57421875 C-5.9740625 9.04472656 -6.479375 9.51523438 -7 10 C-7.33 9.01 -7.66 8.02 -8 7 C-5.36 4.69 -2.72 2.38 0 0 Z " fill="#234C5B" transform="translate(156,145)"/>
<path d="M0 0 C0.66 0.33 1.32 0.66 2 1 C-0.31 3.31 -2.62 5.62 -5 8 C-5.33 7.34 -5.66 6.68 -6 6 C-4 4 -2 2 0 0 Z " fill="#3EBFF2" transform="translate(108,286)"/>
<path d="M0 0 C0.66 0.33 1.32 0.66 2 1 C-0.31 3.31 -2.62 5.62 -5 8 C-5 5 -5 5 -2.5 2.3125 C-1.675 1.549375 -0.85 0.78625 0 0 Z " fill="#44C2F3" transform="translate(108,321)"/>
</svg>
