<?xml version="1.0" encoding="UTF-8"?>
<svg version="1.1" xmlns="http://www.w3.org/2000/svg" width="300" height="200">
<path d="M0 0 C99 0 198 0 300 0 C300 66 300 132 300 200 C201 200 102 200 0 200 C0 134 0 68 0 0 Z " fill="#F7F7F7" transform="translate(0,0)"/>
<path d="M0 0 C1.29395187 -0.0076664 1.29395187 -0.0076664 2.61404419 -0.01548767 C5.45533257 -0.02934484 8.29637722 -0.02842935 11.13769531 -0.02612305 C13.12298675 -0.03001302 15.10827735 -0.03434831 17.09356689 -0.03910828 C21.25283506 -0.04656285 25.41201834 -0.0462854 29.57128906 -0.04101562 C34.88157897 -0.03523188 40.19151885 -0.0521293 45.50175095 -0.0753603 C49.60262051 -0.09014988 53.70340689 -0.09096207 57.8042984 -0.08785057 C59.76096539 -0.08836148 61.71763731 -0.09355569 63.67427826 -0.10366249 C77.18644362 -0.16487819 89.53515913 -0.18068812 100.21582031 9.2746582 C106.29759718 16.65874275 108.51359003 23.03243667 108.53808594 32.46435547 C108.55298065 33.84105156 108.55298065 33.84105156 108.56817627 35.24555969 C108.59734647 38.2774254 108.61101386 41.30908154 108.62207031 44.34106445 C108.63358285 46.45751446 108.64509819 48.57396445 108.65661621 50.69041443 C108.67761791 55.12971972 108.68931397 59.56895282 108.69628906 64.00830078 C108.70723014 69.67182607 108.75522963 75.33438277 108.81223297 80.99760532 C108.84965875 85.37221472 108.85990619 89.74659534 108.86296082 94.12135124 C108.86898024 96.20759286 108.88492287 98.29383208 108.91133118 100.37991524 C109.06114491 113.12847087 108.99919927 123.17693829 100.44226074 133.39186096 C89.80299707 143.85800504 75.78991695 142.88393755 61.93066406 142.84106445 C59.86283591 142.84630787 57.79501016 142.85258697 55.72718811 142.85984802 C51.40940025 142.87021502 47.09194274 142.86574266 42.77416992 142.85107422 C37.26087258 142.8338703 31.74861591 142.8574216 26.23543453 142.89256382 C21.97067963 142.91459483 17.70617173 142.91308287 13.44137764 142.90479851 C11.40934671 142.90398254 9.377297 142.91077756 7.34531975 142.92556953 C-14.13332255 143.05801224 -14.13332255 143.05801224 -23.65917969 134.7746582 C-24.36042969 133.9496582 -25.06167969 133.1246582 -25.78417969 132.2746582 C-26.48542969 131.4702832 -27.18667969 130.6659082 -27.90917969 129.8371582 C-33.38138589 122.35847639 -33.93169383 115.32275441 -33.96118164 106.3828125 C-33.96775284 105.50881805 -33.97432404 104.63482361 -33.98109436 103.73434448 C-34.00072757 100.85585429 -34.01246634 97.97741597 -34.02246094 95.09887695 C-34.02653646 94.11164957 -34.03061199 93.12442219 -34.03481102 92.10727882 C-34.05562713 86.88385862 -34.06994926 81.66046435 -34.0793457 76.43701172 C-34.09041345 71.0570706 -34.1248306 65.67754267 -34.1645174 60.29774761 C-34.19071762 56.14631912 -34.19904047 51.99498876 -34.20262718 47.84348488 C-34.20748263 45.86085017 -34.21906673 43.87821954 -34.23766518 41.89566612 C-34.26213407 39.11500994 -34.26107778 36.33541941 -34.25415039 33.5546875 C-34.26696045 32.74555405 -34.27977051 31.93642059 -34.29296875 31.10276794 C-34.2136086 22.30950216 -30.62814148 15.42544796 -24.70996094 9.0637207 C-17.42606835 2.29694017 -9.77191873 -0.0301002 0 0 Z " fill="#1A7BE3" transform="translate(112.7841796875,28.725341796875)"/>
<path d="M0 0 C5.02686141 2.15181812 8.77135942 4.88723632 11 10 C13.12711582 15.60785079 12.52899685 21.32494521 10.3125 26.75 C8.49358949 30.49102161 6.60223207 32.7832418 3 35 C-2.35315727 36.78438576 -7.17981695 36.85857691 -12.3125 34.4375 C-16.62747517 30.52391787 -18.7088933 27.62323113 -19.34765625 21.8671875 C-19.63630319 10.84840426 -19.63630319 10.84840426 -16 6 C-11.06123556 1.19293594 -7.01188915 -1.09292143 0 0 Z " fill="#EFF6FB" transform="translate(110,82)"/>
<path d="M0 0 C16 0 16 0 21 4 C21.8093475 6.72622316 21.5465116 9.22189939 21 12 C19.5 14.5 19.5 14.5 18 16 C18.825 16.70125 19.65 17.4025 20.5 18.125 C23 21 23 21 23.5 24 C22.91816777 27.49099338 22.27975321 29.27900424 20 32 C13.17202984 36.30458989 8.91917703 35 0 35 C0 23.45 0 11.9 0 0 Z " fill="#F6FAFB" transform="translate(126,83)"/>
<path d="M0 0 C3.46814671 0.99089906 4.80396884 2.11457303 7.0625 4.875 C9.02517571 8.80035142 8.40728017 13.58641861 8.0625 17.875 C6.52946367 22.0360986 5.75346643 23.41435571 2.0625 25.875 C-2.2309921 25.79693651 -4.23347608 25.57902392 -7.3125 22.5 C-10.24744731 17.75893127 -10.62544578 13.32278686 -9.9375 7.875 C-7.574714 3.39385414 -5.48496852 -0.23340292 0 0 Z " fill="#1B7CE3" transform="translate(106.9375,87.125)"/>
<path d="M0 0 C0 1.65 0 3.3 0 5 C-0.80824219 5.01417969 -1.61648437 5.02835937 -2.44921875 5.04296875 C-9.42547244 5.07686455 -9.42547244 5.07686455 -15.1875 8.4375 C-18.12994762 12.59751215 -18.58046069 15.95966632 -18 21 C-16.61114752 23.81780534 -16.61114752 23.81780534 -15 26 C-15 26.66 -15 27.32 -15 28 C-11.68929162 29.00109515 -8.69915231 29.10356134 -5.25 29.0625 C-4.26515625 29.05347656 -3.2803125 29.04445313 -2.265625 29.03515625 C-1.51796875 29.02355469 -0.7703125 29.01195313 0 29 C0 30.65 0 32.3 0 34 C-5.94149155 35.68387894 -11.7846577 36.10767115 -17.375 33.3125 C-21.60763233 29.58375247 -24.66809431 26.36802662 -25.23828125 20.58203125 C-25.40887728 14.21610584 -25.08608736 9.1018379 -21 4 C-14.97840279 -1.68860566 -7.75219525 -2.58406508 0 0 Z " fill="#F1F7FB" transform="translate(209,83)"/>
<path d="M0 0 C2.31 0 4.62 0 7 0 C7.11647041 4.54144994 7.18734502 9.08251394 7.25 13.625 C7.28351563 14.91019531 7.31703125 16.19539063 7.3515625 17.51953125 C7.47390693 29.32576888 7.47390693 29.32576888 3 34 C-0.56969854 36.80476313 -4.65995488 36.14466817 -9 36 C-9 34.02 -9 32.04 -9 30 C-5.04 29.505 -5.04 29.505 -1 29 C-0.67 19.43 -0.34 9.86 0 0 Z " fill="#BFDBF7" transform="translate(159,82)"/>
<path d="M0 0 C6.76934342 4.86978277 6.76934342 4.86978277 7.625 9.0625 C6.90415024 12.45049389 6.234119 14.33347087 4 17 C-2.34673919 21.00120514 -8.65517101 20.22715966 -16 20 C-16 15.71 -16 11.42 -16 7 C-15.67 7 -15.34 7 -15 7 C-14.67 9.97 -14.34 12.94 -14 16 C-12.01980257 15.52511102 -10.04086365 15.04497141 -8.0625 14.5625 C-6.40927734 14.16224609 -6.40927734 14.16224609 -4.72265625 13.75390625 C-2.10578746 13.27004275 -2.10578746 13.27004275 -1 12 C-0.95919217 10.00041636 -0.95745644 7.99954746 -1 6 C-5.455 5.01 -5.455 5.01 -10 4 C-10 3.67 -10 3.34 -10 3 C-6.7 2.67 -3.4 2.34 0 2 C0 1.34 0 0.68 0 0 Z " fill="#ECF5FB" transform="translate(142,98)"/>
<path d="M0 0 C1.65 0 3.3 0 5 0 C5 9.57 5 19.14 5 29 C3.68 29 2.36 29 1 29 C-0.07917226 25.76248322 -0.11425601 23.42248229 -0.09765625 20.01953125 C-0.09443359 18.85615234 -0.09121094 17.69277344 -0.08789062 16.49414062 C-0.07951172 15.27919922 -0.07113281 14.06425781 -0.0625 12.8125 C-0.05798828 11.58595703 -0.05347656 10.35941406 -0.04882812 9.09570312 C-0.03703065 6.06375332 -0.02056921 3.03190094 0 0 Z " fill="#FDFDFC" transform="translate(160,83)"/>
<path d="M0 0 C6.625 -0.25 6.625 -0.25 10 2 C10.4375 4.9375 10.4375 4.9375 10 8 C8.375 9.875 8.375 9.875 6 11 C2.75 11.1875 2.75 11.1875 0 11 C0 7.37 0 3.74 0 0 Z " fill="#1C7BE3" transform="translate(132,102)"/>
<path d="M0 0 C0.87527344 -0.00257812 1.75054687 -0.00515625 2.65234375 -0.0078125 C5.0625 0.125 5.0625 0.125 8.0625 1.125 C8.0625 2.775 8.0625 4.425 8.0625 6.125 C1.6275 6.62 1.6275 6.62 -4.9375 7.125 C-4.9375 6.465 -4.9375 5.805 -4.9375 5.125 C-6.9175 5.125 -8.8975 5.125 -10.9375 5.125 C-7.15416147 1.21555018 -5.44760088 -0.01599883 0 0 Z " fill="#E4F0FA" transform="translate(200.9375,81.875)"/>
<path d="M0 0 C5.625 -0.25 5.625 -0.25 9 2 C9.375 5 9.375 5 9 8 C5.5647952 10.29013653 4.014669 10.17842973 0 10 C0 6.7 0 3.4 0 0 Z " fill="#2881E3" transform="translate(132,87)"/>
<path d="M0 0 C4.29 0 8.58 0 13 0 C13 1.32 13 2.64 13 4 C8.71 4 4.42 4 0 4 C0 2.68 0 1.36 0 0 Z " fill="#E8F3FC" transform="translate(169,98)"/>
<path d="M0 0 C0.33 0.99 0.66 1.98 1 3 C0.67 3.66 0.34 4.32 0 5 C0.66 5 1.32 5 2 5 C2.33 7.97 2.66 10.94 3 14 C1.02 14.99 1.02 14.99 -1 16 C-1.92350727 13.22947819 -2.16329585 11.43311242 -2.1875 8.5625 C-2.20167969 7.80066406 -2.21585937 7.03882812 -2.23046875 6.25390625 C-1.97612666 3.76652685 -1.24017196 2.15191894 0 0 Z " fill="#2982E2" transform="translate(99,91)"/>
<path d="M0 0 C0.33 0 0.66 0 1 0 C1.22134176 2.12368444 1.42670007 4.24904024 1.625 6.375 C1.74101562 7.55835937 1.85703125 8.74171875 1.9765625 9.9609375 C1.98429688 10.96382812 1.99203125 11.96671875 2 13 C1.34 13.66 0.68 14.32 0 15 C-1.32 13.35 -2.64 11.7 -4 10 C-3.525625 9.649375 -3.05125 9.29875 -2.5625 8.9375 C-0.32126175 6.15836457 -0.32882342 3.4855283 0 0 Z " fill="#3C8EE6" transform="translate(147,88)"/>
<path d="M0 0 C2.875 0.875 2.875 0.875 4.875 2.875 C1.905 2.38 1.905 2.38 -1.125 1.875 C-1.125 3.195 -1.125 4.515 -1.125 5.875 C-3.105 5.215 -5.085 4.555 -7.125 3.875 C-3.94756169 -0.15790247 -3.94756169 -0.15790247 0 0 Z " fill="#2783E5" transform="translate(107.125,87.125)"/>
<path d="M0 0 C0.99 0.33 1.98 0.66 3 1 C3 2.32 3 3.64 3 5 C3.66 5.66 4.32 6.32 5 7 C3.02 7 1.04 7 -1 7 C-1.04254356 5.00045254 -1.04080783 2.99958364 -1 1 C-0.67 0.67 -0.34 0.34 0 0 Z " fill="#1479E4" transform="translate(134,89)"/>
<path d="M0 0 C0.66 0 1.32 0 2 0 C2.99 2.31 3.98 4.62 5 7 C4.01 7.33 3.02 7.66 2 8 C1.34 7.67 0.68 7.34 0 7 C0 4.69 0 2.38 0 0 Z " fill="#E5EFF7" transform="translate(80,152)"/>
<path d="M0 0 C0.99 0.99 1.98 1.98 3 3 C2.01 3 1.02 3 0 3 C-0.33 3.99 -0.66 4.98 -1 6 C-5.455 5.01 -5.455 5.01 -10 4 C-10 3.67 -10 3.34 -10 3 C-6.7 2.67 -3.4 2.34 0 2 C0 1.34 0 0.68 0 0 Z " fill="#D4E7FB" transform="translate(142,98)"/>
<path d="M0 0 C-1.33333333 0.66666667 -2.66666667 1.33333333 -4 2 C-4.66 2.4125 -5.32 2.825 -6 3.25 C-8 4 -8 4 -10.125 3.046875 C-11.053125 2.52867187 -11.053125 2.52867187 -12 2 C-10.56656 1.46809459 -9.12804633 0.94984742 -7.6875 0.4375 C-6.48673828 0.00244141 -6.48673828 0.00244141 -5.26171875 -0.44140625 C-3 -1 -3 -1 0 0 Z " fill="#DCEAF8" transform="translate(208,168)"/>
<path d="M0 0 C2.64 0 5.28 0 8 0 C8.66 1.32 9.32 2.64 10 4 C6.7 3.01 3.4 2.02 0 1 C0 0.67 0 0.34 0 0 Z " fill="#D4E6F8" transform="translate(198,30)"/>
<path d="M0 0 C1.98 0 3.96 0 6 0 C6 0.99 6 1.98 6 3 C4.02 3 2.04 3 0 3 C0 2.01 0 1.02 0 0 Z " fill="#FDFDF9" transform="translate(170,98)"/>
<path d="M0 0 C2.79872437 2.52788007 4.45773019 4.20411134 5 8 C3.68 8 2.36 8 1 8 C0.67 5.36 0.34 2.72 0 0 Z " fill="#3285E0" transform="translate(213,39)"/>
</svg>
