<?xml version="1.0" encoding="UTF-8"?>
<svg version="1.1" xmlns="http://www.w3.org/2000/svg" width="860" height="594">
<path d="M0 0 C283.8 0 567.6 0 860 0 C860 196.02 860 392.04 860 594 C576.2 594 292.4 594 0 594 C0 397.98 0 201.96 0 0 Z " fill="#F6F6F6" transform="translate(0,0)"/>
<path d="M0 0 C0.77609619 0.01313232 1.55219238 0.02626465 2.35180664 0.03979492 C16.94776037 0.61434378 28.96852831 9.23447205 41.125 16.5625 C43.04409954 17.71382724 44.96337621 18.86485926 46.8828125 20.015625 C49.97325647 21.86979144 53.06283288 23.72534192 56.15014648 25.5847168 C64.37721186 30.53464188 72.64825849 35.40532333 80.9375 40.25 C89.97234798 45.53113911 98.98275445 50.8486193 107.94702148 56.24902344 C113.94738781 59.86222702 119.9683455 63.43928416 126 67 C126.91144775 67.53826416 127.82289551 68.07652832 128.76196289 68.63110352 C133.4528838 71.39983449 138.14683795 74.16332024 142.84375 76.921875 C148.28126213 80.11799486 153.70815777 83.33147469 159.125 86.5625 C160.29844971 87.26101074 160.29844971 87.26101074 161.49560547 87.97363281 C175.10427849 96.11698716 185.53284203 103.64606093 192.125 118.5625 C192.84375 122.49609375 192.84375 122.49609375 193.125 125.5625 C191.62760417 124.29296875 190.13020833 123.0234375 188.6328125 121.75390625 C185.5296067 119.3018913 183.02065054 119.30694212 179.125 119.1875 C177.51625 119.11402344 177.51625 119.11402344 175.875 119.0390625 C167.20556599 120.249171 159.59762773 125.96598141 152.3125 130.5625 C150.45968783 131.72013598 148.60682174 132.87768566 146.75390625 134.03515625 C145.81820801 134.62184082 144.88250977 135.20852539 143.91845703 135.81298828 C139.53792958 138.55646492 135.14459809 141.27913799 130.75 144 C129.89124268 144.53230225 129.03248535 145.06460449 128.14770508 145.61303711 C121.62028052 149.65324712 115.06358976 153.64388685 108.5 157.625 C100.60460473 162.41521221 92.7669132 167.28552604 84.97167969 172.23681641 C79.02649486 176.0081282 73.0342934 179.69610261 67.02075195 183.35717773 C59.56275228 187.89883067 52.13308247 192.48507812 44.71875 197.09765625 C40.77600816 199.54849274 36.8148108 201.96643637 32.84375 204.37109375 C10.20970151 217.48328805 10.20970151 217.48328805 -2.92835426 239.22924328 C-3.9232619 243.32742999 -4.16122656 247.30560682 -4.14242554 251.51179504 C-4.14922221 252.64971741 -4.14922221 252.64971741 -4.15615618 253.81062812 C-4.16872859 256.33060265 -4.16718449 258.85035908 -4.16552734 261.37036133 C-4.17151705 263.18618546 -4.17832362 265.00200704 -4.18588257 266.81782532 C-4.20350418 271.73530241 -4.20823631 276.65270984 -4.20951414 281.57021546 C-4.21093841 284.64650011 -4.21521323 287.7227672 -4.22050858 290.79904747 C-4.23899577 301.5425567 -4.24718078 312.2860164 -4.24560547 323.02954102 C-4.24440426 333.02589848 -4.26550607 343.02203997 -4.2970928 353.01834279 C-4.32328826 361.616492 -4.3339714 370.2145708 -4.33269465 378.81275958 C-4.332186 383.94110033 -4.33781538 389.06924901 -4.35905075 394.19754982 C-4.37848842 399.02315145 -4.37851991 403.84837884 -4.36401749 408.67399406 C-4.36193518 410.43836136 -4.36659558 412.20275243 -4.3787384 413.96707916 C-4.78460863 429.1358416 -4.78460863 429.1358416 1.7139225 442.32809162 C3.48773097 443.90641968 3.48773097 443.90641968 6.125 445.5625 C5.795 446.2225 5.465 446.8825 5.125 447.5625 C-10.38645494 448.84091662 -22.52108425 442.09229583 -35.3125 434.3125 C-36.51820661 433.59132057 -37.72458694 432.87126629 -38.93164062 432.15234375 C-41.97222449 430.33757503 -45.00410076 428.50879725 -48.03359985 426.67559814 C-51.13558097 424.80049814 -54.24342513 422.93518482 -57.3515625 421.0703125 C-57.97361572 420.69701813 -58.59566895 420.32372375 -59.23657227 419.93911743 C-66.08250937 415.83383803 -72.94686815 411.75972434 -79.8125 407.6875 C-81.20249673 406.86266859 -82.59247012 406.03779783 -83.98242188 405.21289062 C-86.85521674 403.50798757 -89.72810949 401.80324962 -92.60107422 400.09863281 C-96.71494939 397.65762701 -100.82828597 395.21571504 -104.94140625 392.7734375 C-105.9264061 392.18857826 -105.9264061 392.18857826 -106.93130493 391.59190369 C-110.23066945 389.63280618 -113.52993626 387.6735443 -116.82910156 385.71411133 C-123.0049119 382.04641333 -129.18150353 378.38005325 -135.36105347 374.71865845 C-138.23736534 373.01432187 -141.11320564 371.30919046 -143.98901367 369.60400391 C-145.34262118 368.80168903 -146.69645232 367.99975129 -148.05053711 367.19824219 C-154.72005196 363.25030745 -161.37877355 359.28496289 -167.99609375 355.25 C-169.01243896 354.63125 -170.02878418 354.0125 -171.07592773 353.375 C-183.0098094 345.64738225 -190.04903961 335.1406117 -193.39754009 321.42162514 C-193.99342688 317.85333625 -194.02308802 314.35221405 -194.02217102 310.7461853 C-194.02584771 309.96563235 -194.0295244 309.1850794 -194.0333125 308.38087332 C-194.0443141 305.76872002 -194.04818719 303.15660656 -194.05200195 300.54443359 C-194.05826929 298.66994095 -194.06491633 296.79544953 -194.07191467 294.92095947 C-194.0929263 288.76762757 -194.10331476 282.6142955 -194.11328125 276.4609375 C-194.11732997 274.33978894 -194.12144693 272.21864051 -194.12563133 270.09749222 C-194.14467709 260.13050621 -194.15890909 250.16352758 -194.1672433 240.19652689 C-194.177012 228.70481705 -194.2033246 217.21330003 -194.24374419 205.72165811 C-194.27393983 196.83058683 -194.28871547 187.93957071 -194.29202431 179.04844916 C-194.29437095 173.74231951 -194.30328116 168.43639598 -194.32848549 163.1303215 C-194.35183136 158.13487911 -194.35597325 153.13977762 -194.34572411 148.14429474 C-194.34523021 146.31703429 -194.35150722 144.48975668 -194.36528015 142.66254807 C-194.4792362 126.64005035 -191.53755674 113.3563279 -180.09375 101.3203125 C-174.16265173 95.50734449 -167.21692367 91.63854314 -160.0625 87.5625 C-157.91918537 86.32032325 -155.77876284 85.07325364 -153.63829041 83.82618713 C-152.18504626 82.98014942 -150.73082865 82.13578163 -149.27565002 81.29307556 C-142.76907834 77.5218531 -136.34439722 73.62430246 -129.93286133 69.69433594 C-120.45570665 63.88793819 -110.92424624 58.19832117 -101.23364258 52.75415039 C-95.02709094 49.26184576 -88.92159141 45.60980291 -82.8215332 41.93603516 C-79.00888608 39.64030951 -75.18616525 37.36189942 -71.359375 35.08984375 C-70.73397827 34.71840744 -70.10858154 34.34697113 -69.4642334 33.96427917 C-66.13147306 31.98568489 -62.79724801 30.00957706 -59.4621582 28.03491211 C-58.04893492 27.19784838 -56.63576778 26.36068986 -55.22265625 25.5234375 C-54.5243721 25.1097139 -53.82608795 24.6959903 -53.10664368 24.26972961 C-49.07716466 21.87903155 -45.05843586 19.47163244 -41.05081177 17.04447937 C-38.62843619 15.57796919 -36.20201365 14.11823119 -33.77526855 12.65896606 C-32.11856229 11.65884374 -30.46785635 10.64880263 -28.81738281 9.63842773 C-19.66559369 4.14402476 -10.86087795 -0.22848286 0 0 Z " fill="#FEFEFE" transform="translate(429.875,68.4375)"/>
<path d="M0 0 C7.11639687 4.34797876 14.27720226 8.59945763 21.53662109 12.70556641 C28.84277763 16.83883876 36.07384985 21.07416223 43.26098633 25.41088867 C51.18561558 30.19124674 59.14005762 34.92036098 67.09912109 39.64306641 C68.47974389 40.46271513 69.86035911 41.2823766 71.2409668 42.10205078 C77.83374395 46.01524879 84.42980083 49.92277666 91.03271484 53.81884766 C96.58882582 57.09745028 102.13821757 60.38711606 107.6796875 63.69042969 C109.49032555 64.76950931 111.30233611 65.84629201 113.11621094 66.91992188 C129.6956034 76.76233475 141.0988165 88.22250106 146.53662109 107.39306641 C147.59320997 111.6729915 147.68490491 115.83739274 147.68379211 120.22042847 C147.6874688 121.00224271 147.69114549 121.78405695 147.69493359 122.58956254 C147.7059358 125.20619944 147.70980845 127.82279659 147.71362305 130.43945312 C147.71989055 132.31730779 147.7265376 134.19516122 147.73353577 136.07301331 C147.75455274 142.23958476 147.76493918 148.40615639 147.77490234 154.57275391 C147.77895144 156.70000344 147.78306841 158.82725284 147.78725243 160.95450211 C147.80630261 170.9546004 147.82053137 180.95469135 147.8288644 190.9548043 C147.83862231 202.47307432 147.8649048 213.99115142 147.90536529 225.50935352 C147.93560733 234.42681404 147.95034111 243.34421954 147.95364541 252.26173031 C147.95598757 257.58028361 147.96483834 262.89863078 147.99010658 268.21712875 C148.01353273 273.22899865 148.01756252 278.24052887 148.0073452 283.2524395 C148.00685317 285.08124489 148.01307408 286.91006784 148.02690125 288.73882103 C148.16577578 308.21281161 144.58397354 324.24777987 130.97802734 339.00634766 C124.8540067 344.99319024 118.55886858 349.36323761 111.09912109 353.58056641 C108.94339753 354.81880035 106.78849219 356.05845954 104.63427734 357.29931641 C104.06613312 357.62562546 103.49798889 357.95193451 102.91262817 358.28813171 C95.91172654 362.31422427 88.97602418 366.44971378 82.03662109 370.58056641 C80.67778376 371.38859217 79.31889669 372.19653429 77.95996094 373.00439453 C75.20222984 374.64395843 72.44476848 376.28397464 69.6875 377.92431641 C63.54135965 381.58033009 57.39215436 385.23118217 51.24291992 388.88198853 C49.22423249 390.08050027 47.20561869 391.27913595 45.18701172 392.4777832 C35.72586218 398.09542648 26.26157984 403.70775963 16.79321289 409.31323242 C11.2904021 412.57193266 5.79066368 415.83559289 0.29699707 419.10968018 C-2.58489616 420.82714176 -5.46762644 422.54319614 -8.3503418 424.25927734 C-9.73538621 425.08438295 -11.12000483 425.91020382 -12.50415039 426.73681641 C-31.82328893 438.27374579 -48.83740728 447.01401532 -72.04150391 442.73291016 C-82.68304093 439.35280842 -92.12667254 432.93876142 -101.58447266 427.14697266 C-106.18165723 424.34624555 -110.82367328 421.62254902 -115.46337891 418.89306641 C-117.28782144 417.81532014 -119.11203961 416.73719399 -120.93603516 415.65869141 C-124.6930319 413.4385568 -128.45095433 411.21999904 -132.20947266 409.00244141 C-140.61153445 404.04388285 -149.00870504 399.07909838 -157.3671875 394.04736328 C-163.7370008 390.21830862 -170.13156671 386.43101878 -176.52587891 382.64306641 C-177.39851883 382.12610199 -177.39851883 382.12610199 -178.28878784 381.59869385 C-185.33538285 377.42478483 -192.38550978 373.25688455 -199.43847656 369.09375 C-208.80337058 363.56511733 -218.16566891 358.03412307 -227.46337891 352.39306641 C-228.45595703 351.80267578 -229.44853516 351.21228516 -230.47119141 350.60400391 C-246.73729613 340.68122693 -256.93750876 327.25162972 -261.83021736 308.82260895 C-263.16855323 301.57346403 -262.88789589 294.19700579 -262.86743164 286.84912109 C-262.87314287 284.99008272 -262.88011003 283.13104785 -262.88822937 281.27201843 C-262.90609574 276.24904454 -262.90500432 271.22624599 -262.89928699 266.20324993 C-262.89618469 261.9964385 -262.90229935 257.78966025 -262.90832573 253.58285356 C-262.92234888 243.64960839 -262.92082898 233.71644926 -262.90942383 223.78320312 C-262.89795358 213.56815935 -262.91200502 203.35337846 -262.9388203 193.13836932 C-262.96104478 184.33966572 -262.96759926 175.54104423 -262.96174389 166.74231458 C-262.95838816 161.49988587 -262.96069637 156.25762549 -262.97799492 151.01522064 C-262.99356915 146.08039017 -262.98939336 141.14594594 -262.97068977 136.21113014 C-262.96703225 134.41135794 -262.97002838 132.61155646 -262.98057556 130.81181145 C-263.08542342 111.42389294 -259.46820985 95.1091986 -245.66259766 80.59619141 C-244.93685547 79.86916016 -244.21111328 79.14212891 -243.46337891 78.39306641 C-242.93357422 77.85166016 -242.40376953 77.31025391 -241.85791016 76.75244141 C-236.54990185 71.78556474 -230.00134914 68.36751305 -223.75488281 64.72949219 C-219.52187832 62.26076572 -215.30693905 59.76136483 -211.08837891 57.26806641 C-210.15767578 56.71916748 -209.22697266 56.17026855 -208.26806641 55.60473633 C-201.29071213 51.48642142 -194.34211488 47.32190075 -187.40087891 43.14306641 C-177.56965021 37.22707196 -167.68735186 31.40341644 -157.78192139 25.61303711 C-149.3705836 20.69529071 -140.98740535 15.73450918 -132.64135742 10.70654297 C-125.72719196 6.54308259 -118.78885773 2.42145259 -111.82861328 -1.66455078 C-107.09375513 -4.44632171 -102.38422193 -7.2602649 -97.70947266 -10.14208984 C-59.40487715 -33.62300654 -35.58390113 -21.76165197 0 0 Z M-90.65087891 -2.04443359 C-91.91256577 -1.29298987 -93.17478651 -0.54244191 -94.4375 0.20727539 C-97.09381497 1.78638454 -99.74687837 3.37076086 -102.39746094 4.95947266 C-106.43177668 7.3765973 -110.47563693 9.77738145 -114.52197266 12.17431641 C-119.91385405 15.36924676 -125.30331661 18.5681872 -130.68994141 21.77197266 C-137.77667128 25.98647605 -144.8690156 30.19142222 -151.96337891 34.39306641 C-159.02101321 38.57389349 -166.07753487 42.75657687 -173.13134766 46.94384766 C-173.78635254 47.33258057 -174.44135742 47.72131348 -175.11621094 48.12182617 C-178.46590569 50.11014547 -181.81450324 52.10027544 -185.16113281 54.09375 C-191.44107648 57.83235503 -197.72822224 61.55622891 -204.04945374 65.22471619 C-206.95217696 66.91044354 -209.84985388 68.60474276 -212.7472229 70.2996521 C-214.11695491 71.09772793 -215.48909185 71.89169373 -216.86386108 72.68106079 C-232.69163223 81.77234731 -245.14481335 92.25718628 -251.01588058 110.06928921 C-251.65768778 113.40207697 -251.60784499 116.70852236 -251.6038208 120.08912659 C-251.60679192 120.86882512 -251.60976305 121.64852364 -251.6128242 122.4518494 C-251.62150252 125.06711293 -251.62301874 127.68233063 -251.62451172 130.29760742 C-251.62914063 132.17195229 -251.63416539 134.04629621 -251.63955688 135.92063904 C-251.65267878 141.01601922 -251.65912583 146.11138623 -251.66356754 151.20678067 C-251.66649956 154.39225456 -251.6706047 157.57772486 -251.67507172 160.76319695 C-251.6887482 170.735528 -251.69841323 180.70785084 -251.70227361 190.68019062 C-251.70675011 202.18036542 -251.72427845 213.68042111 -251.7532742 225.18055969 C-251.77492106 234.07585789 -251.78497955 242.97112266 -251.78631473 251.86644691 C-251.78736091 257.1759044 -251.79322867 262.48524995 -251.81113434 267.79467964 C-251.82766618 272.79417178 -251.82974574 277.79346848 -251.82099533 282.79297829 C-251.8202276 284.62184423 -251.82453264 286.4507209 -251.83445358 288.27956009 C-251.92157813 305.34994547 -249.50739458 320.05730362 -237.24072266 332.92041016 C-231.56006364 337.97787452 -225.01484441 341.59608567 -218.46337891 345.39306641 C-216.29615334 346.66294638 -214.12953168 347.93385734 -211.96337891 349.20556641 C-208.29500957 351.35803438 -204.62517257 353.50789491 -200.95068359 355.64990234 C-192.22829779 360.73915013 -183.57965028 365.93897684 -174.96337891 371.20556641 C-166.02170037 376.6691364 -157.01857166 381.99761009 -147.89746094 387.15698242 C-141.3381842 390.87255025 -134.86379977 394.71421914 -128.40942383 398.60864258 C-120.05856234 403.64650999 -111.67466464 408.62823798 -103.27514648 413.58447266 C-98.29333221 416.52528245 -93.31666736 419.46989555 -88.38525391 422.49462891 C-76.5916126 429.6963052 -66.64792466 434.29846294 -52.46337891 433.39306641 C-52.13337891 432.73306641 -51.80337891 432.07306641 -51.46337891 431.39306641 C-52.37087891 430.79494141 -53.27837891 430.19681641 -54.21337891 429.58056641 C-59.64137263 424.9346972 -61.18885091 418.36169427 -61.82821465 411.44788933 C-62.02597367 406.70865137 -61.99338214 401.97100148 -61.96508789 397.22875977 C-61.96887698 395.41086917 -61.97438187 393.59298147 -61.98146057 391.77510071 C-61.99535447 386.8660221 -61.98428862 381.95729636 -61.96774936 377.04823756 C-61.95383771 371.89597129 -61.9603658 366.74372423 -61.96388245 361.59144592 C-61.9665795 352.94249831 -61.95315157 344.29368988 -61.92993164 335.64477539 C-61.90331673 325.66255685 -61.90157941 315.68057079 -61.91332 305.69832891 C-61.92411921 296.07197864 -61.91789444 286.44571201 -61.90376472 276.81936836 C-61.89802436 272.73308891 -61.8980722 268.64687105 -61.90283012 264.56059074 C-61.90762141 259.74482171 -61.89740948 254.92930552 -61.87587547 250.11358452 C-61.87033697 248.35203402 -61.86981514 246.59045908 -61.87482834 244.82890701 C-61.9125123 229.6819108 -60.09749303 218.9697694 -49.67431641 207.40869141 C-42.04465833 200.05260672 -32.46464271 194.86856442 -23.46337891 189.39306641 C-22.35768555 188.71969238 -21.25199219 188.04631836 -20.11279297 187.35253906 C-15.27750145 184.4096486 -10.43932733 181.47154242 -5.59667969 178.54077148 C2.4921814 173.64473817 10.53269767 168.67877256 18.53710938 163.64599609 C31.59819043 155.46168987 44.74521217 147.41326138 57.87524414 139.34033203 C63.81207001 135.68905917 69.74346865 132.02936794 75.66601562 128.35498047 C84.14910723 123.0925167 92.64641534 117.85341725 101.16162109 112.64306641 C102.15250732 112.03382324 103.14339355 111.42458008 104.16430664 110.796875 C105.08381104 110.23564941 106.00331543 109.67442383 106.95068359 109.09619141 C107.7648877 108.59764648 108.5790918 108.09910156 109.41796875 107.58544922 C115.0241837 104.43025749 121.2854887 104.81710212 127.53662109 105.39306641 C130.90087996 106.70276866 132.99624877 108.85269409 135.53662109 111.39306641 C135.11992618 102.01743086 129.5880366 93.45791734 123.27490234 86.75244141 C116.68000003 81.07010047 109.01060734 76.80515046 101.53662109 72.39306641 C100.59093262 71.83425781 99.64524414 71.27544922 98.67089844 70.69970703 C93.6641661 67.75114065 88.6438918 64.82665686 83.61474609 61.91650391 C77.715732 58.50277502 71.84039884 55.05019915 65.97412109 51.58056641 C65.0529248 51.03577637 64.13172852 50.49098633 63.18261719 49.9296875 C57.65351084 46.65580876 52.13750243 43.36102974 46.63232422 40.04711914 C40.26274287 36.21803132 33.86827666 32.43092599 27.47412109 28.64306641 C26.89236115 28.29842346 26.3106012 27.95378052 25.71121216 27.59869385 C16.83098828 22.3386716 7.94482694 17.08872619 -0.94458008 11.84423828 C-5.47759048 9.16733967 -9.99992518 6.47456649 -14.50488281 3.75073242 C-34.55664023 -9.14287202 -34.55664023 -9.14287202 -57.33837891 -14.04443359 C-58.06976074 -14.06707275 -58.80114258 -14.08971191 -59.5546875 -14.11303711 C-71.27710349 -14.06002376 -80.90002628 -7.92574501 -90.65087891 -2.04443359 Z " fill="#2C363A" transform="translate(487.46337890625,82.60693359375)"/>
<path d="M0 0 C0.9374707 0.52674316 1.87494141 1.05348633 2.84082031 1.59619141 C16.81841188 9.49106558 30.59979858 17.71357626 44.34765625 26 C51.73363144 30.44871266 59.14668225 34.85129329 66.5625 39.25 C67.56780258 39.84640793 67.56780258 39.84640793 68.59341431 40.4548645 C71.32808256 42.07721136 74.06283494 43.69941616 76.79777527 45.32130432 C81.60058824 48.16950183 86.40222591 51.01967151 91.203125 53.87109375 C91.8760408 54.2707132 92.5489566 54.67033264 93.24226379 55.08206177 C96.5957183 57.07361519 99.9488666 59.06568134 103.30151367 61.05859375 C109.11871281 64.51548492 114.93819919 67.96810539 120.77293396 71.39533997 C123.22887017 72.83797239 125.68320119 74.28332492 128.13754272 75.72866821 C129.80648782 76.7097264 131.47801989 77.68637969 133.1496582 78.6628418 C154.02655775 90.95956143 170.14153283 104.89099927 176.45703125 129.234375 C177.68326245 135.48021451 178.14838457 141.59759217 178.14044189 147.95361328 C178.14489858 149.09236924 178.14489858 149.09236924 178.1494453 150.25413036 C178.15805715 152.77620254 178.15963413 155.29822683 178.16113281 157.8203125 C178.16576641 159.63787434 178.1707918 161.45543523 178.17617798 163.272995 C178.18925406 168.1969919 178.19573786 173.12097519 178.20018864 178.04498672 C178.20312787 181.12800527 178.20723431 184.21102017 178.21169281 187.29403687 C178.22535677 196.95935135 178.23502812 206.62465742 178.2388947 216.28998089 C178.24336915 227.41085388 178.26089323 238.53160359 178.2898953 249.65243912 C178.31158599 258.27188997 178.32160295 266.89130632 178.32293582 275.51078415 C178.32397881 280.64763898 178.32977777 285.78437775 178.34775543 290.92120361 C178.36436379 295.76071488 178.36633039 300.60002442 178.35761642 305.43955421 C178.35685276 307.20343381 178.36109881 308.96732483 178.37107468 310.73117638 C178.49768737 334.53808639 173.76985839 354.25091253 156.6875 371.625 C155.47234269 372.76511772 154.24523476 373.89281163 153 375 C152.195625 375.721875 151.39125 376.44375 150.5625 377.1875 C148.41168571 378.70880767 146.32981857 379.95496659 144.0234375 381.2109375 C138.63873204 384.17932478 133.35007682 387.30017996 128.0625 390.4375 C127.13759766 390.98470703 126.21269531 391.53191406 125.25976562 392.09570312 C120.83049796 394.71850003 116.4080988 397.35217183 111.99609375 400.00390625 C105.755588 403.75338906 99.48218053 407.44678151 93.2109375 411.14453125 C87.95997954 414.24333602 82.72237274 417.36286699 77.49658203 420.50390625 C73.15515048 423.10553862 68.7960215 425.67713688 64.4375 428.25 C63.48149902 428.81501221 62.52549805 429.38002441 61.54052734 429.9621582 C57.15072975 432.55539727 52.75869052 435.14445463 48.35546875 437.71484375 C41.37707978 441.7917129 34.45889884 445.93444907 27.625 450.25 C22.45433787 453.51522237 17.24336926 456.58174141 11.83203125 459.4375 C9.65685015 460.63759991 7.55559546 461.87542267 5.44921875 463.1875 C-12.05676875 474.08643267 -31.19108044 480.80145354 -52 476.265625 C-69.58766196 470.94304309 -85.55175517 459.56594569 -101.13671875 450.140625 C-108.5878781 445.63633143 -116.07326355 441.19060881 -123.5625 436.75 C-124.91855508 435.94558474 -126.27459341 435.14114125 -127.63061523 434.33666992 C-130.3753558 432.70843538 -133.12025758 431.08047298 -135.86523438 429.45263672 C-139.97878033 427.01293451 -144.09111461 424.57119549 -148.203125 422.12890625 C-148.87545166 421.72960403 -149.54777832 421.33030182 -150.24047852 420.91889954 C-152.93567388 419.31817169 -155.6308507 417.71741266 -158.32592773 416.1164856 C-165.281108 411.98512631 -172.23798021 407.85672993 -179.203125 403.7421875 C-184.74887477 400.46612139 -190.28922075 397.18107707 -195.82470703 393.88769531 C-197.95444091 392.62157949 -200.085646 391.35793535 -202.21826172 390.09667969 C-224.1541778 377.10534279 -242.68110307 364.65198662 -249.55630493 338.47314453 C-251.56034504 329.59148407 -251.42085578 320.8042082 -251.38818359 311.73828125 C-251.3922566 309.8264435 -251.39760255 307.9146081 -251.40411377 306.0027771 C-251.41770647 300.84575421 -251.41252216 295.68891282 -251.40297651 290.53188705 C-251.39533799 285.11410818 -251.40243711 279.696344 -251.40713501 274.27856445 C-251.4125804 265.18340285 -251.40543294 256.08831452 -251.39111328 246.99316406 C-251.37478915 236.50428424 -251.38007852 226.01557942 -251.3965925 215.52670383 C-251.41024209 206.4927525 -251.41211008 197.45885361 -251.40427649 188.42489529 C-251.39961903 183.04174879 -251.39892177 177.65868432 -251.40888596 172.27554321 C-251.41760405 167.21270248 -251.41144589 162.15008559 -251.39420319 157.08726883 C-251.39026408 155.2382812 -251.39132775 153.38927447 -251.39799118 151.54029465 C-251.44105533 138.36815107 -250.6760859 125.88374677 -244.5 113.9375 C-244.16105713 113.27121582 -243.82211426 112.60493164 -243.47290039 111.91845703 C-239.72305567 104.92756151 -234.75711859 99.42882671 -229 94 C-228.5157959 93.5354541 -228.0315918 93.0709082 -227.53271484 92.59228516 C-222.17437215 87.69960214 -216.00529265 84.24558937 -209.75 80.625 C-208.54733224 79.92172822 -207.3451113 79.21769182 -206.14331055 78.51293945 C-203.65569197 77.05497393 -201.16621205 75.60026818 -198.67529297 74.14794922 C-193.03698205 70.85719332 -187.42603053 67.52028518 -181.8125 64.1875 C-179.56257209 62.85404503 -177.31257069 61.52071403 -175.0625 60.1875 C-163.39759532 53.27329381 -151.73953475 46.34754916 -140.08056641 39.42333984 C-136.71303702 37.42340753 -133.34538749 35.42367769 -129.97764587 33.42410278 C-128.64556457 32.6331811 -127.31350282 31.84222648 -125.98146057 31.05123901 C-122.66982707 29.0848072 -119.35784926 27.11895984 -116.04516602 25.15429688 C-109.85334683 21.48127351 -103.66498715 17.8027774 -97.48815918 14.10458374 C-94.6037551 12.37809492 -91.71747405 10.65475755 -88.83105469 8.93164062 C-87.46944152 8.11761192 -86.10872644 7.30207863 -84.74902344 6.48486328 C-55.89669783 -10.85406569 -30.70552866 -17.31086899 0 0 Z M-81.93212891 16.14355469 C-85.77138487 18.46678423 -89.63807182 20.7412994 -93.50756836 23.01367188 C-102.19260436 28.11660409 -110.83387979 33.29190454 -119.46630859 38.4831543 C-129.27764843 44.37826798 -139.14034125 50.18620712 -149 56 C-164.4703537 65.11128368 -164.4703537 65.11128368 -179.87524414 74.33251953 C-183.51136024 76.52454288 -187.16443524 78.68545059 -190.83082581 80.82652283 C-193.24142224 82.23480959 -195.6492096 83.6478686 -198.05703735 85.06088257 C-199.25032104 85.75935345 -200.44492371 86.45557683 -201.64096069 87.14932251 C-220.34576836 98.00178484 -234.76256073 110.05740417 -240.62269014 131.5597325 C-242.7100958 139.96880257 -242.56837026 148.36848229 -242.53344727 156.98217773 C-242.5405223 158.84018635 -242.5492739 160.69818922 -242.55955505 162.55618286 C-242.58188055 167.55837158 -242.57914914 172.56024138 -242.57023358 177.56246066 C-242.56509002 181.75696066 -242.57244335 185.95140249 -242.57970566 190.14589649 C-242.59665104 200.04954683 -242.59319288 209.95304289 -242.57641602 219.85668945 C-242.55949664 230.03436577 -242.57533907 240.21161309 -242.6076389 250.38924259 C-242.63442562 259.1659753 -242.64158646 267.94257523 -242.63312382 276.71934468 C-242.62822146 281.94445231 -242.63026336 287.16930205 -242.65091133 292.39437675 C-242.6694121 297.31046648 -242.66313582 302.22594426 -242.63871193 307.14200211 C-242.63374952 308.93329255 -242.637073 310.72463082 -242.64986038 312.51588249 C-242.77856046 332.11269981 -237.95574939 349.71532452 -224.00463867 364.21923828 C-221.10267703 367.02328551 -217.95785919 369.16306644 -214.5390625 371.31640625 C-213.93192413 371.69975632 -213.32478577 372.08310638 -212.69924927 372.47807312 C-206.77149614 376.19607692 -200.74758466 379.74878894 -194.69436646 383.25769043 C-191.52799839 385.09344778 -188.36785319 386.93987144 -185.20703125 388.78515625 C-184.58301926 389.1491452 -183.95900726 389.51313416 -183.31608582 389.88815308 C-178.04048991 392.96841656 -172.79438132 396.09604034 -167.5625 399.25 C-160.83278762 403.30585037 -154.08192482 407.32326725 -147.3125 411.3125 C-139.49677089 415.91891172 -131.70987484 420.57084478 -123.9375 425.25 C-113.38279798 431.60140665 -102.76967688 437.84844451 -92.1328125 444.06079102 C-85.86994669 447.72015082 -79.63224637 451.41400406 -73.4375 455.1875 C-62.08526857 462.02268252 -52.07718004 467.37893463 -38.625 467.25 C-37.82578125 467.25773437 -37.0265625 467.26546875 -36.203125 467.2734375 C-21.10382844 467.22457246 -9.12141218 460.77570665 3.5625 453.1875 C4.84862477 452.42521818 6.1350892 451.66350917 7.421875 450.90234375 C16.47958777 445.5362678 25.50332528 440.11254222 34.52124023 434.67993164 C43.85008168 429.06687186 53.23901807 423.55888786 62.64257812 418.07226562 C69.21895828 414.23135983 75.76900642 410.35185888 82.29510498 406.42633057 C87.99297688 402.99976018 93.70894835 399.60429985 99.42895508 396.21484375 C102.13915109 394.60885188 104.84709011 392.99913835 107.5534668 391.38671875 C113.52096222 387.83299963 119.48813134 384.28200886 125.50904846 380.81932068 C144.39046004 369.96025747 159.12957243 359.70430526 166 338 C167.54080572 332.1615147 168.29249765 326.70088274 168.26069641 320.6714325 C168.26452196 319.88408386 168.26834751 319.09673522 168.27228898 318.28552753 C168.28252311 315.67424983 168.27864524 313.06319598 168.2746582 310.4519043 C168.27901003 308.5685913 168.28419474 306.68528006 168.29014587 304.80197144 C168.30349739 299.70473371 168.30411876 294.60757031 168.30158257 289.51031852 C168.30051011 285.24616873 168.30540333 280.98203381 168.310188 276.71788722 C168.32127018 266.65248959 168.32172803 256.58712929 168.31567383 246.52172852 C168.30963634 236.15902326 168.32194234 225.79645387 168.3432439 215.43377179 C168.36089326 206.51796885 168.36685594 197.60220902 168.36360615 188.68638927 C168.36179826 183.36971739 168.36437997 178.0531424 168.37832069 172.73648643 C168.39094852 167.73362979 168.38890824 162.73098396 168.37590981 157.72813034 C168.37355513 155.8996848 168.37623861 154.07122419 168.38453293 152.24279594 C168.46681766 132.68204673 164.58327584 116.93419355 150.65625 102.36328125 C142.49300495 95.10039411 132.80438059 89.68781889 123.24584961 84.48217773 C117.39103816 81.28957838 111.6943957 77.83890268 105.98388672 74.39770508 C102.21780574 72.12833824 98.44137866 69.87684145 94.66015625 67.6328125 C94.0494931 67.27032913 93.43882996 66.90784576 92.80966187 66.53437805 C90.8941028 65.39764616 88.97830172 64.26132286 87.0625 63.125 C85.67250327 62.30016859 84.28252988 61.47529783 82.89257812 60.65039062 C80.01978326 58.94548757 77.14689051 57.24074962 74.27392578 55.53613281 C68.17489751 51.91721809 62.07712884 48.29618245 55.97930908 44.67523193 C53.99720307 43.4983393 52.01497638 42.32165019 50.03271484 41.14501953 C43.20083695 37.08955494 36.37059933 33.03136165 29.54296875 28.96875 C23.47279992 25.35689706 17.39881667 21.75155697 11.32035828 18.15367126 C7.59308077 15.94685524 3.87303696 13.7283667 0.15625 11.50390625 C-30.6826128 -6.83050342 -52.20104476 -1.909282 -81.93212891 16.14355469 Z " fill="#FCFDFD" transform="translate(467,59)"/>
<path d="M0 0 C0 4.29 0 8.58 0 13 C1.65 12.34 3.3 11.68 5 11 C7.45703125 10.8046875 7.45703125 10.8046875 9.8125 10.875 C10.99779297 10.90207031 10.99779297 10.90207031 12.20703125 10.9296875 C12.79871094 10.95289063 13.39039063 10.97609375 14 11 C15.11339902 15.06761775 14.81050027 17.72582478 13.625 21.75 C13.34914063 22.71421875 13.07328125 23.6784375 12.7890625 24.671875 C12 27 12 27 11 28 C8.9820924 28.27261013 6.96044946 28.51774403 4.9375 28.75 C-1.79683838 29.76162759 -6.90699387 31.30777901 -11.37109375 36.63671875 C-14.03413426 40.73724826 -14.55247982 44.21184153 -14 49 C-12.27773504 52.24849977 -12.27773504 52.24849977 -9 53 C-6.77204 53.12739288 -4.54250336 53.22812149 -2.3125 53.3125 C3.52854121 53.71034182 8.34156382 54.26855742 13 58 C18.61432337 65.05389347 18.3740492 71.31374645 18 80 C16.67061006 89.30572961 11.99134255 99.91303211 4.625 105.875 C1.52160431 108.58309624 1.03842742 109.6666253 0.5546875 113.86328125 C0.50182633 116.01977121 0.49997399 118.17228862 0.50366211 120.3293457 C0.42983096 123.58062228 0.33887084 125.55923093 -1.67578125 128.1796875 C-3.83800875 129.5790084 -5.47722095 130.48046665 -8 131 C-9.32 130.67 -10.64 130.34 -12 130 C-12 126.04 -12 122.08 -12 118 C-12.78375 118.33 -13.5675 118.66 -14.375 119 C-18.95090613 120.26231893 -23.27560649 120.38257801 -28 120 C-29 119 -29 119 -29.25 116 C-29.1844313 111.48512641 -28.09094617 107.009798 -26 103 C-23.08792376 102.02930792 -21.88107241 102.01494159 -18.9375 102.25 C-12.58857693 102.3121428 -7.00336798 99.74373103 -2.328125 95.47265625 C1.10938574 91.49929825 3.283983 87.77376061 3.4375 82.5 C3.47746094 81.7471875 3.51742187 80.994375 3.55859375 80.21875 C3.13383674 77.78802254 3.13383674 77.78802254 0.9375 75.75390625 C-2.71869508 73.57088552 -5.20152888 73.50148748 -9.4375 73.4375 C-15.50293083 73.33345124 -19.98989436 72.68121048 -24.64453125 68.53515625 C-29.91518549 61.88954873 -29.66473184 55.26701708 -29 47 C-27.01642872 38.35162921 -22.77736437 29.86666953 -15.6875 24.375 C-12.79157778 21.74098289 -12.64574162 19.24867932 -12.42895508 15.42822266 C-12.37670252 13.43978803 -12.38652681 11.4500229 -12.3984375 9.4609375 C-12 6 -12 6 -10.13671875 3.65234375 C-3.78303965 -1.26101322 -3.78303965 -1.26101322 0 0 Z " fill="#FAFAFA" transform="translate(492,317)"/>
<path d="M0 0 C0.86323729 4.24626694 1.0861807 7.77908391 0 12 C-3.88740302 15.92438188 -8.53968885 18.32072311 -13.375 20.875 C-14.64167242 21.58436249 -15.9060284 22.29787804 -17.16796875 23.015625 C-19.61974814 24.403393 -22.08350555 25.7641822 -24.56152344 27.10449219 C-28.47415116 29.26138239 -32.26311744 31.57833131 -36.03369141 33.97314453 C-38 35 -38 35 -41 35 C-41.24488368 33.13162819 -41.41850119 31.25384156 -41.5625 29.375 C-41.66691406 28.33085937 -41.77132812 27.28671875 -41.87890625 26.2109375 C-40.45517352 21.00956724 -36.49171317 19.60268915 -32 17 C-30.31258965 15.94494733 -28.62534389 14.8896148 -26.94187927 13.82827759 C-24.49861243 12.29482059 -22.0388336 10.78903962 -19.57788086 9.28417969 C-18.30632851 8.50446503 -17.037153 7.7208623 -15.77026367 6.93359375 C-13.91840435 5.78303448 -12.05978637 4.64422106 -10.19921875 3.5078125 C-9.10440186 2.83379395 -8.00958496 2.15977539 -6.8815918 1.46533203 C-4 0 -4 0 0 0 Z " fill="#3BAD49" transform="translate(570,397)"/>
<path d="M0 0 C0.77601563 0.16242187 1.55203125 0.32484375 2.3515625 0.4921875 C7.0476231 1.14581478 11.64022312 1.1450061 16.375 1.125 C17.2825 1.12886719 18.19 1.13273438 19.125 1.13671875 C24.50865729 1.12896132 29.67353182 0.78587235 35 0 C32.96474056 5.08814859 29.43695654 6.86818367 24.6796875 9.046875 C17.72470406 11.5206592 11.76375448 10.16160519 5.109375 7.2890625 C2.09675591 5.4480175 1.05214871 3.3067531 0 0 Z " fill="#CCCCCC" transform="translate(413,534)"/>
<path d="M0 0 C0.66 0.33 1.32 0.66 2 1 C-2.42796313 10.56126551 -7.7299629 17.87614412 -15.0625 25.375 C-15.82252319 26.16173096 -15.82252319 26.16173096 -16.59790039 26.96435547 C-19.52604657 29.88630502 -22.02615778 31.7896187 -26 33 C-24.72660959 29.17982877 -23.40831554 28.97555162 -20 27 C-14.51081803 22.22357859 -10.34177147 17.43600431 -7 11 C-6.319375 10.154375 -5.63875 9.30875 -4.9375 8.4375 C-2.8235768 5.77804823 -1.42918512 3.072748 0 0 Z " fill="#D4D4D4" transform="translate(639,412)"/>
<path d="M0 0 C5.28 0 10.56 0 16 0 C13 3 13 3 10.625 3.3984375 C9.75875 3.39070312 8.8925 3.38296875 8 3.375 C7.13375 3.38273438 6.2675 3.39046875 5.375 3.3984375 C3 3 3 3 0 0 Z " fill="#C2C2C2" transform="translate(422,536)"/>
<path d="M0 0 C0 0.99 0 1.98 0 3 C-3.0080208 6.0080208 -5.85463326 6.5289356 -10 7 C-10 6.34 -10 5.68 -10 5 C-6.66666667 3.33333333 -3.33333333 1.66666667 0 0 Z " fill="#D7D7D7" transform="translate(467,530)"/>
</svg>
