<?xml version="1.0" encoding="UTF-8"?>
<svg version="1.1" xmlns="http://www.w3.org/2000/svg" width="894" height="894">
<path d="M0 0 C1.58730252 -0.00402717 3.17460403 -0.00846741 4.76190436 -0.01327956 C9.08075556 -0.02511018 13.39959568 -0.03086155 17.71845984 -0.03546071 C22.39357194 -0.04146836 27.06867112 -0.05306439 31.74377441 -0.06375122 C43.00951716 -0.08815116 54.27526413 -0.10288045 65.5410251 -0.11581129 C68.72848932 -0.11953116 71.91595312 -0.12350368 75.10341692 -0.12756395 C94.94609866 -0.15279942 114.78878122 -0.17482706 134.63147545 -0.1872921 C139.21620054 -0.19022119 143.8009256 -0.19318295 148.38565063 -0.19619751 C150.09465616 -0.19731659 150.09465616 -0.19731659 151.83818705 -0.19845827 C170.28232455 -0.21110403 188.72636549 -0.24432531 207.17045788 -0.28599934 C226.1541324 -0.32853742 245.13775761 -0.35200043 264.12147963 -0.35721266 C274.76103888 -0.3606124 285.40044694 -0.37219777 296.03995895 -0.4053154 C305.10237348 -0.43348025 314.16460573 -0.44424353 323.2270606 -0.43311994 C327.83991474 -0.42797587 332.45238815 -0.430539 337.06518555 -0.45558548 C378.40107219 -0.66765922 412.83391399 5.9678947 443.23379517 35.61483765 C464.12806055 57.68211442 473.52948566 86.39913172 472.88613892 116.4703064 C472.19027293 137.41032263 465.30074737 155.31586868 456.50332642 174.1187439 C453.33462836 180.90589801 450.36217843 187.77588299 447.39785767 194.65390015 C446.8442702 195.93663316 446.2906404 197.2193479 445.73696899 198.50204468 C444.89767718 200.44697047 444.05863095 202.39200075 443.2202301 204.33731079 C441.31601401 208.7549014 439.40282918 213.16850934 437.48379517 217.5796814 C431.28048816 231.84406431 425.15428246 246.13898922 419.09048462 260.46322632 C414.73716452 270.745176 410.3585229 281.01605242 405.96035767 291.27890015 C405.48032791 292.39934219 405.48032791 292.39934219 404.99060059 293.54241943 C401.69410383 301.23445431 398.38420194 308.91981762 395.02407837 316.58432007 C387.76682017 333.14244765 380.86399066 349.85123834 373.89608765 366.53251648 C364.15995413 389.83661289 354.17103637 413.02685306 344.08535767 436.1812439 C343.27282216 438.04711385 342.46032136 439.91299892 341.64785767 441.77890015 C341.25276001 442.68575562 340.85766235 443.59261108 340.45059204 444.52694702 C337.67432893 450.90921263 334.93230426 457.30563667 332.20010376 463.70687866 C316.92679206 499.46872064 316.92679206 499.46872064 307.68447876 516.36581421 C306.84291183 517.91058519 306.01908495 519.4649962 305.19863892 521.02108765 C292.36176384 545.22356273 276.13802188 566.69655808 257.73770142 586.9078064 C255.96004779 588.87726851 254.2382563 590.88049976 252.52285767 592.90390015 C244.58331578 601.98555711 235.928638 610.48970869 226.46035767 617.9624939 C223.99538655 619.92676776 221.60959831 621.9601924 219.23330688 624.03012085 C189.37827397 649.89927241 152.96491547 669.3025831 115.71035767 682.15390015 C114.84442993 682.45650757 113.9785022 682.75911499 113.08633423 683.07089233 C63.75451032 700.13749579 11.60219886 705.64925398 -40.28964233 700.15390015 C-41.71010864 700.01709839 -41.71010864 700.01709839 -43.15927124 699.87753296 C-76.78900165 696.61473358 -109.24908041 687.33758241 -140.28964233 674.15390015 C-141.01602905 673.85048706 -141.74241577 673.54707397 -142.49081421 673.23446655 C-163.17373058 664.56355161 -183.04576807 654.22171855 -201.28964233 641.15390015 C-202.07033081 640.60089233 -202.85101929 640.04788452 -203.65536499 639.4781189 C-214.73045777 631.60762986 -225.22291335 623.27590098 -235.28964233 614.15390015 C-235.86440308 613.63553589 -236.43916382 613.11717163 -237.03134155 612.58309937 C-246.20112293 604.29157985 -255.30596037 595.8619804 -263.33651733 586.44296265 C-264.84839585 584.67104103 -266.38449074 582.91976629 -267.93026733 581.17733765 C-280.00525252 567.49114452 -290.45775444 552.51385851 -300.28964233 537.15390015 C-300.6494519 536.59267456 -301.00926147 536.03144897 -301.37997437 535.45321655 C-347.40273358 462.92168411 -363.23472706 373.40602033 -348.28964233 289.15390015 C-348.11449097 288.1587439 -347.9393396 287.16358765 -347.75888062 286.13827515 C-340.60974363 246.56340401 -326.40316816 207.43843453 -305.28964233 173.15390015 C-304.65904907 172.11290161 -304.65904907 172.11290161 -304.01571655 171.0508728 C-291.80032646 150.92710406 -277.86094716 132.17219511 -261.84042358 114.9234314 C-259.79410723 112.70162697 -257.8089981 110.45356277 -255.85214233 108.15390015 C-248.54847057 99.76949413 -240.61913812 92.18776631 -231.91073608 85.2828064 C-229.40722215 83.24940089 -227.07411138 81.11446415 -224.72714233 78.90390015 C-202.38221415 58.60961411 -174.71000234 43.78055512 -147.50692749 31.18466187 C-145.70268596 30.34591404 -143.90693975 29.48891034 -142.11386108 28.6265564 C-134.07925559 24.81042359 -125.717958 21.95429145 -117.28964233 19.15390015 C-116.37328003 18.84549194 -115.45691772 18.53708374 -114.51278687 18.21932983 C-77.33855423 5.82585956 -39.17898846 0.01097712 0 0 Z M289.71035767 75.15390015 C277.85205569 89.45915332 271.21674238 107.63846326 272.90615845 126.31893921 C273.98672235 134.97488501 275.82240604 143.29865094 279.71035767 151.15390015 C280.13059204 152.04335327 280.55082642 152.9328064 280.98379517 153.84921265 C288.53570989 168.82787224 301.97495961 180.83628959 317.91348267 186.23983765 C337.31718397 192.37419165 356.36517006 192.06978043 375.02285767 183.40390015 C393.21558669 173.64908566 404.5131517 158.01149343 410.76504517 138.6968689 C415.5881235 120.62029019 412.46968337 102.38618693 403.71035767 86.15390015 C393.16451264 68.89901143 378.14438735 58.19084173 358.71035767 53.15390015 C332.97108606 47.8619724 307.92194233 56.19389419 289.71035767 75.15390015 Z M-185.28964233 137.15390015 C-185.87882446 137.65840698 -186.46800659 138.16291382 -187.07504272 138.68270874 C-199.82411428 149.63871798 -212.1363389 161.73334225 -222.28964233 175.15390015 C-223.44013062 176.57895874 -223.44013062 176.57895874 -224.61386108 178.0328064 C-240.5916076 198.07396726 -253.92212371 221.30041596 -263.28964233 245.15390015 C-263.60352905 245.94635132 -263.91741577 246.73880249 -264.24081421 247.55526733 C-277.46147103 281.32850469 -284.39350025 316.85555754 -284.28964233 353.15390015 C-284.29222046 353.98792358 -284.29479858 354.82194702 -284.29745483 355.6812439 C-284.04891048 433.3513539 -247.99197562 503.62631856 -194.0718689 557.62509155 C-188.05376167 563.55347059 -181.8069739 568.90713107 -174.9961853 573.89608765 C-173.24325089 575.18809309 -171.51774668 576.51134543 -169.79354858 577.84140015 C-159.80196055 585.46638088 -149.18956561 591.91656276 -138.28964233 598.15390015 C-137.22689087 598.76878296 -137.22689087 598.76878296 -136.14266968 599.39608765 C-123.43876185 606.68516496 -109.97983421 612.01233487 -96.28964233 617.15390015 C-95.4841394 617.45956909 -94.67863647 617.76523804 -93.84872437 618.08016968 C-26.49007728 643.28946683 52.36612164 636.0816079 117.01113892 606.8453064 C142.76257145 594.86615412 166.31840005 579.07941482 187.02676392 559.6499939 C189.3132074 557.52330192 191.64022851 555.48317454 194.02285767 553.46640015 C197.28398348 550.634723 200.09875561 547.58146236 202.88613892 544.28671265 C204.81043116 542.03689773 206.81871552 539.88364763 208.83535767 537.71640015 C227.10600548 517.39844715 242.06277484 493.82673689 253.71035767 469.15390015 C254.52246704 467.44460327 254.52246704 467.44460327 255.35098267 465.70077515 C270.66698379 432.5879202 278.76828451 395.56707553 279.71035767 359.15390015 C279.7503186 357.95636108 279.79027954 356.75882202 279.83145142 355.5249939 C280.60469438 311.17723579 270.51998609 266.79309624 250.71035767 227.15390015 C250.36311646 226.44620483 250.01587524 225.73850952 249.65811157 225.0093689 C240.45903567 206.36161416 228.99203913 189.14047981 215.71035767 173.15390015 C215.25032349 172.59766968 214.79028931 172.04143921 214.3163147 171.46835327 C211.15670578 167.65980845 207.95038237 163.89417782 204.71035767 160.15390015 C203.9150061 159.23350952 203.11965454 158.3131189 202.30020142 157.36483765 C198.39894118 152.93493323 194.4271709 148.8432097 189.90957642 145.04452515 C187.26125021 142.76781133 184.74908484 140.36465794 182.21035767 137.96640015 C126.52100919 86.36687743 51.42598875 67.52501116 -22.63327026 70.03738403 C-81.91288273 72.6375582 -141.09634896 97.86440804 -185.28964233 137.15390015 Z " fill="#AD9C6F" transform="translate(387.2896423339844,95.84609985351563)"/>
<path d="M0 0 C6.32373638 5.25863717 11.26569913 11.09169719 15.66259766 18.07006836 C16.13052734 18.77260742 16.59845703 19.47514648 17.08056641 20.19897461 C27.05160036 36.36738966 28.68358334 56.27926759 24.63525391 74.46850586 C19.28519794 94.27875326 7.04530284 109.52748904 -10.33740234 120.07006836 C-27.05088536 129.49695375 -46.41268683 131.68417323 -64.93505859 127.10131836 C-76.22091327 123.6805771 -85.34779471 118.69483046 -94.33740234 111.07006836 C-95.06572266 110.45518555 -95.79404297 109.84030273 -96.54443359 109.20678711 C-108.7731686 97.94284382 -117.27086459 80.94900908 -118.54272461 64.39819336 C-119.32784258 42.2301564 -114.55928453 23.75499443 -99.33740234 7.07006836 C-98.82048828 6.46163086 -98.30357422 5.85319336 -97.77099609 5.22631836 C-72.64551112 -22.48098337 -28.25404896 -22.20304699 0 0 Z " fill="#AC9B6D" transform="translate(267.33740234375,332.929931640625)"/>
<path d="M0 0 C15.31423735 11.96363201 23.72622381 27.57753891 27.671875 46.41015625 C29.21625605 58.99769216 27.80333021 70.34444796 24.03515625 82.37109375 C23.75800781 83.28375 23.48085938 84.19640625 23.1953125 85.13671875 C17.27132733 102.06239066 3.50548801 115.04932518 -11.96484375 123.37109375 C-29.29592925 131.54913754 -48.71725559 133.14015699 -66.96337891 127.09863281 C-86.66697419 119.93631103 -101.33795419 107.06540362 -110.42578125 88.0390625 C-118.94068482 67.74592938 -118.78934363 47.88523697 -110.484375 27.51171875 C-101.09339339 8.10208066 -85.32451337 -4.56377021 -65.4140625 -11.9453125 C-42.74768255 -18.93269279 -18.93196121 -14.01045108 0 0 Z " fill="#AC9B6D" transform="translate(592.96484375,331.62890625)"/>
<path d="M0 0 C15.43750093 12.10823244 25.59811502 28.78747811 28.04296875 48.38671875 C29.69361058 67.61289376 25.69746443 85.74019918 13.875 101.2265625 C11.69281947 103.73317341 9.42227479 106.06739521 7.04296875 108.38671875 C6.30691406 109.155 5.57085938 109.92328125 4.8125 110.71484375 C-9.15700812 124.47375627 -27.67206437 129.64845602 -46.77661133 129.70800781 C-54.78247642 129.60560802 -61.43122316 128.21501334 -68.95703125 125.38671875 C-69.85550781 125.08636719 -70.75398438 124.78601563 -71.6796875 124.4765625 C-88.17634986 118.5867186 -100.95284925 105.39508275 -108.64453125 90.01171875 C-116.78729248 72.78664692 -119.1557695 52.72790107 -112.921875 34.33203125 C-108.45280445 23.03720986 -102.44783465 14.04847792 -93.95703125 5.38671875 C-93.291875 4.68546875 -92.62671875 3.98421875 -91.94140625 3.26171875 C-67.08950945 -21.02105064 -26.80802459 -19.76757423 0 0 Z " fill="#A69469" transform="translate(530.95703125,526.61328125)"/>
<path d="M0 0 C3.66101999 3.00081854 6.96617469 6.28059118 10.24755859 9.68798828 C10.91142578 10.33251953 11.57529297 10.97705078 12.25927734 11.64111328 C25.91395292 25.75605883 29.65844862 44.59253841 29.39208984 63.51220703 C28.87084652 82.44223892 20.05099313 99.6333854 6.43505859 112.56298828 C-11.31115286 127.43442405 -30.07634246 131.92559227 -52.75244141 130.68798828 C-56.96407227 130.11161207 -60.76080203 129.13263683 -64.75244141 127.68798828 C-65.74244141 127.33607422 -66.73244141 126.98416016 -67.75244141 126.62158203 C-86.9077754 119.21843637 -99.95903071 106.34674886 -109.02197266 88.13720703 C-116.73942069 70.47667988 -116.33289818 52.673781 -110.75244141 34.68798828 C-110.47529297 33.77404297 -110.19814453 32.86009766 -109.91259766 31.91845703 C-104.03314428 15.14711305 -90.24098893 1.76701716 -74.75244141 -6.31201172 C-70.21758139 -8.38102666 -65.5291984 -9.90325315 -60.75244141 -11.31201172 C-60.01123047 -11.55693359 -59.27001953 -11.80185547 -58.50634766 -12.05419922 C-39.38292691 -17.49673222 -15.70889737 -11.76088249 0 0 Z " fill="#A69469" transform="translate(325.75244140625,525.31201171875)"/>
<path d="M0 0 C6.00628866 4.66523639 10.81970862 9.5709401 15.07421875 15.8671875 C15.60789062 16.63675781 16.1415625 17.40632813 16.69140625 18.19921875 C26.05443261 32.61641605 28.47948379 51.2632298 25.42578125 68.05859375 C20.96503194 86.34004073 10.78639485 100.67286154 -4.92578125 110.8671875 C-21.40330894 120.56366185 -39.15166642 124.23841381 -57.92578125 119.8671875 C-76.89220409 114.50772201 -92.11315992 103.54502613 -102.16796875 86.38671875 C-110.38895864 69.92647011 -113.11904263 50.88895421 -107.25390625 33.2109375 C-99.59085817 13.91808704 -88.03091512 -0.12978124 -68.92578125 -9.1328125 C-44.45848002 -17.72378593 -21.03978871 -15.33741607 0 0 Z " fill="#B09F71" transform="translate(426.92578125,225.1328125)"/>
<path d="M0 0 C1.58730252 -0.00402717 3.17460403 -0.00846741 4.76190436 -0.01327956 C9.08075556 -0.02511018 13.39959568 -0.03086155 17.71845984 -0.03546071 C22.39357194 -0.04146836 27.06867112 -0.05306439 31.74377441 -0.06375122 C43.00951716 -0.08815116 54.27526413 -0.10288045 65.5410251 -0.11581129 C68.72848932 -0.11953116 71.91595312 -0.12350368 75.10341692 -0.12756395 C94.94609866 -0.15279942 114.78878122 -0.17482706 134.63147545 -0.1872921 C139.21620054 -0.19022119 143.8009256 -0.19318295 148.38565063 -0.19619751 C150.09465616 -0.19731659 150.09465616 -0.19731659 151.83818705 -0.19845827 C170.28232455 -0.21110403 188.72636549 -0.24432531 207.17045788 -0.28599934 C226.1541324 -0.32853742 245.13775761 -0.35200043 264.12147963 -0.35721266 C274.76103888 -0.3606124 285.40044694 -0.37219777 296.03995895 -0.4053154 C305.10237348 -0.43348025 314.16460573 -0.44424353 323.2270606 -0.43311994 C327.83991474 -0.42797587 332.45238815 -0.430539 337.06518555 -0.45558548 C378.40107219 -0.66765922 412.83391399 5.9678947 443.23379517 35.61483765 C464.12806055 57.68211442 473.52948566 86.39913172 472.88613892 116.4703064 C472.19027293 137.41032263 465.30074737 155.31586868 456.50332642 174.1187439 C453.33462836 180.90589801 450.36217843 187.77588299 447.39785767 194.65390015 C446.8442702 195.93663316 446.2906404 197.2193479 445.73696899 198.50204468 C444.89767718 200.44697047 444.05863095 202.39200075 443.2202301 204.33731079 C441.31601401 208.7549014 439.40282918 213.16850934 437.48379517 217.5796814 C431.28048816 231.84406431 425.15428246 246.13898922 419.09048462 260.46322632 C414.73716452 270.745176 410.3585229 281.01605242 405.96035767 291.27890015 C405.48032791 292.39934219 405.48032791 292.39934219 404.99060059 293.54241943 C401.69410383 301.23445431 398.38420194 308.91981762 395.02407837 316.58432007 C387.76682017 333.14244765 380.86399066 349.85123834 373.89608765 366.53251648 C364.15995413 389.83661289 354.17103637 413.02685306 344.08535767 436.1812439 C343.27282216 438.04711385 342.46032136 439.91299892 341.64785767 441.77890015 C341.25276001 442.68575562 340.85766235 443.59261108 340.45059204 444.52694702 C337.67432893 450.90921263 334.93230426 457.30563667 332.20010376 463.70687866 C316.92679206 499.46872064 316.92679206 499.46872064 307.68447876 516.36581421 C306.84291183 517.91058519 306.01908495 519.4649962 305.19863892 521.02108765 C292.36176384 545.22356273 276.13802188 566.69655808 257.73770142 586.9078064 C255.96004779 588.87726851 254.2382563 590.88049976 252.52285767 592.90390015 C244.58331578 601.98555711 235.928638 610.48970869 226.46035767 617.9624939 C223.99538655 619.92676776 221.60959831 621.9601924 219.23330688 624.03012085 C189.37827397 649.89927241 152.96491547 669.3025831 115.71035767 682.15390015 C114.84442993 682.45650757 113.9785022 682.75911499 113.08633423 683.07089233 C63.75451032 700.13749579 11.60219886 705.64925398 -40.28964233 700.15390015 C-41.71010864 700.01709839 -41.71010864 700.01709839 -43.15927124 699.87753296 C-76.78900165 696.61473358 -109.24908041 687.33758241 -140.28964233 674.15390015 C-141.01602905 673.85048706 -141.74241577 673.54707397 -142.49081421 673.23446655 C-163.17373058 664.56355161 -183.04576807 654.22171855 -201.28964233 641.15390015 C-202.07033081 640.60089233 -202.85101929 640.04788452 -203.65536499 639.4781189 C-214.73045777 631.60762986 -225.22291335 623.27590098 -235.28964233 614.15390015 C-235.86440308 613.63553589 -236.43916382 613.11717163 -237.03134155 612.58309937 C-246.20112293 604.29157985 -255.30596037 595.8619804 -263.33651733 586.44296265 C-264.84839585 584.67104103 -266.38449074 582.91976629 -267.93026733 581.17733765 C-280.00525252 567.49114452 -290.45775444 552.51385851 -300.28964233 537.15390015 C-300.6494519 536.59267456 -301.00926147 536.03144897 -301.37997437 535.45321655 C-347.40273358 462.92168411 -363.23472706 373.40602033 -348.28964233 289.15390015 C-348.11449097 288.1587439 -347.9393396 287.16358765 -347.75888062 286.13827515 C-340.60974363 246.56340401 -326.40316816 207.43843453 -305.28964233 173.15390015 C-304.65904907 172.11290161 -304.65904907 172.11290161 -304.01571655 171.0508728 C-291.80032646 150.92710406 -277.86094716 132.17219511 -261.84042358 114.9234314 C-259.79410723 112.70162697 -257.8089981 110.45356277 -255.85214233 108.15390015 C-248.54847057 99.76949413 -240.61913812 92.18776631 -231.91073608 85.2828064 C-229.40722215 83.24940089 -227.07411138 81.11446415 -224.72714233 78.90390015 C-202.38221415 58.60961411 -174.71000234 43.78055512 -147.50692749 31.18466187 C-145.70268596 30.34591404 -143.90693975 29.48891034 -142.11386108 28.6265564 C-134.07925559 24.81042359 -125.717958 21.95429145 -117.28964233 19.15390015 C-116.37328003 18.84549194 -115.45691772 18.53708374 -114.51278687 18.21932983 C-77.33855423 5.82585956 -39.17898846 0.01097712 0 0 Z M-42.21762085 5.98312378 C-42.96268446 6.06400268 -43.70774807 6.14488157 -44.47538936 6.22821134 C-90.57039651 11.3593694 -136.54362899 26.1065307 -176.28964233 50.15390015 C-176.91693237 50.53272339 -177.54422241 50.91154663 -178.19052124 51.30184937 C-193.77134291 60.76509537 -208.48037996 70.98525365 -222.48690796 82.65975952 C-224.14361892 84.03287316 -225.81316628 85.38707348 -227.49276733 86.73202515 C-232.20902093 90.52049115 -236.69275417 94.34519091 -240.85214233 98.7437439 C-242.28964233 100.15390015 -242.28964233 100.15390015 -245.28964233 102.15390015 C-245.28964233 102.81390015 -245.28964233 103.47390015 -245.28964233 104.15390015 C-245.88043579 104.4156604 -246.47122925 104.67742065 -247.07992554 104.94711304 C-249.41313125 106.22134084 -250.83768508 107.52485064 -252.64511108 109.4624939 C-253.26273315 110.12112427 -253.88035522 110.77975464 -254.51669312 111.45834351 C-255.16364136 112.1622522 -255.8105896 112.86616089 -256.47714233 113.59140015 C-257.48623657 114.68110107 -257.48623657 114.68110107 -258.51571655 115.79281616 C-263.67581653 121.40332216 -268.60820509 127.1360259 -273.28964233 133.15390015 C-273.82959839 133.84258179 -274.36955444 134.53126343 -274.9258728 135.24081421 C-276.74185069 137.56049038 -278.5485989 139.88704584 -280.35214233 142.21640015 C-281.2302356 143.34356445 -281.2302356 143.34356445 -282.12606812 144.49349976 C-282.66602417 145.19740845 -283.20598022 145.90131714 -283.76229858 146.6265564 C-284.24964478 147.25827759 -284.73699097 147.88999878 -285.23910522 148.54086304 C-286.47155617 150.11238935 -286.47155617 150.11238935 -286.28964233 152.15390015 C-286.94964233 152.15390015 -287.60964233 152.15390015 -288.28964233 152.15390015 C-289.71243232 153.91277042 -289.71243232 153.91277042 -291.10995483 156.2046814 C-291.64491577 157.0483728 -292.17987671 157.89206421 -292.73104858 158.76132202 C-293.28663452 159.6539978 -293.84222046 160.54667358 -294.41464233 161.46640015 C-294.97796265 162.34747437 -295.54128296 163.22854858 -296.12167358 164.13632202 C-299.30724561 168.79199862 -299.30724561 168.79199862 -300.28964233 174.15390015 C-300.94964233 174.15390015 -301.60964233 174.15390015 -302.28964233 174.15390015 C-303.46118527 176.44319068 -304.62702307 178.73508376 -305.78964233 181.02890015 C-306.12350952 181.67987671 -306.45737671 182.33085327 -306.80136108 183.0015564 C-308.65807951 186.40634725 -308.65807951 186.40634725 -309.28964233 190.15390015 C-309.94964233 190.15390015 -310.60964233 190.15390015 -311.28964233 190.15390015 C-314.92121413 197.2878574 -318.22514162 204.45560352 -321.16464233 211.90390015 C-322.60740312 215.55226075 -324.18247531 219.10397746 -325.85214233 222.65390015 C-327.82235522 226.91968217 -329.31111722 231.13088348 -330.51620483 235.66952515 C-331.28964233 238.15390015 -331.28964233 238.15390015 -332.75057983 241.45858765 C-334.40221871 245.22680123 -335.37006511 249.02866706 -336.28964233 253.02890015 C-337.30312827 257.28650859 -338.31757342 261.48582572 -339.85214233 265.59140015 C-341.98751057 271.72197346 -342.82046361 278.18640071 -343.86288452 284.57284546 C-344.32552685 287.37093167 -344.81024114 290.16467864 -345.29745483 292.95858765 C-345.64937868 295.0027963 -346.00094347 297.04706681 -346.35214233 299.09140015 C-346.51448364 300.01831665 -346.67682495 300.94523315 -346.84408569 301.90023804 C-349.52650615 317.76725228 -350.66777955 333.38343911 -350.60214233 349.46640015 C-350.60065186 350.37710266 -350.59916138 351.28780518 -350.59762573 352.22610474 C-350.5504702 368.36068676 -349.57515658 384.16505713 -347.28964233 400.15390015 C-347.1451062 401.19594604 -347.00057007 402.23799194 -346.85165405 403.31161499 C-344.15173426 422.31869151 -340.20603809 441.3142682 -333.35995483 459.2906189 C-332.42329778 461.79634743 -331.67161471 464.26130339 -330.97714233 466.84140015 C-328.77803213 474.42583136 -325.39566878 481.62019877 -322.27108765 488.85751343 C-321.40918279 490.87419927 -320.57226428 492.89793238 -319.75057983 494.9312439 C-316.24585113 503.47769128 -311.94948133 511.36124151 -307.3296814 519.33651733 C-305.88981361 521.852568 -304.5276313 524.40806257 -303.16464233 526.96640015 C-298.49684604 535.54539938 -293.11570438 543.56371853 -287.31307983 551.41171265 C-285.98870418 553.20652289 -284.68064363 555.0135156 -283.39120483 556.83358765 C-278.08719718 564.30249639 -272.27878603 571.23431633 -266.28964233 578.15390015 C-265.6721814 578.87319702 -265.05472046 579.5924939 -264.41854858 580.33358765 C-260.90221676 584.39802875 -257.28916752 588.37360685 -253.66464233 592.34140015 C-253.20895874 592.84099243 -252.75327515 593.34058472 -252.28378296 593.85531616 C-249.36364257 597.03769702 -246.44767205 600.20604647 -243.28964233 603.15390015 C-242.62964233 603.15390015 -241.96964233 603.15390015 -241.28964233 603.15390015 C-241.28964233 603.81390015 -241.28964233 604.47390015 -241.28964233 605.15390015 C-239.73723893 606.54715968 -238.11934248 607.86770143 -236.47714233 609.15390015 C-231.25508075 613.31396216 -226.36159289 617.70444317 -221.50448608 622.2828064 C-219.51824343 624.36901284 -219.51824343 624.36901284 -217.28964233 624.15390015 C-217.28964233 624.81390015 -217.28964233 625.47390015 -217.28964233 626.15390015 C-215.31636861 627.55901766 -213.33338649 628.85905091 -211.28964233 630.15390015 C-210.06436104 630.98669296 -208.84313308 631.82547407 -207.62557983 632.66952515 C-204.17736777 635.04997931 -200.72533012 637.42473956 -197.27011108 639.79501343 C-195.53605513 640.98482549 -193.80336036 642.17662087 -192.07089233 643.3687439 C-176.09213092 654.21454297 -158.44410895 664.4573287 -140.28964233 671.15390015 C-138.32786183 671.95804126 -136.36972924 672.77111916 -134.41464233 673.59140015 C-132.89290405 674.2236853 -132.89290405 674.2236853 -131.34042358 674.8687439 C-129.37214797 675.69788945 -127.41053896 676.54313075 -125.45761108 677.4078064 C-112.75481378 682.95116117 -99.24644891 686.41986852 -85.77597046 689.57089233 C-83.96844439 689.99473093 -82.16267198 690.42606987 -80.35800171 690.86190796 C-21.11086253 705.05165188 47.11436766 704.14858287 104.75088501 682.83676147 C107.0091511 682.04977291 109.28908568 681.38029409 111.58535767 680.7124939 C116.61633791 679.2249156 121.47110607 677.42654858 126.33535767 675.46640015 C127.20362183 675.11682251 128.07188599 674.76724487 128.96646118 674.40707397 C136.34633686 671.38757242 143.46473227 667.99518409 150.52481079 664.29598999 C152.98091452 663.01251666 155.44696927 661.74927848 157.91348267 660.4859314 C179.22771297 649.51800755 199.50797584 636.8409454 217.71035767 621.15390015 C218.82559218 620.21042187 219.94152248 619.26776567 221.05801392 618.32577515 C233.90890315 607.44435735 246.76104569 596.30378473 257.72207642 583.4781189 C259.24817023 581.69417819 260.79677475 579.9294744 262.35488892 578.1734314 C273.35573868 565.70322708 282.96529714 552.25284744 291.79629517 538.1734314 C293.39354124 535.65369422 295.05579286 533.21676489 296.77285767 530.77890015 C300.7493499 524.86939086 303.71015742 518.3807504 306.81582642 511.98690796 C307.94366308 509.67582781 309.10751281 507.38375615 310.27285767 505.09140015 C317.16675606 491.28046947 323.62704156 477.2074718 328.78848267 462.65390015 C329.92023122 459.58475154 331.22786786 456.62480555 332.58535767 453.6499939 C333.96571637 450.58732302 335.27318749 447.49638455 336.58535767 444.40390015 C338.56666619 439.75755698 340.62295698 435.16201164 342.77285767 430.59140015 C345.28916084 425.19744477 347.46072275 419.72601394 349.55801392 414.1578064 C351.62933614 408.75832576 353.98160589 403.53376857 356.64785767 398.40390015 C358.97694781 393.83705672 360.68425746 389.05200743 362.48770142 384.2593689 C363.73884852 381.0815352 365.17994106 378.10282364 366.75723267 375.0796814 C368.2027073 372.15911174 369.33727576 369.12872885 370.52285767 366.0953064 C371.94968462 362.56109358 373.48212897 359.07691396 375.02285767 355.59140015 C377.50062368 349.97734776 379.89284355 344.33594697 382.21035767 338.65390015 C384.46860919 333.11894522 386.79464126 327.62197067 389.21035767 322.15390015 C391.66230269 316.60092539 394.03220428 311.02026303 396.33535767 305.40390015 C396.77404175 304.33450195 396.77404175 304.33450195 397.22158813 303.24349976 C398.514419 300.08669766 399.80211473 296.92789624 401.08535767 293.7671814 C403.35104888 288.23747878 405.80745424 282.89579533 408.52676392 277.57577515 C410.09391045 274.36907267 411.39531957 271.08720505 412.69082642 267.76327515 C415.93400599 259.46272359 419.51631512 251.3092925 423.11929321 243.16073608 C424.98432878 238.90912597 426.70632871 234.62810011 428.33535767 230.27890015 C430.14006145 225.47625092 432.23933965 220.96195674 434.59317017 216.4078064 C435.90442004 213.7623827 436.92235919 211.08243181 437.91738892 208.3062439 C439.6796242 203.52303385 441.73402191 198.85149822 443.71035767 194.15390015 C444.36437227 192.58243899 445.01799155 191.01081327 445.67129517 189.4390564 C446.37168936 187.76061813 447.07221033 186.08223276 447.77285767 184.40390015 C448.10116577 183.61201294 448.42947388 182.82012573 448.76773071 182.00424194 C450.62661011 177.56567423 452.6082596 173.24004383 454.82730103 168.96932983 C456.06447491 166.42588913 456.98117603 163.79436991 457.93301392 161.1343689 C458.7116924 159.15049959 459.63758557 157.3414966 460.64785767 155.46640015 C471.83501486 133.43498713 471.73286926 103.47482256 464.71035767 80.15390015 C460.69688096 68.13000584 454.96123318 57.50369756 447.71035767 47.15390015 C447.05035767 46.16390015 446.39035767 45.17390015 445.71035767 44.15390015 C445.05035767 44.15390015 444.39035767 44.15390015 443.71035767 44.15390015 C443.43836548 43.56866577 443.16637329 42.9834314 442.88613892 42.38046265 C434.61554471 26.71854006 412.65811307 14.81496556 396.46244812 9.29909515 C376.738504 3.27904777 356.9118481 3.57267545 336.50542641 3.63100147 C331.76064456 3.64014845 327.01591891 3.62603422 322.27114868 3.61508179 C312.99913936 3.59738717 303.72726031 3.60109783 294.45524609 3.61273235 C286.9031367 3.62181102 279.35106349 3.6229716 271.7989502 3.61863708 C270.7189859 3.61802415 269.63902161 3.61741122 268.52633113 3.61677971 C266.33135739 3.61550062 264.13638366 3.61420376 261.94140995 3.61288935 C241.40038656 3.60150777 220.85943479 3.61455459 200.31842315 3.63609082 C182.77325073 3.65391883 165.22818437 3.65088848 147.68301392 3.63241577 C127.23417133 3.61089547 106.7853916 3.60264875 86.33653927 3.61486483 C84.14529865 3.61613878 81.95405802 3.61739627 79.76281738 3.61863708 C78.68515903 3.61925419 77.60750067 3.61987129 76.49718601 3.62050709 C68.98067269 3.62392978 61.4641999 3.61819816 53.94769287 3.60871887 C44.74815611 3.59737083 35.54875539 3.60080071 26.34923375 3.62184185 C21.67416305 3.6321897 16.99931711 3.63676215 12.32424927 3.62324524 C-5.96312756 3.57493699 -24.02531293 3.99537004 -42.21762085 5.98312378 Z " fill="#C2B48E" transform="translate(387.2896423339844,95.84609985351563)"/>
<path d="M0 0 C2.73380153 2.5038741 5.43092652 5.04540081 8.12597656 7.59082031 C10.28240704 9.59882672 12.50788654 11.5261269 14.7265625 13.46484375 C23.61488348 21.4441319 31.29833983 30.53859123 38.6015625 39.96484375 C39.36984375 40.92648437 40.138125 41.888125 40.9296875 42.87890625 C45.84736739 49.07844121 50.39181927 55.46854984 54.7265625 62.08984375 C55.21229736 62.82468994 55.69803223 63.55953613 56.19848633 64.31665039 C56.64345459 65.00750732 57.08842285 65.69836426 57.546875 66.41015625 C58.14266357 67.33078857 58.14266357 67.33078857 58.75048828 68.27001953 C59.6015625 69.96484375 59.6015625 69.96484375 59.6015625 72.96484375 C60.2615625 72.96484375 60.9215625 72.96484375 61.6015625 72.96484375 C62.56346247 74.69202891 63.52092758 76.42168433 64.4765625 78.15234375 C65.01023437 79.11527344 65.54390625 80.07820312 66.09375 81.0703125 C67.4453556 83.66497506 68.52842384 86.24803702 69.6015625 88.96484375 C70.60154419 90.67448987 71.60152912 92.38413411 72.6015625 94.09375 C73.90822782 96.53864331 74.80643296 99.05137566 75.72216797 101.66308594 C76.64670232 104.08299429 77.73460636 106.3697895 78.859375 108.703125 C82.21888606 116.06635335 84.66306724 123.68092837 87.0390625 131.40234375 C87.39698883 132.55863281 87.39698883 132.55863281 87.762146 133.73828125 C91.46991545 145.84832222 94.21633862 157.96335931 96.2265625 170.46484375 C96.34675751 171.2118454 96.46695251 171.95884705 96.59078979 172.72848511 C98.87657065 187.20616497 99.83500764 201.50456745 99.8515625 216.15234375 C99.85323425 216.93743317 99.85490601 217.72252258 99.85662842 218.53140259 C99.8587022 234.87677426 98.74528539 251.00370881 95.0390625 266.96557617 C94.45487116 269.63518713 94.12113836 272.31599912 93.7890625 275.02734375 C92.91716532 280.95070873 91.34805705 286.41755206 89.48901367 292.08544922 C88.17907952 296.08115729 87.04854431 300.05055968 86.1015625 304.15234375 C83.86445743 313.41496419 80.24502795 322.131953 75.8125 330.55078125 C74.26738322 333.63104631 72.95811059 336.79728689 71.6015625 339.96484375 C65.28621973 353.2830223 58.27443585 366.02625883 49.6015625 377.96484375 C48.85132813 379.04378906 48.10109375 380.12273437 47.328125 381.234375 C41.52836608 389.56035945 35.2574653 397.31160536 28.6015625 404.96484375 C27.47565219 406.29740848 26.3504574 407.63057877 25.2265625 408.96484375 C14.8280799 420.84882387 2.66236077 431.24238001 -9.87597656 440.78466797 C-11.99764908 442.42933843 -14.0332104 444.17279687 -16.0859375 445.90234375 C-30.44753643 457.34965718 -47.00087786 465.86446087 -63.3984375 473.96484375 C-64.21860352 474.37331543 -65.03876953 474.78178711 -65.88378906 475.20263672 C-88.07644503 486.12494057 -111.76865595 493.45240703 -136.12548828 497.55102539 C-138.36647757 497.93077737 -138.36647757 497.93077737 -140.41162109 498.48388672 C-199.3681466 512.75574163 -272.09255303 495.16539036 -323.3984375 465.96484375 C-324.06262695 465.59278809 -324.72681641 465.22073242 -325.41113281 464.83740234 C-341.59547524 455.74647788 -356.50676188 445.27580662 -370.3984375 432.96484375 C-371.26855469 432.19398438 -372.13867188 431.423125 -373.03515625 430.62890625 C-374.67164684 429.16454262 -376.30206024 427.69335394 -377.92578125 426.21484375 C-379.67841988 424.62002566 -381.44266935 423.03792505 -383.21484375 421.46484375 C-388.69996934 416.56927587 -393.68463766 411.59468567 -398.3984375 405.96484375 C-399.31046517 404.92399474 -400.22472404 403.88509857 -401.140625 402.84765625 C-408.11699372 394.90623071 -414.4710961 386.7150846 -420.3984375 377.96484375 C-421.12417969 376.90265625 -421.84992188 375.84046875 -422.59765625 374.74609375 C-427.34657664 367.58434667 -431.58260664 360.18808612 -435.7109375 352.65234375 C-436.2147998 351.73324219 -436.71866211 350.81414062 -437.23779297 349.8671875 C-439.89475759 344.95273507 -442.33802675 340.01094188 -444.5559082 334.88354492 C-445.54823786 332.62370175 -446.67328034 330.45380577 -447.8359375 328.27734375 C-453.71921693 316.56459538 -457.10919309 303.69439005 -460.7590332 291.15087891 C-461.3089797 289.27068762 -461.87911173 287.39642153 -462.453125 285.5234375 C-464.49979231 277.81883451 -465.62016769 269.89831995 -466.89599609 262.03613281 C-467.21205216 260.10416716 -467.53666317 258.17356216 -467.87353516 256.24511719 C-472.99937038 226.66743743 -471.77426448 195.42978301 -465.7980957 166.09570312 C-465.31504358 163.52021205 -464.93243199 160.93384248 -464.53515625 158.34375 C-463.40949893 151.52963615 -461.63350956 144.96753731 -459.7109375 138.33984375 C-459.35499512 137.10927246 -458.99905273 135.87870117 -458.63232422 134.61083984 C-455.74513985 124.81085978 -452.4624608 115.3344011 -448.3984375 105.96484375 C-448.00865723 105.05943848 -447.61887695 104.1540332 -447.21728516 103.22119141 C-445.93941646 100.27426971 -444.642425 97.3366824 -443.3359375 94.40234375 C-442.93648926 93.49758301 -442.53704102 92.59282227 -442.12548828 91.66064453 C-439.73641575 86.40896331 -437.04290436 81.65881252 -433.72045898 76.93896484 C-432.46252159 75.06053792 -431.47218034 73.20081701 -430.5234375 71.15234375 C-424.67168118 59.06976997 -415.63392243 48.47998326 -407.3984375 37.96484375 C-406.625 36.97355469 -405.8515625 35.98226562 -405.0546875 34.9609375 C-395.80239481 23.37830989 -385.58822612 12.67885056 -374.3984375 2.96484375 C-373.63660156 2.25328125 -372.87476563 1.54171875 -372.08984375 0.80859375 C-346.40059586 -23.15116454 -313.54916589 -40.75470075 -280.56787109 -52.27099609 C-278.67662467 -52.93716775 -276.79622101 -53.63396443 -274.91796875 -54.3359375 C-183.82087153 -87.12234881 -71.71248144 -64.74671319 0 0 Z M-368.3984375 2.96484375 C-368.98761963 3.46935059 -369.57680176 3.97385742 -370.18383789 4.49365234 C-382.93290945 15.44966158 -395.24513407 27.54428585 -405.3984375 40.96484375 C-406.54892578 42.38990234 -406.54892578 42.38990234 -407.72265625 43.84375 C-423.70040277 63.88491086 -437.03091888 87.11135956 -446.3984375 110.96484375 C-446.71232422 111.75729492 -447.02621094 112.54974609 -447.34960938 113.36621094 C-460.57026619 147.13944829 -467.50229542 182.66650115 -467.3984375 218.96484375 C-467.40101563 219.79886719 -467.40359375 220.63289063 -467.40625 221.4921875 C-467.15770565 299.1622975 -431.10077079 369.43726216 -377.18066406 423.43603516 C-371.16255684 429.3644142 -364.91576907 434.71807467 -358.10498047 439.70703125 C-356.35204606 440.9990367 -354.62654184 442.32228903 -352.90234375 443.65234375 C-342.91075572 451.27732448 -332.29836077 457.72750637 -321.3984375 463.96484375 C-320.33568604 464.57972656 -320.33568604 464.57972656 -319.25146484 465.20703125 C-306.54755702 472.49610857 -293.08862937 477.82327848 -279.3984375 482.96484375 C-278.59293457 483.2705127 -277.78743164 483.57618164 -276.95751953 483.89111328 C-209.59887244 509.10041044 -130.74267352 501.8925515 -66.09765625 472.65625 C-40.34622372 460.67709772 -16.79039511 444.89035842 3.91796875 425.4609375 C6.20441223 423.33424553 8.53143334 421.29411814 10.9140625 419.27734375 C14.17518832 416.4456666 16.98996044 413.39240596 19.77734375 410.09765625 C21.70163599 407.84784134 23.70992035 405.69459123 25.7265625 403.52734375 C43.99721031 383.20939075 58.95397967 359.63768049 70.6015625 334.96484375 C71.41367188 333.25554687 71.41367188 333.25554687 72.2421875 331.51171875 C87.55818863 298.3988638 95.65948935 261.37801913 96.6015625 224.96484375 C96.64152344 223.76730469 96.68148437 222.56976563 96.72265625 221.3359375 C97.49589921 176.98817939 87.41119093 132.60403984 67.6015625 92.96484375 C67.25432129 92.25714844 66.90708008 91.54945313 66.54931641 90.8203125 C57.3502405 72.17255776 45.88324396 54.95142341 32.6015625 38.96484375 C32.14152832 38.40861328 31.68149414 37.85238281 31.20751953 37.27929688 C28.04791061 33.47075205 24.84158721 29.70512142 21.6015625 25.96484375 C20.80621094 25.04445313 20.01085937 24.1240625 19.19140625 23.17578125 C15.29014602 18.74587683 11.31837573 14.6541533 6.80078125 10.85546875 C4.15245505 8.57875493 1.64028967 6.17560154 -0.8984375 3.77734375 C-56.58778597 -47.82217897 -131.68280642 -66.66404524 -205.74206543 -64.15167236 C-265.02167789 -61.55149819 -324.20514412 -36.32464836 -368.3984375 2.96484375 Z " fill="#C0B28C" transform="translate(570.3984375,230.03515625)"/>
<path d="M0 0 C9.93406409 6.6127803 16.59341009 15.33712659 19.48046875 27.046875 C21.64794073 38.98881196 19.06426049 49.89676755 12.171875 59.8828125 C4.9646679 69.01475132 -4.24885034 74.60062014 -15.83203125 76.421875 C-26.36897526 77.36710086 -36.82478087 75.74734781 -45.45703125 69.296875 C-46.58706795 68.34448599 -47.71269623 67.38681898 -48.83203125 66.421875 C-49.82203125 65.761875 -50.81203125 65.101875 -51.83203125 64.421875 C-51.83203125 63.761875 -51.83203125 63.101875 -51.83203125 62.421875 C-52.49203125 62.421875 -53.15203125 62.421875 -53.83203125 62.421875 C-62.04582271 50.7985852 -63.95822486 40.97444173 -62.58984375 26.9375 C-61.11937488 18.47480162 -56.22398112 11.03431879 -49.83203125 5.421875 C-49.09919922 4.68517578 -49.09919922 4.68517578 -48.3515625 3.93359375 C-35.5047108 -8.36398638 -14.89101849 -8.29789168 0 0 Z " fill="#AA996C" transform="translate(406.83203125,411.578125)"/>
<path d="M0 0 C0.72316406 0.63035156 1.44632813 1.26070312 2.19140625 1.91015625 C2.19140625 2.57015625 2.19140625 3.23015625 2.19140625 3.91015625 C2.7740625 4.15507812 3.35671875 4.4 3.95703125 4.65234375 C10.93849906 8.58247074 14.97920349 16.9153012 18.50390625 23.84765625 C18.82907227 24.47881348 19.15423828 25.1099707 19.48925781 25.76025391 C24.43098382 35.88745668 25.6958837 45.59383376 25.62890625 56.78515625 C25.64888672 57.96207031 25.66886719 59.13898438 25.68945312 60.3515625 C25.68342906 71.30330685 23.06292056 81.06161789 17.94140625 90.72265625 C17.420625 91.71910156 16.89984375 92.71554688 16.36328125 93.7421875 C15.9765625 94.45761719 15.58984375 95.17304688 15.19140625 95.91015625 C14.53140625 95.91015625 13.87140625 95.91015625 13.19140625 95.91015625 C12.86140625 97.23015625 12.53140625 98.55015625 12.19140625 99.91015625 C11.53140625 99.91015625 10.87140625 99.91015625 10.19140625 99.91015625 C10.00578125 100.59078125 9.82015625 101.27140625 9.62890625 101.97265625 C6.75539092 107.84462236 2.32713841 111.74460372 -3.80859375 113.91015625 C-4.13859375 114.90015625 -4.46859375 115.89015625 -4.80859375 116.91015625 C-7.13671875 118.41015625 -7.13671875 118.41015625 -10.05859375 119.91015625 C-14.19015763 122.04358109 -14.19015763 122.04358109 -18.15625 124.4609375 C-32.69448916 132.40451147 -52.26009394 131.63813609 -67.68359375 127.34765625 C-75.82694076 124.90090149 -82.83688133 121.84617242 -89.80859375 116.91015625 C-90.57816406 116.40097656 -91.34773437 115.89179688 -92.140625 115.3671875 C-96.98708326 111.92968208 -100.83889923 107.83704233 -104.68359375 103.34765625 C-105.14838135 102.80544434 -105.61316895 102.26323242 -106.09204102 101.70458984 C-108.91290748 98.29765649 -110.96933249 94.9221121 -112.80859375 90.91015625 C-113.23140625 90.07355469 -113.65421875 89.23695313 -114.08984375 88.375 C-122.10828205 71.74702058 -123.72295148 52.23908995 -118.1953125 34.53125 C-110.61079619 14.72604826 -98.75214549 -0.77338078 -79.30859375 -10.02734375 C-52.61999226 -21.88631585 -23.11800297 -17.201852 0 0 Z M-100.80859375 10.91015625 C-112.66689572 25.21540942 -119.30220904 43.39471937 -117.61279297 62.07519531 C-116.53222906 70.73114111 -114.69654538 79.05490705 -110.80859375 86.91015625 C-110.38835938 87.79960937 -109.968125 88.6890625 -109.53515625 89.60546875 C-101.98324152 104.58412834 -88.54399181 116.59254569 -72.60546875 121.99609375 C-53.20176745 128.13044775 -34.15378136 127.82603653 -15.49609375 119.16015625 C2.69663528 109.40534176 13.99420028 93.76774953 20.24609375 74.453125 C25.06917208 56.37654629 21.95073196 38.14244303 13.19140625 21.91015625 C2.64556122 4.65526754 -12.37456406 -6.05290216 -31.80859375 -11.08984375 C-57.54786536 -16.3817715 -82.59700908 -8.0498497 -100.80859375 10.91015625 Z " fill="#C5B891" transform="translate(777.80859375,160.08984375)"/>
<path d="M0 0 C6.32373638 5.25863717 11.26569913 11.09169719 15.66259766 18.07006836 C16.13052734 18.77260742 16.59845703 19.47514648 17.08056641 20.19897461 C27.05160036 36.36738966 28.68358334 56.27926759 24.63525391 74.46850586 C19.28519794 94.27875326 7.04530284 109.52748904 -10.33740234 120.07006836 C-27.05088536 129.49695375 -46.41268683 131.68417323 -64.93505859 127.10131836 C-76.22091327 123.6805771 -85.34779471 118.69483046 -94.33740234 111.07006836 C-95.06572266 110.45518555 -95.79404297 109.84030273 -96.54443359 109.20678711 C-108.7731686 97.94284382 -117.27086459 80.94900908 -118.54272461 64.39819336 C-119.32784258 42.2301564 -114.55928453 23.75499443 -99.33740234 7.07006836 C-98.82048828 6.46163086 -98.30357422 5.85319336 -97.77099609 5.22631836 C-72.64551112 -22.48098337 -28.25404896 -22.20304699 0 0 Z M-70.33740234 -7.92993164 C-71.17658203 -7.64118164 -72.01576172 -7.35243164 -72.88037109 -7.05493164 C-90.2609725 -1.01887782 -102.30581372 13.5159861 -110.14990234 29.57006836 C-116.20488273 43.77138749 -117.29866577 65.42131902 -111.60253906 79.94360352 C-103.94637923 97.87730218 -91.10908963 112.75883938 -72.95458984 120.51538086 C-56.12492696 127.10417505 -36.7325562 127.34446354 -19.58740234 121.19506836 C-7.66159326 115.87552983 3.54602566 107.03343603 10.66259766 96.07006836 C11.70673828 94.49999023 11.70673828 94.49999023 12.77197266 92.89819336 C22.45901677 77.63934398 25.65459521 59.13470552 21.74462891 41.40600586 C16.72703347 21.87864465 4.89106179 7.34012833 -11.91552734 -3.60961914 C-28.93675907 -13.61332551 -52.1066757 -16.30385392 -70.33740234 -7.92993164 Z " fill="#C0B28D" transform="translate(267.33740234375,332.929931640625)"/>
<path d="M0 0 C15.31423735 11.96363201 23.72622381 27.57753891 27.671875 46.41015625 C29.21625605 58.99769216 27.80333021 70.34444796 24.03515625 82.37109375 C23.75800781 83.28375 23.48085938 84.19640625 23.1953125 85.13671875 C17.27132733 102.06239066 3.50548801 115.04932518 -11.96484375 123.37109375 C-29.29592925 131.54913754 -48.71725559 133.14015699 -66.96337891 127.09863281 C-86.66697419 119.93631103 -101.33795419 107.06540362 -110.42578125 88.0390625 C-118.94068482 67.74592938 -118.78934363 47.88523697 -110.484375 27.51171875 C-101.09339339 8.10208066 -85.32451337 -4.56377021 -65.4140625 -11.9453125 C-42.74768255 -18.93269279 -18.93196121 -14.01045108 0 0 Z M-99.37890625 16.296875 C-111.26827734 31.84676674 -114.43407344 49.28140616 -112.96484375 68.37109375 C-110.71677979 84.41319927 -101.13485829 101.1897433 -88.44921875 111.3203125 C-87.21337053 112.24514603 -85.96830664 113.1577782 -84.71484375 114.05859375 C-84.05661621 114.53554688 -83.39838867 115.0125 -82.72021484 115.50390625 C-77.71963774 119.03401299 -72.82812424 121.56700745 -66.96484375 123.37109375 C-66.36212646 123.61537109 -65.75940918 123.85964844 -65.13842773 124.11132812 C-58.37884485 126.71051469 -51.9669585 126.90964799 -44.77734375 126.87109375 C-43.57859619 126.86682373 -42.37984863 126.86255371 -41.14477539 126.8581543 C-32.09571287 126.68419297 -25.10532351 125.49256742 -16.96484375 121.37109375 C-16.07410156 120.98695313 -15.18335938 120.6028125 -14.265625 120.20703125 C3.31132602 112.2933657 15.29450514 97.03913579 22.03515625 79.37109375 C26.86331425 62.90937408 25.59481586 41.81472414 17.84765625 26.62109375 C8.29997886 10.13329792 -6.72576186 -3.63242343 -25.22631836 -9.28710938 C-53.90285167 -16.57735151 -80.73813729 -5.97578087 -99.37890625 16.296875 Z " fill="#C0B28D" transform="translate(592.96484375,331.62890625)"/>
<path d="M0 0 C6.00628866 4.66523639 10.81970862 9.5709401 15.07421875 15.8671875 C15.60789062 16.63675781 16.1415625 17.40632813 16.69140625 18.19921875 C26.05443261 32.61641605 28.47948379 51.2632298 25.42578125 68.05859375 C20.96503194 86.34004073 10.78639485 100.67286154 -4.92578125 110.8671875 C-21.40330894 120.56366185 -39.15166642 124.23841381 -57.92578125 119.8671875 C-76.89220409 114.50772201 -92.11315992 103.54502613 -102.16796875 86.38671875 C-110.38895864 69.92647011 -113.11904263 50.88895421 -107.25390625 33.2109375 C-99.59085817 13.91808704 -88.03091512 -0.12978124 -68.92578125 -9.1328125 C-44.45848002 -17.72378593 -21.03978871 -15.33741607 0 0 Z M-93.67578125 14.3671875 C-104.77933046 29.88419782 -107.67077607 47.12326811 -105.92578125 65.8671875 C-104.11417846 75.31887326 -100.05839297 84.43975521 -93.92578125 91.8671875 C-93.25675781 92.68445313 -92.58773438 93.50171875 -91.8984375 94.34375 C-81.11215226 106.89299575 -67.87405667 116.53199935 -50.92578125 117.8671875 C-34.48437566 118.72010353 -21.59209491 116.36063191 -6.92578125 108.8671875 C-6.92578125 108.2071875 -6.92578125 107.5471875 -6.92578125 106.8671875 C-6.21164062 106.6403125 -5.4975 106.4134375 -4.76171875 106.1796875 C5.04651977 101.64033744 14.13981379 89.29533888 17.796875 79.4140625 C24.59236489 59.89795115 24.51631457 43.54338015 15.92578125 24.39453125 C10.4061104 13.87920894 3.15369352 6.23240495 -6.92578125 -0.1328125 C-7.7146875 -0.68582031 -8.50359375 -1.23882812 -9.31640625 -1.80859375 C-36.40193244 -19.88055907 -74.16896347 -9.81728557 -93.67578125 14.3671875 Z " fill="#C3B68F" transform="translate(426.92578125,225.1328125)"/>
<path d="M0 0 C15.43750093 12.10823244 25.59811502 28.78747811 28.04296875 48.38671875 C29.69361058 67.61289376 25.69746443 85.74019918 13.875 101.2265625 C11.69281947 103.73317341 9.42227479 106.06739521 7.04296875 108.38671875 C6.30691406 109.155 5.57085938 109.92328125 4.8125 110.71484375 C-9.15700812 124.47375627 -27.67206437 129.64845602 -46.77661133 129.70800781 C-54.78247642 129.60560802 -61.43122316 128.21501334 -68.95703125 125.38671875 C-69.85550781 125.08636719 -70.75398438 124.78601563 -71.6796875 124.4765625 C-88.17634986 118.5867186 -100.95284925 105.39508275 -108.64453125 90.01171875 C-116.78729248 72.78664692 -119.1557695 52.72790107 -112.921875 34.33203125 C-108.45280445 23.03720986 -102.44783465 14.04847792 -93.95703125 5.38671875 C-93.291875 4.68546875 -92.62671875 3.98421875 -91.94140625 3.26171875 C-67.08950945 -21.02105064 -26.80802459 -19.76757423 0 0 Z M-87.95703125 3.38671875 C-87.95703125 4.04671875 -87.95703125 4.70671875 -87.95703125 5.38671875 C-88.52421875 5.62003906 -89.09140625 5.85335937 -89.67578125 6.09375 C-96.36478668 9.88494999 -101.72891276 17.50942283 -104.95703125 24.38671875 C-104.95703125 25.37671875 -104.95703125 26.36671875 -104.95703125 27.38671875 C-105.61703125 27.38671875 -106.27703125 27.38671875 -106.95703125 27.38671875 C-107.77330571 29.78132463 -108.5851477 32.17728401 -109.39453125 34.57421875 C-109.62462891 35.24775391 -109.85472656 35.92128906 -110.09179688 36.61523438 C-115.62431218 53.05241753 -114.47183064 71.88348305 -106.91601562 87.54443359 C-96.70451866 106.82546824 -81.42569528 118.65420012 -60.95703125 125.38671875 C-47.68731517 129.15087464 -28.26099053 127.06133848 -15.76953125 121.32421875 C-14.13621708 120.39448607 -12.53452093 119.40830789 -10.95703125 118.38671875 C-10.41449707 118.03689941 -9.87196289 117.68708008 -9.31298828 117.32666016 C-0.23482592 111.38931905 9.26465832 104.99932598 13.04296875 94.38671875 C13.70296875 94.38671875 14.36296875 94.38671875 15.04296875 94.38671875 C24.55394655 75.7716499 27.59221399 55.43880435 21.35546875 35.0625 C15.76829621 19.41509118 5.3061906 6.93962074 -8.95703125 -1.61328125 C-9.61703125 -1.61328125 -10.27703125 -1.61328125 -10.95703125 -1.61328125 C-10.95703125 -2.27328125 -10.95703125 -2.93328125 -10.95703125 -3.61328125 C-13.14349429 -4.40780735 -15.33125346 -5.19876705 -17.51953125 -5.98828125 C-18.73769531 -6.42914062 -19.95585937 -6.87 -21.2109375 -7.32421875 C-22.44714844 -7.74960937 -23.68335938 -8.175 -24.95703125 -8.61328125 C-26.02179688 -8.98710938 -27.0865625 -9.3609375 -28.18359375 -9.74609375 C-48.8998815 -14.50697976 -71.24647906 -9.7219123 -87.95703125 3.38671875 Z " fill="#BCAD88" transform="translate(530.95703125,526.61328125)"/>
<path d="M0 0 C3.66101999 3.00081854 6.96617469 6.28059118 10.24755859 9.68798828 C10.91142578 10.33251953 11.57529297 10.97705078 12.25927734 11.64111328 C25.91395292 25.75605883 29.65844862 44.59253841 29.39208984 63.51220703 C28.87084652 82.44223892 20.05099313 99.6333854 6.43505859 112.56298828 C-11.31115286 127.43442405 -30.07634246 131.92559227 -52.75244141 130.68798828 C-56.96407227 130.11161207 -60.76080203 129.13263683 -64.75244141 127.68798828 C-65.74244141 127.33607422 -66.73244141 126.98416016 -67.75244141 126.62158203 C-86.9077754 119.21843637 -99.95903071 106.34674886 -109.02197266 88.13720703 C-116.73942069 70.47667988 -116.33289818 52.673781 -110.75244141 34.68798828 C-110.47529297 33.77404297 -110.19814453 32.86009766 -109.91259766 31.91845703 C-104.03314428 15.14711305 -90.24098893 1.76701716 -74.75244141 -6.31201172 C-70.21758139 -8.38102666 -65.5291984 -9.90325315 -60.75244141 -11.31201172 C-60.01123047 -11.55693359 -59.27001953 -11.80185547 -58.50634766 -12.05419922 C-39.38292691 -17.49673222 -15.70889737 -11.76088249 0 0 Z M-69.75244141 -4.31201172 C-70.92419922 -3.84279297 -72.09595703 -3.37357422 -73.30322266 -2.89013672 C-76.68967169 -1.34073082 -79.40568895 0.39453291 -82.37744141 2.62548828 C-83.72708984 3.62902344 -83.72708984 3.62902344 -85.10400391 4.65283203 C-86.41498047 5.66023437 -86.41498047 5.66023437 -87.75244141 6.68798828 C-89.02667969 7.64898438 -89.02667969 7.64898438 -90.32666016 8.62939453 C-92.88269014 10.79852142 -94.86668168 13.05731444 -96.93994141 15.68798828 C-97.61412109 16.53361328 -98.28830078 17.37923828 -98.98291016 18.25048828 C-101.38106857 21.5539118 -102.75244141 23.56577171 -102.75244141 27.68798828 C-103.41244141 27.68798828 -104.07244141 27.68798828 -104.75244141 27.68798828 C-112.52802479 43.23915505 -112.92584979 63.22296574 -109.04541016 79.96533203 C-104.53064564 92.96403469 -95.36755132 107.02695834 -83.75244141 114.68798828 C-83.09244141 114.68798828 -82.43244141 114.68798828 -81.75244141 114.68798828 C-81.75244141 115.34798828 -81.75244141 116.00798828 -81.75244141 116.68798828 C-62.59428725 126.4838138 -44.22637679 131.22964902 -22.75244141 125.68798828 C-19.6016212 124.5993328 -16.70652703 123.22594008 -13.75244141 121.68798828 C-12.87845703 121.26646484 -12.00447266 120.84494141 -11.10400391 120.41064453 C-3.97601367 116.80671669 1.60833167 112.31752581 7.24755859 106.68798828 C7.87404297 106.07310547 8.50052734 105.45822266 9.14599609 104.82470703 C22.12485684 91.11174783 26.89743293 74.11035058 26.72509766 55.58618164 C26.45379296 48.18550788 24.85946808 41.63801734 22.24755859 34.68798828 C21.79703125 33.46402344 21.79703125 33.46402344 21.33740234 32.21533203 C18.80520002 25.99992633 15.30102363 20.02937694 11.24755859 14.68798828 C10.58755859 14.68798828 9.92755859 14.68798828 9.24755859 14.68798828 C8.97427734 14.08341797 8.70099609 13.47884766 8.41943359 12.85595703 C3.264827 3.31993483 -11.54397274 -4.15748534 -21.62744141 -7.37451172 C-37.49571858 -11.87692308 -54.72751699 -10.9876665 -69.75244141 -4.31201172 Z " fill="#BCAC88" transform="translate(325.75244140625,525.31201171875)"/>
<path d="M0 0 C9.93406409 6.6127803 16.59341009 15.33712659 19.48046875 27.046875 C21.64794073 38.98881196 19.06426049 49.89676755 12.171875 59.8828125 C4.9646679 69.01475132 -4.24885034 74.60062014 -15.83203125 76.421875 C-26.36897526 77.36710086 -36.82478087 75.74734781 -45.45703125 69.296875 C-46.58706795 68.34448599 -47.71269623 67.38681898 -48.83203125 66.421875 C-49.82203125 65.761875 -50.81203125 65.101875 -51.83203125 64.421875 C-51.83203125 63.761875 -51.83203125 63.101875 -51.83203125 62.421875 C-52.49203125 62.421875 -53.15203125 62.421875 -53.83203125 62.421875 C-62.04582271 50.7985852 -63.95822486 40.97444173 -62.58984375 26.9375 C-61.11937488 18.47480162 -56.22398112 11.03431879 -49.83203125 5.421875 C-49.09919922 4.68517578 -49.09919922 4.68517578 -48.3515625 3.93359375 C-35.5047108 -8.36398638 -14.89101849 -8.29789168 0 0 Z M-51.83203125 11.421875 C-57.93751944 19.67858407 -59.02609948 26.75386089 -59.14453125 36.796875 C-59.17353516 37.60898437 -59.20253906 38.42109375 -59.23242188 39.2578125 C-59.33939366 49.52710364 -53.85432325 57.23600215 -46.83203125 64.421875 C-37.30097667 71.76281491 -28.08605138 74.86782833 -16.02832031 73.79345703 C-6.55868846 72.19132501 2.8499834 66.31351095 8.6171875 58.73046875 C9.12894531 57.96863281 9.64070313 57.20679688 10.16796875 56.421875 C10.69003906 55.73222656 11.21210938 55.04257812 11.75 54.33203125 C17.3667667 45.52778813 16.50687943 32.50953898 14.33203125 22.62109375 C10.26890281 11.45430787 1.43731949 4.18487431 -9.0078125 -0.8515625 C-24.81823785 -7.1486484 -41.04899574 -0.68270483 -51.83203125 11.421875 Z " fill="#BFB18C" transform="translate(406.83203125,411.578125)"/>
</svg>
